<?xml version="1.0" encoding="UTF-8" standalone="no"?>
<!-- Created with Inkscape (http://www.inkscape.org/) -->

<svg
   xmlns:dc="http://purl.org/dc/elements/1.1/"
   xmlns:cc="http://creativecommons.org/ns#"
   xmlns:rdf="http://www.w3.org/1999/02/22-rdf-syntax-ns#"
   xmlns:svg="http://www.w3.org/2000/svg"
   xmlns="http://www.w3.org/2000/svg"
   xmlns:sodipodi="http://sodipodi.sourceforge.net/DTD/sodipodi-0.dtd"
   xmlns:inkscape="http://www.inkscape.org/namespaces/inkscape"
   id="svg2"
   version="1.1"
   inkscape:version="0.48.4 r9939"
   width="1139.525"
   height="582.75"
   xml:space="preserve"
   sodipodi:docname="line_vortex_streamlines.svg"><metadata
     id="metadata8"><rdf:RDF><cc:Work
         rdf:about=""><dc:format>image/svg+xml</dc:format><dc:type
           rdf:resource="http://purl.org/dc/dcmitype/StillImage" /><dc:title></dc:title></cc:Work></rdf:RDF></metadata><defs
     id="defs6" /><sodipodi:namedview
     pagecolor="#ffffff"
     bordercolor="#666666"
     borderopacity="1"
     objecttolerance="10"
     gridtolerance="10"
     guidetolerance="10"
     inkscape:pageopacity="0"
     inkscape:pageshadow="2"
     inkscape:window-width="1920"
     inkscape:window-height="1018"
     id="namedview4"
     showgrid="false"
     inkscape:zoom="0.61078079"
     inkscape:cx="707.09712"
     inkscape:cy="112.45347"
     inkscape:window-x="-8"
     inkscape:window-y="5"
     inkscape:window-maximized="1"
     inkscape:current-layer="g12" /><g
     id="g10"
     inkscape:groupmode="layer"
     inkscape:label="ink_ext_XXXXXX"
     transform="matrix(1.25,0,0,-1.25,0,582.75)"><g
       id="g12"
       transform="scale(0.1,0.1)"><path
         d="M 5864.4832,1224.8459 C 5240.3187,516.74331 4147.2763,461.7626 3423.1303,1102.0606 c -724.1611,640.3113 -805.208,1733.4348 -181.0433,2441.5372 624.1512,708.0875 1717.1749,763.0321 2441.336,122.7208 724.1461,-640.2981 805.2114,-1733.3854 181.0602,-2441.4727 l 0,0 z"
         style="fill:none;stroke:#ed1d24;stroke-width:50.18452454;stroke-linecap:butt;stroke-linejoin:miter;stroke-miterlimit:4;stroke-opacity:1;stroke-dasharray:none"
         id="path20"
         inkscape:connector-curvature="0" /><path
         d="M 5533.2609,1517.7163 C 5066.7528,988.472 4249.8414,947.40371 3708.6273,1425.9513 c -541.2293,478.5609 -601.8187,1295.5252 -135.3105,1824.7694 466.4748,529.2066 1283.3995,570.2901 1824.6287,91.7292 541.2141,-478.5476 601.7902,-1295.5271 135.3154,-1824.7336 l 0,0 z"
         style="fill:none;stroke:#ed1d24;stroke-width:50.18452454;stroke-linecap:butt;stroke-linejoin:miter;stroke-miterlimit:4;stroke-opacity:1;stroke-dasharray:none"
         id="path22"
         inkscape:connector-curvature="0" /><path
         d="m 5179.76,1830.2588 c -301.3311,-341.8543 -828.9915,-368.3867 -1178.5834,-59.2737 -349.5919,309.1131 -388.7374,836.8216 -87.4061,1178.6758 301.3244,341.8468 828.9997,368.366 1178.5917,59.2529 349.5918,-309.1131 388.7224,-836.8083 87.3978,-1178.655 l 0,0 z"
         style="fill:none;stroke:#ed1d24;stroke-width:50.18452454;stroke-linecap:butt;stroke-linejoin:miter;stroke-miterlimit:4;stroke-opacity:1;stroke-dasharray:none"
         id="path24"
         inkscape:connector-curvature="0" /><path
         d="m 4552,86.1211 0,4489.7889"
         style="fill:none;stroke:#100f0d;stroke-opacity:1;stroke-width:30;stroke-linecap:butt;stroke-linejoin:miter;stroke-miterlimit:4;stroke-dasharray:none"
         id="path26" /><path
         d="M 4611.84,103.629 4552,0 l -59.83,103.629 119.67,0"
         style="fill:#100f0d;fill-opacity:1;fill-rule:nonzero;stroke:none"
         id="path28" /><path
         d="m 4611.84,4558.4 -59.84,103.62 -59.83,-103.62 119.67,0"
         style="fill:#100f0d;fill-opacity:1;fill-rule:nonzero;stroke:none"
         id="path30" /><path
         d="m 86.1133,2371.19 8943.9867,0"
         style="fill:none;stroke:#100f0d;stroke-opacity:1;stroke-width:30;stroke-linecap:butt;stroke-linejoin:miter;stroke-miterlimit:4;stroke-dasharray:none"
         id="path32" /><path
         d="M 103.621,2311.36 0,2371.19 l 103.621,59.84 0,-119.67"
         style="fill:#100f0d;fill-opacity:1;fill-rule:nonzero;stroke:none"
         id="path34" /><path
         d="m 9012.59,2311.36 103.62,59.83 -103.62,59.84 0,-119.67"
         style="fill:#100f0d;fill-opacity:1;fill-rule:nonzero;stroke:none"
         id="path36" /><path
         d="m 5181.5946,2940.8248 c -70.4766,27.7847 -166.167,53.0679 -238.7753,53.9342 l 111.9738,60.323 48.051,117.88 c 8.5206,-72.2269 43.7187,-164.8821 78.7505,-232.1372"
         style="fill:#ed1d24;fill-opacity:1;fill-rule:nonzero;stroke:none"
         id="path38"
         inkscape:connector-curvature="0" /><path
         d="m 5481.5936,3281.1677 c -70.4833,27.7771 -166.1738,53.0603 -238.782,53.9268 l 111.9738,60.3229 48.0576,117.8874 c 8.514,-72.2342 43.7119,-164.8896 78.7506,-232.1371"
         style="fill:#ed1d24;fill-opacity:1;fill-rule:nonzero;stroke:none"
         id="path40"
         inkscape:connector-curvature="0" /><path
         d="m 5761.5957,3598.8246 c -70.4833,27.7772 -166.1738,53.0603 -238.7822,53.9266 l 111.9741,60.3232 48.0575,117.8873 c 8.514,-72.2344 43.7121,-164.8895 78.7506,-232.1371"
         style="fill:#ed1d24;fill-opacity:1;fill-rule:nonzero;stroke:none"
         id="path42"
         inkscape:connector-curvature="0" /></g></g></svg>