<?xml version="1.0" standalone="no"?><!DOCTYPE svg PUBLIC "-//W3C//DTD SVG 1.1//EN" "http://www.w3.org/Graphics/SVG/1.1/DTD/svg11.dtd"><svg xmlns="http://www.w3.org/2000/svg" viewBox="0 0 650 400" version="1.1"><clipPath id="box"><rect x="0" y="0" width="650" height="400" style="fill:none;stroke:none;" /></clipPath><g clip-path="url(#box)"><rect x="0.00" y="0.00" width="650.00" height="400.00" style="fill:#FFFFFF;stroke:none;" /><path d="M325.00 0.00 L325.00 400.00 " style="fill:none;stroke:#000000;stroke-width:1;" /><path d="M0.00 200.00 L650.00 200.00 " style="fill:none;stroke:#000000;stroke-width:1;" /><path d="M-10.00 200.00 L-0.25 218.77 L0.75 218.82 L2.75 218.94 L4.75 219.06 L6.75 219.18 L8.75 219.30 L10.75 219.42 L12.75 219.55 L14.75 219.67 L16.75 219.80 L18.75 219.93 L20.75 220.06 L22.75 220.19 L24.75 220.33 L26.75 220.46 L28.75 220.60 L30.75 220.74 L32.75 220.88 L34.75 221.03 L36.75 221.17 L38.75 221.32 L40.75 221.47 L42.75 221.62 L44.75 221.78 L46.75 221.94 L48.75 222.09 L50.75 222.26 L52.75 222.42 L54.75 222.58 L56.75 222.75 L58.75 222.92 L60.75 223.10 L62.75 223.27 L64.75 223.45 L66.75 223.63 L68.75 223.82 L70.75 224.01 L72.75 224.20 L74.75 224.39 L76.75 224.59 L78.75 224.79 L80.75 224.99 L82.75 225.20 L84.75 225.40 L86.75 225.62 L88.75 225.84 L90.75 226.06 L92.75 226.28 L94.75 226.51 L96.75 226.74 L98.75 226.98 L100.75 227.22 L102.75 227.46 L104.75 227.71 L106.75 227.97 L108.75 228.22 L110.75 228.49 L112.75 228.76 L114.75 229.03 L116.75 229.31 L118.75 229.59 L120.75 229.88 L122.75 230.18 L124.75 230.48 L126.75 230.79 L128.75 231.10 L130.75 231.42 L132.75 231.75 L134.75 232.08 L136.75 232.42 L138.75 232.77 L140.75 233.13 L142.75 233.49 L144.75 233.86 L146.75 234.24 L148.75 234.63 L150.75 235.03 L152.75 235.43 L154.75 235.85 L156.75 236.28 L158.75 236.71 L160.75 237.16 L162.75 237.62 L164.75 238.09 L166.75 238.57 L168.75 239.06 L170.75 239.57 L172.75 240.09 L174.75 240.62 L176.75 241.17 L178.75 241.73 L180.75 242.31 L182.75 242.91 L184.75 243.52 L186.75 244.15 L188.75 244.80 L190.75 245.46 L192.75 246.15 L194.75 246.86 L196.75 247.59 L198.75 248.34 L200.75 249.12 L202.75 249.93 L204.75 250.76 L206.75 251.62 L208.75 252.50 L210.75 253.42 L212.75 254.37 L214.75 255.36 L216.75 256.38 L218.71 257.42 L220.59 258.46 L222.41 259.49 L224.16 260.53 L225.86 261.56 L227.50 262.60 L229.08 263.63 L230.61 264.66 L232.10 265.70 L233.53 266.73 L234.93 267.76 L236.28 268.79 L237.58 269.82 L238.86 270.85 L240.09 271.88 L241.29 272.91 L242.45 273.94 L243.58 274.97 L244.69 276.00 L245.76 277.02 L246.80 278.05 L247.81 279.08 L248.80 280.10 L249.77 281.13 L250.71 282.15 L251.62 283.18 L252.52 284.20 L253.39 285.23 L254.24 286.25 L255.07 287.28 L255.88 288.30 L256.67 289.32 L257.44 290.35 L258.20 291.37 L258.94 292.39 L259.66 293.42 L260.37 294.44 L261.06 295.46 L261.74 296.48 L262.40 297.50 L263.05 298.52 L263.69 299.54 L264.31 300.57 L264.92 301.59 L265.52 302.61 L266.10 303.63 L266.67 304.65 L267.24 305.67 L267.79 306.69 L268.33 307.70 L268.86 308.72 L269.38 309.74 L269.89 310.76 L270.40 311.78 L270.89 312.80 L271.37 313.82 L271.85 314.83 L272.32 315.85 L272.78 316.87 L273.23 317.89 L273.67 318.91 L274.10 319.92 L274.53 320.94 L274.95 321.96 L275.37 322.97 L275.77 323.99 L276.17 325.01 L276.57 326.02 L276.96 327.04 L277.34 328.06 L277.71 329.07 L278.08 330.09 L278.44 331.10 L278.80 332.12 L279.16 333.13 L279.50 334.15 L279.84 335.16 L280.18 336.18 L280.51 337.19 L280.84 338.21 L281.16 339.22 L281.48 340.24 L281.79 341.25 L282.10 342.27 L282.40 343.28 L282.70 344.30 L283.00 345.31 L283.29 346.33 L283.58 347.34 L283.86 348.35 L284.14 349.37 L284.41 350.38 L284.68 351.39 L284.95 352.41 L285.22 353.42 L285.48 354.43 L285.74 355.45 L285.99 356.46 L286.24 357.47 L286.49 358.49 L286.73 359.50 L286.97 360.51 L287.21 361.52 L287.45 362.54 L287.68 363.55 L287.91 364.56 L288.14 365.57 L288.36 366.59 L288.58 367.60 L288.80 368.61 L289.02 369.62 L289.23 370.64 L289.44 371.65 L289.65 372.66 L289.86 373.67 L290.06 374.68 L290.26 375.69 L290.46 376.71 L290.66 377.72 L290.85 378.73 L291.04 379.74 L291.23 380.75 L291.42 381.76 L291.61 382.77 L291.79 383.79 L291.97 384.80 L292.15 385.81 L292.33 386.82 L292.50 387.83 L292.68 388.84 L292.85 389.85 L293.02 390.86 L293.19 391.87 L293.36 392.88 L293.52 393.89 L293.68 394.90 L293.85 395.91 L294.01 396.92 L294.16 397.93 L294.32 398.95 L294.48 399.96 L294.63 400.97 M355.52 -0.00 L355.52 0.00 L355.67 1.00 L355.82 1.99 L355.98 2.98 L356.14 3.97 L356.29 4.96 L356.45 5.95 L356.61 6.94 L356.78 7.93 L356.94 8.92 L357.11 9.91 L357.28 10.90 L357.45 11.89 L357.62 12.88 L357.79 13.87 L357.97 14.85 L358.14 15.84 L358.32 16.83 L358.50 17.82 L358.69 18.81 L358.87 19.80 L359.06 20.79 L359.25 21.78 L359.44 22.77 L359.63 23.76 L359.83 24.75 L360.02 25.73 L360.22 26.72 L360.43 27.71 L360.63 28.70 L360.84 29.69 L361.05 30.68 L361.26 31.67 L361.47 32.65 L361.69 33.64 L361.91 34.63 L362.13 35.62 L362.35 36.61 L362.58 37.59 L362.81 38.58 L363.04 39.57 L363.28 40.56 L363.52 41.55 L363.76 42.53 L364.01 43.52 L364.25 44.51 L364.50 45.50 L364.76 46.48 L365.02 47.47 L365.28 48.46 L365.54 49.44 L365.81 50.43 L366.08 51.42 L366.35 52.41 L366.63 53.39 L366.91 54.38 L367.20 55.37 L367.49 56.35 L367.78 57.34 L368.08 58.32 L368.38 59.31 L368.69 60.30 L369.00 61.28 L369.31 62.27 L369.63 63.25 L369.96 64.24 L370.29 65.23 L370.62 66.21 L370.96 67.20 L371.30 68.18 L371.65 69.17 L372.01 70.15 L372.36 71.14 L372.73 72.12 L373.10 73.11 L373.48 74.09 L373.86 75.08 L374.25 76.06 L374.64 77.04 L375.04 78.03 L375.45 79.01 L375.86 80.00 L376.28 80.98 L376.71 81.96 L377.14 82.95 L377.58 83.93 L378.03 84.91 L378.49 85.90 L378.96 86.88 L379.43 87.86 L379.91 88.84 L380.40 89.83 L380.90 90.81 L381.41 91.79 L381.92 92.77 L382.45 93.76 L382.98 94.74 L383.53 95.72 L384.09 96.70 L384.65 97.68 L385.23 98.66 L385.82 99.64 L386.42 100.62 L387.03 101.60 L387.65 102.58 L388.29 103.56 L388.94 104.54 L389.60 105.52 L390.28 106.50 L390.97 107.48 L391.68 108.46 L392.40 109.44 L393.13 110.42 L393.89 111.40 L394.66 112.38 L395.44 113.35 L396.25 114.33 L397.07 115.31 L397.91 116.29 L398.77 117.26 L399.65 118.24 L400.55 119.22 L401.48 120.19 L402.42 121.17 L403.39 122.14 L404.39 123.12 L405.41 124.09 L406.45 125.07 L407.53 126.04 L408.63 127.02 L409.76 127.99 L410.92 128.96 L412.11 129.94 L413.34 130.91 L414.60 131.88 L415.90 132.85 L417.23 133.82 L418.61 134.80 L420.02 135.77 L421.48 136.74 L422.98 137.71 L424.53 138.68 L426.13 139.64 L427.78 140.61 L429.48 141.58 L431.24 142.55 L433.06 143.52 L434.94 144.48 L436.88 145.45 L438.88 146.41 L440.88 147.33 L442.88 148.22 L444.88 149.09 L446.88 149.92 L448.88 150.73 L450.88 151.51 L452.88 152.27 L454.88 153.01 L456.88 153.72 L458.88 154.41 L460.88 155.08 L462.88 155.73 L464.88 156.37 L466.88 156.98 L468.88 157.58 L470.88 158.16 L472.88 158.73 L474.88 159.28 L476.88 159.81 L478.88 160.34 L480.88 160.85 L482.88 161.34 L484.88 161.83 L486.88 162.30 L488.88 162.76 L490.88 163.21 L492.88 163.64 L494.88 164.07 L496.88 164.49 L498.88 164.90 L500.88 165.30 L502.88 165.69 L504.88 166.07 L506.88 166.44 L508.88 166.81 L510.88 167.16 L512.88 167.51 L514.88 167.86 L516.88 168.19 L518.88 168.52 L520.88 168.84 L522.88 169.16 L524.88 169.46 L526.88 169.77 L528.88 170.06 L530.88 170.35 L532.88 170.64 L534.88 170.92 L536.88 171.19 L538.88 171.46 L540.88 171.73 L542.88 171.99 L544.88 172.24 L546.88 172.49 L548.88 172.74 L550.88 172.98 L552.88 173.22 L554.88 173.45 L556.88 173.68 L558.88 173.90 L560.88 174.12 L562.88 174.34 L564.88 174.56 L566.88 174.77 L568.88 174.97 L570.88 175.18 L572.88 175.38 L574.88 175.57 L576.88 175.77 L578.88 175.96 L580.88 176.15 L582.88 176.33 L584.88 176.51 L586.88 176.69 L588.88 176.87 L590.88 177.04 L592.88 177.22 L594.88 177.38 L596.88 177.55 L598.88 177.71 L600.88 177.88 L602.88 178.04 L604.88 178.19 L606.88 178.35 L608.88 178.50 L610.88 178.65 L612.88 178.80 L614.88 178.94 L616.88 179.09 L618.88 179.23 L620.88 179.37 L622.88 179.51 L624.88 179.65 L626.88 179.78 L628.88 179.91 L630.88 180.05 L632.88 180.18 L634.88 180.30 L636.88 180.43 L638.88 180.55 L640.88 180.68 L642.88 180.80 L644.88 180.92 L646.88 181.04 L648.88 181.16 " style="fill:none;stroke:#000000;stroke-width:1;" /><path d="M-10.00 200.00 L-0.25 237.53 L0.75 237.65 L2.75 237.88 L4.75 238.12 L6.75 238.36 L8.75 238.60 L10.75 238.84 L12.75 239.09 L14.75 239.35 L16.75 239.60 L18.75 239.86 L20.75 240.12 L22.75 240.39 L24.75 240.66 L26.75 240.93 L28.75 241.21 L30.75 241.49 L32.75 241.77 L34.75 242.06 L36.75 242.35 L38.75 242.64 L40.75 242.94 L42.75 243.25 L44.75 243.56 L46.75 243.87 L48.75 244.19 L50.75 244.51 L52.75 244.84 L54.75 245.17 L56.75 245.51 L58.75 245.85 L60.75 246.20 L62.75 246.55 L64.75 246.91 L66.75 247.27 L68.75 247.64 L70.75 248.01 L72.75 248.39 L74.75 248.78 L76.75 249.17 L78.75 249.57 L80.75 249.98 L82.75 250.39 L84.75 250.81 L86.75 251.24 L88.75 251.67 L90.75 252.11 L92.75 252.56 L94.75 253.02 L96.75 253.48 L98.75 253.95 L100.75 254.43 L102.75 254.92 L104.75 255.42 L106.75 255.93 L108.75 256.45 L110.75 256.98 L112.75 257.51 L114.75 258.06 L116.75 258.62 L118.75 259.19 L120.75 259.77 L122.75 260.36 L124.75 260.96 L126.75 261.57 L128.75 262.20 L130.75 262.84 L132.75 263.50 L134.75 264.16 L136.75 264.84 L138.75 265.54 L140.75 266.25 L142.75 266.98 L144.75 267.72 L146.75 268.48 L148.75 269.26 L150.75 270.05 L152.75 270.87 L154.75 271.70 L156.75 272.55 L158.75 273.43 L160.75 274.32 L162.75 275.24 L164.75 276.18 L166.75 277.14 L168.75 278.13 L170.75 279.14 L172.72 280.16 L174.65 281.19 L176.52 282.22 L178.35 283.24 L180.14 284.27 L181.88 285.29 L183.58 286.31 L185.23 287.34 L186.85 288.36 L188.43 289.39 L189.98 290.41 L191.49 291.43 L192.97 292.45 L194.41 293.48 L195.82 294.50 L197.21 295.52 L198.56 296.54 L199.88 297.56 L201.18 298.59 L202.45 299.61 L203.69 300.63 L204.91 301.65 L206.10 302.67 L207.27 303.69 L208.42 304.71 L209.54 305.73 L210.64 306.75 L211.73 307.77 L212.79 308.79 L213.83 309.80 L214.85 310.82 L215.85 311.84 L216.84 312.86 L217.81 313.88 L218.76 314.90 L219.69 315.91 L220.61 316.93 L221.51 317.95 L222.39 318.97 L223.26 319.98 L224.12 321.00 L224.96 322.02 L225.78 323.03 L226.60 324.05 L227.40 325.07 L228.18 326.08 L228.96 327.10 L229.72 328.12 L230.47 329.13 L231.21 330.15 L231.93 331.16 L232.65 332.18 L233.35 333.20 L234.05 334.21 L234.73 335.23 L235.40 336.24 L236.06 337.26 L236.72 338.27 L237.36 339.29 L237.99 340.30 L238.62 341.31 L239.23 342.33 L239.84 343.34 L240.44 344.36 L241.03 345.37 L241.61 346.39 L242.18 347.40 L242.75 348.41 L243.31 349.43 L243.86 350.44 L244.40 351.45 L244.94 352.47 L245.47 353.48 L245.99 354.50 L246.50 355.51 L247.01 356.52 L247.51 357.53 L248.01 358.55 L248.50 359.56 L248.98 360.57 L249.45 361.59 L249.93 362.60 L250.39 363.61 L250.85 364.62 L251.30 365.64 L251.75 366.65 L252.19 367.66 L252.63 368.67 L253.06 369.68 L253.49 370.70 L253.91 371.71 L254.32 372.72 L254.74 373.73 L255.14 374.74 L255.55 375.76 L255.94 376.77 L256.34 377.78 L256.72 378.79 L257.11 379.80 L257.49 380.81 L257.86 381.82 L258.23 382.84 L258.60 383.85 L258.97 384.86 L259.32 385.87 L259.68 386.88 L260.03 387.89 L260.38 388.90 L260.72 389.91 L261.06 390.92 L261.40 391.93 L261.73 392.94 L262.06 393.95 L262.39 394.96 L262.71 395.97 L263.03 396.99 L263.35 398.00 L263.66 399.01 L263.97 400.02 M386.03 -0.00 L386.04 0.00 L386.34 1.00 L386.65 1.99 L386.96 2.98 L387.27 3.97 L387.59 4.96 L387.91 5.95 L388.23 6.94 L388.55 7.93 L388.88 8.92 L389.22 9.91 L389.55 10.90 L389.89 11.89 L390.23 12.87 L390.58 13.86 L390.93 14.85 L391.29 15.84 L391.64 16.83 L392.01 17.82 L392.37 18.81 L392.74 19.80 L393.12 20.79 L393.49 21.78 L393.88 22.77 L394.26 23.76 L394.65 24.74 L395.05 25.73 L395.45 26.72 L395.85 27.71 L396.26 28.70 L396.67 29.69 L397.09 30.68 L397.52 31.66 L397.94 32.65 L398.38 33.64 L398.82 34.63 L399.26 35.62 L399.71 36.61 L400.16 37.59 L400.62 38.58 L401.09 39.57 L401.56 40.56 L402.04 41.55 L402.52 42.53 L403.01 43.52 L403.51 44.51 L404.01 45.50 L404.52 46.48 L405.03 47.47 L405.55 48.46 L406.08 49.44 L406.61 50.43 L407.16 51.42 L407.71 52.40 L408.26 53.39 L408.83 54.38 L409.40 55.36 L409.98 56.35 L410.57 57.34 L411.16 58.32 L411.77 59.31 L412.38 60.30 L413.00 61.28 L413.63 62.27 L414.27 63.25 L414.92 64.24 L415.57 65.22 L416.24 66.21 L416.92 67.20 L417.60 68.18 L418.30 69.17 L419.01 70.15 L419.73 71.14 L420.46 72.12 L421.20 73.11 L421.95 74.09 L422.71 75.07 L423.49 76.06 L424.28 77.04 L425.08 78.03 L425.89 79.01 L426.72 80.00 L427.56 80.98 L428.42 81.96 L429.29 82.95 L430.17 83.93 L431.07 84.91 L431.98 85.90 L432.91 86.88 L433.86 87.86 L434.82 88.84 L435.80 89.83 L436.79 90.81 L437.81 91.79 L438.84 92.77 L439.89 93.75 L440.97 94.74 L442.06 95.72 L443.17 96.70 L444.30 97.68 L445.46 98.66 L446.64 99.64 L447.84 100.62 L449.06 101.60 L450.31 102.58 L451.58 103.56 L452.88 104.54 L454.21 105.52 L455.56 106.50 L456.94 107.48 L458.35 108.46 L459.79 109.44 L461.27 110.42 L462.77 111.40 L464.31 112.37 L465.88 113.35 L467.49 114.33 L469.13 115.31 L470.82 116.29 L472.54 117.26 L474.30 118.24 L476.11 119.22 L477.95 120.19 L479.85 121.17 L481.79 122.14 L483.78 123.12 L485.78 124.07 L487.78 125.01 L489.78 125.92 L491.78 126.81 L493.78 127.67 L495.78 128.52 L497.78 129.35 L499.78 130.16 L501.78 130.95 L503.78 131.72 L505.78 132.47 L507.78 133.21 L509.78 133.94 L511.78 134.64 L513.78 135.34 L515.78 136.01 L517.78 136.68 L519.78 137.33 L521.78 137.96 L523.78 138.59 L525.78 139.20 L527.78 139.80 L529.78 140.39 L531.78 140.96 L533.78 141.53 L535.78 142.09 L537.78 142.63 L539.78 143.16 L541.78 143.69 L543.78 144.20 L545.78 144.71 L547.78 145.20 L549.78 145.69 L551.78 146.17 L553.78 146.64 L555.78 147.10 L557.78 147.56 L559.78 148.01 L561.78 148.44 L563.78 148.88 L565.78 149.30 L567.78 149.72 L569.78 150.13 L571.78 150.53 L573.78 150.93 L575.78 151.32 L577.78 151.71 L579.78 152.09 L581.78 152.46 L583.78 152.83 L585.78 153.19 L587.78 153.55 L589.78 153.90 L591.78 154.24 L593.78 154.58 L595.78 154.92 L597.78 155.25 L599.78 155.57 L601.78 155.90 L603.78 156.21 L605.78 156.52 L607.78 156.83 L609.78 157.13 L611.78 157.43 L613.78 157.73 L615.78 158.02 L617.78 158.31 L619.78 158.59 L621.78 158.87 L623.78 159.14 L625.78 159.41 L627.78 159.68 L629.78 159.95 L631.78 160.21 L633.78 160.47 L635.78 160.72 L637.78 160.97 L639.78 161.22 L641.78 161.46 L643.78 161.71 L645.78 161.95 L647.78 162.18 L649.78 162.41 " style="fill:none;stroke:#000000;stroke-width:1;" /><path d="M-10.00 200.00 L-0.25 256.30 L0.75 256.47 L2.75 256.82 L4.75 257.18 L6.75 257.54 L8.75 257.90 L10.75 258.27 L12.75 258.64 L14.75 259.02 L16.75 259.40 L18.75 259.79 L20.75 260.18 L22.75 260.58 L24.75 260.98 L26.75 261.39 L28.75 261.81 L30.75 262.23 L32.75 262.65 L34.75 263.09 L36.75 263.52 L38.75 263.97 L40.75 264.42 L42.75 264.87 L44.75 265.34 L46.75 265.81 L48.75 266.28 L50.75 266.77 L52.75 267.26 L54.75 267.75 L56.75 268.26 L58.75 268.77 L60.75 269.29 L62.75 269.82 L64.75 270.36 L66.75 270.90 L68.75 271.46 L70.75 272.02 L72.75 272.59 L74.75 273.17 L76.75 273.76 L78.75 274.36 L80.75 274.97 L82.75 275.59 L84.75 276.21 L86.75 276.85 L88.75 277.51 L90.75 278.17 L92.75 278.84 L94.75 279.52 L96.75 280.22 L98.75 280.93 L100.75 281.65 L102.75 282.39 L104.75 283.14 L106.75 283.90 L108.75 284.67 L110.75 285.46 L112.75 286.27 L114.75 287.09 L116.75 287.93 L118.75 288.78 L120.75 289.65 L122.75 290.53 L124.75 291.44 L126.75 292.36 L128.75 293.30 L130.75 294.26 L132.75 295.24 L134.75 296.24 L136.75 297.27 L138.70 298.29 L140.62 299.31 L142.49 300.33 L144.33 301.35 L146.13 302.37 L147.90 303.39 L149.63 304.41 L151.32 305.43 L152.99 306.45 L154.62 307.47 L156.22 308.49 L157.79 309.51 L159.33 310.53 L160.84 311.54 L162.33 312.56 L163.79 313.58 L165.22 314.60 L166.63 315.62 L168.01 316.63 L169.37 317.65 L170.70 318.67 L172.01 319.69 L173.30 320.70 L174.57 321.72 L175.82 322.74 L177.04 323.75 L178.25 324.77 L179.43 325.79 L180.60 326.80 L181.75 327.82 L182.88 328.84 L183.99 329.85 L185.08 330.87 L186.16 331.88 L187.22 332.90 L188.27 333.91 L189.30 334.93 L190.31 335.94 L191.31 336.96 L192.29 337.97 L193.26 338.99 L194.21 340.00 L195.16 341.02 L196.08 342.03 L197.00 343.05 L197.90 344.06 L198.79 345.08 L199.66 346.09 L200.53 347.10 L201.38 348.12 L202.22 349.13 L203.05 350.15 L203.87 351.16 L204.67 352.17 L205.47 353.19 L206.25 354.20 L207.03 355.21 L207.79 356.23 L208.55 357.24 L209.29 358.25 L210.03 359.26 L210.76 360.28 L211.47 361.29 L212.18 362.30 L212.88 363.32 L213.57 364.33 L214.26 365.34 L214.93 366.35 L215.60 367.36 L216.25 368.38 L216.90 369.39 L217.54 370.40 L218.18 371.41 L218.81 372.42 L219.43 373.44 L220.04 374.45 L220.64 375.46 L221.24 376.47 L221.83 377.48 L222.42 378.49 L222.99 379.51 L223.57 380.52 L224.13 381.53 L224.69 382.54 L225.24 383.55 L225.79 384.56 L226.33 385.57 L226.86 386.58 L227.39 387.60 L227.92 388.61 L228.43 389.62 L228.95 390.63 L229.45 391.64 L229.95 392.65 L230.45 393.66 L230.94 394.67 L231.43 395.68 L231.91 396.69 L232.38 397.70 L232.85 398.71 L233.32 399.72 L233.78 400.73 M416.55 -0.00 L416.55 0.00 L417.01 1.00 L417.47 1.99 L417.94 2.98 L418.40 3.97 L418.88 4.96 L419.36 5.95 L419.84 6.94 L420.33 7.92 L420.82 8.91 L421.32 9.90 L421.83 10.89 L422.34 11.88 L422.85 12.87 L423.37 13.86 L423.90 14.85 L424.43 15.84 L424.97 16.83 L425.51 17.82 L426.06 18.81 L426.61 19.80 L427.17 20.79 L427.74 21.78 L428.31 22.77 L428.89 23.75 L429.48 24.74 L430.07 25.73 L430.67 26.72 L431.28 27.71 L431.89 28.70 L432.51 29.69 L433.14 30.67 L433.77 31.66 L434.42 32.65 L435.07 33.64 L435.72 34.63 L436.39 35.62 L437.06 36.60 L437.74 37.59 L438.43 38.58 L439.13 39.57 L439.84 40.56 L440.56 41.54 L441.28 42.53 L442.01 43.52 L442.76 44.51 L443.51 45.49 L444.27 46.48 L445.04 47.47 L445.83 48.46 L446.62 49.44 L447.42 50.43 L448.23 51.42 L449.06 52.40 L449.89 53.39 L450.74 54.38 L451.60 55.36 L452.47 56.35 L453.35 57.34 L454.24 58.32 L455.15 59.31 L456.06 60.29 L457.00 61.28 L457.94 62.27 L458.90 63.25 L459.87 64.24 L460.86 65.22 L461.86 66.21 L462.87 67.19 L463.90 68.18 L464.95 69.16 L466.01 70.15 L467.09 71.13 L468.18 72.12 L469.30 73.10 L470.42 74.09 L471.57 75.07 L472.73 76.06 L473.92 77.04 L475.12 78.03 L476.34 79.01 L477.58 79.99 L478.84 80.98 L480.12 81.96 L481.43 82.94 L482.75 83.93 L484.10 84.91 L485.47 85.89 L486.86 86.88 L488.28 87.86 L489.73 88.84 L491.19 89.82 L492.69 90.81 L494.21 91.79 L495.76 92.77 L497.34 93.75 L498.95 94.73 L500.58 95.72 L502.25 96.70 L503.95 97.68 L505.68 98.66 L507.45 99.64 L509.25 100.62 L511.09 101.60 L512.96 102.58 L514.87 103.56 L516.82 104.54 L518.81 105.52 L520.81 106.49 L522.81 107.43 L524.81 108.36 L526.81 109.27 L528.81 110.16 L530.81 111.03 L532.81 111.89 L534.81 112.73 L536.81 113.55 L538.81 114.36 L540.81 115.15 L542.81 115.93 L544.81 116.70 L546.81 117.45 L548.81 118.19 L550.81 118.91 L552.81 119.62 L554.81 120.32 L556.81 121.01 L558.81 121.69 L560.81 122.35 L562.81 123.00 L564.81 123.64 L566.81 124.28 L568.81 124.90 L570.81 125.51 L572.81 126.11 L574.81 126.70 L576.81 127.28 L578.81 127.86 L580.81 128.42 L582.81 128.98 L584.81 129.52 L586.81 130.06 L588.81 130.59 L590.81 131.11 L592.81 131.63 L594.81 132.13 L596.81 132.63 L598.81 133.13 L600.81 133.61 L602.81 134.09 L604.81 134.56 L606.81 135.02 L608.81 135.48 L610.81 135.93 L612.81 136.38 L614.81 136.82 L616.81 137.25 L618.81 137.68 L620.81 138.10 L622.81 138.52 L624.81 138.93 L626.81 139.33 L628.81 139.73 L630.81 140.12 L632.81 140.51 L634.81 140.90 L636.81 141.28 L638.81 141.65 L640.81 142.02 L642.81 142.38 L644.81 142.74 L646.81 143.10 L648.81 143.45 " style="fill:none;stroke:#000000;stroke-width:1;" /><path d="M-10.00 200.00 L-0.25 275.06 L0.75 275.29 L2.75 275.76 L4.75 276.23 L6.75 276.71 L8.75 277.20 L10.75 277.69 L12.75 278.19 L14.75 278.69 L16.75 279.20 L18.75 279.72 L20.75 280.24 L22.75 280.77 L24.75 281.31 L26.75 281.86 L28.75 282.41 L30.75 282.97 L32.75 283.54 L34.75 284.11 L36.75 284.70 L38.75 285.29 L40.75 285.89 L42.75 286.50 L44.75 287.12 L46.75 287.74 L48.75 288.38 L50.75 289.02 L52.75 289.68 L54.75 290.34 L56.75 291.01 L58.75 291.70 L60.75 292.39 L62.75 293.09 L64.75 293.81 L66.75 294.54 L68.75 295.27 L70.75 296.02 L72.75 296.79 L74.75 297.56 L76.75 298.34 L78.75 299.14 L80.75 299.96 L82.75 300.78 L84.75 301.62 L86.75 302.47 L88.75 303.34 L90.75 304.22 L92.75 305.12 L94.75 306.03 L96.75 306.96 L98.75 307.91 L100.75 308.87 L102.75 309.85 L104.75 310.85 L106.75 311.86 L108.72 312.88 L110.65 313.90 L112.55 314.92 L114.42 315.94 L116.25 316.95 L118.05 317.97 L119.82 318.99 L121.56 320.01 L123.27 321.02 L124.95 322.04 L126.60 323.06 L128.23 324.07 L129.83 325.09 L131.40 326.11 L132.95 327.12 L134.47 328.14 L135.97 329.15 L137.44 330.17 L138.90 331.19 L140.33 332.20 L141.73 333.22 L143.12 334.23 L144.49 335.25 L145.83 336.26 L147.16 337.28 L148.46 338.29 L149.75 339.31 L151.01 340.32 L152.26 341.34 L153.49 342.35 L154.71 343.37 L155.90 344.38 L157.08 345.39 L158.25 346.41 L159.39 347.42 L160.52 348.44 L161.64 349.45 L162.74 350.46 L163.83 351.48 L164.90 352.49 L165.95 353.50 L167.00 354.52 L168.03 355.53 L169.04 356.54 L170.05 357.56 L171.04 358.57 L172.01 359.58 L172.98 360.59 L173.93 361.61 L174.87 362.62 L175.80 363.63 L176.72 364.64 L177.62 365.66 L178.52 366.67 L179.40 367.68 L180.28 368.69 L181.14 369.71 L181.99 370.72 L182.83 371.73 L183.67 372.74 L184.49 373.75 L185.30 374.77 L186.11 375.78 L186.90 376.79 L187.69 377.80 L188.46 378.81 L189.23 379.82 L189.99 380.83 L190.74 381.85 L191.49 382.86 L192.22 383.87 L192.95 384.88 L193.66 385.89 L194.37 386.90 L195.08 387.91 L195.77 388.92 L196.46 389.93 L197.14 390.94 L197.81 391.95 L198.48 392.97 L199.14 393.98 L199.79 394.99 L200.44 396.00 L201.08 397.01 L201.71 398.02 L202.33 399.03 L202.95 400.04 M447.07 -0.00 L447.07 0.00 L447.68 1.00 L448.29 1.99 L448.91 2.98 L449.54 3.97 L450.17 4.96 L450.81 5.95 L451.46 6.94 L452.11 7.93 L452.77 8.91 L453.43 9.90 L454.10 10.89 L454.78 11.88 L455.47 12.87 L456.16 13.86 L456.86 14.85 L457.57 15.84 L458.29 16.83 L459.01 17.82 L459.74 18.81 L460.48 19.80 L461.23 20.79 L461.99 21.78 L462.75 22.77 L463.52 23.75 L464.30 24.74 L465.10 25.73 L465.89 26.72 L466.70 27.71 L467.52 28.70 L468.35 29.69 L469.18 30.68 L470.03 31.66 L470.89 32.65 L471.75 33.64 L472.63 34.63 L473.52 35.62 L474.42 36.60 L475.33 37.59 L476.25 38.58 L477.18 39.57 L478.12 40.56 L479.07 41.54 L480.04 42.53 L481.02 43.52 L482.01 44.51 L483.01 45.49 L484.03 46.48 L485.06 47.47 L486.10 48.46 L487.16 49.44 L488.23 50.43 L489.31 51.42 L490.41 52.40 L491.52 53.39 L492.65 54.38 L493.80 55.36 L494.95 56.35 L496.13 57.34 L497.32 58.32 L498.53 59.31 L499.75 60.29 L501.00 61.28 L502.26 62.27 L503.53 63.25 L504.83 64.24 L506.14 65.22 L507.48 66.21 L508.83 67.19 L510.21 68.18 L511.60 69.16 L513.02 70.15 L514.45 71.13 L515.91 72.12 L517.39 73.10 L518.90 74.09 L520.43 75.07 L521.98 76.06 L523.56 77.04 L525.16 78.03 L526.79 79.01 L528.44 79.99 L530.12 80.98 L531.83 81.96 L533.57 82.94 L535.34 83.93 L537.13 84.91 L538.96 85.89 L540.82 86.88 L542.71 87.86 L544.63 88.84 L546.59 89.82 L548.59 90.81 L550.59 91.78 L552.59 92.73 L554.59 93.66 L556.59 94.58 L558.59 95.48 L560.59 96.37 L562.59 97.24 L564.59 98.10 L566.59 98.94 L568.59 99.77 L570.59 100.59 L572.59 101.39 L574.59 102.18 L576.59 102.96 L578.59 103.72 L580.59 104.48 L582.59 105.22 L584.59 105.95 L586.59 106.67 L588.59 107.38 L590.59 108.07 L592.59 108.76 L594.59 109.44 L596.59 110.11 L598.59 110.76 L600.59 111.41 L602.59 112.05 L604.59 112.68 L606.59 113.30 L608.59 113.91 L610.59 114.51 L612.59 115.11 L614.59 115.69 L616.59 116.27 L618.59 116.84 L620.59 117.40 L622.59 117.96 L624.59 118.51 L626.59 119.05 L628.59 119.58 L630.59 120.11 L632.59 120.63 L634.59 121.14 L636.59 121.65 L638.59 122.15 L640.59 122.64 L642.59 123.13 L644.59 123.61 L646.59 124.08 L648.59 124.55 " style="fill:none;stroke:#000000;stroke-width:1;" /><path d="M-10.00 200.00 L-0.25 181.23 L0.75 181.18 L2.75 181.06 L4.75 180.94 L6.75 180.82 L8.75 180.70 L10.75 180.58 L12.75 180.45 L14.75 180.33 L16.75 180.20 L18.75 180.07 L20.75 179.94 L22.75 179.81 L24.75 179.67 L26.75 179.54 L28.75 179.40 L30.75 179.26 L32.75 179.12 L34.75 178.97 L36.75 178.83 L38.75 178.68 L40.75 178.53 L42.75 178.38 L44.75 178.22 L46.75 178.06 L48.75 177.91 L50.75 177.74 L52.75 177.58 L54.75 177.42 L56.75 177.25 L58.75 177.08 L60.75 176.90 L62.75 176.73 L64.75 176.55 L66.75 176.37 L68.75 176.18 L70.75 175.99 L72.75 175.80 L74.75 175.61 L76.75 175.41 L78.75 175.21 L80.75 175.01 L82.75 174.80 L84.75 174.60 L86.75 174.38 L88.75 174.16 L90.75 173.94 L92.75 173.72 L94.75 173.49 L96.75 173.26 L98.75 173.02 L100.75 172.78 L102.75 172.54 L104.75 172.29 L106.75 172.03 L108.75 171.78 L110.75 171.51 L112.75 171.24 L114.75 170.97 L116.75 170.69 L118.75 170.41 L120.75 170.12 L122.75 169.82 L124.75 169.52 L126.75 169.21 L128.75 168.90 L130.75 168.58 L132.75 168.25 L134.75 167.92 L136.75 167.58 L138.75 167.23 L140.75 166.87 L142.75 166.51 L144.75 166.14 L146.75 165.76 L148.75 165.37 L150.75 164.97 L152.75 164.57 L154.75 164.15 L156.75 163.72 L158.75 163.29 L160.75 162.84 L162.75 162.38 L164.75 161.91 L166.75 161.43 L168.75 160.94 L170.75 160.43 L172.75 159.91 L174.75 159.38 L176.75 158.83 L178.75 158.27 L180.75 157.69 L182.75 157.09 L184.75 156.48 L186.75 155.85 L188.75 155.20 L190.75 154.54 L192.75 153.85 L194.75 153.14 L196.75 152.41 L198.75 151.66 L200.75 150.88 L202.75 150.07 L204.75 149.24 L206.75 148.38 L208.75 147.50 L210.75 146.58 L212.75 145.63 L214.75 144.64 L216.75 143.62 L218.71 142.58 L220.59 141.54 L222.41 140.51 L224.16 139.47 L225.86 138.44 L227.50 137.40 L229.08 136.37 L230.61 135.34 L232.10 134.30 L233.53 133.27 L234.93 132.24 L236.28 131.21 L237.58 130.18 L238.86 129.15 L240.09 128.12 L241.29 127.09 L242.45 126.06 L243.58 125.03 L244.69 124.00 L245.76 122.98 L246.80 121.95 L247.81 120.92 L248.80 119.90 L249.77 118.87 L250.71 117.85 L251.62 116.82 L252.52 115.80 L253.39 114.77 L254.24 113.75 L255.07 112.72 L255.88 111.70 L256.67 110.68 L257.44 109.65 L258.20 108.63 L258.94 107.61 L259.66 106.58 L260.37 105.56 L261.06 104.54 L261.74 103.52 L262.40 102.50 L263.05 101.48 L263.69 100.46 L264.31 99.43 L264.92 98.41 L265.52 97.39 L266.10 96.37 L266.67 95.35 L267.24 94.33 L267.79 93.31 L268.33 92.30 L268.86 91.28 L269.38 90.26 L269.89 89.24 L270.40 88.22 L270.89 87.20 L271.37 86.18 L271.85 85.17 L272.32 84.15 L272.78 83.13 L273.23 82.11 L273.67 81.09 L274.10 80.08 L274.53 79.06 L274.95 78.04 L275.37 77.03 L275.77 76.01 L276.17 74.99 L276.57 73.98 L276.96 72.96 L277.34 71.94 L277.71 70.93 L278.08 69.91 L278.44 68.90 L278.80 67.88 L279.16 66.87 L279.50 65.85 L279.84 64.84 L280.18 63.82 L280.51 62.81 L280.84 61.79 L281.16 60.78 L281.48 59.76 L281.79 58.75 L282.10 57.73 L282.40 56.72 L282.70 55.70 L283.00 54.69 L283.29 53.67 L283.58 52.66 L283.86 51.65 L284.14 50.63 L284.41 49.62 L284.68 48.61 L284.95 47.59 L285.22 46.58 L285.48 45.57 L285.74 44.55 L285.99 43.54 L286.24 42.53 L286.49 41.51 L286.73 40.50 L286.97 39.49 L287.21 38.48 L287.45 37.46 L287.68 36.45 L287.91 35.44 L288.14 34.43 L288.36 33.41 L288.58 32.40 L288.80 31.39 L289.02 30.38 L289.23 29.36 L289.44 28.35 L289.65 27.34 L289.86 26.33 L290.06 25.32 L290.26 24.31 L290.46 23.29 L290.66 22.28 L290.85 21.27 L291.04 20.26 L291.23 19.25 L291.42 18.24 L291.61 17.23 L291.79 16.21 L291.97 15.20 L292.15 14.19 L292.33 13.18 L292.50 12.17 L292.68 11.16 L292.85 10.15 L293.02 9.14 L293.19 8.13 L293.36 7.12 L293.52 6.11 L293.68 5.10 L293.85 4.09 L294.01 3.08 L294.16 2.07 L294.32 1.05 L294.48 0.04 L294.63 -0.97 M355.52 400.00 L355.52 400.00 L355.67 399.00 L355.82 398.01 L355.98 397.02 L356.14 396.03 L356.29 395.04 L356.45 394.05 L356.61 393.06 L356.78 392.07 L356.94 391.08 L357.11 390.09 L357.28 389.10 L357.45 388.11 L357.62 387.12 L357.79 386.13 L357.97 385.15 L358.14 384.16 L358.32 383.17 L358.50 382.18 L358.69 381.19 L358.87 380.20 L359.06 379.21 L359.25 378.22 L359.44 377.23 L359.63 376.24 L359.83 375.25 L360.02 374.27 L360.22 373.28 L360.43 372.29 L360.63 371.30 L360.84 370.31 L361.05 369.32 L361.26 368.33 L361.47 367.35 L361.69 366.36 L361.91 365.37 L362.13 364.38 L362.35 363.39 L362.58 362.41 L362.81 361.42 L363.04 360.43 L363.28 359.44 L363.52 358.45 L363.76 357.47 L364.01 356.48 L364.25 355.49 L364.50 354.50 L364.76 353.52 L365.02 352.53 L365.28 351.54 L365.54 350.56 L365.81 349.57 L366.08 348.58 L366.35 347.59 L366.63 346.61 L366.91 345.62 L367.20 344.63 L367.49 343.65 L367.78 342.66 L368.08 341.68 L368.38 340.69 L368.69 339.70 L369.00 338.72 L369.31 337.73 L369.63 336.75 L369.96 335.76 L370.29 334.77 L370.62 333.79 L370.96 332.80 L371.30 331.82 L371.65 330.83 L372.01 329.85 L372.36 328.86 L372.73 327.88 L373.10 326.89 L373.48 325.91 L373.86 324.92 L374.25 323.94 L374.64 322.96 L375.04 321.97 L375.45 320.99 L375.86 320.00 L376.28 319.02 L376.71 318.04 L377.14 317.05 L377.58 316.07 L378.03 315.09 L378.49 314.10 L378.96 313.12 L379.43 312.14 L379.91 311.16 L380.40 310.17 L380.90 309.19 L381.41 308.21 L381.92 307.23 L382.45 306.24 L382.98 305.26 L383.53 304.28 L384.09 303.30 L384.65 302.32 L385.23 301.34 L385.82 300.36 L386.42 299.38 L387.03 298.40 L387.65 297.42 L388.29 296.44 L388.94 295.46 L389.60 294.48 L390.28 293.50 L390.97 292.52 L391.68 291.54 L392.40 290.56 L393.13 289.58 L393.89 288.60 L394.66 287.62 L395.44 286.65 L396.25 285.67 L397.07 284.69 L397.91 283.71 L398.77 282.74 L399.65 281.76 L400.55 280.78 L401.48 279.81 L402.42 278.83 L403.39 277.86 L404.39 276.88 L405.41 275.91 L406.45 274.93 L407.53 273.96 L408.63 272.98 L409.76 272.01 L410.92 271.04 L412.11 270.06 L413.34 269.09 L414.60 268.12 L415.90 267.15 L417.23 266.18 L418.61 265.20 L420.02 264.23 L421.48 263.26 L422.98 262.29 L424.53 261.32 L426.13 260.36 L427.78 259.39 L429.48 258.42 L431.24 257.45 L433.06 256.48 L434.94 255.52 L436.88 254.55 L438.88 253.59 L440.88 252.67 L442.88 251.78 L444.88 250.91 L446.88 250.08 L448.88 249.27 L450.88 248.49 L452.88 247.73 L454.88 246.99 L456.88 246.28 L458.88 245.59 L460.88 244.92 L462.88 244.27 L464.88 243.63 L466.88 243.02 L468.88 242.42 L470.88 241.84 L472.88 241.27 L474.88 240.72 L476.88 240.19 L478.88 239.66 L480.88 239.15 L482.88 238.66 L484.88 238.17 L486.88 237.70 L488.88 237.24 L490.88 236.79 L492.88 236.36 L494.88 235.93 L496.88 235.51 L498.88 235.10 L500.88 234.70 L502.88 234.31 L504.88 233.93 L506.88 233.56 L508.88 233.19 L510.88 232.84 L512.88 232.49 L514.88 232.14 L516.88 231.81 L518.88 231.48 L520.88 231.16 L522.88 230.84 L524.88 230.54 L526.88 230.23 L528.88 229.94 L530.88 229.65 L532.88 229.36 L534.88 229.08 L536.88 228.81 L538.88 228.54 L540.88 228.27 L542.88 228.01 L544.88 227.76 L546.88 227.51 L548.88 227.26 L550.88 227.02 L552.88 226.78 L554.88 226.55 L556.88 226.32 L558.88 226.10 L560.88 225.88 L562.88 225.66 L564.88 225.44 L566.88 225.23 L568.88 225.03 L570.88 224.82 L572.88 224.62 L574.88 224.43 L576.88 224.23 L578.88 224.04 L580.88 223.85 L582.88 223.67 L584.88 223.49 L586.88 223.31 L588.88 223.13 L590.88 222.96 L592.88 222.78 L594.88 222.62 L596.88 222.45 L598.88 222.29 L600.88 222.12 L602.88 221.96 L604.88 221.81 L606.88 221.65 L608.88 221.50 L610.88 221.35 L612.88 221.20 L614.88 221.06 L616.88 220.91 L618.88 220.77 L620.88 220.63 L622.88 220.49 L624.88 220.35 L626.88 220.22 L628.88 220.09 L630.88 219.95 L632.88 219.82 L634.88 219.70 L636.88 219.57 L638.88 219.45 L640.88 219.32 L642.88 219.20 L644.88 219.08 L646.88 218.96 L648.88 218.84 " style="fill:none;stroke:#000000;stroke-width:1;" /><path d="M-10.00 200.00 L-0.25 162.47 L0.75 162.35 L2.75 162.12 L4.75 161.88 L6.75 161.64 L8.75 161.40 L10.75 161.16 L12.75 160.91 L14.75 160.65 L16.75 160.40 L18.75 160.14 L20.75 159.88 L22.75 159.61 L24.75 159.34 L26.75 159.07 L28.75 158.79 L30.75 158.51 L32.75 158.23 L34.75 157.94 L36.75 157.65 L38.75 157.36 L40.75 157.06 L42.75 156.75 L44.75 156.44 L46.75 156.13 L48.75 155.81 L50.75 155.49 L52.75 155.16 L54.75 154.83 L56.75 154.49 L58.75 154.15 L60.75 153.80 L62.75 153.45 L64.75 153.09 L66.75 152.73 L68.75 152.36 L70.75 151.99 L72.75 151.61 L74.75 151.22 L76.75 150.83 L78.75 150.43 L80.75 150.02 L82.75 149.61 L84.75 149.19 L86.75 148.76 L88.75 148.33 L90.75 147.89 L92.75 147.44 L94.75 146.98 L96.75 146.52 L98.75 146.05 L100.75 145.57 L102.75 145.08 L104.75 144.58 L106.75 144.07 L108.75 143.55 L110.75 143.02 L112.75 142.49 L114.75 141.94 L116.75 141.38 L118.75 140.81 L120.75 140.23 L122.75 139.64 L124.75 139.04 L126.75 138.43 L128.75 137.80 L130.75 137.16 L132.75 136.50 L134.75 135.84 L136.75 135.16 L138.75 134.46 L140.75 133.75 L142.75 133.02 L144.75 132.28 L146.75 131.52 L148.75 130.74 L150.75 129.95 L152.75 129.13 L154.75 128.30 L156.75 127.45 L158.75 126.57 L160.75 125.68 L162.75 124.76 L164.75 123.82 L166.75 122.86 L168.75 121.87 L170.75 120.86 L172.72 119.84 L174.65 118.81 L176.52 117.78 L178.35 116.76 L180.14 115.73 L181.88 114.71 L183.58 113.69 L185.23 112.66 L186.85 111.64 L188.43 110.61 L189.98 109.59 L191.49 108.57 L192.97 107.55 L194.41 106.52 L195.82 105.50 L197.21 104.48 L198.56 103.46 L199.88 102.44 L201.18 101.41 L202.45 100.39 L203.69 99.37 L204.91 98.35 L206.10 97.33 L207.27 96.31 L208.42 95.29 L209.54 94.27 L210.64 93.25 L211.73 92.23 L212.79 91.21 L213.83 90.20 L214.85 89.18 L215.85 88.16 L216.84 87.14 L217.81 86.12 L218.76 85.10 L219.69 84.09 L220.61 83.07 L221.51 82.05 L222.39 81.03 L223.26 80.02 L224.12 79.00 L224.96 77.98 L225.78 76.97 L226.60 75.95 L227.40 74.93 L228.18 73.92 L228.96 72.90 L229.72 71.88 L230.47 70.87 L231.21 69.85 L231.93 68.84 L232.65 67.82 L233.35 66.80 L234.05 65.79 L234.73 64.77 L235.40 63.76 L236.06 62.74 L236.72 61.73 L237.36 60.71 L237.99 59.70 L238.62 58.69 L239.23 57.67 L239.84 56.66 L240.44 55.64 L241.03 54.63 L241.61 53.61 L242.18 52.60 L242.75 51.59 L243.31 50.57 L243.86 49.56 L244.40 48.55 L244.94 47.53 L245.47 46.52 L245.99 45.50 L246.50 44.49 L247.01 43.48 L247.51 42.47 L248.01 41.45 L248.50 40.44 L248.98 39.43 L249.45 38.41 L249.93 37.40 L250.39 36.39 L250.85 35.38 L251.30 34.36 L251.75 33.35 L252.19 32.34 L252.63 31.33 L253.06 30.32 L253.49 29.30 L253.91 28.29 L254.32 27.28 L254.74 26.27 L255.14 25.26 L255.55 24.24 L255.94 23.23 L256.34 22.22 L256.72 21.21 L257.11 20.20 L257.49 19.19 L257.86 18.18 L258.23 17.16 L258.60 16.15 L258.97 15.14 L259.32 14.13 L259.68 13.12 L260.03 12.11 L260.38 11.10 L260.72 10.09 L261.06 9.08 L261.40 8.07 L261.73 7.06 L262.06 6.05 L262.39 5.04 L262.71 4.03 L263.03 3.01 L263.35 2.00 L263.66 0.99 L263.97 -0.02 M386.03 400.00 L386.04 400.00 L386.34 399.00 L386.65 398.01 L386.96 397.02 L387.27 396.03 L387.59 395.04 L387.91 394.05 L388.23 393.06 L388.55 392.07 L388.88 391.08 L389.22 390.09 L389.55 389.10 L389.89 388.11 L390.23 387.13 L390.58 386.14 L390.93 385.15 L391.29 384.16 L391.64 383.17 L392.01 382.18 L392.37 381.19 L392.74 380.20 L393.12 379.21 L393.49 378.22 L393.88 377.23 L394.26 376.24 L394.65 375.26 L395.05 374.27 L395.45 373.28 L395.85 372.29 L396.26 371.30 L396.67 370.31 L397.09 369.32 L397.52 368.34 L397.94 367.35 L398.38 366.36 L398.82 365.37 L399.26 364.38 L399.71 363.39 L400.16 362.41 L400.62 361.42 L401.09 360.43 L401.56 359.44 L402.04 358.45 L402.52 357.47 L403.01 356.48 L403.51 355.49 L404.01 354.50 L404.52 353.52 L405.03 352.53 L405.55 351.54 L406.08 350.56 L406.61 349.57 L407.16 348.58 L407.71 347.60 L408.26 346.61 L408.83 345.62 L409.40 344.64 L409.98 343.65 L410.57 342.66 L411.16 341.68 L411.77 340.69 L412.38 339.70 L413.00 338.72 L413.63 337.73 L414.27 336.75 L414.92 335.76 L415.57 334.78 L416.24 333.79 L416.92 332.80 L417.60 331.82 L418.30 330.83 L419.01 329.85 L419.73 328.86 L420.46 327.88 L421.20 326.89 L421.95 325.91 L422.71 324.93 L423.49 323.94 L424.28 322.96 L425.08 321.97 L425.89 320.99 L426.72 320.00 L427.56 319.02 L428.42 318.04 L429.29 317.05 L430.17 316.07 L431.07 315.09 L431.98 314.10 L432.91 313.12 L433.86 312.14 L434.82 311.16 L435.80 310.17 L436.79 309.19 L437.81 308.21 L438.84 307.23 L439.89 306.25 L440.97 305.26 L442.06 304.28 L443.17 303.30 L444.30 302.32 L445.46 301.34 L446.64 300.36 L447.84 299.38 L449.06 298.40 L450.31 297.42 L451.58 296.44 L452.88 295.46 L454.21 294.48 L455.56 293.50 L456.94 292.52 L458.35 291.54 L459.79 290.56 L461.27 289.58 L462.77 288.60 L464.31 287.63 L465.88 286.65 L467.49 285.67 L469.13 284.69 L470.82 283.71 L472.54 282.74 L474.30 281.76 L476.11 280.78 L477.95 279.81 L479.85 278.83 L481.79 277.86 L483.78 276.88 L485.78 275.93 L487.78 274.99 L489.78 274.08 L491.78 273.19 L493.78 272.33 L495.78 271.48 L497.78 270.65 L499.78 269.84 L501.78 269.05 L503.78 268.28 L505.78 267.53 L507.78 266.79 L509.78 266.06 L511.78 265.36 L513.78 264.66 L515.78 263.99 L517.78 263.32 L519.78 262.67 L521.78 262.04 L523.78 261.41 L525.78 260.80 L527.78 260.20 L529.78 259.61 L531.78 259.04 L533.78 258.47 L535.78 257.91 L537.78 257.37 L539.78 256.84 L541.78 256.31 L543.78 255.80 L545.78 255.29 L547.78 254.80 L549.78 254.31 L551.78 253.83 L553.78 253.36 L555.78 252.90 L557.78 252.44 L559.78 251.99 L561.78 251.56 L563.78 251.12 L565.78 250.70 L567.78 250.28 L569.78 249.87 L571.78 249.47 L573.78 249.07 L575.78 248.68 L577.78 248.29 L579.78 247.91 L581.78 247.54 L583.78 247.17 L585.78 246.81 L587.78 246.45 L589.78 246.10 L591.78 245.76 L593.78 245.42 L595.78 245.08 L597.78 244.75 L599.78 244.43 L601.78 244.10 L603.78 243.79 L605.78 243.48 L607.78 243.17 L609.78 242.87 L611.78 242.57 L613.78 242.27 L615.78 241.98 L617.78 241.69 L619.78 241.41 L621.78 241.13 L623.78 240.86 L625.78 240.59 L627.78 240.32 L629.78 240.05 L631.78 239.79 L633.78 239.53 L635.78 239.28 L637.78 239.03 L639.78 238.78 L641.78 238.54 L643.78 238.29 L645.78 238.05 L647.78 237.82 L649.78 237.59 " style="fill:none;stroke:#000000;stroke-width:1;" /><path d="M-10.00 200.00 L-0.25 143.70 L0.75 143.53 L2.75 143.18 L4.75 142.82 L6.75 142.46 L8.75 142.10 L10.75 141.73 L12.75 141.36 L14.75 140.98 L16.75 140.60 L18.75 140.21 L20.75 139.82 L22.75 139.42 L24.75 139.02 L26.75 138.61 L28.75 138.19 L30.75 137.77 L32.75 137.35 L34.75 136.91 L36.75 136.48 L38.75 136.03 L40.75 135.58 L42.75 135.13 L44.75 134.66 L46.75 134.19 L48.75 133.72 L50.75 133.23 L52.75 132.74 L54.75 132.25 L56.75 131.74 L58.75 131.23 L60.75 130.71 L62.75 130.18 L64.75 129.64 L66.75 129.10 L68.75 128.54 L70.75 127.98 L72.75 127.41 L74.75 126.83 L76.75 126.24 L78.75 125.64 L80.75 125.03 L82.75 124.41 L84.75 123.79 L86.75 123.15 L88.75 122.49 L90.75 121.83 L92.75 121.16 L94.75 120.48 L96.75 119.78 L98.75 119.07 L100.75 118.35 L102.75 117.61 L104.75 116.86 L106.75 116.10 L108.75 115.33 L110.75 114.54 L112.75 113.73 L114.75 112.91 L116.75 112.07 L118.75 111.22 L120.75 110.35 L122.75 109.47 L124.75 108.56 L126.75 107.64 L128.75 106.70 L130.75 105.74 L132.75 104.76 L134.75 103.76 L136.75 102.73 L138.70 101.71 L140.62 100.69 L142.49 99.67 L144.33 98.65 L146.13 97.63 L147.90 96.61 L149.63 95.59 L151.32 94.57 L152.99 93.55 L154.62 92.53 L156.22 91.51 L157.79 90.49 L159.33 89.47 L160.84 88.46 L162.33 87.44 L163.79 86.42 L165.22 85.40 L166.63 84.38 L168.01 83.37 L169.37 82.35 L170.70 81.33 L172.01 80.31 L173.30 79.30 L174.57 78.28 L175.82 77.26 L177.04 76.25 L178.25 75.23 L179.43 74.21 L180.60 73.20 L181.75 72.18 L182.88 71.16 L183.99 70.15 L185.08 69.13 L186.16 68.12 L187.22 67.10 L188.27 66.09 L189.30 65.07 L190.31 64.06 L191.31 63.04 L192.29 62.03 L193.26 61.01 L194.21 60.00 L195.16 58.98 L196.08 57.97 L197.00 56.95 L197.90 55.94 L198.79 54.92 L199.66 53.91 L200.53 52.90 L201.38 51.88 L202.22 50.87 L203.05 49.85 L203.87 48.84 L204.67 47.83 L205.47 46.81 L206.25 45.80 L207.03 44.79 L207.79 43.77 L208.55 42.76 L209.29 41.75 L210.03 40.74 L210.76 39.72 L211.47 38.71 L212.18 37.70 L212.88 36.68 L213.57 35.67 L214.26 34.66 L214.93 33.65 L215.60 32.64 L216.25 31.62 L216.90 30.61 L217.54 29.60 L218.18 28.59 L218.81 27.58 L219.43 26.56 L220.04 25.55 L220.64 24.54 L221.24 23.53 L221.83 22.52 L222.42 21.51 L222.99 20.49 L223.57 19.48 L224.13 18.47 L224.69 17.46 L225.24 16.45 L225.79 15.44 L226.33 14.43 L226.86 13.42 L227.39 12.40 L227.92 11.39 L228.43 10.38 L228.95 9.37 L229.45 8.36 L229.95 7.35 L230.45 6.34 L230.94 5.33 L231.43 4.32 L231.91 3.31 L232.38 2.30 L232.85 1.29 L233.32 0.28 L233.78 -0.73 M416.55 400.00 L416.55 400.00 L417.01 399.00 L417.47 398.01 L417.94 397.02 L418.40 396.03 L418.88 395.04 L419.36 394.05 L419.84 393.06 L420.33 392.08 L420.82 391.09 L421.32 390.10 L421.83 389.11 L422.34 388.12 L422.85 387.13 L423.37 386.14 L423.90 385.15 L424.43 384.16 L424.97 383.17 L425.51 382.18 L426.06 381.19 L426.61 380.20 L427.17 379.21 L427.74 378.22 L428.31 377.23 L428.89 376.25 L429.48 375.26 L430.07 374.27 L430.67 373.28 L431.28 372.29 L431.89 371.30 L432.51 370.31 L433.14 369.33 L433.77 368.34 L434.42 367.35 L435.07 366.36 L435.72 365.37 L436.39 364.38 L437.06 363.40 L437.74 362.41 L438.43 361.42 L439.13 360.43 L439.84 359.44 L440.56 358.46 L441.28 357.47 L442.01 356.48 L442.76 355.49 L443.51 354.51 L444.27 353.52 L445.04 352.53 L445.83 351.54 L446.62 350.56 L447.42 349.57 L448.23 348.58 L449.06 347.60 L449.89 346.61 L450.74 345.62 L451.60 344.64 L452.47 343.65 L453.35 342.66 L454.24 341.68 L455.15 340.69 L456.06 339.71 L457.00 338.72 L457.94 337.73 L458.90 336.75 L459.87 335.76 L460.86 334.78 L461.86 333.79 L462.87 332.81 L463.90 331.82 L464.95 330.84 L466.01 329.85 L467.09 328.87 L468.18 327.88 L469.30 326.90 L470.42 325.91 L471.57 324.93 L472.73 323.94 L473.92 322.96 L475.12 321.97 L476.34 320.99 L477.58 320.01 L478.84 319.02 L480.12 318.04 L481.43 317.06 L482.75 316.07 L484.10 315.09 L485.47 314.11 L486.86 313.12 L488.28 312.14 L489.73 311.16 L491.19 310.18 L492.69 309.19 L494.21 308.21 L495.76 307.23 L497.34 306.25 L498.95 305.27 L500.58 304.28 L502.25 303.30 L503.95 302.32 L505.68 301.34 L507.45 300.36 L509.25 299.38 L511.09 298.40 L512.96 297.42 L514.87 296.44 L516.82 295.46 L518.81 294.48 L520.81 293.51 L522.81 292.57 L524.81 291.64 L526.81 290.73 L528.81 289.84 L530.81 288.97 L532.81 288.11 L534.81 287.27 L536.81 286.45 L538.81 285.64 L540.81 284.85 L542.81 284.07 L544.81 283.30 L546.81 282.55 L548.81 281.81 L550.81 281.09 L552.81 280.38 L554.81 279.68 L556.81 278.99 L558.81 278.31 L560.81 277.65 L562.81 277.00 L564.81 276.36 L566.81 275.72 L568.81 275.10 L570.81 274.49 L572.81 273.89 L574.81 273.30 L576.81 272.72 L578.81 272.14 L580.81 271.58 L582.81 271.02 L584.81 270.48 L586.81 269.94 L588.81 269.41 L590.81 268.89 L592.81 268.37 L594.81 267.87 L596.81 267.37 L598.81 266.87 L600.81 266.39 L602.81 265.91 L604.81 265.44 L606.81 264.98 L608.81 264.52 L610.81 264.07 L612.81 263.62 L614.81 263.18 L616.81 262.75 L618.81 262.32 L620.81 261.90 L622.81 261.48 L624.81 261.07 L626.81 260.67 L628.81 260.27 L630.81 259.88 L632.81 259.49 L634.81 259.10 L636.81 258.72 L638.81 258.35 L640.81 257.98 L642.81 257.62 L644.81 257.26 L646.81 256.90 L648.81 256.55 " style="fill:none;stroke:#000000;stroke-width:1;" /><path d="M-10.00 200.00 L-0.25 124.94 L0.75 124.71 L2.75 124.24 L4.75 123.77 L6.75 123.29 L8.75 122.80 L10.75 122.31 L12.75 121.81 L14.75 121.31 L16.75 120.80 L18.75 120.28 L20.75 119.76 L22.75 119.23 L24.75 118.69 L26.75 118.14 L28.75 117.59 L30.75 117.03 L32.75 116.46 L34.75 115.89 L36.75 115.30 L38.75 114.71 L40.75 114.11 L42.75 113.50 L44.75 112.88 L46.75 112.26 L48.75 111.62 L50.75 110.98 L52.75 110.32 L54.75 109.66 L56.75 108.99 L58.75 108.30 L60.75 107.61 L62.75 106.91 L64.75 106.19 L66.75 105.46 L68.75 104.73 L70.75 103.98 L72.75 103.21 L74.75 102.44 L76.75 101.66 L78.75 100.86 L80.75 100.04 L82.75 99.22 L84.75 98.38 L86.75 97.53 L88.75 96.66 L90.75 95.78 L92.75 94.88 L94.75 93.97 L96.75 93.04 L98.75 92.09 L100.75 91.13 L102.75 90.15 L104.75 89.15 L106.75 88.14 L108.72 87.12 L110.65 86.10 L112.55 85.08 L114.42 84.06 L116.25 83.05 L118.05 82.03 L119.82 81.01 L121.56 79.99 L123.27 78.98 L124.95 77.96 L126.60 76.94 L128.23 75.93 L129.83 74.91 L131.40 73.89 L132.95 72.88 L134.47 71.86 L135.97 70.85 L137.44 69.83 L138.90 68.81 L140.33 67.80 L141.73 66.78 L143.12 65.77 L144.49 64.75 L145.83 63.74 L147.16 62.72 L148.46 61.71 L149.75 60.69 L151.01 59.68 L152.26 58.66 L153.49 57.65 L154.71 56.63 L155.90 55.62 L157.08 54.61 L158.25 53.59 L159.39 52.58 L160.52 51.56 L161.64 50.55 L162.74 49.54 L163.83 48.52 L164.90 47.51 L165.95 46.50 L167.00 45.48 L168.03 44.47 L169.04 43.46 L170.05 42.44 L171.04 41.43 L172.01 40.42 L172.98 39.41 L173.93 38.39 L174.87 37.38 L175.80 36.37 L176.72 35.36 L177.62 34.34 L178.52 33.33 L179.40 32.32 L180.28 31.31 L181.14 30.29 L181.99 29.28 L182.83 28.27 L183.67 27.26 L184.49 26.25 L185.30 25.23 L186.11 24.22 L186.90 23.21 L187.69 22.20 L188.46 21.19 L189.23 20.18 L189.99 19.17 L190.74 18.15 L191.49 17.14 L192.22 16.13 L192.95 15.12 L193.66 14.11 L194.37 13.10 L195.08 12.09 L195.77 11.08 L196.46 10.07 L197.14 9.06 L197.81 8.05 L198.48 7.03 L199.14 6.02 L199.79 5.01 L200.44 4.00 L201.08 2.99 L201.71 1.98 L202.33 0.97 L202.95 -0.04 M447.07 400.00 L447.07 400.00 L447.68 399.00 L448.29 398.01 L448.91 397.02 L449.54 396.03 L450.17 395.04 L450.81 394.05 L451.46 393.06 L452.11 392.07 L452.77 391.09 L453.43 390.10 L454.10 389.11 L454.78 388.12 L455.47 387.13 L456.16 386.14 L456.86 385.15 L457.57 384.16 L458.29 383.17 L459.01 382.18 L459.74 381.19 L460.48 380.20 L461.23 379.21 L461.99 378.22 L462.75 377.23 L463.52 376.25 L464.30 375.26 L465.10 374.27 L465.89 373.28 L466.70 372.29 L467.52 371.30 L468.35 370.31 L469.18 369.32 L470.03 368.34 L470.89 367.35 L471.75 366.36 L472.63 365.37 L473.52 364.38 L474.42 363.40 L475.33 362.41 L476.25 361.42 L477.18 360.43 L478.12 359.44 L479.07 358.46 L480.04 357.47 L481.02 356.48 L482.01 355.49 L483.01 354.51 L484.03 353.52 L485.06 352.53 L486.10 351.54 L487.16 350.56 L488.23 349.57 L489.31 348.58 L490.41 347.60 L491.52 346.61 L492.65 345.62 L493.80 344.64 L494.95 343.65 L496.13 342.66 L497.32 341.68 L498.53 340.69 L499.75 339.71 L501.00 338.72 L502.26 337.73 L503.53 336.75 L504.83 335.76 L506.14 334.78 L507.48 333.79 L508.83 332.81 L510.21 331.82 L511.60 330.84 L513.02 329.85 L514.45 328.87 L515.91 327.88 L517.39 326.90 L518.90 325.91 L520.43 324.93 L521.98 323.94 L523.56 322.96 L525.16 321.97 L526.79 320.99 L528.44 320.01 L530.12 319.02 L531.83 318.04 L533.57 317.06 L535.34 316.07 L537.13 315.09 L538.96 314.11 L540.82 313.12 L542.71 312.14 L544.63 311.16 L546.59 310.18 L548.59 309.19 L550.59 308.22 L552.59 307.27 L554.59 306.34 L556.59 305.42 L558.59 304.52 L560.59 303.63 L562.59 302.76 L564.59 301.90 L566.59 301.06 L568.59 300.23 L570.59 299.41 L572.59 298.61 L574.59 297.82 L576.59 297.04 L578.59 296.28 L580.59 295.52 L582.59 294.78 L584.59 294.05 L586.59 293.33 L588.59 292.62 L590.59 291.93 L592.59 291.24 L594.59 290.56 L596.59 289.89 L598.59 289.24 L600.59 288.59 L602.59 287.95 L604.59 287.32 L606.59 286.70 L608.59 286.09 L610.59 285.49 L612.59 284.89 L614.59 284.31 L616.59 283.73 L618.59 283.16 L620.59 282.60 L622.59 282.04 L624.59 281.49 L626.59 280.95 L628.59 280.42 L630.59 279.89 L632.59 279.37 L634.59 278.86 L636.59 278.35 L638.59 277.85 L640.59 277.36 L642.59 276.87 L644.59 276.39 L646.59 275.92 L648.59 275.45 " style="fill:none;stroke:#000000;stroke-width:1;" /><path d="M-10.00 200.00 L-0.25 209.38 L0.75 209.41 L2.75 209.47 L4.75 209.53 L6.75 209.59 L8.75 209.65 L10.75 209.71 L12.75 209.77 L14.75 209.84 L16.75 209.90 L18.75 209.96 L20.75 210.03 L22.75 210.10 L24.75 210.16 L26.75 210.23 L28.75 210.30 L30.75 210.37 L32.75 210.44 L34.75 210.51 L36.75 210.59 L38.75 210.66 L40.75 210.74 L42.75 210.81 L44.75 210.89 L46.75 210.97 L48.75 211.05 L50.75 211.13 L52.75 211.21 L54.75 211.29 L56.75 211.38 L58.75 211.46 L60.75 211.55 L62.75 211.64 L64.75 211.73 L66.75 211.82 L68.75 211.91 L70.75 212.00 L72.75 212.10 L74.75 212.19 L76.75 212.29 L78.75 212.39 L80.75 212.49 L82.75 212.60 L84.75 212.70 L86.75 212.81 L88.75 212.92 L90.75 213.03 L92.75 213.14 L94.75 213.25 L96.75 213.37 L98.75 213.49 L100.75 213.61 L102.75 213.73 L104.75 213.86 L106.75 213.98 L108.75 214.11 L110.75 214.24 L112.75 214.38 L114.75 214.51 L116.75 214.65 L118.75 214.80 L120.75 214.94 L122.75 215.09 L124.75 215.24 L126.75 215.39 L128.75 215.55 L130.75 215.71 L132.75 215.87 L134.75 216.04 L136.75 216.21 L138.75 216.39 L140.75 216.56 L142.75 216.74 L144.75 216.93 L146.75 217.12 L148.75 217.31 L150.75 217.51 L152.75 217.72 L154.75 217.93 L156.75 218.14 L158.75 218.36 L160.75 218.58 L162.75 218.81 L164.75 219.04 L166.75 219.28 L168.75 219.53 L170.75 219.78 L172.75 220.04 L174.75 220.31 L176.75 220.59 L178.75 220.87 L180.75 221.16 L182.75 221.45 L184.75 221.76 L186.75 222.07 L188.75 222.40 L190.75 222.73 L192.75 223.08 L194.75 223.43 L196.75 223.80 L198.75 224.17 L200.75 224.56 L202.75 224.96 L204.75 225.38 L206.75 225.81 L208.75 226.25 L210.75 226.71 L212.75 227.19 L214.75 227.68 L216.75 228.19 L218.75 228.72 L220.75 229.27 L222.75 229.85 L224.75 230.44 L226.75 231.06 L228.75 231.71 L230.75 232.38 L232.75 233.08 L234.75 233.81 L236.75 234.58 L238.75 235.38 L240.75 236.22 L242.75 237.10 L244.75 238.03 L246.75 239.00 L248.75 240.02 L250.71 241.08 L252.56 242.13 L254.33 243.18 L256.00 244.23 L257.60 245.28 L259.12 246.33 L260.58 247.37 L261.97 248.42 L263.30 249.46 L264.57 250.50 L265.80 251.55 L266.97 252.59 L268.09 253.63 L269.18 254.67 L270.22 255.71 L271.22 256.74 L272.19 257.78 L273.12 258.82 L274.01 259.85 L274.88 260.89 L275.72 261.92 L276.53 262.96 L277.31 263.99 L278.07 265.02 L278.80 266.06 L279.51 267.09 L280.20 268.12 L280.87 269.15 L281.52 270.18 L282.14 271.21 L282.76 272.24 L283.35 273.27 L283.92 274.30 L284.49 275.33 L285.03 276.35 L285.56 277.38 L286.08 278.41 L286.58 279.43 L287.07 280.46 L287.55 281.49 L288.01 282.51 L288.47 283.54 L288.91 284.56 L289.34 285.59 L289.76 286.61 L290.18 287.63 L290.58 288.66 L290.97 289.68 L291.35 290.70 L291.73 291.73 L292.10 292.75 L292.46 293.77 L292.81 294.79 L293.15 295.82 L293.49 296.84 L293.81 297.86 L294.14 298.88 L294.45 299.90 L294.76 300.92 L295.06 301.94 L295.36 302.96 L295.65 303.98 L295.94 305.00 L296.22 306.02 L296.49 307.04 L296.76 308.06 L297.02 309.08 L297.28 310.10 L297.54 311.12 L297.78 312.13 L298.03 313.15 L298.27 314.17 L298.51 315.19 L298.74 316.21 L298.97 317.22 L299.19 318.24 L299.41 319.26 L299.63 320.28 L299.84 321.29 L300.05 322.31 L300.25 323.33 L300.46 324.34 L300.66 325.36 L300.85 326.38 L301.04 327.39 L301.23 328.41 L301.42 329.43 L301.60 330.44 L301.79 331.46 L301.96 332.47 L302.14 333.49 L302.31 334.50 L302.48 335.52 L302.65 336.53 L302.81 337.55 L302.98 338.56 L303.14 339.58 L303.29 340.59 L303.45 341.61 L303.60 342.62 L303.75 343.64 L303.90 344.65 L304.05 345.66 L304.19 346.68 L304.34 347.69 L304.48 348.71 L304.62 349.72 L304.75 350.73 L304.89 351.75 L305.02 352.76 L305.15 353.77 L305.28 354.79 L305.41 355.80 L305.54 356.81 L305.66 357.83 L305.79 358.84 L305.91 359.85 L306.03 360.86 L306.15 361.88 L306.26 362.89 L306.38 363.90 L306.49 364.92 L306.61 365.93 L306.72 366.94 L306.83 367.95 L306.94 368.96 L307.05 369.98 L307.15 370.99 L307.26 372.00 L307.36 373.01 L307.46 374.02 L307.56 375.04 L307.67 376.05 L307.76 377.06 L307.86 378.07 L307.96 379.08 L308.05 380.09 L308.15 381.10 L308.24 382.12 L308.34 383.13 L308.43 384.14 L308.52 385.15 L308.61 386.16 L308.70 387.17 L308.78 388.18 L308.87 389.19 L308.96 390.20 L309.04 391.21 L309.12 392.22 L309.21 393.23 L309.29 394.25 L309.37 395.26 L309.45 396.27 L309.53 397.28 L309.61 398.29 L309.69 399.30 L309.76 400.31 M340.26 -0.00 L340.26 0.01 L340.34 1.01 L340.41 2.00 L340.49 2.99 L340.57 3.98 L340.65 4.97 L340.73 5.96 L340.81 6.95 L340.89 7.94 L340.97 8.93 L341.05 9.91 L341.14 10.90 L341.22 11.89 L341.31 12.88 L341.40 13.87 L341.48 14.86 L341.57 15.85 L341.66 16.84 L341.75 17.83 L341.84 18.82 L341.94 19.81 L342.03 20.80 L342.12 21.79 L342.22 22.78 L342.32 23.76 L342.41 24.75 L342.51 25.74 L342.61 26.73 L342.71 27.72 L342.82 28.71 L342.92 29.70 L343.02 30.69 L343.13 31.67 L343.24 32.66 L343.35 33.65 L343.46 34.64 L343.57 35.63 L343.68 36.61 L343.79 37.60 L343.91 38.59 L344.02 39.58 L344.14 40.57 L344.26 41.55 L344.38 42.54 L344.50 43.53 L344.63 44.52 L344.75 45.50 L344.88 46.49 L345.01 47.48 L345.14 48.47 L345.27 49.45 L345.40 50.44 L345.54 51.43 L345.68 52.41 L345.82 53.40 L345.96 54.39 L346.10 55.37 L346.25 56.36 L346.39 57.35 L346.54 58.33 L346.69 59.32 L346.85 60.30 L347.00 61.29 L347.16 62.28 L347.32 63.26 L347.48 64.25 L347.64 65.23 L347.81 66.22 L347.98 67.20 L348.15 68.19 L348.33 69.17 L348.50 70.16 L348.68 71.14 L348.87 72.13 L349.05 73.11 L349.24 74.10 L349.43 75.08 L349.62 76.07 L349.82 77.05 L350.02 78.04 L350.23 79.02 L350.43 80.00 L350.64 80.99 L350.86 81.97 L351.07 82.95 L351.29 83.94 L351.52 84.92 L351.75 85.90 L351.98 86.89 L352.22 87.87 L352.46 88.85 L352.70 89.83 L352.95 90.82 L353.20 91.80 L353.46 92.78 L353.73 93.76 L353.99 94.74 L354.27 95.73 L354.54 96.71 L354.83 97.69 L355.12 98.67 L355.41 99.65 L355.71 100.63 L356.02 101.61 L356.33 102.59 L356.65 103.57 L356.97 104.55 L357.30 105.53 L357.64 106.51 L357.99 107.49 L358.34 108.47 L358.70 109.45 L359.07 110.43 L359.45 111.41 L359.83 112.38 L360.22 113.36 L360.63 114.34 L361.04 115.32 L361.46 116.29 L361.89 117.27 L362.33 118.25 L362.78 119.22 L363.24 120.20 L363.72 121.18 L364.20 122.15 L364.70 123.13 L365.21 124.10 L365.73 125.08 L366.27 126.05 L366.82 127.02 L367.38 128.00 L367.97 128.97 L368.56 129.94 L369.18 130.92 L369.81 131.89 L370.45 132.86 L371.12 133.83 L371.81 134.80 L372.52 135.77 L373.24 136.74 L374.00 137.71 L374.77 138.68 L375.57 139.65 L376.39 140.62 L377.25 141.59 L378.13 142.56 L379.04 143.52 L379.98 144.49 L380.95 145.46 L381.96 146.42 L383.00 147.39 L384.08 148.35 L385.21 149.31 L386.37 150.28 L387.58 151.24 L388.84 152.20 L390.15 153.16 L391.51 154.12 L392.93 155.08 L394.42 156.04 L395.96 156.99 L397.57 157.95 L399.26 158.91 L401.03 159.86 L402.88 160.81 L404.82 161.77 L406.82 162.70 L408.82 163.59 L410.82 164.44 L412.82 165.25 L414.82 166.02 L416.82 166.76 L418.82 167.47 L420.82 168.15 L422.82 168.80 L424.82 169.43 L426.82 170.03 L428.82 170.60 L430.82 171.16 L432.82 171.70 L434.82 172.21 L436.82 172.71 L438.82 173.19 L440.82 173.65 L442.82 174.10 L444.82 174.53 L446.82 174.95 L448.82 175.35 L450.82 175.74 L452.82 176.12 L454.82 176.49 L456.82 176.85 L458.82 177.19 L460.82 177.53 L462.82 177.86 L464.82 178.17 L466.82 178.48 L468.82 178.78 L470.82 179.07 L472.82 179.35 L474.82 179.63 L476.82 179.90 L478.82 180.16 L480.82 180.41 L482.82 180.66 L484.82 180.90 L486.82 181.14 L488.82 181.37 L490.82 181.60 L492.82 181.82 L494.82 182.03 L496.82 182.24 L498.82 182.44 L500.82 182.64 L502.82 182.84 L504.82 183.03 L506.82 183.22 L508.82 183.40 L510.82 183.58 L512.82 183.75 L514.82 183.92 L516.82 184.09 L518.82 184.25 L520.82 184.42 L522.82 184.57 L524.82 184.73 L526.82 184.88 L528.82 185.03 L530.82 185.17 L532.82 185.32 L534.82 185.46 L536.82 185.59 L538.82 185.73 L540.82 185.86 L542.82 185.99 L544.82 186.12 L546.82 186.24 L548.82 186.37 L550.82 186.49 L552.82 186.60 L554.82 186.72 L556.82 186.84 L558.82 186.95 L560.82 187.06 L562.82 187.17 L564.82 187.27 L566.82 187.38 L568.82 187.48 L570.82 187.59 L572.82 187.69 L574.82 187.78 L576.82 187.88 L578.82 187.98 L580.82 188.07 L582.82 188.16 L584.82 188.25 L586.82 188.34 L588.82 188.43 L590.82 188.52 L592.82 188.61 L594.82 188.69 L596.82 188.77 L598.82 188.85 L600.82 188.94 L602.82 189.02 L604.82 189.09 L606.82 189.17 L608.82 189.25 L610.82 189.32 L612.82 189.40 L614.82 189.47 L616.82 189.54 L618.82 189.61 L620.82 189.68 L622.82 189.75 L624.82 189.82 L626.82 189.89 L628.82 189.96 L630.82 190.02 L632.82 190.09 L634.82 190.15 L636.82 190.21 L638.82 190.28 L640.82 190.34 L642.82 190.40 L644.82 190.46 L646.82 190.52 L648.82 190.58 " style="fill:none;stroke:#000000;stroke-width:1;" /><path d="M-10.00 200.00 L-0.25 190.62 L0.75 190.59 L2.75 190.53 L4.75 190.47 L6.75 190.41 L8.75 190.35 L10.75 190.29 L12.75 190.23 L14.75 190.16 L16.75 190.10 L18.75 190.04 L20.75 189.97 L22.75 189.90 L24.75 189.84 L26.75 189.77 L28.75 189.70 L30.75 189.63 L32.75 189.56 L34.75 189.49 L36.75 189.41 L38.75 189.34 L40.75 189.26 L42.75 189.19 L44.75 189.11 L46.75 189.03 L48.75 188.95 L50.75 188.87 L52.75 188.79 L54.75 188.71 L56.75 188.62 L58.75 188.54 L60.75 188.45 L62.75 188.36 L64.75 188.27 L66.75 188.18 L68.75 188.09 L70.75 188.00 L72.75 187.90 L74.75 187.81 L76.75 187.71 L78.75 187.61 L80.75 187.51 L82.75 187.40 L84.75 187.30 L86.75 187.19 L88.75 187.08 L90.75 186.97 L92.75 186.86 L94.75 186.75 L96.75 186.63 L98.75 186.51 L100.75 186.39 L102.75 186.27 L104.75 186.14 L106.75 186.02 L108.75 185.89 L110.75 185.76 L112.75 185.62 L114.75 185.49 L116.75 185.35 L118.75 185.20 L120.75 185.06 L122.75 184.91 L124.75 184.76 L126.75 184.61 L128.75 184.45 L130.75 184.29 L132.75 184.13 L134.75 183.96 L136.75 183.79 L138.75 183.61 L140.75 183.44 L142.75 183.26 L144.75 183.07 L146.75 182.88 L148.75 182.69 L150.75 182.49 L152.75 182.28 L154.75 182.07 L156.75 181.86 L158.75 181.64 L160.75 181.42 L162.75 181.19 L164.75 180.96 L166.75 180.72 L168.75 180.47 L170.75 180.22 L172.75 179.96 L174.75 179.69 L176.75 179.41 L178.75 179.13 L180.75 178.84 L182.75 178.55 L184.75 178.24 L186.75 177.93 L188.75 177.60 L190.75 177.27 L192.75 176.92 L194.75 176.57 L196.75 176.20 L198.75 175.83 L200.75 175.44 L202.75 175.04 L204.75 174.62 L206.75 174.19 L208.75 173.75 L210.75 173.29 L212.75 172.81 L214.75 172.32 L216.75 171.81 L218.75 171.28 L220.75 170.73 L222.75 170.15 L224.75 169.56 L226.75 168.94 L228.75 168.29 L230.75 167.62 L232.75 166.92 L234.75 166.19 L236.75 165.42 L238.75 164.62 L240.75 163.78 L242.75 162.90 L244.75 161.97 L246.75 161.00 L248.75 159.98 L250.71 158.92 L252.56 157.87 L254.33 156.82 L256.00 155.77 L257.60 154.72 L259.12 153.67 L260.58 152.63 L261.97 151.58 L263.30 150.54 L264.57 149.50 L265.80 148.45 L266.97 147.41 L268.09 146.37 L269.18 145.33 L270.22 144.29 L271.22 143.26 L272.19 142.22 L273.12 141.18 L274.01 140.15 L274.88 139.11 L275.72 138.08 L276.53 137.04 L277.31 136.01 L278.07 134.98 L278.80 133.94 L279.51 132.91 L280.20 131.88 L280.87 130.85 L281.52 129.82 L282.14 128.79 L282.76 127.76 L283.35 126.73 L283.92 125.70 L284.49 124.67 L285.03 123.65 L285.56 122.62 L286.08 121.59 L286.58 120.57 L287.07 119.54 L287.55 118.51 L288.01 117.49 L288.47 116.46 L288.91 115.44 L289.34 114.41 L289.76 113.39 L290.18 112.37 L290.58 111.34 L290.97 110.32 L291.35 109.30 L291.73 108.27 L292.10 107.25 L292.46 106.23 L292.81 105.21 L293.15 104.18 L293.49 103.16 L293.81 102.14 L294.14 101.12 L294.45 100.10 L294.76 99.08 L295.06 98.06 L295.36 97.04 L295.65 96.02 L295.94 95.00 L296.22 93.98 L296.49 92.96 L296.76 91.94 L297.02 90.92 L297.28 89.90 L297.54 88.88 L297.78 87.87 L298.03 86.85 L298.27 85.83 L298.51 84.81 L298.74 83.79 L298.97 82.78 L299.19 81.76 L299.41 80.74 L299.63 79.72 L299.84 78.71 L300.05 77.69 L300.25 76.67 L300.46 75.66 L300.66 74.64 L300.85 73.62 L301.04 72.61 L301.23 71.59 L301.42 70.57 L301.60 69.56 L301.79 68.54 L301.96 67.53 L302.14 66.51 L302.31 65.50 L302.48 64.48 L302.65 63.47 L302.81 62.45 L302.98 61.44 L303.14 60.42 L303.29 59.41 L303.45 58.39 L303.60 57.38 L303.75 56.36 L303.90 55.35 L304.05 54.34 L304.19 53.32 L304.34 52.31 L304.48 51.29 L304.62 50.28 L304.75 49.27 L304.89 48.25 L305.02 47.24 L305.15 46.23 L305.28 45.21 L305.41 44.20 L305.54 43.19 L305.66 42.17 L305.79 41.16 L305.91 40.15 L306.03 39.14 L306.15 38.12 L306.26 37.11 L306.38 36.10 L306.49 35.08 L306.61 34.07 L306.72 33.06 L306.83 32.05 L306.94 31.04 L307.05 30.02 L307.15 29.01 L307.26 28.00 L307.36 26.99 L307.46 25.98 L307.56 24.96 L307.67 23.95 L307.76 22.94 L307.86 21.93 L307.96 20.92 L308.05 19.91 L308.15 18.90 L308.24 17.88 L308.34 16.87 L308.43 15.86 L308.52 14.85 L308.61 13.84 L308.70 12.83 L308.78 11.82 L308.87 10.81 L308.96 9.80 L309.04 8.79 L309.12 7.78 L309.21 6.77 L309.29 5.75 L309.37 4.74 L309.45 3.73 L309.53 2.72 L309.61 1.71 L309.69 0.70 L309.76 -0.31 M340.26 400.00 L340.26 399.99 L340.34 398.99 L340.41 398.00 L340.49 397.01 L340.57 396.02 L340.65 395.03 L340.73 394.04 L340.81 393.05 L340.89 392.06 L340.97 391.07 L341.05 390.09 L341.14 389.10 L341.22 388.11 L341.31 387.12 L341.40 386.13 L341.48 385.14 L341.57 384.15 L341.66 383.16 L341.75 382.17 L341.84 381.18 L341.94 380.19 L342.03 379.20 L342.12 378.21 L342.22 377.22 L342.32 376.24 L342.41 375.25 L342.51 374.26 L342.61 373.27 L342.71 372.28 L342.82 371.29 L342.92 370.30 L343.02 369.31 L343.13 368.33 L343.24 367.34 L343.35 366.35 L343.46 365.36 L343.57 364.37 L343.68 363.39 L343.79 362.40 L343.91 361.41 L344.02 360.42 L344.14 359.43 L344.26 358.45 L344.38 357.46 L344.50 356.47 L344.63 355.48 L344.75 354.50 L344.88 353.51 L345.01 352.52 L345.14 351.53 L345.27 350.55 L345.40 349.56 L345.54 348.57 L345.68 347.59 L345.82 346.60 L345.96 345.61 L346.10 344.63 L346.25 343.64 L346.39 342.65 L346.54 341.67 L346.69 340.68 L346.85 339.70 L347.00 338.71 L347.16 337.72 L347.32 336.74 L347.48 335.75 L347.64 334.77 L347.81 333.78 L347.98 332.80 L348.15 331.81 L348.33 330.83 L348.50 329.84 L348.68 328.86 L348.87 327.87 L349.05 326.89 L349.24 325.90 L349.43 324.92 L349.62 323.93 L349.82 322.95 L350.02 321.96 L350.23 320.98 L350.43 320.00 L350.64 319.01 L350.86 318.03 L351.07 317.05 L351.29 316.06 L351.52 315.08 L351.75 314.10 L351.98 313.11 L352.22 312.13 L352.46 311.15 L352.70 310.17 L352.95 309.18 L353.20 308.20 L353.46 307.22 L353.73 306.24 L353.99 305.26 L354.27 304.27 L354.54 303.29 L354.83 302.31 L355.12 301.33 L355.41 300.35 L355.71 299.37 L356.02 298.39 L356.33 297.41 L356.65 296.43 L356.97 295.45 L357.30 294.47 L357.64 293.49 L357.99 292.51 L358.34 291.53 L358.70 290.55 L359.07 289.57 L359.45 288.59 L359.83 287.62 L360.22 286.64 L360.63 285.66 L361.04 284.68 L361.46 283.71 L361.89 282.73 L362.33 281.75 L362.78 280.78 L363.24 279.80 L363.72 278.82 L364.20 277.85 L364.70 276.87 L365.21 275.90 L365.73 274.92 L366.27 273.95 L366.82 272.98 L367.38 272.00 L367.97 271.03 L368.56 270.06 L369.18 269.08 L369.81 268.11 L370.45 267.14 L371.12 266.17 L371.81 265.20 L372.52 264.23 L373.24 263.26 L374.00 262.29 L374.77 261.32 L375.57 260.35 L376.39 259.38 L377.25 258.41 L378.13 257.44 L379.04 256.48 L379.98 255.51 L380.95 254.54 L381.96 253.58 L383.00 252.61 L384.08 251.65 L385.21 250.69 L386.37 249.72 L387.58 248.76 L388.84 247.80 L390.15 246.84 L391.51 245.88 L392.93 244.92 L394.42 243.96 L395.96 243.01 L397.57 242.05 L399.26 241.09 L401.03 240.14 L402.88 239.19 L404.82 238.23 L406.82 237.30 L408.82 236.41 L410.82 235.56 L412.82 234.75 L414.82 233.98 L416.82 233.24 L418.82 232.53 L420.82 231.85 L422.82 231.20 L424.82 230.57 L426.82 229.97 L428.82 229.40 L430.82 228.84 L432.82 228.30 L434.82 227.79 L436.82 227.29 L438.82 226.81 L440.82 226.35 L442.82 225.90 L444.82 225.47 L446.82 225.05 L448.82 224.65 L450.82 224.26 L452.82 223.88 L454.82 223.51 L456.82 223.15 L458.82 222.81 L460.82 222.47 L462.82 222.14 L464.82 221.83 L466.82 221.52 L468.82 221.22 L470.82 220.93 L472.82 220.65 L474.82 220.37 L476.82 220.10 L478.82 219.84 L480.82 219.59 L482.82 219.34 L484.82 219.10 L486.82 218.86 L488.82 218.63 L490.82 218.40 L492.82 218.18 L494.82 217.97 L496.82 217.76 L498.82 217.56 L500.82 217.36 L502.82 217.16 L504.82 216.97 L506.82 216.78 L508.82 216.60 L510.82 216.42 L512.82 216.25 L514.82 216.08 L516.82 215.91 L518.82 215.75 L520.82 215.58 L522.82 215.43 L524.82 215.27 L526.82 215.12 L528.82 214.97 L530.82 214.83 L532.82 214.68 L534.82 214.54 L536.82 214.41 L538.82 214.27 L540.82 214.14 L542.82 214.01 L544.82 213.88 L546.82 213.76 L548.82 213.63 L550.82 213.51 L552.82 213.40 L554.82 213.28 L556.82 213.16 L558.82 213.05 L560.82 212.94 L562.82 212.83 L564.82 212.73 L566.82 212.62 L568.82 212.52 L570.82 212.41 L572.82 212.31 L574.82 212.22 L576.82 212.12 L578.82 212.02 L580.82 211.93 L582.82 211.84 L584.82 211.75 L586.82 211.66 L588.82 211.57 L590.82 211.48 L592.82 211.39 L594.82 211.31 L596.82 211.23 L598.82 211.15 L600.82 211.06 L602.82 210.98 L604.82 210.91 L606.82 210.83 L608.82 210.75 L610.82 210.68 L612.82 210.60 L614.82 210.53 L616.82 210.46 L618.82 210.39 L620.82 210.32 L622.82 210.25 L624.82 210.18 L626.82 210.11 L628.82 210.04 L630.82 209.98 L632.82 209.91 L634.82 209.85 L636.82 209.79 L638.82 209.72 L640.82 209.66 L642.82 209.60 L644.82 209.54 L646.82 209.48 L648.82 209.42 " style="fill:none;stroke:#000000;stroke-width:1;" /><path d="M-10.00 200.00 L-0.25 106.17 L0.75 105.88 L2.75 105.30 L4.75 104.71 L6.75 104.11 L8.75 103.50 L10.75 102.89 L12.75 102.27 L14.75 101.64 L16.75 101.00 L18.75 100.35 L20.75 99.70 L22.75 99.03 L24.75 98.36 L26.75 97.68 L28.75 96.99 L30.75 96.29 L32.75 95.58 L34.75 94.86 L36.75 94.13 L38.75 93.39 L40.75 92.64 L42.75 91.88 L44.75 91.11 L46.75 90.32 L48.75 89.53 L50.75 88.72 L52.75 87.91 L54.75 87.08 L56.75 86.23 L58.75 85.38 L60.75 84.51 L62.75 83.63 L64.75 82.74 L66.75 81.83 L68.75 80.91 L70.75 79.97 L72.75 79.02 L74.75 78.05 L76.75 77.07 L78.75 76.07 L80.75 75.06 L82.72 74.04 L84.66 73.02 L86.57 72.01 L88.45 70.99 L90.29 69.98 L92.11 68.96 L93.90 67.94 L95.67 66.93 L97.40 65.91 L99.12 64.90 L100.80 63.88 L102.46 62.87 L104.09 61.85 L105.71 60.84 L107.29 59.82 L108.86 58.81 L110.40 57.79 L111.92 56.78 L113.42 55.77 L114.89 54.75 L116.35 53.74 L117.79 52.72 L119.20 51.71 L120.60 50.70 L121.98 49.68 L123.34 48.67 L124.68 47.65 L126.01 46.64 L127.31 45.63 L128.60 44.61 L129.87 43.60 L131.13 42.59 L132.37 41.58 L133.59 40.56 L134.80 39.55 L135.99 38.54 L137.17 37.52 L138.33 36.51 L139.48 35.50 L140.62 34.49 L141.74 33.48 L142.85 32.46 L143.94 31.45 L145.02 30.44 L146.09 29.43 L147.14 28.41 L148.19 27.40 L149.22 26.39 L150.24 25.38 L151.24 24.37 L152.24 23.36 L153.22 22.34 L154.19 21.33 L155.15 20.32 L156.10 19.31 L157.04 18.30 L157.97 17.29 L158.89 16.28 L159.80 15.27 L160.70 14.25 L161.59 13.24 L162.47 12.23 L163.34 11.22 L164.20 10.21 L165.05 9.20 L165.90 8.19 L166.73 7.18 L167.56 6.17 L168.37 5.16 L169.18 4.15 L169.98 3.14 L170.77 2.13 L171.56 1.12 L172.33 0.11 L173.10 -0.90 M477.59 400.00 L477.59 400.00 L478.35 399.00 L479.12 398.01 L479.89 397.02 L480.67 396.03 L481.46 395.04 L482.26 394.05 L483.07 393.06 L483.88 392.07 L484.71 391.09 L485.54 390.10 L486.38 389.11 L487.23 388.12 L488.09 387.13 L488.95 386.14 L489.83 385.15 L490.71 384.16 L491.61 383.17 L492.51 382.18 L493.43 381.19 L494.35 380.20 L495.29 379.21 L496.23 378.22 L497.19 377.23 L498.15 376.25 L499.13 375.26 L500.12 374.27 L501.12 373.28 L502.13 372.29 L503.15 371.30 L504.18 370.31 L505.23 369.32 L506.29 368.34 L507.36 367.35 L508.44 366.36 L509.54 365.37 L510.65 364.38 L511.77 363.40 L512.91 362.41 L514.06 361.42 L515.22 360.43 L516.40 359.44 L517.59 358.46 L518.80 357.47 L520.02 356.48 L521.26 355.49 L522.52 354.51 L523.79 353.52 L525.07 352.53 L526.38 351.54 L527.70 350.56 L529.03 349.57 L530.39 348.58 L531.76 347.60 L533.15 346.61 L534.56 345.62 L535.99 344.64 L537.44 343.65 L538.91 342.66 L540.40 341.68 L541.91 340.69 L543.44 339.71 L544.99 338.72 L546.57 337.73 L548.17 336.75 L549.79 335.76 L551.43 334.78 L553.10 333.79 L554.79 332.81 L556.51 331.82 L558.25 330.84 L560.02 329.85 L561.82 328.87 L563.64 327.88 L565.49 326.90 L567.37 325.91 L569.28 324.93 L571.22 323.94 L573.19 322.96 L575.19 321.98 L577.19 321.01 L579.19 320.06 L581.19 319.12 L583.19 318.20 L585.19 317.29 L587.19 316.39 L589.19 315.51 L591.19 314.64 L593.19 313.79 L595.19 312.95 L597.19 312.12 L599.19 311.30 L601.19 310.49 L603.19 309.70 L605.19 308.92 L607.19 308.14 L609.19 307.38 L611.19 306.63 L613.19 305.89 L615.19 305.16 L617.19 304.44 L619.19 303.73 L621.19 303.03 L623.19 302.34 L625.19 301.66 L627.19 300.99 L629.19 300.32 L631.19 299.67 L633.19 299.02 L635.19 298.38 L637.19 297.75 L639.19 297.13 L641.19 296.52 L643.19 295.91 L645.19 295.31 L647.19 294.72 L649.19 294.13 " style="fill:none;stroke:#000000;stroke-width:1;" /><path d="M-10.00 200.00 L-0.25 293.83 L0.75 294.12 L2.75 294.70 L4.75 295.29 L6.75 295.89 L8.75 296.50 L10.75 297.11 L12.75 297.73 L14.75 298.36 L16.75 299.00 L18.75 299.65 L20.75 300.30 L22.75 300.97 L24.75 301.64 L26.75 302.32 L28.75 303.01 L30.75 303.71 L32.75 304.42 L34.75 305.14 L36.75 305.87 L38.75 306.61 L40.75 307.36 L42.75 308.12 L44.75 308.89 L46.75 309.68 L48.75 310.47 L50.75 311.28 L52.75 312.09 L54.75 312.92 L56.75 313.77 L58.75 314.62 L60.75 315.49 L62.75 316.37 L64.75 317.26 L66.75 318.17 L68.75 319.09 L70.75 320.03 L72.75 320.98 L74.75 321.95 L76.75 322.93 L78.75 323.93 L80.75 324.94 L82.72 325.96 L84.66 326.98 L86.57 327.99 L88.45 329.01 L90.29 330.02 L92.11 331.04 L93.90 332.06 L95.67 333.07 L97.40 334.09 L99.12 335.10 L100.80 336.12 L102.46 337.13 L104.09 338.15 L105.71 339.16 L107.29 340.18 L108.86 341.19 L110.40 342.21 L111.92 343.22 L113.42 344.23 L114.89 345.25 L116.35 346.26 L117.79 347.28 L119.20 348.29 L120.60 349.30 L121.98 350.32 L123.34 351.33 L124.68 352.35 L126.01 353.36 L127.31 354.37 L128.60 355.39 L129.87 356.40 L131.13 357.41 L132.37 358.42 L133.59 359.44 L134.80 360.45 L135.99 361.46 L137.17 362.48 L138.33 363.49 L139.48 364.50 L140.62 365.51 L141.74 366.52 L142.85 367.54 L143.94 368.55 L145.02 369.56 L146.09 370.57 L147.14 371.59 L148.19 372.60 L149.22 373.61 L150.24 374.62 L151.24 375.63 L152.24 376.64 L153.22 377.66 L154.19 378.67 L155.15 379.68 L156.10 380.69 L157.04 381.70 L157.97 382.71 L158.89 383.72 L159.80 384.73 L160.70 385.75 L161.59 386.76 L162.47 387.77 L163.34 388.78 L164.20 389.79 L165.05 390.80 L165.90 391.81 L166.73 392.82 L167.56 393.83 L168.37 394.84 L169.18 395.85 L169.98 396.86 L170.77 397.87 L171.56 398.88 L172.33 399.89 L173.10 400.90 M477.59 -0.00 L477.59 0.00 L478.35 1.00 L479.12 1.99 L479.89 2.98 L480.67 3.97 L481.46 4.96 L482.26 5.95 L483.07 6.94 L483.88 7.93 L484.71 8.91 L485.54 9.90 L486.38 10.89 L487.23 11.88 L488.09 12.87 L488.95 13.86 L489.83 14.85 L490.71 15.84 L491.61 16.83 L492.51 17.82 L493.43 18.81 L494.35 19.80 L495.29 20.79 L496.23 21.78 L497.19 22.77 L498.15 23.75 L499.13 24.74 L500.12 25.73 L501.12 26.72 L502.13 27.71 L503.15 28.70 L504.18 29.69 L505.23 30.68 L506.29 31.66 L507.36 32.65 L508.44 33.64 L509.54 34.63 L510.65 35.62 L511.77 36.60 L512.91 37.59 L514.06 38.58 L515.22 39.57 L516.40 40.56 L517.59 41.54 L518.80 42.53 L520.02 43.52 L521.26 44.51 L522.52 45.49 L523.79 46.48 L525.07 47.47 L526.38 48.46 L527.70 49.44 L529.03 50.43 L530.39 51.42 L531.76 52.40 L533.15 53.39 L534.56 54.38 L535.99 55.36 L537.44 56.35 L538.91 57.34 L540.40 58.32 L541.91 59.31 L543.44 60.29 L544.99 61.28 L546.57 62.27 L548.17 63.25 L549.79 64.24 L551.43 65.22 L553.10 66.21 L554.79 67.19 L556.51 68.18 L558.25 69.16 L560.02 70.15 L561.82 71.13 L563.64 72.12 L565.49 73.10 L567.37 74.09 L569.28 75.07 L571.22 76.06 L573.19 77.04 L575.19 78.02 L577.19 78.99 L579.19 79.94 L581.19 80.88 L583.19 81.80 L585.19 82.71 L587.19 83.61 L589.19 84.49 L591.19 85.36 L593.19 86.21 L595.19 87.05 L597.19 87.88 L599.19 88.70 L601.19 89.51 L603.19 90.30 L605.19 91.08 L607.19 91.86 L609.19 92.62 L611.19 93.37 L613.19 94.11 L615.19 94.84 L617.19 95.56 L619.19 96.27 L621.19 96.97 L623.19 97.66 L625.19 98.34 L627.19 99.01 L629.19 99.68 L631.19 100.33 L633.19 100.98 L635.19 101.62 L637.19 102.25 L639.19 102.87 L641.19 103.48 L643.19 104.09 L645.19 104.69 L647.19 105.28 L649.19 105.87 " style="fill:none;stroke:#000000;stroke-width:1;" /><path d="M-10.00 200.00 L-0.25 312.59 L0.75 312.94 L2.75 313.64 L4.75 314.35 L6.75 315.07 L8.75 315.80 L10.75 316.53 L12.75 317.28 L14.75 318.04 L16.75 318.80 L18.75 319.58 L20.75 320.37 L22.75 321.16 L24.75 321.97 L26.75 322.79 L28.75 323.62 L30.75 324.46 L32.75 325.31 L34.75 326.17 L36.75 327.05 L38.75 327.93 L40.75 328.83 L42.75 329.75 L44.75 330.67 L46.75 331.61 L48.75 332.57 L50.75 333.53 L52.75 334.51 L54.75 335.51 L56.75 336.52 L58.73 337.53 L60.68 338.55 L62.60 339.56 L64.50 340.58 L66.36 341.59 L68.20 342.61 L70.02 343.62 L71.80 344.64 L73.57 345.65 L75.31 346.66 L77.02 347.68 L78.71 348.69 L80.38 349.71 L82.02 350.72 L83.65 351.73 L85.25 352.75 L86.83 353.76 L88.39 354.77 L89.93 355.79 L91.44 356.80 L92.94 357.81 L94.42 358.82 L95.89 359.84 L97.33 360.85 L98.75 361.86 L100.16 362.88 L101.55 363.89 L102.92 364.90 L104.27 365.91 L105.61 366.92 L106.94 367.94 L108.24 368.95 L109.53 369.96 L110.81 370.97 L112.07 371.99 L113.31 373.00 L114.54 374.01 L115.76 375.02 L116.96 376.03 L118.15 377.04 L119.33 378.06 L120.49 379.07 L121.64 380.08 L122.77 381.09 L123.90 382.10 L125.01 383.11 L126.10 384.12 L127.19 385.13 L128.27 386.14 L129.33 387.16 L130.38 388.17 L131.42 389.18 L132.45 390.19 L133.47 391.20 L134.47 392.21 L135.47 393.22 L136.46 394.23 L137.43 395.24 L138.40 396.25 L139.35 397.26 L140.30 398.27 L141.24 399.28 L142.16 400.29 M508.10 -0.00 L508.11 0.00 L509.02 1.00 L509.94 1.99 L510.87 2.98 L511.81 3.97 L512.76 4.96 L513.72 5.95 L514.68 6.94 L515.66 7.93 L516.65 8.91 L517.65 9.90 L518.65 10.89 L519.67 11.88 L520.70 12.87 L521.74 13.86 L522.79 14.85 L523.86 15.84 L524.93 16.83 L526.02 17.82 L527.11 18.81 L528.22 19.80 L529.34 20.79 L530.48 21.78 L531.63 22.77 L532.78 23.75 L533.96 24.74 L535.14 25.73 L536.34 26.72 L537.55 27.71 L538.78 28.70 L540.02 29.69 L541.28 30.67 L542.55 31.66 L543.83 32.65 L545.13 33.64 L546.45 34.63 L547.78 35.62 L549.13 36.60 L550.49 37.59 L551.87 38.58 L553.27 39.57 L554.68 40.56 L556.11 41.54 L557.56 42.53 L559.03 43.52 L560.51 44.51 L562.02 45.49 L563.54 46.48 L565.09 47.47 L566.65 48.46 L568.24 49.44 L569.84 50.43 L571.47 51.42 L573.12 52.40 L574.79 53.39 L576.48 54.38 L578.19 55.36 L579.93 56.35 L581.69 57.34 L583.48 58.32 L585.29 59.31 L587.13 60.29 L588.99 61.28 L590.88 62.27 L592.80 63.25 L594.74 64.24 L596.72 65.22 L598.72 66.21 L600.72 67.18 L602.72 68.13 L604.72 69.08 L606.72 70.01 L608.72 70.92 L610.72 71.83 L612.72 72.72 L614.72 73.60 L616.72 74.46 L618.72 75.32 L620.72 76.16 L622.72 76.99 L624.72 77.81 L626.72 78.62 L628.72 79.42 L630.72 80.21 L632.72 80.99 L634.72 81.76 L636.72 82.52 L638.72 83.27 L640.72 84.01 L642.72 84.74 L644.72 85.46 L646.72 86.17 L648.72 86.87 " style="fill:none;stroke:#000000;stroke-width:1;" /><path d="M-10.00 200.00 L-0.25 331.36 L0.75 331.76 L2.75 332.58 L4.75 333.41 L6.75 334.25 L8.75 335.10 L10.75 335.96 L12.75 336.83 L14.75 337.71 L16.75 338.60 L18.75 339.51 L20.75 340.43 L22.75 341.36 L24.75 342.30 L26.75 343.25 L28.75 344.22 L30.75 345.20 L32.75 346.19 L34.75 347.20 L36.74 348.21 L38.69 349.23 L40.63 350.24 L42.53 351.25 L44.41 352.27 L46.27 353.28 L48.10 354.29 L49.90 355.31 L51.69 356.32 L53.45 357.33 L55.18 358.35 L56.90 359.36 L58.59 360.37 L60.26 361.39 L61.91 362.40 L63.54 363.41 L65.15 364.42 L66.74 365.44 L68.32 366.45 L69.87 367.46 L71.40 368.47 L72.91 369.48 L74.41 370.50 L75.89 371.51 L77.35 372.52 L78.79 373.53 L80.22 374.54 L81.63 375.56 L83.03 376.57 L84.40 377.58 L85.77 378.59 L87.11 379.60 L88.45 380.61 L89.76 381.62 L91.07 382.63 L92.35 383.65 L93.63 384.66 L94.89 385.67 L96.13 386.68 L97.37 387.69 L98.59 388.70 L99.79 389.71 L100.99 390.72 L102.17 391.73 L103.33 392.74 L104.49 393.75 L105.63 394.76 L106.77 395.77 L107.89 396.79 L109.00 397.80 L110.09 398.81 L111.18 399.82 L112.26 400.83 M538.62 -0.00 L538.62 0.00 L539.69 1.00 L540.77 1.99 L541.85 2.98 L542.94 3.97 L544.05 4.96 L545.17 5.95 L546.30 6.94 L547.44 7.93 L548.59 8.92 L549.75 9.90 L550.93 10.89 L552.12 11.88 L553.32 12.87 L554.53 13.86 L555.76 14.85 L557.00 15.84 L558.25 16.83 L559.52 17.82 L560.80 18.81 L562.09 19.80 L563.40 20.79 L564.73 21.78 L566.06 22.77 L567.42 23.75 L568.78 24.74 L570.17 25.73 L571.57 26.72 L572.98 27.71 L574.41 28.70 L575.86 29.69 L577.32 30.68 L578.81 31.66 L580.30 32.65 L581.82 33.64 L583.36 34.63 L584.91 35.62 L586.48 36.60 L588.07 37.59 L589.68 38.58 L591.31 39.57 L592.96 40.56 L594.63 41.54 L596.32 42.53 L598.03 43.52 L599.77 44.51 L601.52 45.49 L603.30 46.48 L605.10 47.47 L606.93 48.46 L608.78 49.44 L610.65 50.43 L612.55 51.42 L614.47 52.40 L616.42 53.39 L618.39 54.38 L620.39 55.36 L622.39 56.34 L624.39 57.29 L626.39 58.24 L628.39 59.18 L630.39 60.10 L632.39 61.01 L634.39 61.91 L636.39 62.79 L638.39 63.67 L640.39 64.53 L642.39 65.39 L644.39 66.23 L646.39 67.06 L648.39 67.89 " style="fill:none;stroke:#000000;stroke-width:1;" /><path d="M-10.00 200.00 L-0.25 87.41 L0.75 87.06 L2.75 86.36 L4.75 85.65 L6.75 84.93 L8.75 84.20 L10.75 83.47 L12.75 82.72 L14.75 81.96 L16.75 81.20 L18.75 80.42 L20.75 79.63 L22.75 78.84 L24.75 78.03 L26.75 77.21 L28.75 76.38 L30.75 75.54 L32.75 74.69 L34.75 73.83 L36.75 72.95 L38.75 72.07 L40.75 71.17 L42.75 70.25 L44.75 69.33 L46.75 68.39 L48.75 67.43 L50.75 66.47 L52.75 65.49 L54.75 64.49 L56.75 63.48 L58.73 62.47 L60.68 61.45 L62.60 60.44 L64.50 59.42 L66.36 58.41 L68.20 57.39 L70.02 56.38 L71.80 55.36 L73.57 54.35 L75.31 53.34 L77.02 52.32 L78.71 51.31 L80.38 50.29 L82.02 49.28 L83.65 48.27 L85.25 47.25 L86.83 46.24 L88.39 45.23 L89.93 44.21 L91.44 43.20 L92.94 42.19 L94.42 41.18 L95.89 40.16 L97.33 39.15 L98.75 38.14 L100.16 37.12 L101.55 36.11 L102.92 35.10 L104.27 34.09 L105.61 33.08 L106.94 32.06 L108.24 31.05 L109.53 30.04 L110.81 29.03 L112.07 28.01 L113.31 27.00 L114.54 25.99 L115.76 24.98 L116.96 23.97 L118.15 22.96 L119.33 21.94 L120.49 20.93 L121.64 19.92 L122.77 18.91 L123.90 17.90 L125.01 16.89 L126.10 15.88 L127.19 14.87 L128.27 13.86 L129.33 12.84 L130.38 11.83 L131.42 10.82 L132.45 9.81 L133.47 8.80 L134.47 7.79 L135.47 6.78 L136.46 5.77 L137.43 4.76 L138.40 3.75 L139.35 2.74 L140.30 1.73 L141.24 0.72 L142.16 -0.29 M508.10 400.00 L508.11 400.00 L509.02 399.00 L509.94 398.01 L510.87 397.02 L511.81 396.03 L512.76 395.04 L513.72 394.05 L514.68 393.06 L515.66 392.07 L516.65 391.09 L517.65 390.10 L518.65 389.11 L519.67 388.12 L520.70 387.13 L521.74 386.14 L522.79 385.15 L523.86 384.16 L524.93 383.17 L526.02 382.18 L527.11 381.19 L528.22 380.20 L529.34 379.21 L530.48 378.22 L531.63 377.23 L532.78 376.25 L533.96 375.26 L535.14 374.27 L536.34 373.28 L537.55 372.29 L538.78 371.30 L540.02 370.31 L541.28 369.33 L542.55 368.34 L543.83 367.35 L545.13 366.36 L546.45 365.37 L547.78 364.38 L549.13 363.40 L550.49 362.41 L551.87 361.42 L553.27 360.43 L554.68 359.44 L556.11 358.46 L557.56 357.47 L559.03 356.48 L560.51 355.49 L562.02 354.51 L563.54 353.52 L565.09 352.53 L566.65 351.54 L568.24 350.56 L569.84 349.57 L571.47 348.58 L573.12 347.60 L574.79 346.61 L576.48 345.62 L578.19 344.64 L579.93 343.65 L581.69 342.66 L583.48 341.68 L585.29 340.69 L587.13 339.71 L588.99 338.72 L590.88 337.73 L592.80 336.75 L594.74 335.76 L596.72 334.78 L598.72 333.79 L600.72 332.82 L602.72 331.87 L604.72 330.92 L606.72 329.99 L608.72 329.08 L610.72 328.17 L612.72 327.28 L614.72 326.40 L616.72 325.54 L618.72 324.68 L620.72 323.84 L622.72 323.01 L624.72 322.19 L626.72 321.38 L628.72 320.58 L630.72 319.79 L632.72 319.01 L634.72 318.24 L636.72 317.48 L638.72 316.73 L640.72 315.99 L642.72 315.26 L644.72 314.54 L646.72 313.83 L648.72 313.13 " style="fill:none;stroke:#000000;stroke-width:1;" /><path d="M-10.00 200.00 L-0.25 68.64 L0.75 68.24 L2.75 67.42 L4.75 66.59 L6.75 65.75 L8.75 64.90 L10.75 64.04 L12.75 63.17 L14.75 62.29 L16.75 61.40 L18.75 60.49 L20.75 59.57 L22.75 58.64 L24.75 57.70 L26.75 56.75 L28.75 55.78 L30.75 54.80 L32.75 53.81 L34.75 52.80 L36.74 51.79 L38.69 50.77 L40.63 49.76 L42.53 48.75 L44.41 47.73 L46.27 46.72 L48.10 45.71 L49.90 44.69 L51.69 43.68 L53.45 42.67 L55.18 41.65 L56.90 40.64 L58.59 39.63 L60.26 38.61 L61.91 37.60 L63.54 36.59 L65.15 35.58 L66.74 34.56 L68.32 33.55 L69.87 32.54 L71.40 31.53 L72.91 30.52 L74.41 29.50 L75.89 28.49 L77.35 27.48 L78.79 26.47 L80.22 25.46 L81.63 24.44 L83.03 23.43 L84.40 22.42 L85.77 21.41 L87.11 20.40 L88.45 19.39 L89.76 18.38 L91.07 17.37 L92.35 16.35 L93.63 15.34 L94.89 14.33 L96.13 13.32 L97.37 12.31 L98.59 11.30 L99.79 10.29 L100.99 9.28 L102.17 8.27 L103.33 7.26 L104.49 6.25 L105.63 5.24 L106.77 4.23 L107.89 3.21 L109.00 2.20 L110.09 1.19 L111.18 0.18 L112.26 -0.83 M538.62 400.00 L538.62 400.00 L539.69 399.00 L540.77 398.01 L541.85 397.02 L542.94 396.03 L544.05 395.04 L545.17 394.05 L546.30 393.06 L547.44 392.07 L548.59 391.08 L549.75 390.10 L550.93 389.11 L552.12 388.12 L553.32 387.13 L554.53 386.14 L555.76 385.15 L557.00 384.16 L558.25 383.17 L559.52 382.18 L560.80 381.19 L562.09 380.20 L563.40 379.21 L564.73 378.22 L566.06 377.23 L567.42 376.25 L568.78 375.26 L570.17 374.27 L571.57 373.28 L572.98 372.29 L574.41 371.30 L575.86 370.31 L577.32 369.32 L578.81 368.34 L580.30 367.35 L581.82 366.36 L583.36 365.37 L584.91 364.38 L586.48 363.40 L588.07 362.41 L589.68 361.42 L591.31 360.43 L592.96 359.44 L594.63 358.46 L596.32 357.47 L598.03 356.48 L599.77 355.49 L601.52 354.51 L603.30 353.52 L605.10 352.53 L606.93 351.54 L608.78 350.56 L610.65 349.57 L612.55 348.58 L614.47 347.60 L616.42 346.61 L618.39 345.62 L620.39 344.64 L622.39 343.66 L624.39 342.71 L626.39 341.76 L628.39 340.82 L630.39 339.90 L632.39 338.99 L634.39 338.09 L636.39 337.21 L638.39 336.33 L640.39 335.47 L642.39 334.61 L644.39 333.77 L646.39 332.94 L648.39 332.11 " style="fill:none;stroke:#000000;stroke-width:1;" /><path d="M-10.00 200.00 L-0.25 350.13 L0.75 350.59 L2.75 351.52 L4.75 352.47 L6.75 353.43 L8.75 354.40 L10.75 355.38 L12.75 356.38 L14.75 357.38 L16.73 358.40 L18.69 359.41 L20.63 360.42 L22.54 361.43 L24.42 362.45 L26.28 363.46 L28.12 364.47 L29.94 365.48 L31.73 366.50 L33.50 367.51 L35.26 368.52 L36.99 369.53 L38.69 370.55 L40.38 371.56 L42.05 372.57 L43.70 373.58 L45.33 374.59 L46.94 375.60 L48.54 376.62 L50.11 377.63 L51.67 378.64 L53.20 379.65 L54.73 380.66 L56.23 381.67 L57.72 382.68 L59.19 383.70 L60.64 384.71 L62.08 385.72 L63.51 386.73 L64.92 387.74 L66.31 388.75 L67.69 389.76 L69.05 390.77 L70.40 391.78 L71.73 392.79 L73.05 393.80 L74.36 394.81 L75.65 395.82 L76.93 396.83 L78.20 397.84 L79.45 398.86 L80.69 399.87 L81.92 400.88 M569.14 -0.00 L569.14 0.00 L570.36 1.00 L571.59 1.99 L572.83 2.98 L574.08 3.97 L575.34 4.96 L576.62 5.95 L577.91 6.94 L579.21 7.93 L580.53 8.92 L581.86 9.90 L583.21 10.89 L584.56 11.88 L585.94 12.87 L587.32 13.86 L588.73 14.85 L590.14 15.84 L591.57 16.83 L593.02 17.82 L594.49 18.81 L595.96 19.80 L597.46 20.79 L598.97 21.78 L600.50 22.77 L602.05 23.75 L603.61 24.74 L605.19 25.73 L606.79 26.72 L608.41 27.71 L610.04 28.70 L611.70 29.69 L613.37 30.68 L615.06 31.66 L616.78 32.65 L618.51 33.64 L620.26 34.63 L622.04 35.62 L623.83 36.60 L625.65 37.59 L627.49 38.58 L629.35 39.57 L631.24 40.56 L633.15 41.54 L635.08 42.53 L637.04 43.52 L639.02 44.51 L641.02 45.49 L643.02 46.46 L645.02 47.42 L647.02 48.37 L649.02 49.31 " style="fill:none;stroke:#000000;stroke-width:1;" /><path d="M-10.00 200.00 L-0.25 49.87 L0.75 49.41 L2.75 48.48 L4.75 47.53 L6.75 46.57 L8.75 45.60 L10.75 44.62 L12.75 43.62 L14.75 42.62 L16.73 41.60 L18.69 40.59 L20.63 39.58 L22.54 38.57 L24.42 37.55 L26.28 36.54 L28.12 35.53 L29.94 34.52 L31.73 33.50 L33.50 32.49 L35.26 31.48 L36.99 30.47 L38.69 29.45 L40.38 28.44 L42.05 27.43 L43.70 26.42 L45.33 25.41 L46.94 24.40 L48.54 23.38 L50.11 22.37 L51.67 21.36 L53.20 20.35 L54.73 19.34 L56.23 18.33 L57.72 17.32 L59.19 16.30 L60.64 15.29 L62.08 14.28 L63.51 13.27 L64.92 12.26 L66.31 11.25 L67.69 10.24 L69.05 9.23 L70.40 8.22 L71.73 7.21 L73.05 6.20 L74.36 5.19 L75.65 4.18 L76.93 3.17 L78.20 2.16 L79.45 1.14 L80.69 0.13 L81.92 -0.88 M569.14 400.00 L569.14 400.00 L570.36 399.00 L571.59 398.01 L572.83 397.02 L574.08 396.03 L575.34 395.04 L576.62 394.05 L577.91 393.06 L579.21 392.07 L580.53 391.08 L581.86 390.10 L583.21 389.11 L584.56 388.12 L585.94 387.13 L587.32 386.14 L588.73 385.15 L590.14 384.16 L591.57 383.17 L593.02 382.18 L594.49 381.19 L595.96 380.20 L597.46 379.21 L598.97 378.22 L600.50 377.23 L602.05 376.25 L603.61 375.26 L605.19 374.27 L606.79 373.28 L608.41 372.29 L610.04 371.30 L611.70 370.31 L613.37 369.32 L615.06 368.34 L616.78 367.35 L618.51 366.36 L620.26 365.37 L622.04 364.38 L623.83 363.40 L625.65 362.41 L627.49 361.42 L629.35 360.43 L631.24 359.44 L633.15 358.46 L635.08 357.47 L637.04 356.48 L639.02 355.49 L641.02 354.51 L643.02 353.54 L645.02 352.58 L647.02 351.63 L649.02 350.69 " style="fill:none;stroke:#000000;stroke-width:1;" /><path d="M-10.00 200.00 L-0.25 368.89 L0.75 369.41 L2.67 370.42 L4.57 371.43 L6.45 372.44 L8.31 373.46 L10.15 374.47 L11.96 375.48 L13.76 376.49 L15.53 377.50 L17.28 378.51 L19.02 379.53 L20.73 380.54 L22.43 381.55 L24.10 382.56 L25.76 383.57 L27.40 384.58 L29.02 385.59 L30.62 386.60 L32.21 387.61 L33.78 388.63 L35.33 389.64 L36.87 390.65 L38.39 391.66 L39.89 392.67 L41.38 393.68 L42.85 394.69 L44.31 395.70 L45.75 396.71 L47.17 397.72 L48.59 398.73 L49.99 399.74 L51.37 400.75 M599.66 -0.00 L599.66 0.00 L601.03 1.00 L602.41 1.99 L603.81 2.98 L605.21 3.97 L606.64 4.96 L608.07 5.95 L609.52 6.94 L610.99 7.93 L612.47 8.92 L613.97 9.90 L615.48 10.89 L617.01 11.88 L618.55 12.87 L620.11 13.86 L621.69 14.85 L623.29 15.84 L624.90 16.83 L626.52 17.82 L628.17 18.81 L629.83 19.80 L631.52 20.79 L633.22 21.78 L634.94 22.77 L636.68 23.75 L638.44 24.74 L640.21 25.73 L642.01 26.72 L643.83 27.71 L645.67 28.70 L647.53 29.69 L649.42 30.68 " style="fill:none;stroke:#000000;stroke-width:1;" /><path d="M-10.00 200.00 L-0.25 31.11 L0.75 30.59 L2.67 29.58 L4.57 28.57 L6.45 27.56 L8.31 26.54 L10.15 25.53 L11.96 24.52 L13.76 23.51 L15.53 22.50 L17.28 21.49 L19.02 20.47 L20.73 19.46 L22.43 18.45 L24.10 17.44 L25.76 16.43 L27.40 15.42 L29.02 14.41 L30.62 13.40 L32.21 12.39 L33.78 11.37 L35.33 10.36 L36.87 9.35 L38.39 8.34 L39.89 7.33 L41.38 6.32 L42.85 5.31 L44.31 4.30 L45.75 3.29 L47.17 2.28 L48.59 1.27 L49.99 0.26 L51.37 -0.75 M599.66 400.00 L599.66 400.00 L601.03 399.00 L602.41 398.01 L603.81 397.02 L605.21 396.03 L606.64 395.04 L608.07 394.05 L609.52 393.06 L610.99 392.07 L612.47 391.08 L613.97 390.10 L615.48 389.11 L617.01 388.12 L618.55 387.13 L620.11 386.14 L621.69 385.15 L623.29 384.16 L624.90 383.17 L626.52 382.18 L628.17 381.19 L629.83 380.20 L631.52 379.21 L633.22 378.22 L634.94 377.23 L636.68 376.25 L638.44 375.26 L640.21 374.27 L642.01 373.28 L643.83 372.29 L645.67 371.30 L647.53 370.31 L649.42 369.32 " style="fill:none;stroke:#000000;stroke-width:1;" /></g></svg>