<?xml version="1.0" encoding="UTF-8" standalone="no"?>
<!-- Created with Inkscape (http://www.inkscape.org/) -->

<svg
   xmlns:dc="http://purl.org/dc/elements/1.1/"
   xmlns:cc="http://creativecommons.org/ns#"
   xmlns:rdf="http://www.w3.org/1999/02/22-rdf-syntax-ns#"
   xmlns:svg="http://www.w3.org/2000/svg"
   xmlns="http://www.w3.org/2000/svg"
   xmlns:sodipodi="http://sodipodi.sourceforge.net/DTD/sodipodi-0.dtd"
   xmlns:inkscape="http://www.inkscape.org/namespaces/inkscape"
   width="744.09448819"
   height="1052.3622047"
   id="svg2"
   version="1.1"
   inkscape:version="0.48.4 r9939"
   sodipodi:docname="New document 1">
  <defs
     id="defs4">
    <clipPath
       id="clipEmfPath1"
       clipPathUnits="userSpaceOnUse">
      <rect
         id="rect2990"
         height="159.375"
         width="174.375"
         y="33.75"
         x="109.6875" />
    </clipPath>
    <clipPath
       id="clipEmfPath2"
       clipPathUnits="userSpaceOnUse">
      <rect
         id="rect2993"
         height="12.1875"
         width="115.3125"
         y="180.9375"
         x="5.625" />
    </clipPath>
    <clipPath
       id="clipEmfPath3"
       clipPathUnits="userSpaceOnUse">
      <rect
         id="rect2996"
         height="67.5"
         width="61.875"
         y="102.1875"
         x="13.125" />
    </clipPath>
    <clipPath
       id="clipEmfPath4"
       clipPathUnits="userSpaceOnUse">
      <rect
         id="rect2999"
         height="54.375"
         width="46.875"
         y="99.375"
         x="15" />
    </clipPath>
    <clipPath
       id="clipEmfPath5"
       clipPathUnits="userSpaceOnUse">
      <rect
         id="rect3002"
         height="69.375"
         width="65.625"
         y="102.1875"
         x="25.3125" />
    </clipPath>
    <clipPath
       id="clipEmfPath6"
       clipPathUnits="userSpaceOnUse">
      <rect
         id="rect3005"
         height="85.3125"
         width="119.0625"
         y="92.8125"
         x="0" />
    </clipPath>
    <clipPath
       id="clipEmfPath7"
       clipPathUnits="userSpaceOnUse">
      <rect
         id="rect3008"
         height="38.4375"
         width="77.8125"
         y="156.825"
         x="269.99705" />
    </clipPath>
    <clipPath
       id="clipEmfPath8"
       clipPathUnits="userSpaceOnUse">
      <rect
         id="rect3011"
         height="22.5"
         width="90"
         y="184.65001"
         x="94.886813" />
    </clipPath>
    <clipPath
       id="clipEmfPath9"
       clipPathUnits="userSpaceOnUse">
      <rect
         id="rect3014"
         height="45.9375"
         width="175.3125"
         y="8.3249965"
         x="15.162417" />
    </clipPath>
    <clipPath
       id="clipEmfPath10"
       clipPathUnits="userSpaceOnUse">
      <rect
         id="rect3017"
         height="35.625"
         width="35.625"
         y="143.4375"
         x="76.875" />
    </clipPath>
    <clipPath
       id="clipEmfPath11"
       clipPathUnits="userSpaceOnUse">
      <rect
         id="rect3020"
         height="21.5625"
         width="22.5"
         y="160.3125"
         x="90" />
    </clipPath>
    <clipPath
       id="clipEmfPath12"
       clipPathUnits="userSpaceOnUse">
      <rect
         id="rect3023"
         height="25.3125"
         width="56.25"
         y="81.5625"
         x="106.875" />
    </clipPath>
  </defs>
  <sodipodi:namedview
     id="base"
     pagecolor="#ffffff"
     bordercolor="#666666"
     borderopacity="1.0"
     inkscape:pageopacity="0.0"
     inkscape:pageshadow="2"
     inkscape:zoom="0.98994949"
     inkscape:cx="122.23152"
     inkscape:cy="677.97924"
     inkscape:document-units="px"
     inkscape:current-layer="layer1"
     showgrid="false"
     inkscape:window-width="1920"
     inkscape:window-height="1018"
     inkscape:window-x="-8"
     inkscape:window-y="5"
     inkscape:window-maximized="1" />
  <metadata
     id="metadata7">
    <rdf:RDF>
      <cc:Work
         rdf:about="">
        <dc:format>image/svg+xml</dc:format>
        <dc:type
           rdf:resource="http://purl.org/dc/dcmitype/StillImage" />
        <dc:title></dc:title>
      </cc:Work>
    </rdf:RDF>
  </metadata>
  <g
     inkscape:label="Layer 1"
     inkscape:groupmode="layer"
     id="layer1">
    <g
       id="g3025"
       transform="translate(91.45089,161.5628)">
      <path
         id="path3027"
         d="m 115.25391,38.964844 0,148.535156 163.35937,0"
         clip-path="url(#clipEmfPath1)"
         style="fill:none;stroke:#000000;stroke-width:1.7578125px;stroke-linecap:round;stroke-linejoin:round;stroke-opacity:1;stroke-dasharray:none"
         inkscape:connector-curvature="0" />
      <path
         id="path3029"
         d="M 115.25391,187.5 11.25,186.5625"
         clip-path="url(#clipEmfPath2)"
         style="fill:none;stroke:#000000;stroke-width:1.7578125px;stroke-linecap:round;stroke-linejoin:round;stroke-opacity:1;stroke-dasharray:none"
         inkscape:connector-curvature="0" />
      <path
         id="path3031"
         d="m 69.433594,107.51953 -1.113282,0.9375 -1.230468,1.28906 -1.523438,1.52344 -1.757812,1.64063 -1.816406,2.34375 -2.285157,2.40234 -2.285156,3.04687 -2.753906,3.16407 -3.046875,3.57422 -3.398438,3.75 -3.691406,3.92578 -3.867188,4.16015 -3.808593,4.16016 -3.691407,4.04297 -3.632812,3.69141 -3.105469,3.57421 -2.8125,2.8711 -2.109375,2.51953 -1.640625,1.99219 -1.054687,1.34765 -0.527344,0.64453"
         clip-path="url(#clipEmfPath3)"
         style="fill:none;stroke:#3165bb;stroke-width:0.9375px;stroke-linecap:round;stroke-linejoin:round;stroke-opacity:1;stroke-dasharray:none"
         inkscape:connector-curvature="0" />
      <path
         id="path3033"
         d="m 56.542969,104.70703 -0.351563,0.64453 -0.585937,0.82032 -0.703125,0.9375 -0.996094,0.9375 -1.054688,1.52343 -1.347656,1.52344 -1.523437,1.81641 -1.875,1.99218 -2.109375,2.46094 -2.460938,2.75391 -2.636718,3.10547 -3.046876,3.33984 -3.105468,3.45703 -3.105469,3.51563 -2.988281,3.39843 -2.636719,3.39844 -2.34375,2.69531 -1.816406,2.16797 -1.230469,1.64063 -0.761719,1.05468 -0.05859,0.46876"
         clip-path="url(#clipEmfPath4)"
         style="fill:none;stroke:#3165bb;stroke-width:0.9375px;stroke-linecap:round;stroke-linejoin:round;stroke-opacity:1;stroke-dasharray:none"
         inkscape:connector-curvature="0" />
      <path
         id="path3035"
         d="m 85.839844,107.63672 -0.05859,0.70312 -0.527344,0.64454 -0.644531,0.9375 -0.878906,1.40624 -1.464844,1.58204 -1.816406,2.22656 -2.402344,2.40234 -2.695313,3.04688 -3.046874,3.16406 -3.339844,3.57422 -3.574219,3.6914 -3.75,3.8086 -3.925781,3.92578 -3.867188,3.98438 -3.867187,3.86718 -3.75,3.63282 -3.398438,3.51562 -3.164062,2.98828 -2.578125,2.98828 -2.460938,2.34375 -1.875,1.99219 -1.230468,1.40625 -0.644532,0.87891"
         clip-path="url(#clipEmfPath5)"
         style="fill:none;stroke:#3165bb;stroke-width:0.9375px;stroke-linecap:round;stroke-linejoin:round;stroke-opacity:1;stroke-dasharray:none"
         inkscape:connector-curvature="0" />
      <path
         id="path3037"
         d="m 93.574219,114.49219 -1.113281,1.28906 -1.230469,1.75781 -1.523438,1.99219 -1.816406,2.22656 -1.757813,2.75391 -2.226562,2.8125 -2.636719,3.22266 -3.105469,3.28124 -3.222656,3.75 -3.515625,3.92579 -3.808593,4.27734 -4.042969,4.39453 -4.160157,4.16016 -3.925781,4.27734 -3.867187,3.69141 -3.28125,3.45703 L 45.46875,168.75 43.125,170.91797 41.601562,172.5"
         clip-path="url(#clipEmfPath6)"
         style="fill:none;stroke:#3165bb;stroke-width:0.9375px;stroke-linecap:round;stroke-linejoin:round;stroke-opacity:1;stroke-dasharray:none"
         inkscape:connector-curvature="0" />
      <path
         id="path3039"
         d="m 101.19141,134.94141 -1.05469,1.23047 -1.523439,1.23046 -1.757812,1.52344 -1.757813,1.875 -2.167968,1.9336 -2.050782,2.34374 -2.402344,2.46094 -2.460937,2.8125 -2.695313,3.04688 -2.929687,3.16406 -3.105469,3.10547 -3.105468,2.98828 -2.871094,2.92969 -2.695313,2.63672 -2.402343,2.10937 -1.757813,1.81641 -1.347656,1.23047"
         style="fill:none;stroke:#3165bb;stroke-width:0.9375px;stroke-linecap:round;stroke-linejoin:round;stroke-opacity:1;stroke-dasharray:none"
         inkscape:connector-curvature="0" />
      <path
         id="path3041"
         d="m 40.3125,103.59375 0,0 0.05859,0.41016 -0.351563,0.46875 -0.527343,0.41015 -0.46875,0.82031 -0.820313,0.70313 -0.761719,1.11328 -1.113281,1.11328 -1.054687,1.58203 -1.40625,1.52344 -1.523438,2.05078 -1.875,2.16797 -1.933594,2.46094 -2.109375,2.63672 -2.226562,2.7539 -2.285157,2.69532 -2.34375,2.63671 -2.109374,2.57813 -2.167969,2.16797 -1.582031,1.99219 -1.640626,1.58203 -1.171874,1.05468 -0.703126,0.82032 0,0"
         style="fill:none;stroke:#3165bb;stroke-width:0.9375px;stroke-linecap:round;stroke-linejoin:round;stroke-opacity:1;stroke-dasharray:none"
         inkscape:connector-curvature="0" />
      <path
         id="path3043"
         d="m 22.03125,105.52734 0.292969,-0.58593 0.527343,-0.29297 0.292969,-0.46875 0,0 0.644531,-0.64453 0.234376,-0.41016 0,0 0.410156,-0.46875 0,0 0,0 0,0 -0.175782,0.82031 -0.410156,0.9375 -0.644531,0.9375 -0.878906,1.28906 -1.054688,1.52344 -1.289062,1.75782 -1.523438,1.75781 -1.640625,1.875 -1.757812,1.875 -1.757813,1.875 -1.757812,1.75781 -1.699219,1.69922 -1.5234375,1.75781 -1.40625,1.23047 -0.9375,1.23047 -0.6445313,0.9375 -0.2929687,0.64453 0,0"
         style="fill:none;stroke:#3165bb;stroke-width:0.9375px;stroke-linecap:round;stroke-linejoin:round;stroke-opacity:1;stroke-dasharray:none"
         inkscape:connector-curvature="0" />
      <path
         id="path3045"
         d="m 7.7929688,100.78125 0,0 0,0 0,0 0.058594,-0.52734 0,0 0,0 -0.058594,-0.351566 0,0 0,0 0,0 0,0 0,0 0,0 0,0 0,0 0.5859374,0 0,0 0.46875,0 0,0 0.703125,-0.117188 0,0 0.8203128,-0.175781 0.46875,-0.175781 0.46875,0 0.527344,-0.05859 0.527343,0 0.410157,0 0.585937,0 0,0 0.820313,0.234375 0.410156,0 0.46875,0.117187 0.410156,-0.117187 0.46875,0.117187 0.410156,-0.117187 0.410156,0 0.410157,-0.05859 0.410156,0 0,0 0.703125,-0.117187 0,0 0.585938,0.117187 0,0 0.585937,0 0,0 0.703125,0 0.410156,0 0.410156,-0.117187 0.410157,-0.05859 0.351562,0 0.46875,0 0.46875,0 0,0 0.585938,0.175781 0,0 0.644531,0.05859 0,0 0.585938,0.117187 0,0 0.703124,0.05859 0,0 0.644532,0 0.410156,0 0.46875,-0.05859 0,0 0.703125,0 0,0 0.644531,0.05859 0,0 0.585938,0 0,0 0.46875,0 0,0 0.644531,-0.175781 0,0 0.761719,-0.175781 0,0 0.703125,-0.175782 0,0 0.703125,-0.05859 0,0 0.585937,0.05859 0,0 0.644531,0.05859 0,0 0.585938,0.05859 0,0 0.703125,0 0,0 0.761719,-0.05859 0,0 0.703125,-0.05859 0,0 0.761719,-0.117187 0,0 0.703124,-0.05859 0,0 0.703126,0.05859 0,0 0.703124,0 0,0 0.761719,0 0.410157,-0.05859 0.410156,-0.117187 0,0 0.761718,-0.117188 0,0 0.820313,-0.117187 0,0 0.703125,-0.05859 0,0 0.703125,0.117187 0,0 0.585937,0.05859 0,0 0.644532,0.05859 0,0 0.585937,0 0,0 0.585938,-0.05859 0,0 0.644531,0 0,0 0.585938,-0.117187 0,0 0.585937,0 0,0 0.644531,0 0,0 0.585938,-0.05859 0,0 0.761718,-0.05859 0,0 0.644532,0 0,0 0.644531,0.05859 0,0 0.46875,0.117187 0,0 0.46875,0.05859 0,0 0.644531,0.117188 0,0 0.585938,0 0,0 0.644531,0.05859 0,0 0.644531,0.05859 0,0 0.644532,0.175781 0,0 0.644531,0 0.410156,0.05859 0,0 0.703125,0 0.46875,-0.05859 0,0 0.761719,0 0,0 0.644531,-0.117187 0,0 0.46875,-0.05859 0,0 0.527344,0 0,0 0.46875,0 0,0 0.410156,-0.05859 0,0 0.527344,0.05859 0,0 0.585937,0 0,0 0.527344,-0.117187 0,0 0.703125,-0.05859 0,0 0.585938,-0.05859 0,0 0.527343,0 0,0 0.46875,0 0,0 0,0 0.585938,0.05859 0,0 0.46875,-0.05859 0,0 0.703125,0 0,0 0.703125,-0.117187 0.351562,-0.05859 0,0 0.820313,0 0,0 0.703125,-0.05859 0,0 0.820312,-0.05859 0.410157,-0.05859 0.46875,0 0.46875,0 0.46875,-0.05859 0.46875,0 0.46875,-0.05859 0.351562,0 0.46875,0 0.410156,0.05859 0,0 0.761719,0.05859 0,0 0.761719,0.05859 0.410156,0.05859 0.410156,0 0.46875,0.05859 0.46875,-0.05859 0.46875,-0.05859 0.410156,-0.05859 0.410157,0 0.410156,0 0,0 0.703125,0 0,0 0.644531,-0.05859 0,0 0.703125,-0.175781 0,0 0.585938,0 0,0 0.644531,0 0,0 0.585937,0.117187 0,0 0.527344,0.05859 0,0 0.644532,0.05859 0,0 0.644531,-0.05859 0,0 0.644531,-0.05859 0,0 0.585938,-0.117187 0,0 0.527343,0 0,0 0.46875,0 0,0 0.585938,0.117187 0,0 0.585937,-0.117187 0,0 0.644532,0.117187 0,0 0.703124,0.05859 0,0 0.703126,0 0,0 0.703124,0 0.410157,-0.05859 0.410156,-0.117187 0.46875,0 0.410156,0 0.46875,-0.05859 0.527344,0 0.46875,-0.05859 0.527344,0 0.46875,-0.05859 0.410156,0 0.410156,0.05859 0,0 0.761719,0.05859 0,0 0.585938,0.175781 0,0 0.585937,0.175782 0,0 0.527344,0.234374 0,0 0.527343,0.292969 0,0 0.527344,0.117188 0,0 0.585938,0.117187 0,0 0.585936,0 0,0 0.64453,0.05859 0,0 0.41016,0.175781 0,0 0.52734,0.05859 0,0 0.58594,0.117187 0,0 0.64453,0.05859 0.41016,0 0.46875,0.117188 0.41015,0 0.41016,0.117182 0.41016,0 0.35156,0.0586 0,0 0.82031,0 0,0 0.52734,0.11719 0,0 0.52735,0.0586 0,0 0.46875,0 0,0 0.58594,0 0,0 0.46875,-0.0586 0,0 0.64453,-0.11719 0,0 0.52734,-0.175772 0,0 0.46875,-0.117188 0,0 0.52735,0 0,0 0.35156,-0.05859 0,0 0.46875,0 0,0 0.46875,-0.117187 0,0 0,0 0.52734,-0.05859 0,0 0,0 0,0 0.41016,0 0,0 0,0 0,0 0,0 0.41015,0.175781 0,0 0,0 0,0 0,0 0,0 0.41016,0.05859 0,0 0,0 0,0 0,0 0,0 0,0 0,0 0,0 0,0 0,0 0,0 0,0 0,0 0,0 0,0 0,0 0,0 0,0 0,0 0,0 0,0 0,0 -0.46875,0 0,0 -0.52734,0 0,0 -0.70313,0 -0.46875,0 -0.35156,0.117188 -0.52734,0 -0.46876,0 -0.52734,0 -0.52734,0 -0.52735,0 -0.52734,0.117188 -0.46875,0 -0.52734,0.0586 -0.52735,0.11719 -0.52734,0.0586 -0.46875,0.11718 -0.52734,0.0586 -0.52735,0.11719 -0.52734,0 -0.41016,0.0586 -0.35156,0 -0.46875,0 -0.41016,-0.0586 0,0 -0.70312,-0.11719 0,0 -0.82032,-0.17578 -0.41015,-0.0586 -0.46875,-0.11719 -0.527345,0 -0.46875,-0.0586 -0.527344,0 -0.585937,0 -0.585938,0 -0.527344,0.0586 -0.46875,0 -0.46875,0.11719 -0.46875,0.0586 0,0 -0.878906,0.41015 0,0 -0.527344,0.52735 0,0"
         style="fill:none;stroke:#3165bb;stroke-width:0.9375px;stroke-linecap:round;stroke-linejoin:round;stroke-opacity:1;stroke-dasharray:none"
         inkscape:connector-curvature="0" />
      <path
         id="path3047"
         d="m 279.375,179.47266 0,0 0,0 0,0 0.29297,0.41015 0,0 0.76172,-0.17578 0,0 1.28906,-0.41015 0.70313,-0.29297 1.11328,0 0.8789,-0.23438 0.9961,0.0586 0.8789,0.0586 0.82032,0.29297 0.58593,0.41015 0.58594,0.52735 0.35156,0.64453 0.35157,0.82031 0.23437,0.87891 0.17578,0.8789 0.11719,0.9375 0.17578,0.9375 0.11719,0.87891 0.17578,0.82031 0.11719,0.70313 0.35156,0.64453 0.35156,0.46875 0.41016,0.41015 0.52734,0.23438 0.58594,0.17578 0.70312,0.0586 0.70313,0.0586 0.52734,0 0.64453,-0.0586 0.58594,-0.0586 0,0 0.64453,0.0586 0,0 0,0 0.29297,-0.41016 0,0 0,-0.46875"
         clip-path="url(#clipEmfPath7)"
         style="fill:none;stroke:#000000;stroke-width:0.9375px;stroke-linecap:round;stroke-linejoin:round;stroke-opacity:1;stroke-dasharray:none"
         inkscape:connector-curvature="0" />
      <path
         id="path3049"
         d="m 297.77344,177.83203 -0.9961,0.76172 -1.40625,0.76172 -1.40625,0.99609 -1.52343,1.23047 -1.75782,1.28906 -1.8164,1.46485 -1.9336,1.34765 -1.52343,1.58203 -1.69922,1.23047"
         style="fill:none;stroke:#000000;stroke-width:0.9375px;stroke-linecap:round;stroke-linejoin:round;stroke-opacity:1;stroke-dasharray:none"
         inkscape:connector-curvature="0" />
      <path
         id="path3051"
         d="m 106.40625,196.46484 0,0 -0.52734,-0.17578 0,0 -0.41016,-0.29297 -0.41016,-0.29297 0,0 0,0 0,0 -0.58593,-0.58593 0,0 0,0 0,0 0,0 0,0 -0.17578,0.46875 0.17578,0.35156 0,0 0.58593,0.87891 0.35157,0.46875 0.46875,0.52734 0.52734,0.46875 0.52734,0.46875 0.52735,0.41016 0.52734,0.41015 0.46875,0.29297 0.41016,0.41016 0,0 0.58593,0.41015 0,0 0,0 0.46876,0.64453 0,0 0,0 0,0 0,0 0,0 0,0"
         clip-path="url(#clipEmfPath8)"
         style="fill:none;stroke:#000000;stroke-width:0.9375px;stroke-linecap:round;stroke-linejoin:round;stroke-opacity:1;stroke-dasharray:none"
         inkscape:connector-curvature="0" />
      <path
         id="path3053"
         d="m 112.5,194.41406 -0.64453,0.52735 0,0 -0.87891,0.76171 -0.35156,0.58594 -0.87891,0.41016 -0.64453,0.64453 -0.8789,0.52734 -0.76172,0.58594 -0.70313,0.64453 -0.8789,0.41016 -0.35157,0.64453 -0.58593,0.29297 0,0 -0.41016,0.23437 0,0"
         style="fill:none;stroke:#000000;stroke-width:0.9375px;stroke-linecap:round;stroke-linejoin:round;stroke-opacity:1;stroke-dasharray:none"
         inkscape:connector-curvature="0" />
      <path
         id="path3055"
         d="m 117.89062,188.26172 0,0 -0.41015,-0.23438 0,0 0,0 0,0 0,0 0,0 0,0 0,0 0,0 -0.17578,0.58594 0,0 0,0.52734 0,0 -0.0586,0.82032 -0.11718,0.41015 0,0.52735 -0.0586,0.46875 0,0 0.0586,0.82031 0,0 0,0.64453 0,0"
         style="fill:none;stroke:#000000;stroke-width:0.9375px;stroke-linecap:round;stroke-linejoin:round;stroke-opacity:1;stroke-dasharray:none"
         inkscape:connector-curvature="0" />
      <path
         id="path3057"
         d="m 117.53906,196.93359 -0.46875,0.35157 0,0 0,0 0,0 0.70313,0.23437 0,0 0.8789,-0.0586 0.52735,-0.0586 0.64453,0 0.70312,0 0.46875,-0.23437 0.70313,-0.0586 0,0 0.70312,0.0586 0,0"
         style="fill:none;stroke:#000000;stroke-width:0.9375px;stroke-linecap:round;stroke-linejoin:round;stroke-opacity:1;stroke-dasharray:none"
         inkscape:connector-curvature="0" />
      <path
         id="path3059"
         d="m 117.07031,199.6875 0,0 0,0 0.52735,0.11719 0.52734,0.17578 0,0 0.64453,-0.11719 0,0 0.58594,0 0.46875,0.29297 0,0 0.64453,0.11719 0,0 0.41016,0"
         style="fill:none;stroke:#000000;stroke-width:0.9375px;stroke-linecap:round;stroke-linejoin:round;stroke-opacity:1;stroke-dasharray:none"
         inkscape:connector-curvature="0" />
      <path
         id="path3061"
         d="m 130.54688,197.98828 0,0 -0.64454,-0.17578 -0.46875,0 0,0 -0.8789,0.35156 -0.23438,0.41016 -0.70312,0.17578 -0.17578,0.41016 -0.46875,0.29296 0,0 -0.0586,0.70313 0,0 0.58594,0.46875 0.58594,0.17578 0.70312,0 0.87891,0 0.9375,-0.11719 0.87891,-0.0586 0.8789,-0.17578 0.87891,-0.29297 0.64453,-0.29297 0.52734,-0.23437 0,0 0.46875,-0.58594 0,0 -0.23437,-0.52735 0,0 -0.9375,-0.52734 0,0 -1.34766,-0.17578 -0.64453,-0.0586 -0.87891,-0.17579 -0.58593,-0.0586"
         style="fill:none;stroke:#000000;stroke-width:0.9375px;stroke-linecap:round;stroke-linejoin:round;stroke-opacity:1;stroke-dasharray:none"
         inkscape:connector-curvature="0" />
      <path
         id="path3063"
         d="m 126.03516,33.515625 0,0 0.76172,-0.644531 0,0 0.41015,-0.644532 0.41016,-0.05859 -0.11719,-0.46875 0,0 0,0 0,0 0,0 0,0 0,0 0.0586,0.527343 -0.0586,0.527344 -0.0586,0.585938 0,0.761718 0,0.761719 0.0586,0.761719 0.0586,0.761719 0.17579,0.703125 0.41015,0.644531 0.46875,0.527344 0.64453,0.351562 0.70313,0.175781 0.99609,0.117188 0.99609,-0.117188 0.9961,-0.234374 1.05469,-0.527344 0.8789,-0.585938 0.87891,-0.644531 0.76172,-0.703125 0.70312,-0.820312 0.46875,-0.703126 0.35157,-0.703124 0.23437,-0.585938 0.17578,-0.527344 0.0586,-0.410156 0,0 0.0586,-0.46875 0,0 0,0 0,0 -0.17578,0.351562 0,0.46875 0,0.644532 0,0.761718 0,0.878907 0.0586,0.996093 0.11719,1.171876 0.11719,1.347656 0.11718,1.289062 0.17579,1.40625 0.11718,1.347656 0.11719,1.289063 0.0586,1.230469 0,1.054687 -0.23437,0.878907 -0.29297,0.644531 -0.35156,0.585937 -0.52735,0.351563 -0.64453,0.117187 -0.70312,-0.05859 -0.64453,-0.117187 -0.70313,-0.351563 -0.52734,-0.410156 -0.41016,-0.527344 -0.11719,-0.644531 0.0586,-0.644531 0.23437,-0.644531 0.58594,-0.585938 0.64453,-0.703125 0.87891,-0.351562 0.70312,-0.644532 0.82032,-0.292968 0.76171,-0.292969 0.76172,-0.05859 0.58594,0"
         clip-path="url(#clipEmfPath9)"
         style="fill:none;stroke:#000000;stroke-width:0.9375px;stroke-linecap:round;stroke-linejoin:round;stroke-opacity:1;stroke-dasharray:none"
         inkscape:connector-curvature="0" />
      <path
         id="path3065"
         d="m 107.57812,148.76953 -0.46874,0.87891 -1.05469,0.70312 -0.9375,1.05469 -1.11328,1.23047 -1.46485,1.34766 -1.52344,1.69921 -1.874995,1.69922 -1.816406,2.05078 -2.050781,1.9336 -1.992188,2.10937 -2.050781,2.10938 -1.992188,1.99218 -1.699219,1.75782 -1.699218,1.52344 -1.289063,1.23046 -0.9375,0.9961 -0.820312,0.76172 L 82.5,174.375"
         clip-path="url(#clipEmfPath10)"
         style="fill:none;stroke:#3165bb;stroke-width:0.9375px;stroke-linecap:round;stroke-linejoin:round;stroke-opacity:1;stroke-dasharray:none"
         inkscape:connector-curvature="0" />
      <path
         id="path3067"
         d="m 107.28516,165.58594 -0.46875,0.8789 -0.82032,0.82032 -0.9375,0.99609 -1.11328,1.11328 -1.40625,1.17188 -1.40625,1.23047 -1.523435,1.11328 -1.289063,1.28906 -1.699218,0.99609 -1.113282,1.11328"
         clip-path="url(#clipEmfPath11)"
         style="fill:none;stroke:#3165bb;stroke-width:0.9375px;stroke-linecap:round;stroke-linejoin:round;stroke-opacity:1;stroke-dasharray:none"
         inkscape:connector-curvature="0" />
      <path
         id="path3069"
         d="m 136.40625,87.304688 0,0 0.11719,-0.46875 0,0 0,0 0,0 0,0 0,0 0,0.585937 0,0 0.23437,0.820313 0.11719,0.527343 0.17578,0.644531 0.23438,0.761719 0.29296,0.761719 0.29297,0.820312 0.35157,0.9375 0.23437,0.820313 0.35156,0.9375 0.29297,0.878906 0.29297,0.820313 0.23438,0.878906 0.29297,0.703125 0.17578,0.703125 0.0586,0.585938 0.0586,0.527343 0.11719,0.468749 0,0 -0.0586,0.35156 0,0 0,0 0,0 -0.35156,-0.585934 -0.11719,-0.410156 -0.11719,-0.410156 -0.11719,-0.46875 -0.0586,-0.46875 -0.11719,-0.46875 0,-0.410156 0,0 0.17578,-0.644532 0,0 0.41016,-0.527344 0,0 0.64453,-0.351562 0.41016,-0.175781 0.46875,-0.05859 0.41015,-0.05859 0.46875,0.117188 0.41016,0.05859 0.41015,0.292969 0.41016,0.175781 0.41016,0.175782 0,0 0.70312,0.585937 0,0 0.46875,0.761719 0,0 0.46875,0.703125 0.11719,0.46875 0,0 0.23437,0.644531 0,0 0.23438,0.527344 0,0 0,0 0,0 0.64453,0.644535 0,0 0,0 0,0 0.58594,0.17578 0,0"
         clip-path="url(#clipEmfPath12)"
         style="fill:none;stroke:#000000;stroke-width:0.9375px;stroke-linecap:round;stroke-linejoin:round;stroke-opacity:1;stroke-dasharray:none"
         inkscape:connector-curvature="0" />
      <path
         id="path3071"
         d="m 154.62891,96.035156 0,0 -0.41016,-0.117187 0,0 -0.41016,0.234375 -0.64453,-0.117188 0,0 -0.82031,0.585938 -0.17578,0.410156 -0.35156,0.46875 -0.23438,0.527344 -0.23437,0.527344 -0.0586,0.585937 0,0.585937 0.23438,0.527348 0.29297,0.41015 0.46875,0.41016 0.52734,0.17578 0.64453,0.11719 0.70313,-0.0586 0.70312,-0.0586 0.64453,-0.29297 0.64453,-0.29297 0.52735,-0.41015 0.46875,-0.468754 0.35156,-0.527344 0.17578,-0.410156 0,-0.527344 -0.11719,-0.527343 -0.17578,-0.410157 0,0 -0.52734,-0.644531 -0.70313,-0.234375 0,0 -0.8789,0.05859 -0.58594,0.292969 -0.58594,0.175781"
         style="fill:none;stroke:#000000;stroke-width:0.9375px;stroke-linecap:round;stroke-linejoin:round;stroke-opacity:1;stroke-dasharray:none"
         inkscape:connector-curvature="0" />
      <path
         id="path3073"
         d="m 112.73438,98.613281 0,0 0,0 0,0 -0.46876,-0.234375 0,0 0,0 0,0 0,0 0,0 0,0 0,0 0.52735,-0.234375 0,0 0.9375,0 0.70312,-0.05859 0.82032,0.117187 0.76171,-0.117187 0.87891,0.05859 0.87891,-0.117187 0.8789,0 0.76172,-0.05859 0.87891,0.05859 0.64453,-0.05859 0.76172,0.05859 0.58594,0 0.70312,0 0.52734,0 0.46876,0.05859 0.41015,-0.05859 0,0 0.64453,0 0,0 0,0 0,0 -0.64453,0 -0.46875,0.05859 -0.70312,0.117187 -0.70313,0.175781 -0.82031,0.175782 -0.82031,0.117187 -0.87891,0.05859 -0.9375,0.05859 -0.9375,0.05859 -0.87891,-0.05859 -0.9375,0.05859 -0.8789,0 -0.82031,0.05859 -0.87891,0.05859 -0.52735,0.175781 -0.58593,0.117187 -0.41016,0.175782 0,0 -0.46875,0.175781 0,0 0,0 0,0 0.76172,0.292969 0.41016,0.05859 0.58593,0 0.70313,0.05859 0.8789,0 0.87891,0 0.9375,-0.05859 0.99609,-0.05859 0.9961,-0.05859 1.05469,-0.117188 0.9375,-0.117187 0.82031,-0.05859 0.70312,-0.05859 0.70313,-0.117188 0.46875,-0.05859 0.41016,0 0,0 0.64453,0 0,0 0,0 0.46875,0.05859 0,0 0,0 0,0 0.41015,0.410156 0,0 0,0 0,0"
         style="fill:none;stroke:#000000;stroke-width:0.9375px;stroke-linecap:round;stroke-linejoin:round;stroke-opacity:1;stroke-dasharray:none"
         inkscape:connector-curvature="0" />
    </g>
  </g>
</svg>
