<?xml version="1.0" encoding="UTF-8" standalone="no"?>
<!-- Created with Inkscape (http://www.inkscape.org/) -->

<svg
   xmlns:dc="http://purl.org/dc/elements/1.1/"
   xmlns:cc="http://creativecommons.org/ns#"
   xmlns:rdf="http://www.w3.org/1999/02/22-rdf-syntax-ns#"
   xmlns:svg="http://www.w3.org/2000/svg"
   xmlns="http://www.w3.org/2000/svg"
   xmlns:sodipodi="http://sodipodi.sourceforge.net/DTD/sodipodi-0.dtd"
   xmlns:inkscape="http://www.inkscape.org/namespaces/inkscape"
   width="744.09448819"
   height="1052.3622047"
   id="svg2"
   version="1.1"
   inkscape:version="0.48.4 r9939"
   sodipodi:docname="New document 1">
  <sodipodi:namedview
     id="base"
     pagecolor="#ffffff"
     bordercolor="#666666"
     borderopacity="1.0"
     inkscape:pageopacity="0.0"
     inkscape:pageshadow="2"
     inkscape:zoom="1.4"
     inkscape:cx="252.85714"
     inkscape:cy="778.62885"
     inkscape:document-units="px"
     inkscape:current-layer="layer1"
     showgrid="false"
     inkscape:window-width="1598"
     inkscape:window-height="850"
     inkscape:window-x="0"
     inkscape:window-y="0"
     inkscape:window-maximized="1" />
  <defs
     id="defs4" />
  <metadata
     id="metadata7">
    <rdf:RDF>
      <cc:Work
         rdf:about="">
        <dc:format>image/svg+xml</dc:format>
        <dc:type
           rdf:resource="http://purl.org/dc/dcmitype/StillImage" />
        <dc:title></dc:title>
      </cc:Work>
    </rdf:RDF>
  </metadata>
  <g
     id="layer1"
     inkscape:groupmode="layer"
     inkscape:label="Layer 1">
    <path
       inkscape:connector-curvature="0"
       id="path2985"
       d="m 391.86923,38.590577 0,286.847973"
       style="fill:none;stroke:#000000;stroke-width:2.02821803px;stroke-linecap:butt;stroke-linejoin:miter;stroke-opacity:1" />
    <path
       inkscape:connector-curvature="0"
       id="path2987"
       d="m 17.228395,324.27956 747.543215,0"
       style="fill:none;stroke:#000000;stroke-width:2.02821803px;stroke-linecap:butt;stroke-linejoin:miter;stroke-opacity:1" />
    <rect
       y="150.4041"
       x="20.705332"
       height="173.84726"
       width="372.32288"
       id="rect2989"
       style="fill:#7e8080;fill-opacity:0.36057691;stroke:none" />
    <g
       id="g3817"
       transform="translate(-332.85714,-194.28571)">
      <g
         word-spacing="normal"
         letter-spacing="normal"
         font-size-adjust="none"
         font-stretch="normal"
         font-weight="normal"
         font-variant="normal"
         font-style="normal"
         stroke-miterlimit="10.433"
         xml:space="preserve"
         transform="matrix(1.0629921,0,0,-1.0629921,-186.02362,789.27165)"
         id="content"
         style="font-style:normal;font-variant:normal;font-weight:normal;font-stretch:normal;letter-spacing:normal;word-spacing:normal;text-anchor:start;fill:none;stroke:#000000;stroke-linecap:butt;stroke-linejoin:miter;stroke-miterlimit:10.43299961;stroke-opacity:1;stroke-dasharray:none;stroke-dashoffset:0"><path
           id="path3820"
           d="m 480.49,412.03 -0.12,-0.16 -0.12,-0.15 -0.12,-0.15 -0.12,-0.15 -0.11,-0.14 -0.11,-0.13 -0.11,-0.14 -0.1,-0.13 -0.1,-0.12 -0.1,-0.12 -0.1,-0.12 -0.1,-0.12 -0.09,-0.11 -0.09,-0.1 -0.17,-0.21 -0.16,-0.19 -0.16,-0.18 -0.14,-0.16 -0.14,-0.16 -0.14,-0.14 -0.12,-0.13 -0.12,-0.12 -0.11,-0.11 -0.11,-0.1 -0.1,-0.09 -0.1,-0.09 -0.09,-0.07 -0.09,-0.06 -0.09,-0.06 -0.08,-0.05 -0.08,-0.04 -0.08,-0.04 -0.08,-0.03 -0.07,-0.02 -0.08,-0.02 -0.07,-0.01 -0.07,-0.01 -0.15,-0.01 c -0.44,0 -0.8,0.45 -0.8,0.91 0,0.48 0.8,3.62 1.64,6.21 1.46,4.74 2.39,8.43 2.39,9.63 0,1.98 -1.34,3.33 -3.28,3.33 -3.23,0 -6.78,-3.28 -11.4,-10.52 l 5.96,22.33 -0.23,0.25 c -2.89,-0.66 -4.84,-1 -7.83,-1.34 v -0.75 h 1.3 c 0.05,0 0.09,0 0.14,0.04 0.7,0.3 1.91,-0.54 1.91,-1.25 0,-0.68 -0.25,-1.93 -0.71,-3.37 -0.04,-0.06 -0.2,-0.75 -0.5,-1.85 l -6.72,-25.51 h 3.74 c 1.98,7.67 2.64,9.36 4.62,12.41 2.6,3.93 5.99,7.03 7.72,7.03 0.75,0 1.41,-0.61 1.41,-1.25 0,-0.21 -0.16,-0.85 -0.36,-1.64 l -2.74,-10.32 c -0.64,-2.45 -1,-4 -1,-4.59 0,-1.3 0.86,-2.09 2.21,-2.09 2.53,0 4.28,1.34 7.26,5.68 z"
           inkscape:connector-curvature="0"
           style="fill:#000000;stroke-width:0" /><path
           id="path3822"
           d="m 491.88,423.36 -0.19,-0.01 -0.18,0 -0.19,-0.01 -0.17,-0.01 -0.18,-0.02 -0.17,-0.02 -0.17,-0.02 -0.17,-0.03 -0.17,-0.03 -0.16,-0.04 -0.16,-0.04 -0.16,-0.04 -0.16,-0.05 -0.15,-0.05 -0.16,-0.05 -0.15,-0.06 -0.15,-0.06 -0.15,-0.06 -0.14,-0.07 -0.14,-0.07 -0.15,-0.08 -0.14,-0.08 -0.14,-0.08 -0.13,-0.09 -0.14,-0.09 -0.13,-0.09 -0.14,-0.1 -0.13,-0.1 -0.13,-0.11 -0.13,-0.11 -0.12,-0.11 -0.13,-0.12 c -2.11,-2.04 -3.48,-6.21 -3.48,-10.48 0,-3.97 1.2,-8.22 2.9,-10.25 1.35,-1.61 3.2,-2.48 5.31,-2.48 v 0.95 c -3.12,0 -4.73,3.89 -4.73,11.45 0,7.72 1.64,11.75 4.77,11.75 h 0 c 3.06,0 4.7,-4.11 4.7,-11.7 0,-7.61 -1.61,-11.5 -4.74,-11.5 v -0.95 c 1.86,0 3.43,0.62 4.74,1.89 2.11,2 3.48,6.23 3.48,10.62 0,7.45 -3.31,12.6 -8.07,12.6 z"
           inkscape:connector-curvature="0"
           style="fill:#000000;stroke-width:0" /></g>    </g>
    <g
       transform="translate(-407.14286,-25.714286)"
       id="g3846">
      <g
         style="font-style:normal;font-variant:normal;font-weight:normal;font-stretch:normal;letter-spacing:normal;word-spacing:normal;text-anchor:start;fill:none;stroke:#000000;stroke-linecap:butt;stroke-linejoin:miter;stroke-miterlimit:10.43299961;stroke-opacity:1;stroke-dasharray:none;stroke-dashoffset:0"
         id="g3848"
         transform="matrix(1.0629921,0,0,-1.0629921,-186.02362,789.27165)"
         xml:space="preserve"
         stroke-miterlimit="10.433"
         font-style="normal"
         font-variant="normal"
         font-weight="normal"
         font-stretch="normal"
         font-size-adjust="none"
         letter-spacing="normal"
         word-spacing="normal"><path
           style="fill:#000000;stroke-width:0"
           inkscape:connector-curvature="0"
           d="m 479.38,425.43 0,0.14 -0.02,0.14 -0.01,0.13 -0.03,0.14 -0.03,0.13 -0.03,0.13 -0.05,0.12 -0.05,0.13 -0.05,0.12 -0.06,0.12 -0.07,0.11 -0.07,0.11 -0.08,0.11 -0.08,0.1 -0.08,0.1 -0.1,0.1 -0.09,0.09 -0.1,0.09 -0.1,0.08 -0.11,0.07 -0.11,0.08 -0.12,0.06 -0.11,0.06 -0.13,0.06 -0.12,0.05 -0.13,0.04 -0.13,0.04 -0.13,0.03 -0.13,0.03 -0.14,0.01 -0.14,0.01 -0.14,0.01 c -1.14,0 -1.93,-0.75 -1.93,-1.85 0,-0.79 0.39,-1.29 1.39,-1.93 0.94,-0.55 1.29,-1 1.29,-1.71 0,-1.98 -1.79,-5.82 -6.07,-12.89 l -1,5.77 c -0.75,4.44 -3.53,12.61 -4.28,12.61 h -0.21 l -0.45,-0.05 -4.88,-0.84 -1.59,-0.3 v -0.86 c 0.59,0.16 1,0.2 1.55,0.2 1.98,0 2.89,-0.75 3.83,-3.18 1.34,-3.39 4.09,-14.55 4.09,-16.53 0,-0.57 -0.2,-1.16 -0.5,-1.75 -0.41,-0.66 -2.64,-3.6 -3.55,-4.54 -1.14,-1.25 -1.73,-1.64 -2.39,-1.64 -0.34,0 -0.64,0.14 -1.19,0.55 -0.75,0.59 -1.25,0.84 -1.84,0.84 -1.09,0 -1.95,-0.84 -1.95,-1.95 0,-1.28 1.04,-2.19 2.54,-2.19 2.85,0 8.22,5.74 13.36,14.3 4.18,6.88 6.52,12.36 6.52,15.2 z"
           id="path3850" /><polygon
           style="fill:#000000;stroke-width:0"
           points="524.55,425.43 499.05,425.43 499.05,422.64 524.55,422.64 "
           id="polygon3852" /><polygon
           style="fill:#000000;stroke-width:0"
           points="524.55,415.32 499.05,415.32 499.05,412.53 524.55,412.53 "
           id="polygon3854" /><path
           style="fill:#000000;stroke-width:0"
           inkscape:connector-curvature="0"
           d="m 554.22,439.87 -0.16,-1.28 c 4.19,0 6.44,-5.64 6.44,-16.05 0,-10.42 -2.21,-15.75 -6.49,-15.75 -4.28,0 -6.47,5.33 -6.47,15.71 0,10.56 2.24,16.09 6.52,16.09 h 0 l 0.16,1.28 c -2.74,0 -4.83,-0.84 -6.68,-2.58 -2.89,-2.79 -4.78,-8.53 -4.78,-14.36 0,-5.42 1.64,-11.25 3.99,-14.04 1.84,-2.19 4.37,-3.39 7.26,-3.39 2.55,0 4.69,0.86 6.49,2.59 2.89,2.75 4.78,8.52 4.78,14.55 0,10.22 -4.53,17.23 -11.06,17.23 z"
           id="path3856" /></g>    </g>
    <g
       id="g3892"
       transform="translate(25.714286,21.428571)">
      <g
         word-spacing="normal"
         letter-spacing="normal"
         font-size-adjust="none"
         font-stretch="normal"
         font-weight="normal"
         font-variant="normal"
         font-style="normal"
         stroke-miterlimit="10.433"
         xml:space="preserve"
         transform="matrix(1.0629921,0,0,-1.0629921,-186.02362,789.27165)"
         id="g3894"
         style="font-style:normal;font-variant:normal;font-weight:normal;font-stretch:normal;letter-spacing:normal;word-spacing:normal;text-anchor:start;fill:none;stroke:#000000;stroke-linecap:butt;stroke-linejoin:miter;stroke-miterlimit:10.43299961;stroke-opacity:1;stroke-dasharray:none;stroke-dashoffset:0"><path
           id="path3896"
           d="m 478.31,411.73 -0.07,-0.08 -0.07,-0.08 -0.07,-0.08 -0.07,-0.08 -0.06,-0.07 -0.07,-0.08 -0.06,-0.07 -0.06,-0.08 -0.07,-0.08 -0.06,-0.08 -0.07,-0.08 -0.06,-0.09 -0.04,-0.04 -0.03,-0.05 -0.04,-0.04 -0.04,-0.05 -0.03,-0.05 -0.04,-0.06 -0.04,-0.05 -0.04,-0.05 c -1.16,-1.5 -1.75,-2 -2.3,-2 -0.75,0 -1.2,0.65 -1.54,2.04 -0.1,0.41 -0.15,0.71 -0.21,0.85 -1.23,5.03 -1.78,7.33 -1.78,8.08 2.19,3.82 3.99,6.03 4.88,6.03 0.29,0 0.7,-0.16 1.2,-0.41 0.59,-0.34 0.94,-0.45 1.34,-0.45 1.05,0 1.74,0.75 1.74,1.79 0,1.05 -0.85,1.85 -2.03,1.85 -2.21,0 -4.1,-1.8 -7.54,-7.13 l -0.54,2.75 c -0.71,3.38 -1.25,4.38 -2.6,4.38 -1.09,0 -2.78,-0.46 -5.82,-1.44 l -0.55,-0.2 0.2,-0.75 c 1.89,0.45 2.35,0.54 2.78,0.54 1.25,0 1.55,-0.45 2.25,-3.43 l 1.44,-6.13 -4.08,-5.83 c -1,-1.5 -2,-2.39 -2.54,-2.39 -0.3,0 -0.8,0.14 -1.3,0.46 -0.64,0.34 -1.19,0.48 -1.6,0.48 -0.93,0 -1.68,-0.73 -1.68,-1.73 0,-1.3 1,-2.1 2.48,-2.1 1.55,0 2.14,0.46 4.64,3.49 1.35,1.59 2.39,2.93 4.49,5.82 l 1.5,-5.96 c 0.64,-2.55 1.28,-3.35 2.87,-3.35 1.91,0 3.2,1.19 6.08,5.67 z"
           inkscape:connector-curvature="0"
           style="fill:#000000;stroke-width:0" /><polygon
           id="polygon3898"
           points="525.27,425.43 499.77,425.43 499.77,422.64 525.27,422.64 "
           style="fill:#000000;stroke-width:0" /><polygon
           id="polygon3900"
           points="525.27,415.32 499.77,415.32 499.77,412.53 525.27,412.53 "
           style="fill:#000000;stroke-width:0" /><path
           id="path3902"
           d="m 554.81,439.87 -0.15,-1.28 c 4.18,0 6.43,-5.64 6.43,-16.05 0,-10.42 -2.2,-15.75 -6.48,-15.75 -4.28,0 -6.47,5.33 -6.47,15.71 0,10.56 2.24,16.09 6.52,16.09 h 0 l 0.15,1.28 c -2.73,0 -4.83,-0.84 -6.67,-2.58 -2.89,-2.79 -4.78,-8.53 -4.78,-14.36 0,-5.42 1.64,-11.25 3.98,-14.04 1.85,-2.19 4.38,-3.39 7.27,-3.39 2.55,0 4.69,0.86 6.48,2.59 2.89,2.75 4.79,8.52 4.79,14.55 0,10.22 -4.54,17.23 -11.07,17.23 z"
           inkscape:connector-curvature="0"
           style="fill:#000000;stroke-width:0" /></g>    </g>
    <g
       transform="translate(474.28571,-20)"
       id="g3950">
      <g
         style="font-style:normal;font-variant:normal;font-weight:normal;font-stretch:normal;letter-spacing:normal;word-spacing:normal;text-anchor:start;fill:none;stroke:#000000;stroke-linecap:butt;stroke-linejoin:miter;stroke-miterlimit:10.43299961;stroke-opacity:1;stroke-dasharray:none;stroke-dashoffset:0"
         id="g3952"
         transform="matrix(1.0629921,0,0,-1.0629921,-186.02362,789.27165)"
         xml:space="preserve"
         stroke-miterlimit="10.433"
         font-style="normal"
         font-variant="normal"
         font-weight="normal"
         font-stretch="normal"
         font-size-adjust="none"
         letter-spacing="normal"
         word-spacing="normal"><path
           style="fill:#000000;stroke-width:0"
           inkscape:connector-curvature="0"
           d="m 478.31,411.73 -0.07,-0.08 -0.07,-0.08 -0.07,-0.08 -0.07,-0.08 -0.06,-0.07 -0.07,-0.08 -0.06,-0.07 -0.06,-0.08 -0.07,-0.08 -0.06,-0.08 -0.07,-0.08 -0.06,-0.09 -0.04,-0.04 -0.03,-0.05 -0.04,-0.04 -0.04,-0.05 -0.03,-0.05 -0.04,-0.06 -0.04,-0.05 -0.04,-0.05 c -1.16,-1.5 -1.75,-2 -2.3,-2 -0.75,0 -1.2,0.65 -1.54,2.04 -0.1,0.41 -0.15,0.71 -0.21,0.85 -1.23,5.03 -1.78,7.33 -1.78,8.08 2.19,3.82 3.99,6.03 4.88,6.03 0.29,0 0.7,-0.16 1.2,-0.41 0.59,-0.34 0.94,-0.45 1.34,-0.45 1.05,0 1.74,0.75 1.74,1.79 0,1.05 -0.85,1.85 -2.03,1.85 -2.21,0 -4.1,-1.8 -7.54,-7.13 l -0.54,2.75 c -0.71,3.38 -1.25,4.38 -2.6,4.38 -1.09,0 -2.78,-0.46 -5.82,-1.44 l -0.55,-0.2 0.2,-0.75 c 1.89,0.45 2.35,0.54 2.78,0.54 1.25,0 1.55,-0.45 2.25,-3.43 l 1.44,-6.13 -4.08,-5.83 c -1,-1.5 -2,-2.39 -2.54,-2.39 -0.3,0 -0.8,0.14 -1.3,0.46 -0.64,0.34 -1.19,0.48 -1.6,0.48 -0.93,0 -1.68,-0.73 -1.68,-1.73 0,-1.3 1,-2.1 2.48,-2.1 1.55,0 2.14,0.46 4.64,3.49 1.35,1.59 2.39,2.93 4.49,5.82 l 1.5,-5.96 c 0.64,-2.55 1.28,-3.35 2.87,-3.35 1.91,0 3.2,1.19 6.08,5.67 z"
           id="path3954" /></g>    </g>
    <g
       id="g4008"
       transform="translate(72.857143,-338.57143)">
      <g
         word-spacing="normal"
         letter-spacing="normal"
         font-size-adjust="none"
         font-stretch="normal"
         font-weight="normal"
         font-variant="normal"
         font-style="normal"
         stroke-miterlimit="10.433"
         xml:space="preserve"
         transform="matrix(1.0629921,0,0,-1.0629921,-186.02362,789.27165)"
         id="g4010"
         style="font-style:normal;font-variant:normal;font-weight:normal;font-stretch:normal;letter-spacing:normal;word-spacing:normal;text-anchor:start;fill:none;stroke:#000000;stroke-linecap:butt;stroke-linejoin:miter;stroke-miterlimit:10.43299961;stroke-opacity:1;stroke-dasharray:none;stroke-dashoffset:0"><path
           id="path4012"
           d="m 479.38,425.43 0,0.14 -0.02,0.14 -0.01,0.13 -0.03,0.14 -0.03,0.13 -0.03,0.13 -0.05,0.12 -0.05,0.13 -0.05,0.12 -0.06,0.12 -0.07,0.11 -0.07,0.11 -0.08,0.11 -0.08,0.1 -0.08,0.1 -0.1,0.1 -0.09,0.09 -0.1,0.09 -0.1,0.08 -0.11,0.07 -0.11,0.08 -0.12,0.06 -0.11,0.06 -0.13,0.06 -0.12,0.05 -0.13,0.04 -0.13,0.04 -0.13,0.03 -0.13,0.03 -0.14,0.01 -0.14,0.01 -0.14,0.01 c -1.14,0 -1.93,-0.75 -1.93,-1.85 0,-0.79 0.39,-1.29 1.39,-1.93 0.94,-0.55 1.29,-1 1.29,-1.71 0,-1.98 -1.79,-5.82 -6.07,-12.89 l -1,5.77 c -0.75,4.44 -3.53,12.61 -4.28,12.61 h -0.21 l -0.45,-0.05 -4.88,-0.84 -1.59,-0.3 v -0.86 c 0.59,0.16 1,0.2 1.55,0.2 1.98,0 2.89,-0.75 3.83,-3.18 1.34,-3.39 4.09,-14.55 4.09,-16.53 0,-0.57 -0.2,-1.16 -0.5,-1.75 -0.41,-0.66 -2.64,-3.6 -3.55,-4.54 -1.14,-1.25 -1.73,-1.64 -2.39,-1.64 -0.34,0 -0.64,0.14 -1.19,0.55 -0.75,0.59 -1.25,0.84 -1.84,0.84 -1.09,0 -1.95,-0.84 -1.95,-1.95 0,-1.28 1.04,-2.19 2.54,-2.19 2.85,0 8.22,5.74 13.36,14.3 4.18,6.88 6.52,12.36 6.52,15.2 z"
           inkscape:connector-curvature="0"
           style="fill:#000000;stroke-width:0" /></g>    </g>
    <path
       style="fill:none;stroke:#000000;stroke-width:5;stroke-linecap:butt;stroke-linejoin:miter;stroke-miterlimit:4;stroke-opacity:1;stroke-dasharray:none"
       d="M 391.42857,152.07647 15.714286,153.50504"
       id="path4178"
       inkscape:connector-curvature="0" />
    <text
       xml:space="preserve"
       style="font-size:26.99237823px;font-style:normal;font-weight:normal;line-height:125%;letter-spacing:0px;word-spacing:0px;fill:#000000;fill-opacity:1;stroke:none;font-family:Sans"
       x="177.54298"
       y="250.34637"
       id="text4180"
       sodipodi:linespacing="125%"><tspan
         sodipodi:role="line"
         id="tspan4182"
         x="177.54298"
         y="250.34637"
         style="font-family:Times New Roman;-inkscape-font-specification:Times New Roman">fluid</tspan></text>
  </g>
</svg>
