<?xml version="1.0" encoding="UTF-8" standalone="no"?>
<!-- Created with Inkscape (http://www.inkscape.org/) -->

<svg
   xmlns:dc="http://purl.org/dc/elements/1.1/"
   xmlns:cc="http://creativecommons.org/ns#"
   xmlns:rdf="http://www.w3.org/1999/02/22-rdf-syntax-ns#"
   xmlns:svg="http://www.w3.org/2000/svg"
   xmlns="http://www.w3.org/2000/svg"
   xmlns:sodipodi="http://sodipodi.sourceforge.net/DTD/sodipodi-0.dtd"
   xmlns:inkscape="http://www.inkscape.org/namespaces/inkscape"
   width="744.09448819"
   height="1052.3622047"
   id="svg3128"
   version="1.1"
   inkscape:version="0.48.4 r9939"
   sodipodi:docname="shallow_water_approximation.svg">
  <defs
     id="defs3130">
    <clipPath
       id="clipEmfPath1"
       clipPathUnits="userSpaceOnUse">
      <rect
         id="rect3141"
         height="100.3125"
         width="500.625"
         y="32.8125"
         x="36.5625" />
    </clipPath>
    <clipPath
       id="clipEmfPath2"
       clipPathUnits="userSpaceOnUse">
      <rect
         id="rect3144"
         height="23.4375"
         width="508.125"
         y="145.3125"
         x="36.5625" />
    </clipPath>
    <clipPath
       id="clipEmfPath3"
       clipPathUnits="userSpaceOnUse">
      <rect
         id="rect3147"
         height="43.125"
         width="175.3125"
         y="60.9375"
         x="37.5" />
    </clipPath>
    <clipPath
       id="clipEmfPath4"
       clipPathUnits="userSpaceOnUse">
      <rect
         id="rect3150"
         height="42.1875"
         width="164.0625"
         y="61.875"
         x="201.5625" />
    </clipPath>
    <clipPath
       id="clipEmfPath5"
       clipPathUnits="userSpaceOnUse">
      <rect
         id="rect3153"
         height="39.375"
         width="153.75"
         y="63.75"
         x="349.6875" />
    </clipPath>
    <clipPath
       id="clipEmfPath6"
       clipPathUnits="userSpaceOnUse">
      <rect
         id="rect3156"
         height="12.1875"
         width="530.625"
         y="77.8125"
         x="36.5625" />
    </clipPath>
    <clipPath
       id="clipEmfPath7"
       clipPathUnits="userSpaceOnUse">
      <rect
         id="rect3159"
         height="33.75"
         width="79.6875"
         y="66.937494"
         x="557.41093" />
    </clipPath>
    <clipPath
       id="clipEmfPath8"
       clipPathUnits="userSpaceOnUse">
      <rect
         id="rect3162"
         height="93.75"
         width="1064.0625"
         y="96.637487"
         x="22.229826" />
    </clipPath>
    <clipPath
       id="clipEmfPath9"
       clipPathUnits="userSpaceOnUse">
      <rect
         id="rect3165"
         height="35.625"
         width="0"
         y="97.574987"
         x="577.22983" />
    </clipPath>
    <clipPath
       id="clipEmfPath10"
       clipPathUnits="userSpaceOnUse">
      <rect
         id="rect3168"
         height="23.4375"
         width="0"
         y="133.19999"
         x="33.479826" />
    </clipPath>
    <clipPath
       id="clipEmfPath11"
       clipPathUnits="userSpaceOnUse">
      <rect
         id="rect3171"
         height="89.0625"
         width="90.9375"
         y="7.537508"
         x="0.26131868" />
    </clipPath>
  </defs>
  <sodipodi:namedview
     id="base"
     pagecolor="#ffffff"
     bordercolor="#666666"
     borderopacity="1.0"
     inkscape:pageopacity="0.0"
     inkscape:pageshadow="2"
     inkscape:zoom="1.4"
     inkscape:cx="277.77917"
     inkscape:cy="688.59658"
     inkscape:document-units="px"
     inkscape:current-layer="layer1"
     showgrid="false"
     inkscape:window-width="1920"
     inkscape:window-height="1018"
     inkscape:window-x="-8"
     inkscape:window-y="5"
     inkscape:window-maximized="1" />
  <metadata
     id="metadata3133">
    <rdf:RDF>
      <cc:Work
         rdf:about="">
        <dc:format>image/svg+xml</dc:format>
        <dc:type
           rdf:resource="http://purl.org/dc/dcmitype/StillImage" />
        <dc:title></dc:title>
      </cc:Work>
    </rdf:RDF>
  </metadata>
  <g
     inkscape:label="Layer 1"
     inkscape:groupmode="layer"
     id="layer1">
    <g
       id="g3173"
       transform="translate(90.153461,109.02931)">
      <path
         id="path3175"
         d="m 41.953125,38.203125 0,89.062495 490.019535,0"
         clip-path="url(#clipEmfPath1)"
         style="fill:none;stroke:#000000;stroke-width:1.7578125px;stroke-linecap:round;stroke-linejoin:round;stroke-opacity:1;stroke-dasharray:none"
         inkscape:connector-curvature="0" />
      <path
         id="path3177"
         d="M 41.894531,157.03125 539.12109,156.5625"
         clip-path="url(#clipEmfPath2)"
         style="fill:none;stroke:#000000;stroke-width:1.7578125px;stroke-linecap:round;stroke-linejoin:round;stroke-opacity:1;stroke-dasharray:none"
         inkscape:connector-curvature="0" />
      <path
         id="path3179"
         d="m 526.99219,150.58594 12.07031,5.97656 -12.07031,6.09375"
         style="fill:none;stroke:#000000;stroke-width:1.7578125px;stroke-linecap:round;stroke-linejoin:round;stroke-opacity:1;stroke-dasharray:none"
         inkscape:connector-curvature="0" />
      <path
         id="path3181"
         d="M 54.023438,163.06641 41.894531,157.03125 53.964844,150.9375"
         style="fill:none;stroke:#000000;stroke-width:1.7578125px;stroke-linecap:round;stroke-linejoin:round;stroke-opacity:1;stroke-dasharray:none"
         inkscape:connector-curvature="0" />
      <path
         id="path3183"
         d="m 43.359375,84.960938 0,0 0,0 0,0 0,0 -0.410156,-0.05859 0,0 0,0 0,0 0,0 0,0 0,0 0,0 0,0 0,0 0,0 0,0 0,0 0,0 0,0 0,0 0,0 0,0 0,0 0,0 0,0 0,0 0.46875,0.351562 0,0 0.410156,-0.05859 0,0 0.585937,-0.117187 0,0 L 45,84.902344 l 0,0 0.46875,-0.175782 0,0 0.527344,-0.117187 0,0 0.410156,-0.175781 0,0 0.46875,-0.175782 0,0 0.46875,-0.175781 0,0 0.527344,-0.117187 0,0 0.527344,-0.175782 0,0 0.410156,0 0,0 0,0 0.527344,-0.117187 0,0 0,0 0.644531,-0.175781 0,0 0.410156,-0.117188 0,0 0.527344,-0.175781 0,0 0.585937,-0.175781 0,0 0.527344,-0.175782 0,0 0.585938,-0.234374 0,0 0.644531,-0.175782 0,0 0.527343,-0.234375 0,0 0.585938,-0.292969 0,0 0.527344,-0.351562 0,0 0.527344,-0.410156 0,0 0.46875,-0.46875 0,0 0.46875,-0.46875 0,0 0.292968,-0.46875 0,0 0.410156,-0.410156 0,0 0.292969,-0.46875 0,0 0.410157,-0.46875 0,0 0.351562,-0.46875 0,0 0.527344,-0.410157 0,0 0.46875,-0.527343 0,0 0.585937,-0.351563 0,0 0.46875,-0.292969 0,0 0.46875,-0.175781 0,0 0.585938,-0.175781 0,0 L 61.875,75.703125 62.34375,75.46875 62.753906,75.234375 63.222656,75 l 0.351563,-0.234375 0.46875,-0.234375 0,0 0.585937,-0.351562 0,0 0.46875,-0.292969 0,0 0.46875,-0.292969 0,0 0.410156,-0.234375 0,0 0.585938,-0.292969 0,0 0.585938,-0.351562 0,0 0.585937,-0.410156 0,0 0.703125,-0.292969 0,0 0.703125,-0.292969 0,0 0.527344,-0.351562 0,0 0.761719,-0.410157 0,0 0.761718,-0.46875 0.46875,-0.175781 0.351563,-0.234375 0,0 0.761719,-0.292969 0,0 0.585937,-0.292968 0,0 0.585937,-0.175782 0,0 0.410157,-0.117187 0,0 0.703125,-0.175781 0.410156,0 0.46875,-0.117188 0.46875,-0.05859 0.527344,-0.117187 0.46875,-0.05859 0.46875,-0.117187 0,0 0.761718,-0.05859 0,0 0.46875,-0.05859 0,0 0.410157,-0.05859 0,0 0.585937,-0.175781 0,0 0.644532,-0.292969 0,0 0.761718,-0.175781 0,0 0.703125,-0.175781 0,0 0.644531,-0.05859 0,0 0.644532,0 0,0 0.585937,-0.175781 0,0 0.761719,-0.175781 0,0 0.527344,-0.292969 0,0 0.644531,-0.05859 0,0 0.351563,-0.117187 0,0 0,0 0.527343,0 0,0 0.46875,0.05859 0,0 0.46875,0 0,0 0.527344,-0.05859 0,0 0.585937,0 0,0 0.46875,0 0,0 0.46875,0 0,0 0.46875,0 0,0 0.46875,0.117187 0,0 0.410157,0.05859 0,0 0.46875,0 0,0 0.585937,0 0,0 0.527344,0.05859 0,0 0.527344,0.117188 0,0 0.703125,0.117188 0,0 0.644531,0.05859 0,0 0.527344,0.117188 0,0 0.585937,0.117187 0,0 0.46875,0.05859 0,0 0.410157,0.175781 0,0 0,0 0.585937,0.292969 0,0 0.410156,0.410156 0,0 0.527344,0.175782 0,0 0.585937,0.117187 0,0 0.585938,0.05859 0,0 0.527344,0.117187 0,0 0.468746,0.175782 0,0 0,0 0.58594,0.234374 0,0 0,0 0.64453,0.234376 0,0 0.41016,0.234374 0,0 0.52734,0.175782 0,0 0.46875,0.292968 0,0 0.52735,0.117188 0,0 0.46875,0.175781 0,0 0.52734,0.117188 0,0 0.52734,0.292969 0,0 0.64453,0.234374 0,0 0.52735,0.292969 0,0 0.58594,0.351563 0,0 0.46875,0.234375 0,0 0.58593,0.410156 0,0 0.52735,0.292969 0,0 0.64453,0.410156 0,0 0.70312,0.410156 0,0 0.64453,0.410156 0,0 0.70313,0.351563 0,0 0.52734,0.351563 0,0 0.58594,0.292968 0,0 0.46875,0.351563 0,0 0.52734,0.234375 0,0 0.41016,0.410156 0,0 0.41016,0.351562 0,0 0.46875,0.527344 0,0 0.46875,0.46875 0,0 0.58594,0.527344 0,0 0.46874,0.46875 0,0 0.46876,0.410156 0,0 0.46874,0.527344 0,0 0.41016,0.527344 0,0 0.46875,0.585937 0,0 0.41016,0.585938 0,0 0.35156,0.585937 0,0 0.46875,0.585938 0,0 0.29297,0.703125 0,0 0.41015,0.761719 0.11719,0.410156 0,0 0.41016,0.644531 0,0 0.35156,0.585937 0,0 0.41016,0.527344 0,0 0.35156,0.527344 0,0 0.29297,0.410156 0,0 0.46875,0.46875 0,0 0.23437,0.410156 0,0 0.46875,0.351563 0,0 0.41016,0.292969 0,0 0,0 0.58594,0.46875 0,0 0,0 0.41015,0.410156 0,0 0,0 0.35157,0.527344 0,0 0.35156,0.46875 0,0 0.35156,0.351562 0,0 0.35156,0.46875 0,0 0,0 0.52735,0.585938 0,0 0,0 0.52734,0.46875 0,0 0,0 0.52734,0.585937 0,0 0.41016,0.46875 0,0 0.35156,0.46875 0,0 0.46875,0.351563 0,0 0.41016,0.410156 0,0 0,0 0.58594,0.351562 0,0 0,0 0.46875,0.292969 0,0 0,0 0.46875,0.410157 0,0 0,0 0.46875,0.527343 0,0 0.46875,0.351563 0,0 0,0 0.52734,0.585937 0,0 0.41016,0.117188 0,0 0,0 0.58593,0.234375 0,0 0,0 0.41016,0.05859 0,0 0.41016,0.175781 0,0 0,0 0.58594,0 0,0 0.52734,0.175781 0,0 0.41016,0.05859 0,0 0.46874,0.117187 0,0 0.41016,0.175781 0,0 0.52734,0.117188 0,0 0.52735,0 0,0 0.52734,0.05859 0,0 0.52735,0.05859 0,0 0.46875,0.05859 0,0 0.41015,0.05859 0,0 0.46875,0.117187 0,0 0.52735,0.05859 0,0 0.46875,0.05859 0,0 0.52734,0.175781 0,0 0.64453,0.175781 0,0 0.64453,0.117188 0,0 0.64453,0.175781 0,0 0.70313,0.117188 0,0 0.58594,0 0,0 0.64453,0 0,0 0.64453,-0.05859 0,0 0.64453,-0.117187 0,0 0.70312,-0.175782 0,0 0.76172,-0.175781 0.41016,-0.05859 0,0 0.70312,-0.175781 0,0 0.70313,-0.234375 0.46875,-0.05859 0.35156,-0.117187 0,0 0.82032,-0.175782 0,0 0.82031,-0.234374 0,0 0.64453,-0.175782 0,0 0.46875,-0.117187 0,0 0.46875,-0.234375 0,0 0.46875,-0.05859 0,0 0.52734,-0.234375 0,0 0.64453,-0.351563 0,0 0.70313,-0.292968 0,0 0.70312,-0.351563 0,0 0.70313,-0.175781 0,0 0.64453,-0.175781 0,0 0.52734,-0.175781 0,0 0.70313,-0.175782 0.41016,-0.117187 0.41015,-0.175781 0.41016,-0.117188 0.52734,-0.117188 0.52735,-0.175781 0.41015,-0.175781 0.46875,-0.234375 0.46875,-0.234375 0.46875,-0.175781 0,0 0.76172,-0.351563 0,0 0.76172,-0.351562 0.41016,-0.117188 0.41015,-0.175781 0.41016,-0.175781 0.46875,-0.175782 0.41015,-0.292968 0.41016,-0.175782 0.41016,-0.234374 0.41015,-0.234376 0.46875,-0.234374 0,0 0.64453,-0.46875 0,0 0.64454,-0.527344 0,0 0.64453,-0.410156 0,0 0.70312,-0.527344 0,0 0.76172,-0.46875 0,0 0.70313,-0.46875 0,0 0.58593,-0.410156 0,0 0.52735,-0.351563 0,0 0.46875,-0.410156 0,0 0.46875,-0.527344 0,0 0.46875,-0.46875 0,0 0.64453,-0.644531 0,0 0.70312,-0.585938 0,0 0.70313,-0.703125 0,0 0.64453,-0.703125 0,0 0.70312,-0.761718 0,0 0.70313,-0.585938 0.41015,-0.292969 0,0 0.76172,-0.644531 0.41016,-0.351562 0.35156,-0.410157 0.41016,-0.351562 0.46875,-0.410157 0.41015,-0.410156 0.41016,-0.46875 0.35156,-0.410156 0.41016,-0.46875 0.46875,-0.46875 0.41016,-0.410156 0.52734,-0.46875 0.52734,-0.46875 0.46875,-0.46875 0.52735,-0.410156 0.52734,-0.292969 0.46875,-0.351563 0.52734,-0.292968 0.46876,-0.292969 0.46874,-0.234375 0.46876,-0.234375 0.46874,-0.175781 0.35157,-0.175782 0.52734,-0.175781 0.46875,-0.292969 0.46875,-0.175781 0.46875,-0.292969 0.58594,-0.175781 0.58594,-0.234375 0.70312,-0.292969 0.70313,-0.292969 0.76171,-0.234374 0.76172,-0.292969 0.70313,-0.175781 0.82031,-0.234376 0.70313,-0.292968 0.70312,-0.175782 0.58594,-0.175781 0.58594,-0.175781 0.52734,-0.117188 0.52734,-0.117187 0.41016,-0.117187 0.41016,-0.175782 0,0 0.70312,-0.292968 0,0 0.46875,-0.175782 0,0 0,0 0.58594,-0.292968 0,0 0.41016,-0.292969 0,0 0.41015,-0.292969 0,0 0.52735,-0.234375 0,0 0.46874,-0.351563 0,0 0.46876,-0.234374 0,0 0.41015,-0.117188 0,0 0,0 0.58594,-0.175781 0,0 0,0 0.46875,0.234375 0,0 0,0 -0.0586,0.410156 0,0 -0.23437,0.410156"
         clip-path="url(#clipEmfPath3)"
         style="fill:none;stroke:#000000;stroke-width:0.9375px;stroke-linecap:round;stroke-linejoin:round;stroke-opacity:1;stroke-dasharray:none"
         inkscape:connector-curvature="0" />
      <path
         id="path3185"
         d="m 206.66016,68.671875 0,0 0,0 0,0 0,0 0.41015,-0.351563 0,0 0,0 0,0 0.46875,-0.05859 0,0 0,0 0.52735,-0.175781 0,0 0.35156,-0.117188 0,0 0.58594,-0.117188 0,0 0.64453,-0.175781 0,0 0.64453,-0.175781 0,0 0.64453,-0.175781 0,0 0.64453,-0.05859 0,0 0.41016,0.05859 0,0 0.46875,0 0,0 0.41015,0.175781 0,0 0.46875,0.05859 0,0 0.58594,0 0,0 0.70313,0 0,0 0.76171,-0.05859 0,0 0.70313,0 0,0 0.76172,0 0.41015,0.05859 0,0 0.76172,0.117187 0.46875,0.05859 0.41016,0.05859 0.46875,0.117187 0.52734,0.05859 0.46875,0.117188 0.64453,0.117187 0.52735,0.117187 0.58594,0.05859 0.46875,0.175782 0.64453,0.117187 0.52734,0.175781 0.64453,0.05859 0.52735,0.117188 0.52734,0.117187 0.64453,0.117187 0.58594,0.05859 0.64453,0.117188 0.58594,0.05859 0.58593,0.175781 0.52735,0 0.58594,0.175781 0.52734,0 0.52734,0.117188 0.52735,0.05859 0.64453,0 0.52734,0.05859 0.58594,0.05859 0.64453,0.05859 0.64453,0.05859 0.58594,0 0.58594,0.05859 0.52734,0.117188 0.58594,0.117187 0.46875,0.175781 0.58594,0.05859 0.46875,0.175781 0.46875,0.117188 0.52734,0.234375 0.52734,0.175781 0.52735,0.175781 0.52734,0.234375 0.52735,0.175781 0.52734,0.175782 0.52734,0.175781 0.52735,0.175781 0.35156,0.175782 0.46875,0.175781 0.46875,0.117187 0,0 0.70312,0.292969 0,0 0.70313,0.351563 0,0 0.58594,0.351562 0,0 0.58593,0.410156 0,0 0.52735,0.46875 0,0 0.52734,0.46875 0,0 0.70313,0.410156 0,0 0.70312,0.410157 0.41016,0.234375 0.46875,0.234375 0.35156,0.234375 0,0 0.70312,0.703125 0,0 0.70313,0.644531 0,0 0.76172,0.585938 0,0 0.76172,0.644531 0.41015,0.234375 0.46875,0.234375 0.46875,0.351562 0.46875,0.234375 0.41016,0.351563 0.41016,0.410156 0,0 0.76171,0.878906 0,0 0.76172,0.703125 0,0 0.76172,0.820313 0,0 0.76172,0.703125 0.41016,0.292968 0,0 0.76172,0.585938 0.41015,0.351562 0,0 0.64453,0.527344 0,0 0.64454,0.585938 0,0 0.52734,0.527344 0,0 0.52734,0.46875 0,0 0.52735,0.585937 0,0 0.52734,0.46875 0,0 0.52734,0.527344 0,0 0.58594,0.585937 0,0 0.52735,0.46875 0,0 0.64453,0.46875 0,0 0.46875,0.410156 0,0 0.46875,0.410157 0,0 0,0 0.58593,0.527343 0,0 0,0 0.52735,0.527344 0,0 0,0 0.52734,0.410156 0,0 0,0 0.52735,0.292969 0,0 0,0 0.46874,0.351563 0,0 0.46876,0.234375 0,0 0.52734,0.292969 0,0 0.52734,0.292968 0,0 0.46875,0.410156 0,0 0.41016,0.527344 0,0 0.46875,0.527344 0,0 0.46875,0.527344 0,0 0.70312,0.351562 0,0 0.76172,0.234375 0,0 0.76172,0.05859 0,0 0.58594,0 0,0 0,0 0.52734,0.117187 0,0 0,0 0.46875,0.117188 0,0 0.41016,0 0,0 0.52734,0.05859 0,0 0.52735,0.117187 0,0 0.52734,0.117188 0,0 0.46875,0.234375 0,0 0.58594,0.234375 0,0 0.58594,0.292969 0,0 0.76171,0.175781 0.41016,0.05859 0.46875,0 0.41016,0 0.41015,0 0.52735,-0.05859 0.52734,-0.05859 0.46875,-0.05859 0.46875,0 0.52734,-0.05859 0.46875,-0.05859 0.46875,-0.05859 0.46875,0 0.46875,-0.05859 0.52735,-0.05859 0.52734,0 0.58594,-0.05859 0.58594,-0.05859 0.58593,-0.05859 0.64454,-0.05859 0.64453,-0.117188 0.52734,-0.05859 0.64453,-0.117187 0.58594,-0.117188 0.52734,-0.117187 0.58594,-0.234375 0.64453,-0.234375 0.52735,-0.234375 0.58593,-0.234375 0.46875,-0.292969 0.46875,-0.234375 0.58594,-0.292969 0.46875,-0.175781 0.46875,-0.175781 0.46875,-0.175781 0.46875,-0.175782 0.52734,-0.117187 0.41016,-0.175781 0.46875,-0.117188 0.46875,-0.175781 0.41016,-0.175781 0.46875,-0.234376 0.46875,-0.175781 0.41015,-0.175781 0.46875,-0.234375 0.41016,-0.175781 0,0 0.76172,-0.292969 0,0 0.64453,-0.292969 0,0 0.58594,-0.292968 0,0 0.70312,-0.292969 0,0 0.76172,-0.351563 0,0 0.82031,-0.351562 0.52735,-0.175782 0.46875,-0.175781 0.46875,-0.234375 0.41015,-0.234375 0.52735,-0.234375 0.52734,-0.175781 0.52734,-0.292969 0.52735,-0.234375 0.46875,-0.234375 0.46875,-0.234375 0.52734,-0.234375 0.64453,-0.234375 0.46875,-0.234375 0.41016,-0.175781 0.52734,-0.175781 0.46875,-0.175782 0.41016,-0.234374 0.58594,-0.175782 0.46875,-0.234375 0.46875,-0.175781 0.58593,-0.234375 0.52735,-0.292969 0.52734,-0.234375 0.52734,-0.292969 0.46876,-0.351562 0.46874,-0.292969 0.52735,-0.234375 0.41015,-0.292968 0.41016,-0.292969 0.41016,-0.234375 0.41015,-0.292969 0,0 0.64453,-0.410156 0,0 0.76172,-0.527344 0.35157,-0.351563 0,0 0.76171,-0.585937 0.41016,-0.234375 0.41016,-0.292969 0,0 0.76172,-0.585937 0.46875,-0.234375 0.46875,-0.234375 0.52734,-0.292969 0.52734,-0.292969 0.46875,-0.292968 0.64453,-0.292969 0.64454,-0.410157 0.64453,-0.410156 0.58593,-0.46875 0.64454,-0.351562 0.58593,-0.351563 0.58594,-0.351562 0.52735,-0.351563 0.58593,-0.351562 0.52735,-0.292969 0.52734,-0.292969 0.46875,-0.351562 0.52734,-0.292969 0.52735,-0.292969 0.52734,-0.292968 0.52734,-0.351563 0.64454,-0.292969 0.52734,-0.292968 0.64453,-0.292969 0.58594,-0.292969 0.58594,-0.234375 0.52734,-0.175781 0.52734,-0.234375 0.52735,-0.175781 0.46875,-0.175782 0.46875,-0.175781 0.46875,-0.117187 0.46875,-0.05859 0.35156,-0.175782 0.46875,-0.117187 0.35156,-0.117187 0.46875,-0.175782 0.41016,-0.117187 0.41016,-0.175781 0.41015,-0.117188 0.46875,-0.175781 0,0 0.82031,-0.234375 0.41016,-0.117188 0.46875,-0.234375 0.41016,-0.05859 0.46875,-0.117188 0,0 0.76171,-0.292969 0.41016,-0.05859 0,0 0.70313,-0.175782 0,0 0.70312,-0.117187 0,0 0.64453,-0.175781 0,0 0.70313,-0.117188 0,0 0.76172,-0.175781 0,0 0.70312,-0.05859 0,0 0.70313,-0.117187 0,0 0.76172,0 0,0 0.58593,0 0,0 0.52735,0.117187 0.46875,0.234375 0,0 0,0 0,0 0.52734,0.117188"
         clip-path="url(#clipEmfPath4)"
         style="fill:none;stroke:#000000;stroke-width:0.9375px;stroke-linecap:round;stroke-linejoin:round;stroke-opacity:1;stroke-dasharray:none"
         inkscape:connector-curvature="0" />
      <path
         id="path3187"
         d="m 354.78516,71.015625 0,0 0.41015,-0.175781 0,0 0,0 0.58594,-0.05859 0,0 0.64453,0.05859 0,0 0.70313,0.05859 0,0 0.76171,0 0.41016,0 0.41016,-0.05859 0.52734,0 0.41016,-0.117188 0.41015,0 0,0 0.9375,-0.117187 0,0 0.76172,0 0,0 0.52735,-0.05859 0,0 0.58593,0.05859 0,0 0.52735,0.117187 0,0 0.64453,0.175782 0.46875,0 0.35156,0.117187 0.52734,0.05859 0.46876,0.05859 0.52734,0.05859 0.58594,0.117188 0.52734,0.05859 0.58594,0.05859 0.58594,0.05859 0.46874,0.05859 0.58594,0.05859 0.52735,0.117188 0.52734,0.05859 0.46875,0.117187 0.46875,0.05859 0.58594,0.117187 0.46875,0.117188 0.52734,0.117188 0.52734,0.117187 0.64454,0.175781 0.58593,0.117188 0.58594,0.175781 0.52735,0.175781 0.70312,0.175782 0.52734,0.175781 0.70313,0.175781 0.64453,0.234375 0.64453,0.234375 0.70313,0.175781 0.70312,0.292969 0.64453,0.292969 0.52735,0.292969 0.52734,0.234374 0.58594,0.410157 0,0 0.76172,0.703125 0,0 0.82031,0.703125 0,0 0.82031,0.644531 0.52734,0.234375 0.46876,0.351563 0.52734,0.175781 0.58594,0.292969 0.46875,0.234374 0.58593,0.234376 0.46875,0.292968 0.46875,0.292969 0,0 0.82032,0.703125 0.35156,0.410156 0,0 0.70312,0.761719 0.41016,0.410156 0.35156,0.410157 0.41016,0.46875 0,0 0.52734,0.820312 0,0 0.52735,0.820312 0.11718,0.410157 0.29297,0.410156 0,0 0.41016,0.761719 0,0 0.41016,0.644531 0,0 0.52734,0.46875 0,0 0.52734,0.527344 0,0 0.52735,0.410156 0,0 0.52734,0.46875 0,0 0.41016,0.46875 0,0 0.46875,0.527344 0,0 0.46875,0.527343 0,0 0.52734,0.46875 0,0 0.46875,0.527344 0,0 0.52734,0.410156 0,0 0.58594,0.46875 0,0 0.76172,0.46875 0.41016,0.175782 0.41015,0.175781 0,0 0.70313,0.351563 0,0 0.64453,0.351562 0,0 0.64453,0.351562 0,0 0.64453,0.292969 0,0 0.64453,0.351563 0,0 0.76172,0.46875 0,0 0.58594,0.46875 0,0 0.64453,0.46875 0,0 0.52734,0.46875 0,0 0.64453,0.292968 0,0 0.58594,0.117188 0,0 0.52735,0.117188 0,0 0.52734,0.117187 0,0 0.52734,0.117187 0,0 0.41016,0.175782 0,0 0,0 0.58594,0.117187 0,0 0.41015,0 0,0 0.52735,0 0,0 0.46875,0.05859 0,0 0.64453,0.117187 0,0 0.46875,0.117188 0,0 0.52734,0.05859 0,0 0.52735,0.117187 0,0 0.58593,0 0.41016,0 0.46875,0 0.41016,-0.05859 0.46875,-0.05859 0.46875,-0.05859 0.46875,-0.05859 0.46875,-0.05859 0.41015,-0.05859 0,0 0.76172,-0.05859 0,0 0.70313,0 0.41015,0 0.41016,0 0.41016,0 0,0 0.82031,-0.05859 0.46875,-0.05859 0.46875,-0.05859 0.41015,-0.05859 0.58594,-0.05859 0.52734,-0.117187 0.52735,-0.117188 0.58594,-0.117187 0.58593,-0.175782 0.70313,-0.175781 0.70312,-0.234375 0.70313,-0.234375 0.70312,-0.175781 0.70313,-0.292969 0.76172,-0.175781 0.70312,-0.175781 0.64453,-0.117188 0.64454,-0.234375 0.52734,-0.05859 0.52734,-0.05859 0.46875,-0.117188 0.41016,-0.05859 0.41015,-0.05859 0.46876,-0.117188 0.46874,-0.117187 0.41016,-0.117188 0.52734,-0.175781 0.52735,-0.117188 0.58594,-0.175781 0.52734,-0.117187 0.52734,-0.175782 0.58594,-0.175781 0.46875,-0.175781 0.46875,-0.05859 0.52735,-0.175781 0.41015,-0.117187 0.46875,-0.117188 0.46875,-0.117188 0.41016,-0.117187 0.46875,-0.175781 0.46875,-0.05859 0.52734,-0.117188 0.52735,-0.175781 0.46874,-0.117187 0.58594,-0.117188 0.52735,-0.117187 0.58593,-0.117188 0.46875,-0.234375 0.41016,-0.175781 0.46875,-0.175781 0.41016,-0.175782 0,0 0.70312,-0.46875 0.41016,-0.175781 0,0 0.70312,-0.410156 0,0 0.70313,-0.410156 0,0 0.82031,-0.351563 0,0 0.70312,-0.410156 0.46876,-0.292969 0.41015,-0.234375 0.52735,-0.292968 0.52734,-0.234376 0.46875,-0.292968 0.52734,-0.234375 0.46875,-0.234375 0.46875,-0.292969 0.46875,-0.234375 0.58594,-0.292969 0.35156,-0.292969 0.64453,-0.175781 0.64453,-0.292969 0.70313,-0.292968 0.58594,-0.292969 0.70312,-0.292969 0.70313,-0.292968 0.64453,-0.234376 0.58594,-0.292968 0.58593,-0.292969 0.46875,-0.292969 0.58594,-0.292968 0.52735,-0.234376 0.52734,-0.351562 0.52734,-0.292969 0.58594,-0.292969 0.58594,-0.234374 0.41015,-0.292969 0.41016,-0.234375 0,0 0.76172,-0.46875 0,0 0.52734,-0.46875 0,0 0.52735,-0.410156 0,0 0.58593,-0.527344 0,0 0.70313,-0.585938 0.52734,-0.292968 0.46875,-0.351563 0.46875,-0.410156 0.58594,-0.292969 0.58594,-0.351562 0.41015,-0.351563 0.58594,-0.292969 0.52735,-0.292968 0.41015,-0.292969 L 477.42188,75 l 0.46874,-0.292969 0,0 0.70313,-0.527343 0.41016,-0.234376 0.41015,-0.292968 0.46875,-0.234375 0,0 0.82031,-0.46875 0.35157,-0.234375 0.41015,-0.234375 0.46875,-0.292969 0.46875,-0.234375 0.41016,-0.175781 0.46875,-0.234375 0.46875,-0.234375 0.52734,-0.234375 0.41016,-0.175781 0.46875,-0.175782 0.46875,-0.175781 0.41016,-0.175781 0.46875,-0.175782 0.41015,-0.117187 0.41016,-0.175781 0.52734,-0.05859 0.52735,-0.175781 0.64453,-0.117188 0.64453,-0.117187 0.70312,-0.05859 0.70313,-0.175781 0.76172,-0.05859 0.8789,-0.117187 0.70313,-0.117188 0.70312,-0.05859 0.64453,-0.117187 0.70313,0 0.58594,-0.05859 0.70312,0.05859 0,0 0.9375,0 0.41016,0 0.41015,0.117187 0,0"
         clip-path="url(#clipEmfPath5)"
         style="fill:none;stroke:#000000;stroke-width:0.9375px;stroke-linecap:round;stroke-linejoin:round;stroke-opacity:1;stroke-dasharray:none"
         inkscape:connector-curvature="0" />
      <path
         id="path3189"
         d="M 41.953125,84.375 561.67969,82.734375"
         clip-path="url(#clipEmfPath6)"
         style="fill:none;stroke:#8db3e2;stroke-width:1.23046875px;stroke-linecap:round;stroke-linejoin:round;stroke-opacity:1;stroke-dasharray:none"
         inkscape:connector-curvature="0" />
      <path
         id="path3191"
         d="m 566.83594,73.066406 0.35156,-0.292968 0,0 0,0 0.17578,0.46875 0,0 -0.17578,0.585937 0,0 -0.11719,1.054687 -0.11719,0.527344 0.0586,0.820313 0,0.703125 0.17578,0.820312 0.0586,0.761719 0.23438,0.820313 0.11719,0.820312 0.11718,0.761719 0.11719,0.644531 0.0586,0.703125 0,0.644531 0,0.585938 0,0.527344 0,0.585937 -0.11718,0.46875 -0.0586,0.46875 -0.11718,0.410156 0,0.46875 -0.11719,0.410157 0,0 -0.0586,0.703124 0,0 0.0586,0.527344 0,0 0,0.410156 0,0 0,0 0,0 0,0 0.23437,0.410157 0,0 0,0 0,0 0,0 0,0 0.17578,-0.527344 0,0 0.23438,-0.644531 0,0 0.23438,-0.761719 0.11718,-0.46875 0,0 0.23438,-0.820313 0,0 0.29297,-0.585937 0,0 0.41015,-0.46875 0,0 0.64453,-0.234375 0.41016,-0.117188 0.46875,-0.05859 0.64453,0 0.64453,0 0.58594,0.05859 0.76172,0.117188 0.52734,0.117188 0.58594,0.234374 0.46875,0.292969 0.46875,0.351563 0,0 0.52734,0.820312 0.17578,0.46875 0.23438,0.46875 0.11719,0.527344 0.17578,0.527344 0.11719,0.46875 0.11718,0.410156 0.11719,0.527344 0.11719,0.46875 0.0586,0.46875 0,0 0,0.703125 0,0 -0.0586,0.527343 0,0 0,0 0.52734,0.46875 0,0 0.52735,-0.05859 0,0"
         clip-path="url(#clipEmfPath7)"
         style="fill:none;stroke:#000000;stroke-width:0.9375px;stroke-linecap:round;stroke-linejoin:round;stroke-opacity:1;stroke-dasharray:none"
         inkscape:connector-curvature="0" />
      <path
         id="path3193"
         d="m 585.17578,88.476562 0,0 0,-0.527343 0,0 -0.41016,-0.351563 0,0 -0.46874,0.175782 0,0 -0.64454,0.410156 0,0 -0.70312,0.703125 -0.35156,0.46875 -0.29297,0.46875 -0.0586,0.527343 -0.11718,0.46875 0.11718,0.351563 0,0 0.52735,0.585937 0.52734,0 0.52734,0 0.58594,-0.175781 0.70313,-0.234375 0.64453,-0.351562 0.58594,-0.351563 0.41015,-0.46875 0.29297,-0.410156 0,0 0.11719,-0.703125 0,0 -0.64453,-0.585938 0,0 -0.87891,-0.117187 -0.52734,0.117187 -0.82031,0"
         style="fill:none;stroke:#000000;stroke-width:0.9375px;stroke-linecap:round;stroke-linejoin:round;stroke-opacity:1;stroke-dasharray:none"
         inkscape:connector-curvature="0" />
      <path
         id="path3195"
         d="m 253.94531,163.125 -0.58593,-0.29297 0,0 0,0 0,0 -0.35157,-0.17578 0,0 0,0 0,0 0,0 -0.17578,0.58594 0,0 -0.17578,0.70312 -0.11719,0.46875 0,0.64453 -0.17578,0.70313 0,0.70312 -0.11719,0.87891 0,0.99609 0,0.9375 0,1.05469 0,0.99609 0,1.05469 0,1.17188 0.0586,1.05469 0,0.9375 0.11719,0.8789 0.0586,0.87891 0.0586,0.70312 0.0586,0.64453 0.17578,0.64454 0.0586,0.46874 0.0586,0.41016 0,0.46875 0,0 0.11719,0.64453 0,0 -0.11719,0.70313 0,0 -0.0586,0.58593 0,0 -0.0586,0.52735 0,0 -0.11719,0.46875 0,0 0,0 0,0.58594 0,0 0,0 0,0 0,0 -0.0586,0.46875 0,0 0,0 0,0 -0.11719,0.46875 0,0 0,0 0,0 0,0 -0.11719,0.35156 0,0 0,0 0,0 0,0 0,0 0,0 0,0 0,0 0.64453,-0.17578 0,0 0.58594,-0.0586 0.46875,-0.0586 0.52734,-0.11719 0.58594,-0.0586 0.70313,-0.11719 0.70312,-0.11719 0.82031,-0.11718 0.70313,-0.11719 0.82031,-0.11719 0.58594,-0.0586 0.76172,0 0.64453,0 0.58594,0 0.52734,0.0586 0.46875,0 0.41016,0 0.41015,0.17578 0.52735,0.0586 0,0 0.70312,0.17578 0,0 0.58594,0.0586 0,0 0.64453,0.17578 0,0 0.58594,0.0586 0,0 0.70312,0 0,0 0.64453,0.0586 0,0 0.70313,0 0,0 0.70312,-0.0586 0,0 0.64453,-0.0586 0,0 0.64454,-0.23437 0,0 0.58593,-0.11719 0,0 0.41016,-0.0586 0,0 0,0 0.46875,-0.0586 0,0 0,0 0.46875,0 0,0 0,0 0.41016,0.23438 0,0 0,0 0,0 0.0586,0.64453 0,0 0,0"
         clip-path="url(#clipEmfPath10)"
         style="fill:none;stroke:#000000;stroke-width:0.9375px;stroke-linecap:round;stroke-linejoin:round;stroke-opacity:1;stroke-dasharray:none"
         inkscape:connector-curvature="0" />
      <path
         id="path3197"
         d="m 572.46094,119.47266 -1.23047,0.41015 -1.17188,0.58594 -1.52343,0.76172 -1.81641,0.87891 -1.75781,0.99609 -1.875,1.05469 -1.69922,1.17187 -1.81641,0.87891 -1.34765,0.99609 -1.46485,0.64453"
         style="fill:none;stroke:#000000;stroke-width:0.9375px;stroke-linecap:round;stroke-linejoin:round;stroke-opacity:1;stroke-dasharray:none"
         inkscape:connector-curvature="0" />
      <path
         id="path3199"
         d="m 553.30078,122.8125 0,0 0,0 -0.46875,-0.46875 0,0 0,0 0,0 -0.0586,-0.58594 0,0 0.70312,-0.41015 0.70313,-0.17578 0.76172,-0.35157 1.05468,-0.23437 0.9375,-0.17578 1.17188,-0.0586 0.99609,-0.0586 1.11328,0.11719 0.87891,0.17578 0.82031,0.35156 0.64453,0.35156 0.58594,0.46875 0.58594,0.52735 0.41015,0.46875 0.52735,0.46875 0.52734,0.58593 0.46875,0.46875 0.52735,0.52735 0.46875,0.46875 0.52734,0.46875 0.46875,0.46875 0.58594,0.41015 0.52734,0.35157 0.64453,0.35156 0.70313,0.17578 0.82031,0.17578 0.82031,0.0586 0.76172,0 0.82031,0 0.70313,0 0.64453,0 0.46875,-0.0586 0.52734,0.17578 0,0 0,0 0,0 0,0"
         style="fill:none;stroke:#000000;stroke-width:0.9375px;stroke-linecap:round;stroke-linejoin:round;stroke-opacity:1;stroke-dasharray:none"
         inkscape:connector-curvature="0" />
      <path
         id="path3201"
         d="m 47.226562,129.43359 0,0 -0.351562,0.64453 -0.410156,0.29297 -0.527344,0.46875 -0.46875,0.64454 -0.644531,0.76171 -0.703125,0.82032 -0.820313,1.11328 -0.703125,1.05469 -0.9375,0.9375 -0.46875,0.8789 -0.644531,0.52734"
         style="fill:none;stroke:#000000;stroke-width:0.9375px;stroke-linecap:round;stroke-linejoin:round;stroke-opacity:1;stroke-dasharray:none"
         inkscape:connector-curvature="0" />
      <path
         id="path3203"
         d="m 63.867188,129.72656 -0.644532,0.58594 -0.351562,0.64453 -0.703125,0.52735 -0.585938,0.8789 -0.703125,1.05469 -0.820312,1.17187 -0.703125,1.28907 -0.878907,1.05468 -0.527343,1.23047 -0.585938,0.76172"
         style="fill:none;stroke:#000000;stroke-width:0.9375px;stroke-linecap:round;stroke-linejoin:round;stroke-opacity:1;stroke-dasharray:none"
         inkscape:connector-curvature="0" />
      <path
         id="path3205"
         d="m 115.54688,130.54688 0,0 0,0 -0.52735,-0.52735 0,0 -0.46875,-0.0586 0,0 -0.58594,-0.0586 -0.46875,0 -0.35156,0.41016 -0.70312,0.23438 -0.76172,0.58593 -1.05469,0.76172 -1.05469,0.9375 -1.17187,1.11328 -1.23047,1.05469 -1.11328,1.05469 -0.76172,0.8789 -0.58594,0.64453 0,0.46876"
         style="fill:none;stroke:#000000;stroke-width:0.9375px;stroke-linecap:round;stroke-linejoin:round;stroke-opacity:1;stroke-dasharray:none"
         inkscape:connector-curvature="0" />
      <path
         id="path3207"
         d="m 200.50781,130.13672 0.41016,-0.52734 0,0 0,0 0,0 -0.11719,-0.41016 0,0 -0.82031,0.35156 -0.52735,0.52734 -0.8789,0.46876 -0.9961,0.76171 -1.05468,0.82032 -1.05469,0.8789 -0.87891,1.05469 -0.82031,0.9375 -0.70312,0.76172 -0.23438,0.70312 -0.11719,0.41016"
         style="fill:none;stroke:#000000;stroke-width:0.9375px;stroke-linecap:round;stroke-linejoin:round;stroke-opacity:1;stroke-dasharray:none"
         inkscape:connector-curvature="0" />
      <path
         id="path3209"
         d="m 256.81641,134.53125 -0.87891,0 -0.35156,0.17578 -0.82032,0 -0.82031,0.11719 -0.76172,0.29297 -1.11328,0.35156 -1.05469,0.58594 -1.05468,0.82031 -0.9375,0.9375 -1.11328,0.70312 -0.64454,0.9375 -0.46874,0.58594"
         style="fill:none;stroke:#000000;stroke-width:0.9375px;stroke-linecap:round;stroke-linejoin:round;stroke-opacity:1;stroke-dasharray:none"
         inkscape:connector-curvature="0" />
      <path
         id="path3211"
         d="m 329.17969,131.89453 0.11719,-0.64453 0,0 0.17578,-0.64453 0,0 0,0 -0.35157,-0.52735 0,0 -0.9375,0.41016 -0.52734,0.64453 -0.99609,0.76172 -0.87891,1.17188 -1.11328,1.40625 -1.17188,1.40625 -1.17187,1.52343 -0.9961,1.58204 -0.76171,1.34765"
         style="fill:none;stroke:#000000;stroke-width:0.9375px;stroke-linecap:round;stroke-linejoin:round;stroke-opacity:1;stroke-dasharray:none"
         inkscape:connector-curvature="0" />
      <path
         id="path3213"
         d="m 412.20703,129.90234 -0.52734,0.64454 -1.23047,0.46874 -1.05469,0.9375 -1.58203,0.9961 -1.69922,1.11328 -1.93359,1.23047 -2.05078,1.34765 -2.05079,1.34766 -2.16796,1.05469 -1.58204,1.28906 -1.8164,0.76172"
         style="fill:none;stroke:#000000;stroke-width:0.9375px;stroke-linecap:round;stroke-linejoin:round;stroke-opacity:1;stroke-dasharray:none"
         inkscape:connector-curvature="0" />
      <path
         id="path3215"
         d="m 471.5625,129.43359 0,0 -0.99609,0.0586 -0.52735,0.41015 -0.82031,0.46875 -1.11328,0.46875 -1.23047,0.76172 -1.34766,0.82032 -1.52343,0.8789 -1.40625,1.11328 -1.28907,1.05469 -1.34765,0.82031 -0.82032,0.87891"
         style="fill:none;stroke:#000000;stroke-width:0.9375px;stroke-linecap:round;stroke-linejoin:round;stroke-opacity:1;stroke-dasharray:none"
         inkscape:connector-curvature="0" />
      <path
         id="path3217"
         d="m 518.96484,129.02344 -0.46875,0.58594 -1.17187,0.46874 -1.05469,1.05469 -1.28906,0.9375 -1.58203,1.23047 -1.69922,1.28906 -1.875,1.17188 -1.46484,1.40625 -1.64063,0.9375"
         style="fill:none;stroke:#000000;stroke-width:0.9375px;stroke-linecap:round;stroke-linejoin:round;stroke-opacity:1;stroke-dasharray:none"
         inkscape:connector-curvature="0" />
      <path
         id="path3219"
         d="m 9.84375,72.597656 0,0 0.1171875,-0.410156 0,0 0,0 -0.2929687,-0.585938 0,0 0,0 0,0 0,0 0,0 0,0 0,0.703126 0.1171874,0.351562 0.058594,0.644531 0.058594,0.644531 0.1171868,0.703126 0.05859,0.761718 0.117187,0.9375 0.175782,0.820313 0.117187,1.054687 0.117188,0.9375 0.175781,0.996094 0.117188,0.878906 0.234374,0.9375 0.117188,0.878906 0.05859,0.878907 0.117187,0.761719 0.05859,0.703124 0.05859,0.644532 0.117187,0.644531 0,0.527344 0,0.46875 0.05859,0.46875 0,0 0.175781,0.585937 0,0 -0.05859,0.410156 0,0 0,0 0,0 0,0 0,0 -0.410157,0.117188 0,0 0,0 -0.410156,-0.527344 0,0 -0.175781,-0.761718 -0.05859,-0.46875 0,-0.46875 0.05859,-0.527344 0.175781,-0.644532 0.175781,-0.644531 0.351563,-0.644531 0.351562,-0.585938 0.46875,-0.585937 0.585938,-0.46875 0.46875,-0.351563 0.410156,-0.234374 0.527344,-0.175782 0.46875,0.117188 0.410156,0.117187 0.46875,0.234375 0.351563,0.351563 0,0 0.761718,0.761719 0.410156,0.527343 0.351563,0.46875 0.351563,0.585938 0.351562,0.585937 0.292969,0.527344 0.410156,0.585938 0.292969,0.527343 0.351562,0.527344 0.410156,0.46875 0.292969,0.410156 0.292969,0.46875 0,0 0.527344,0.644531 0,0 0.234375,0.527344 0,0 0.234375,0.46875 0,0 0,0 0,0 0,0 0,0 0,0 0,0"
         clip-path="url(#clipEmfPath11)"
         style="fill:none;stroke:#000000;stroke-width:0.9375px;stroke-linecap:round;stroke-linejoin:round;stroke-opacity:1;stroke-dasharray:none"
         inkscape:connector-curvature="0" />
      <path
         id="path3221"
         d="m 25.78125,86.425781 0,0 -0.585938,0.117188 0,0 -0.585937,0.527343 -0.46875,0.175782 -0.05859,0.585937 0,0 -0.351562,0.878907 0,0 0.117187,0.820312 0,0 L 24.375,90 l 0,0 0.820312,0.117188 L 25.664062,90 l 0.46875,-0.117188 0,0 0.585938,-0.585937 0,0 0.351562,-0.585937 0,0 -0.175781,-0.644532 0,0 -0.585937,-0.527344 -0.527344,-0.292968 -0.410156,-0.117188 -0.410156,-0.05859 -0.46875,-0.117187 0,0 0,0 0.117187,0.410156 0,0 1.054687,0.05859"
         style="fill:none;stroke:#000000;stroke-width:0.9375px;stroke-linecap:round;stroke-linejoin:round;stroke-opacity:1;stroke-dasharray:none"
         inkscape:connector-curvature="0" />
      <path
         id="path3223"
         d="m 37.910156,86.601562 0,0 0,0 0.410156,-0.234374 0,0 0.410157,0.05859 0,0 0,0 0.585937,-0.05859 0,0 0.527344,0 0,0 0.410156,0 0,0 0,0 0.46875,0.234374 0,0"
         style="fill:none;stroke:#000000;stroke-width:0.9375px;stroke-linecap:round;stroke-linejoin:round;stroke-opacity:1;stroke-dasharray:none"
         inkscape:connector-curvature="0" />
      <path
         id="path3225"
         d="m 18.398438,29.707031 0,0 0,0 0,0 0,0 0,0 -0.585938,-0.351562 0,0 -0.644531,-0.175781 -0.761719,-0.175782 0,0 -0.878906,0.117188 0,0"
         style="fill:none;stroke:#000000;stroke-width:0.9375px;stroke-linecap:round;stroke-linejoin:round;stroke-opacity:1;stroke-dasharray:none"
         inkscape:connector-curvature="0" />
      <path
         id="path3227"
         d="m 18.984375,26.367188 -0.05859,-0.410157 0,0 -0.05859,-0.527343 0,0 0,0 0,0 -0.644532,0.117187 -0.234375,0.46875 -0.46875,0.351563 -0.234375,0.644531 -0.527344,0.585937 -0.292968,0.878906 -0.46875,0.703126 -0.234375,0.9375 -0.410157,0.761718 -0.117187,0.820313 -0.05859,0.585937 0,0.644532 0,0 0.820313,0.585937 0.761718,0 0.996094,-0.175781 1.230469,-0.410156 1.289063,-0.644532 1.523437,-0.761718 1.523437,-1.113282 1.464844,-1.054687 1.230469,-1.289063 1.171875,-1.230468 0.878906,-1.230469 0.703125,-1.171875 0.527344,-0.996094 0.292969,-0.996094 0.117187,-0.703125 0,-0.644531 -0.175781,-0.351562 0,0 -0.46875,-0.410157 0,0 0,0 -0.527344,0.527344 -0.117187,0.410156 -0.05859,0.761719 0,0.761719 -0.05859,1.054687 0.117188,1.113282 0.117187,1.289062 0.05859,1.230469 0.117188,1.289062 0.05859,1.40625 0.175781,1.230469 0,1.347656 -0.175781,1.289063 -0.05859,1.289062 -0.292969,1.171875 -0.351563,1.289063 -0.292968,1.113281 -0.527344,0.996094 -0.527344,1.054687 -0.703125,0.878907 -0.703125,0.703124 -0.878906,0.644532 -0.9375,0.410156 -0.878906,0.234375 -0.878907,0.117187 -0.878906,-0.117187 -0.527344,-0.292969 -0.292969,-0.585937 0.05859,-0.703125 L 20.390636,41.25 21.152355,40.546875 21.85548,39.375 l 1.113281,-0.878906 1.230469,-0.878906 1.347656,-0.761719 1.171875,-0.703125"
         style="fill:none;stroke:#000000;stroke-width:0.9375px;stroke-linecap:round;stroke-linejoin:round;stroke-opacity:1;stroke-dasharray:none"
         inkscape:connector-curvature="0" />
    </g>
    <path
       style="fill:none;stroke:#000000;stroke-width:1px;stroke-linecap:butt;stroke-linejoin:miter;stroke-opacity:1"
       d="m 335,278.07647 0.71429,20.71428 7.85714,-0.71428"
       id="path3283"
       inkscape:connector-curvature="0" />
  </g>
</svg>
