<?xml version="1.0" encoding="UTF-8" standalone="no"?>
<!-- Created with Inkscape (http://www.inkscape.org/) -->

<svg
   xmlns:ns0="http://www.iki.fi/pav/software/textext/"
   xmlns:dc="http://purl.org/dc/elements/1.1/"
   xmlns:cc="http://creativecommons.org/ns#"
   xmlns:rdf="http://www.w3.org/1999/02/22-rdf-syntax-ns#"
   xmlns:svg="http://www.w3.org/2000/svg"
   xmlns="http://www.w3.org/2000/svg"
   xmlns:sodipodi="http://sodipodi.sourceforge.net/DTD/sodipodi-0.dtd"
   xmlns:inkscape="http://www.inkscape.org/namespaces/inkscape"
   id="svg4121"
   version="1.1"
   inkscape:version="0.48.4 r9939"
   width="1139.525"
   height="582.75"
   xml:space="preserve"
   sodipodi:docname="D:\Users\Kyle\AppData\Local\Temp\ink_ext_XXXXXX.svgBFK4EX"><sodipodi:namedview
     pagecolor="#ffffff"
     bordercolor="#666666"
     borderopacity="1"
     objecttolerance="10"
     gridtolerance="10"
     guidetolerance="10"
     inkscape:pageopacity="0"
     inkscape:pageshadow="2"
     inkscape:window-width="1920"
     inkscape:window-height="1018"
     id="namedview4123"
     showgrid="false"
     inkscape:zoom="0.75207951"
     inkscape:cx="1004.5463"
     inkscape:cy="216.80006"
     inkscape:window-x="-8"
     inkscape:window-y="5"
     inkscape:window-maximized="1"
     inkscape:current-layer="g4129" /><metadata
     id="metadata4127"><rdf:RDF><cc:Work
         rdf:about=""><dc:format>image/svg+xml</dc:format><dc:type
           rdf:resource="http://purl.org/dc/dcmitype/StillImage" /><dc:title></dc:title></cc:Work></rdf:RDF></metadata><defs
     id="defs4125"><marker
       inkscape:stockid="TriangleInM"
       orient="auto"
       refY="0.0"
       refX="0.0"
       id="TriangleInM"
       style="overflow:visible"><path
         id="path5511"
         d="M 5.77,0.0 L -2.88,5.0 L -2.88,-5.0 L 5.77,0.0 z "
         style="fill-rule:evenodd;stroke:#000000;stroke-width:1.0pt"
         transform="scale(-0.4)" /></marker><marker
       style="overflow:visible"
       id="Arrow2Mstart"
       refX="0.0"
       refY="0.0"
       orient="auto"
       inkscape:stockid="Arrow2Mstart"><path
         transform="scale(0.6) translate(0,0)"
         d="M 8.7185878,4.0337352 L -2.2072895,0.016013256 L 8.7185884,-4.0017078 C 6.9730900,-1.6296469 6.9831476,1.6157441 8.7185878,4.0337352 z "
         style="fill-rule:evenodd;stroke-width:0.62500000;stroke-linejoin:round"
         id="path5399" /></marker><marker
       style="overflow:visible"
       id="Arrow2Lstart"
       refX="0.0"
       refY="0.0"
       orient="auto"
       inkscape:stockid="Arrow2Lstart"><path
         transform="scale(1.1) translate(1,0)"
         d="M 8.7185878,4.0337352 L -2.2072895,0.016013256 L 8.7185884,-4.0017078 C 6.9730900,-1.6296469 6.9831476,1.6157441 8.7185878,4.0337352 z "
         style="fill-rule:evenodd;stroke-width:0.62500000;stroke-linejoin:round"
         id="path5393" /></marker><marker
       style="overflow:visible;"
       id="Arrow1Lend"
       refX="0.0"
       refY="0.0"
       orient="auto"
       inkscape:stockid="Arrow1Lend"><path
         transform="scale(0.8) rotate(180) translate(12.5,0)"
         style="fill-rule:evenodd;stroke:#000000;stroke-width:1.0pt;"
         d="M 0.0,0.0 L 5.0,-5.0 L -12.5,0.0 L 5.0,5.0 L 0.0,0.0 z "
         id="path5378" /></marker><marker
       style="overflow:visible;"
       id="Arrow2Lend"
       refX="0.0"
       refY="0.0"
       orient="auto"
       inkscape:stockid="Arrow2Lend"><path
         transform="scale(1.1) rotate(180) translate(1,0)"
         d="M 8.7185878,4.0337352 L -2.2072895,0.016013256 L 8.7185884,-4.0017078 C 6.9730900,-1.6296469 6.9831476,1.6157441 8.7185878,4.0337352 z "
         style="fill-rule:evenodd;stroke-width:0.62500000;stroke-linejoin:round;"
         id="path5396" /></marker><marker
       style="overflow:visible"
       id="Arrow2Mstart0"
       refX="0.0"
       refY="0.0"
       orient="auto"
       inkscape:stockid="Arrow2Mstart0"><path
         transform="scale(0.6) translate(0,0)"
         d="M 8.7185878,4.0337352 L -2.2072895,0.016013256 L 8.7185884,-4.0017078 C 6.9730900,-1.6296469 6.9831476,1.6157441 8.7185878,4.0337352 z "
         style="stroke-linejoin:round;stroke:#ff0000;stroke-width:0.62500000;fill:#ff0000;fill-rule:evenodd"
         id="path6951" /></marker><marker
       style="overflow:visible"
       id="Arrow2Mstart4"
       refX="0.0"
       refY="0.0"
       orient="auto"
       inkscape:stockid="Arrow2Mstart4"><path
         transform="scale(0.6) translate(0,0)"
         d="M 8.7185878,4.0337352 L -2.2072895,0.016013256 L 8.7185884,-4.0017078 C 6.9730900,-1.6296469 6.9831476,1.6157441 8.7185878,4.0337352 z "
         style="stroke-linejoin:round;stroke:#ff0000;stroke-width:0.62500000;fill:#ff0000;fill-rule:evenodd"
         id="path6954" /></marker><marker
       style="overflow:visible"
       id="Arrow2MstartA"
       refX="0.0"
       refY="0.0"
       orient="auto"
       inkscape:stockid="Arrow2MstartA"><path
         transform="scale(0.6) translate(0,0)"
         d="M 8.7185878,4.0337352 L -2.2072895,0.016013256 L 8.7185884,-4.0017078 C 6.9730900,-1.6296469 6.9831476,1.6157441 8.7185878,4.0337352 z "
         style="stroke-linejoin:round;stroke:#008000;stroke-width:0.62500000;fill:#008000;fill-rule:evenodd"
         id="path6957" /></marker><marker
       style="overflow:visible"
       id="Arrow2Mstartv"
       refX="0.0"
       refY="0.0"
       orient="auto"
       inkscape:stockid="Arrow2Mstartv"><path
         transform="scale(0.6) translate(0,0)"
         d="M 8.7185878,4.0337352 L -2.2072895,0.016013256 L 8.7185884,-4.0017078 C 6.9730900,-1.6296469 6.9831476,1.6157441 8.7185878,4.0337352 z "
         style="stroke-linejoin:round;stroke:#008000;stroke-width:0.62500000;fill:#008000;fill-rule:evenodd"
         id="path6960" /></marker><marker
       style="overflow:visible"
       id="Arrow2Mstartv-7"
       refX="0"
       refY="0"
       orient="auto"
       inkscape:stockid="Arrow2Mstartv"><path
         inkscape:connector-curvature="0"
         transform="scale(0.6,0.6)"
         d="M 8.7185878,4.0337352 -2.2072895,0.01601326 8.7185884,-4.0017078 c -1.7454984,2.3720609 -1.7354408,5.6174519 -6e-7,8.035443 z"
         style="fill:#008000;fill-rule:evenodd;stroke:#008000;stroke-width:0.625;stroke-linejoin:round"
         id="path6960-2" /></marker><marker
       inkscape:stockid="TriangleInM6"
       orient="auto"
       refY="0.0"
       refX="0.0"
       id="TriangleInM6"
       style="overflow:visible"><path
         id="path7688"
         d="M 5.77,0.0 L -2.88,5.0 L -2.88,-5.0 L 5.77,0.0 z "
         style="stroke:#008000;stroke-width:1.0pt;fill:#008000;fill-rule:evenodd"
         transform="scale(-0.4)" /></marker><marker
       inkscape:stockid="TriangleInM6i"
       orient="auto"
       refY="0.0"
       refX="0.0"
       id="TriangleInM6i"
       style="overflow:visible"><path
         id="path7781"
         d="M 5.77,0.0 L -2.88,5.0 L -2.88,-5.0 L 5.77,0.0 z "
         style="fill-rule:evenodd;stroke:#ff0000;stroke-width:1.0pt;fill:#ff0000"
         transform="scale(-0.4)" /></marker><marker
       inkscape:stockid="TriangleInM6w"
       orient="auto"
       refY="0.0"
       refX="0.0"
       id="TriangleInM6w"
       style="overflow:visible"><path
         id="path8397"
         d="M 5.77,0.0 L -2.88,5.0 L -2.88,-5.0 L 5.77,0.0 z "
         style="fill-rule:evenodd;stroke:#000000;stroke-width:1.0pt;fill:#000000"
         transform="scale(-0.4)" /></marker></defs><g
     transform="matrix(1.25,0,0,-1.25,0,582.75)"
     inkscape:label="ink_ext_XXXXXX"
     inkscape:groupmode="layer"
     id="g4129"><path
   style="stroke-linejoin:miter;stroke-opacity:1;marker-start:url(#TriangleInM6w);stroke:#000000;stroke-linecap:round;stroke-miterlimit:4;stroke-dasharray:none;stroke-width:3.20000004999999990;marker-mid:none;fill:#000000"
   d="m 630.69394,168.59893 0,124.45493"
   id="path7063"
   inkscape:connector-curvature="0" /><path
   inkscape:connector-curvature="0"
   id="path4214"
   d="m 515.42699,495.61805 0,-433.808762"
   style="fill:#000000;stroke:#000000;stroke-width:2.37149429;stroke-linecap:butt;stroke-linejoin:miter;stroke-miterlimit:4;stroke-opacity:1;stroke-dasharray:none;stroke-dashoffset:0;marker-end:none"
   sodipodi:nodetypes="cc" /><path
   d="m 635.94049,295.09075 c 0,2.79067 -2.33366,5.05289 -5.21243,5.05289 -2.87883,0 -5.21255,-2.26222 -5.21255,-5.05289 0,-2.79079 2.33372,-5.05295 5.21255,-5.05295 2.87877,0 5.21243,2.26216 5.21243,5.05295 l 0,0 z"
   style="fill:#ff0000;stroke:none"
   id="path5179"
   inkscape:connector-curvature="0" /><path
   d="m 583.04319,246.77235 c -9.8422,18.51489 -13.48607,45.23441 -8.14987,70.60764 m 0,0 c 2.2513,10.70475 5.8583,20.01592 10.38538,27.57269"
   style="fill:none;stroke:#ff0000;stroke-width:3.2;stroke-linecap:round;stroke-linejoin:miter;stroke-miterlimit:4;stroke-opacity:1;stroke-dasharray:none;marker-start:url(#Arrow2Mstart4);marker-mid:none;marker-end:none"
   id="path6935"
   inkscape:connector-curvature="0"
   sodipodi:nodetypes="cccc" /><path
   sodipodi:nodetypes="cccc"
   inkscape:connector-curvature="0"
   id="path6937"
   style="fill:none;stroke:#ff0000;stroke-width:3.2;stroke-linecap:round;stroke-linejoin:miter;stroke-miterlimit:4;stroke-opacity:1;stroke-dasharray:none;marker-start:url(#Arrow2Mstart0);marker-mid:none;marker-end:none"
   d="m 683.17774,342.58762 c 21.56431,-18.29502 29.54806,-44.69721 17.85642,-69.76912 m 0,0 c -4.93261,-10.57763 -12.83556,-19.77822 -22.75443,-27.24525"
   inkscape:transform-center-x="-97.044791"
   inkscape:transform-center-y="0.29698985" />
<g
   style="font-style:normal;font-variant:normal;font-weight:normal;font-stretch:normal;letter-spacing:normal;word-spacing:normal;text-anchor:start;fill:none;stroke:#000000;stroke-linecap:butt;stroke-linejoin:miter;stroke-miterlimit:10.43299961;stroke-opacity:1;stroke-dasharray:none;stroke-dashoffset:0"
   ns0:preamble="D:\\Users\\Kyle\\Dropbox\\1. Fluid Dynamics\\Notes\\fluiddynamics.sty"
   ns0:text="$d$"
   word-spacing="normal"
   letter-spacing="normal"
   font-size-adjust="none"
   font-stretch="normal"
   font-weight="normal"
   font-variant="normal"
   font-style="normal"
   stroke-miterlimit="10.433"
   xml:space="preserve"
   transform="matrix(3.5050084,0,0,3.5050084,-7.4128108,-1611.4677)"
   id="g8254">
<path
   id="path8256"
   d="m 184.86,549.14 -0.03,-0.03 -0.02,-0.03 -0.03,-0.02 -0.02,-0.03 -0.02,-0.02 -0.02,-0.03 -0.03,-0.02 -0.02,-0.03 -0.02,-0.02 -0.02,-0.02 -0.02,-0.02 -0.01,-0.02 -0.02,-0.02 -0.02,-0.02 -0.03,-0.04 -0.04,-0.03 -0.03,-0.04 -0.03,-0.03 -0.02,-0.02 -0.03,-0.03 -0.02,-0.02 -0.03,-0.02 -0.02,-0.02 -0.02,-0.02 -0.02,-0.02 -0.02,-0.01 -0.02,-0.02 -0.02,-0.01 -0.01,-0.01 -0.02,0 -0.02,-0.01 -0.01,-0.01 -0.02,0 -0.01,-0.01 -0.02,0 -0.01,0 -0.02,0 -0.03,-0.01 c -0.1,0 -0.18,0.09 -0.18,0.2 0,0.14 0.32,1.35 0.65,2.45 0.27,0.91 0.48,1.7 0.98,3.69 l -0.05,0.05 c -0.53,-0.11 -0.88,-0.17 -1.52,-0.23 v -0.17 c 0.55,-0.01 0.62,-0.04 0.62,-0.25 0,-0.13 -0.01,-0.19 -0.15,-0.7 l -0.44,-1.63 c -0.08,0.42 -0.26,0.58 -0.65,0.58 l 0.04,-0.23 c 0.3,-0.02 0.45,-0.21 0.45,-0.57 0,-1.51 -1.03,-3.22 -1.95,-3.22 -0.34,0 -0.58,0.27 -0.58,0.66 0,0.83 0.5,1.98 1.16,2.67 0.28,0.29 0.65,0.48 0.92,0.46 h 0 l -0.04,0.23 c -1.29,0 -2.9,-1.87 -2.9,-3.36 0,-0.71 0.4,-1.13 1.04,-1.13 0.68,0 1.12,0.32 1.79,1.31 -0.11,-0.51 -0.13,-0.66 -0.13,-0.89 0,-0.26 0.17,-0.44 0.42,-0.44 0.42,0 0.94,0.41 1.46,1.13 z"
   inkscape:connector-curvature="0"
   style="fill:#000000;stroke-width:0" />
</g>
<path
   style="fill:none;stroke:#000000;stroke-width:2.15544724;stroke-linecap:butt;stroke-linejoin:miter;stroke-miterlimit:4;stroke-opacity:1;stroke-dasharray:none"
   d="m 515.19383,484.95686 c -1.16581,-0.41282 -22.15054,-17.1323 -22.15054,-17.1323"
   id="path8332"
   inkscape:connector-curvature="0" /><path
   inkscape:connector-curvature="0"
   id="path8334"
   d="m 515.19383,460.11857 c -1.16581,-0.41282 -22.15054,-17.13231 -22.15054,-17.13231"
   style="fill:none;stroke:#000000;stroke-width:2.15544724;stroke-linecap:butt;stroke-linejoin:miter;stroke-miterlimit:4;stroke-opacity:1;stroke-dasharray:none" /><path
   style="fill:none;stroke:#000000;stroke-width:2.15544724;stroke-linecap:butt;stroke-linejoin:miter;stroke-miterlimit:4;stroke-opacity:1;stroke-dasharray:none"
   d="m 515.19383,435.28028 c -1.16581,-0.41283 -22.15054,-17.13231 -22.15054,-17.13231"
   id="path8336"
   inkscape:connector-curvature="0" /><path
   inkscape:connector-curvature="0"
   id="path8338"
   d="m 515.19383,410.44199 c -1.16581,-0.41283 -22.15054,-17.13231 -22.15054,-17.13231"
   style="fill:none;stroke:#000000;stroke-width:2.15544724;stroke-linecap:butt;stroke-linejoin:miter;stroke-miterlimit:4;stroke-opacity:1;stroke-dasharray:none" /><path
   style="fill:none;stroke:#000000;stroke-width:2.15544724;stroke-linecap:butt;stroke-linejoin:miter;stroke-miterlimit:4;stroke-opacity:1;stroke-dasharray:none"
   d="m 515.19383,385.6037 c -1.16581,-0.41283 -22.15054,-17.13232 -22.15054,-17.13232"
   id="path8340"
   inkscape:connector-curvature="0" /><path
   inkscape:connector-curvature="0"
   id="path8342"
   d="m 515.19383,360.7654 c -1.16581,-0.41282 -22.15054,-17.1323 -22.15054,-17.1323"
   style="fill:none;stroke:#000000;stroke-width:2.15544724;stroke-linecap:butt;stroke-linejoin:miter;stroke-miterlimit:4;stroke-opacity:1;stroke-dasharray:none" /><path
   style="fill:none;stroke:#000000;stroke-width:2.15544724;stroke-linecap:butt;stroke-linejoin:miter;stroke-miterlimit:4;stroke-opacity:1;stroke-dasharray:none"
   d="M 515.19383,335.92712 C 514.02802,335.51429 493.04329,318.7948 493.04329,318.7948"
   id="path8344"
   inkscape:connector-curvature="0" /><path
   inkscape:connector-curvature="0"
   id="path8346"
   d="m 515.19383,311.08882 c -1.16581,-0.41283 -22.15054,-17.13231 -22.15054,-17.13231"
   style="fill:none;stroke:#000000;stroke-width:2.15544724;stroke-linecap:butt;stroke-linejoin:miter;stroke-miterlimit:4;stroke-opacity:1;stroke-dasharray:none" /><path
   style="fill:none;stroke:#000000;stroke-width:2.15544724;stroke-linecap:butt;stroke-linejoin:miter;stroke-miterlimit:4;stroke-opacity:1;stroke-dasharray:none"
   d="m 515.19383,286.25053 c -1.16581,-0.41283 -22.15054,-17.13231 -22.15054,-17.13231"
   id="path8348"
   inkscape:connector-curvature="0" /><path
   inkscape:connector-curvature="0"
   id="path8350"
   d="m 515.19383,261.41224 c -1.16581,-0.41283 -22.15054,-17.13232 -22.15054,-17.13232"
   style="fill:none;stroke:#000000;stroke-width:2.15544724;stroke-linecap:butt;stroke-linejoin:miter;stroke-miterlimit:4;stroke-opacity:1;stroke-dasharray:none" /><path
   style="fill:none;stroke:#000000;stroke-width:2.15544724;stroke-linecap:butt;stroke-linejoin:miter;stroke-miterlimit:4;stroke-opacity:1;stroke-dasharray:none"
   d="m 515.19383,236.57394 c -1.16581,-0.41282 -22.15054,-17.1323 -22.15054,-17.1323"
   id="path8352"
   inkscape:connector-curvature="0" /><path
   inkscape:connector-curvature="0"
   id="path8354"
   d="m 515.19383,211.73566 c -1.16581,-0.41283 -22.15054,-17.13232 -22.15054,-17.13232"
   style="fill:none;stroke:#000000;stroke-width:2.15544724;stroke-linecap:butt;stroke-linejoin:miter;stroke-miterlimit:4;stroke-opacity:1;stroke-dasharray:none" /><path
   style="fill:none;stroke:#000000;stroke-width:2.15544724;stroke-linecap:butt;stroke-linejoin:miter;stroke-miterlimit:4;stroke-opacity:1;stroke-dasharray:none"
   d="m 515.19383,186.89736 c -1.16581,-0.41283 -22.15054,-17.13231 -22.15054,-17.13231"
   id="path8356"
   inkscape:connector-curvature="0" /><path
   inkscape:connector-curvature="0"
   id="path8358"
   d="m 515.19383,162.05907 c -1.16581,-0.41283 -22.15054,-17.13232 -22.15054,-17.13232"
   style="fill:none;stroke:#000000;stroke-width:2.15544724;stroke-linecap:butt;stroke-linejoin:miter;stroke-miterlimit:4;stroke-opacity:1;stroke-dasharray:none" /><path
   style="fill:none;stroke:#000000;stroke-width:2.15544724;stroke-linecap:butt;stroke-linejoin:miter;stroke-miterlimit:4;stroke-opacity:1;stroke-dasharray:none"
   d="m 515.19383,137.22078 c -1.16581,-0.41283 -22.15054,-17.13231 -22.15054,-17.13231"
   id="path8360"
   inkscape:connector-curvature="0" /><path
   inkscape:connector-curvature="0"
   id="path8362"
   d="M 515.19383,112.38249 C 514.02802,111.96966 493.04329,95.250168 493.04329,95.250168"
   style="fill:none;stroke:#000000;stroke-width:2.15544724;stroke-linecap:butt;stroke-linejoin:miter;stroke-miterlimit:4;stroke-opacity:1;stroke-dasharray:none" /><path
   style="fill:none;stroke:#000000;stroke-width:2.15544724;stroke-linecap:butt;stroke-linejoin:miter;stroke-miterlimit:4;stroke-opacity:1;stroke-dasharray:none"
   d="m 515.19383,87.544198 c -1.16581,-0.41283 -22.15054,-17.13232 -22.15054,-17.13232"
   id="path8364"
   inkscape:connector-curvature="0" /><path
   inkscape:connector-curvature="0"
   id="path8366"
   d="m 515.19383,62.705898 c -1.16581,-0.41283 -22.15054,-17.13231 -22.15054,-17.13231"
   style="fill:none;stroke:#000000;stroke-width:2.15544724;stroke-linecap:butt;stroke-linejoin:miter;stroke-miterlimit:4;stroke-opacity:1;stroke-dasharray:none" /><g
   ns0:preamble="D:\\Users\\Kyle\\Dropbox\\1. Fluid Dynamics\\Notes\\fluiddynamics.sty"
   ns0:text="$v = \\frac{\\Gamma}{4\\pi d}$"
   word-spacing="normal"
   letter-spacing="normal"
   font-size-adjust="none"
   font-stretch="normal"
   font-weight="normal"
   font-variant="normal"
   font-style="normal"
   stroke-miterlimit="10.433"
   xml:space="preserve"
   transform="matrix(2.508717,0,0,2.508717,154.64548,-1237.3646)"
   id="content"
   style="font-style:normal;font-variant:normal;font-weight:normal;font-stretch:normal;letter-spacing:normal;word-spacing:normal;text-anchor:start;fill:none;stroke:#000000;stroke-linecap:butt;stroke-linejoin:miter;stroke-miterlimit:10.43299961;stroke-opacity:1;stroke-dasharray:none;stroke-dashoffset:0">
<path
   id="path8536"
   d="m 184.32,551.83 0,0.03 0,0.03 -0.01,0.03 0,0.03 -0.01,0.03 -0.01,0.02 -0.01,0.03 -0.01,0.03 -0.01,0.02 -0.01,0.03 -0.01,0.02 -0.02,0.03 -0.02,0.02 -0.01,0.02 -0.02,0.02 -0.02,0.02 -0.02,0.02 -0.02,0.02 -0.02,0.02 -0.02,0.02 -0.02,0.01 -0.03,0.02 -0.02,0.01 -0.03,0.01 -0.02,0.01 -0.03,0.01 -0.02,0.01 -0.03,0.01 -0.03,0 -0.02,0 -0.03,0.01 -0.03,0 c -0.23,0 -0.37,-0.13 -0.37,-0.34 0,-0.16 0.06,-0.28 0.24,-0.44 0.13,-0.12 0.18,-0.2 0.18,-0.3 0,-0.46 -0.65,-1.56 -1.36,-2.29 l -0.31,-0.32 c -0.07,1.34 -0.12,1.9 -0.25,2.55 -0.19,1.08 -0.21,1.14 -0.3,1.14 -0.05,0 -0.12,-0.01 -0.2,-0.04 -0.32,-0.07 -0.65,-0.14 -1.1,-0.21 v -0.13 c 0.11,0.01 0.2,0.01 0.3,0.01 0.37,0 0.48,-0.18 0.6,-0.92 0.12,-0.76 0.24,-2.21 0.24,-2.81 0,-0.19 0,-0.46 0.09,-0.46 0.25,0 1.15,1.01 2.19,2.46 0.35,0.5 0.61,1.13 0.61,1.51 z"
   inkscape:connector-curvature="0"
   style="fill:#000000;stroke-width:0" />
<polygon
   id="polygon8538"
   points="188.34,551.87 188.34,551.32 193.43,551.32 193.43,551.87 "
   style="fill:#000000;stroke-width:0" />
<polygon
   id="polygon8540"
   points="188.34,549.85 188.34,549.3 193.43,549.3 193.43,549.85 "
   style="fill:#000000;stroke-width:0" />
<path
   id="path8542"
   d="m 206.54,555.73 -0.02,1.04 h -3.86 v -0.14 c 0.51,-0.04 0.63,-0.13 0.63,-0.65 v -3.15 c 0,-0.54 -0.05,-0.7 -0.63,-0.73 v -0.14 h 2.04 v 0.14 c -0.52,0.02 -0.66,0.12 -0.66,0.65 v 3.5 c 0,0.18 0.03,0.24 0.23,0.24 h 0.99 c 0.66,0 0.98,-0.03 1.1,-0.76 z"
   inkscape:connector-curvature="0"
   style="fill:#000000;stroke-width:0" />
<line
   id="line8544"
   y2="550.59998"
   x2="211.17"
   y1="550.59998"
   x1="198.02"
   style="stroke-width:0.55800003" />
<polygon
   id="polygon8546"
   points="198.1,545.81 200.15,545.81 200.15,544.6 200.71,544.6 200.71,545.81 201.45,545.81 201.45,546.28 200.71,546.28 200.71,549.51 200.39,549.51 198.1,546.28 198.4,546.28 200.14,548.77 200.14,546.28 198.4,546.28 198.1,546.28 "
   style="fill:#000000;stroke-width:0" />
<path
   id="path8548"
   d="m 205.9,547.8 h -2.78 c -0.73,0 -1.17,-0.8 -1.24,-0.94 h 0.17 c 0.04,0.06 0.33,0.41 0.74,0.41 h 0.41 l -0.64,-1.53 c -0.17,-0.48 -0.81,-0.5 -0.81,-1 v -0.03 c 0,-0.12 0.1,-0.19 0.29,-0.19 0.3,0 0.58,0.17 0.96,1.2 l 0.65,1.55 h 0.79 l -0.45,-1.56 c -0.02,-0.21 -0.06,-0.39 -0.06,-0.54 v -0.06 c 0,-0.31 0.27,-0.59 0.72,-0.59 0.21,0 0.46,0.06 0.46,0.33 v 0.03 c 0,0.49 -0.55,0.42 -0.55,0.88 0,0.07 0.01,0.15 0.03,0.23 l 0.37,1.28 h 0.81 z"
   inkscape:connector-curvature="0"
   style="fill:#000000;stroke-width:0" />
<path
   id="path8550"
   d="m 210.54,545.33 -0.1,0.08 c -0.45,-0.46 -0.53,-0.52 -0.67,-0.52 -0.09,0 -0.16,0.06 -0.16,0.15 -0.01,0.11 0.22,0.96 0.49,1.78 l 0.73,2.7 -0.04,0.04 c -0.44,-0.08 -0.75,-0.13 -1.29,-0.17 l 0.01,-0.12 c 0.45,-0.02 0.51,-0.04 0.52,-0.19 0,-0.1 -0.01,-0.12 -0.12,-0.51 l -0.31,-1.19 c -0.09,0.3 -0.24,0.42 -0.56,0.42 l 0.02,-0.17 h 0.03 c 0.24,-0.01 0.37,-0.15 0.38,-0.41 h 0 c 0.04,-1.1 -0.78,-2.35 -1.56,-2.35 -0.29,0 -0.49,0.19 -0.5,0.48 -0.02,0.6 0.37,1.44 0.9,1.95 0.22,0.2 0.52,0.33 0.75,0.33 l -0.02,0.17 c -1.1,0 -2.41,-1.36 -2.38,-2.45 0.03,-0.52 0.38,-0.83 0.92,-0.83 0.57,0 0.99,0.2 1.48,0.96 -0.08,-0.37 -0.1,-0.48 -0.09,-0.65 0.01,-0.19 0.15,-0.32 0.36,-0.32 0.36,0 0.8,0.29 1.21,0.82 z"
   inkscape:connector-curvature="0"
   style="fill:#000000;stroke-width:0" />
</g>
</g></svg>