<?xml version="1.0" encoding="UTF-8" standalone="no"?>
<!-- Created with Inkscape (http://www.inkscape.org/) -->

<svg
   xmlns:dc="http://purl.org/dc/elements/1.1/"
   xmlns:cc="http://creativecommons.org/ns#"
   xmlns:rdf="http://www.w3.org/1999/02/22-rdf-syntax-ns#"
   xmlns:svg="http://www.w3.org/2000/svg"
   xmlns="http://www.w3.org/2000/svg"
   xmlns:sodipodi="http://sodipodi.sourceforge.net/DTD/sodipodi-0.dtd"
   xmlns:inkscape="http://www.inkscape.org/namespaces/inkscape"
   id="svg8915"
   version="1.1"
   inkscape:version="0.48.4 r9939"
   width="1321.25"
   height="1040"
   xml:space="preserve"
   sodipodi:docname="vortex_motion_1.eps"><metadata
     id="metadata8921"><rdf:RDF><cc:Work
         rdf:about=""><dc:format>image/svg+xml</dc:format><dc:type
           rdf:resource="http://purl.org/dc/dcmitype/StillImage" /><dc:title></dc:title></cc:Work></rdf:RDF></metadata><defs
     id="defs8919"><clipPath
       clipPathUnits="userSpaceOnUse"
       id="clipPath8931"><path
         d="m 0,8318.75 10570,0 0,-8310 -10570,0 0,8310 z"
         id="path8933" /></clipPath><marker
       style="overflow:visible"
       id="Arrow2Mstart0"
       refX="0"
       refY="0"
       orient="auto"
       inkscape:stockid="Arrow2Mstart0"><path
         inkscape:connector-curvature="0"
         transform="scale(0.6,0.6)"
         d="M 8.7185878,4.0337352 -2.2072895,0.01601326 8.7185884,-4.0017078 c -1.7454984,2.3720609 -1.7354408,5.6174519 -6e-7,8.035443 z"
         style="fill:#ff0000;fill-rule:evenodd;stroke:#ff0000;stroke-width:0.625;stroke-linejoin:round"
         id="path6951" /></marker><marker
       style="overflow:visible"
       id="Arrow2Mstart4"
       refX="0"
       refY="0"
       orient="auto"
       inkscape:stockid="Arrow2Mstart4"><path
         inkscape:connector-curvature="0"
         transform="scale(0.6,0.6)"
         d="M 8.7185878,4.0337352 -2.2072895,0.01601326 8.7185884,-4.0017078 c -1.7454984,2.3720609 -1.7354408,5.6174519 -6e-7,8.035443 z"
         style="fill:#ff0000;fill-rule:evenodd;stroke:#ff0000;stroke-width:0.625;stroke-linejoin:round"
         id="path6954" /></marker><marker
       inkscape:stockid="TriangleInM6w"
       orient="auto"
       refY="0"
       refX="0"
       id="TriangleInM6w"
       style="overflow:visible"><path
         inkscape:connector-curvature="0"
         id="path8397"
         d="m 5.77,0 -8.65,5 0,-10 8.65,5 z"
         style="fill:#000000;fill-rule:evenodd;stroke:#000000;stroke-width:1pt"
         transform="scale(-0.4,-0.4)" /></marker></defs><sodipodi:namedview
     pagecolor="#ffffff"
     bordercolor="#666666"
     borderopacity="1"
     objecttolerance="10"
     gridtolerance="10"
     guidetolerance="10"
     inkscape:pageopacity="0"
     inkscape:pageshadow="2"
     inkscape:window-width="1920"
     inkscape:window-height="1018"
     id="namedview8917"
     showgrid="false"
     inkscape:zoom="0.32091769"
     inkscape:cx="280.58547"
     inkscape:cy="345.45657"
     inkscape:window-x="-8"
     inkscape:window-y="5"
     inkscape:window-maximized="1"
     inkscape:current-layer="g8923" /><g
     id="g8923"
     inkscape:groupmode="layer"
     inkscape:label="ink_ext_XXXXXX"
     transform="matrix(1.25,0,0,-1.25,0,1040)"><g
       id="g8925"
       transform="scale(0.1,0.1)"><g
         id="g8927"><g
           id="g8929"
           clip-path="url(#clipPath8931)"><path
             d="m 5267.58,8318.83 0,-8438.951"
             style="fill:none;stroke:#000000;stroke-opacity:1;stroke-width:35.2075;stroke-linecap:butt;stroke-linejoin:miter;stroke-miterlimit:4;stroke-dasharray:70.4149,140.83;stroke-dashoffset:0"
             id="path8935" /><path
             d="m 3564.92,4383.09 c 0,27.93 -23.36,50.54 -52.15,50.54 -28.79,0 -52.11,-22.61 -52.11,-50.54 0,-27.89 23.32,-50.51 52.11,-50.51 28.79,0 52.15,22.62 52.15,50.51"
             style="fill:#008000;fill-opacity:1;fill-rule:nonzero;stroke:none"
             id="path8937" /><path
             d="m 7084.92,4383.09 c 0,27.93 -23.36,50.54 -52.15,50.54 -28.79,0 -52.11,-22.61 -52.11,-50.54 0,-27.89 23.32,-50.51 52.11,-50.51 28.79,0 52.15,22.62 52.15,50.51"
             style="fill:#ff0000;fill-opacity:1;fill-rule:nonzero;stroke:none"
             id="path8939" /><path
             d="M 3021.37,4879.14 C 2856.02,4701.33 2787.38,4438.32 2863.75,4183.2 m 0,0 c 32.19,-107.61 86.76,-202.22 156.8,-280"
             style="fill:none;stroke:#008000;stroke-opacity:1;stroke-width:32;stroke-linecap:butt;stroke-linejoin:miter;stroke-miterlimit:4;stroke-dasharray:none"
             id="path8941" /><path
             d="m 2964.06,4703.79 86.37,206.17 -199.34,-101.09 c 56.18,-6.49 101.68,-49.07 112.97,-105.08"
             style="fill:#008000;fill-opacity:1;fill-rule:evenodd;stroke:none"
             id="path8943" /><path
             d="m 2964.06,4703.79 86.37,206.17 -199.34,-101.09 c 56.17,-6.49 101.68,-49.07 112.97,-105.08 z"
             style="fill:none;stroke:#008000;stroke-opacity:1;stroke-width:12;stroke-linecap:butt;stroke-linejoin:round;stroke-miterlimit:4;stroke-dasharray:none"
             id="path8945" /><path
             d="m 3987.27,3884.53 c 165.35,177.81 233.98,440.82 157.61,695.94 m 0,0 c -32.22,107.62 -86.75,202.23 -156.79,280"
             style="fill:none;stroke:#008000;stroke-opacity:1;stroke-width:32;stroke-linecap:round;stroke-linejoin:miter;stroke-miterlimit:4;stroke-dasharray:none"
             id="path8947" /><path
             d="m 4044.53,4059.84 -86.33,-206.13 199.34,101.09 c -56.17,6.49 -101.68,49.07 -113.01,105.04"
             style="fill:#008000;fill-opacity:1;fill-rule:evenodd;stroke:none"
             id="path8949" /><path
             d="m 4044.54,4059.85 -86.33,-206.14 199.33,101.09 c -56.18,6.49 -101.68,49.06 -113,105.05 z"
             style="fill:none;stroke:#008000;stroke-opacity:1;stroke-width:12;stroke-linecap:butt;stroke-linejoin:round;stroke-miterlimit:4;stroke-dasharray:none"
             id="path8951" /><path
             d="m 6538.95,3903.13 c -158.52,183.9 -217.19,449.29 -131.25,701.36 m 0,0 c 36.25,106.33 94.33,198.83 167.22,273.87"
             style="fill:none;stroke:#ff0000;stroke-opacity:1;stroke-width:32;stroke-linecap:round;stroke-linejoin:miter;stroke-miterlimit:4;stroke-dasharray:none"
             id="path8953" /><path
             d="m 6370.98,3979.34 195.39,-108.52 -78.52,209.26 c -12.62,-55.12 -59.96,-95.67 -116.87,-100.74"
             style="fill:#ff0000;fill-opacity:1;fill-rule:evenodd;stroke:none"
             id="path8955" /><path
             d="m 6370.97,3979.34 195.39,-108.52 -78.51,209.25 c -12.62,-55.11 -59.96,-95.65 -116.88,-100.73 z"
             style="fill:none;stroke:#ff0000;stroke-opacity:1;stroke-width:12;stroke-linecap:butt;stroke-linejoin:round;stroke-miterlimit:4;stroke-dasharray:none"
             id="path8957" /><path
             d="m 7541.68,4860.55 c 158.52,-183.91 217.19,-449.3 131.25,-701.37 m 0,0 c -36.25,-106.33 -94.34,-198.83 -167.23,-273.87"
             style="fill:none;stroke:#ff0000;stroke-opacity:1;stroke-width:32;stroke-linecap:round;stroke-linejoin:miter;stroke-miterlimit:4;stroke-dasharray:none"
             id="path8959" /><path
             d="m 7709.65,4784.34 -195.39,108.51 78.51,-209.26 c 12.62,55.12 59.96,95.67 116.88,100.75"
             style="fill:#ff0000;fill-opacity:1;fill-rule:evenodd;stroke:none"
             id="path8961" /><path
             d="m 7709.64,4784.34 -195.39,108.51 78.52,-209.26 c 12.62,55.12 59.96,95.67 116.87,100.75 z"
             style="fill:none;stroke:#ff0000;stroke-opacity:1;stroke-width:12;stroke-linecap:butt;stroke-linejoin:round;stroke-miterlimit:4;stroke-dasharray:none"
             id="path8963" /><path
             d="m 7032.42,3118.16 0,1244.57"
             style="fill:none;stroke:#008000;stroke-opacity:1;stroke-width:32;stroke-linecap:round;stroke-linejoin:miter;stroke-miterlimit:4;stroke-dasharray:none"
             id="path8965" /><path
             d="m 7032.42,3044.34 64.03,110.7 -128.01,0"
             style="fill:#008000;fill-opacity:1;fill-rule:evenodd;stroke:none"
             id="path8967" /><path
             d="m 7032.42,3044.34 64.03,110.7 -128.01,0 63.98,-110.7 z"
             style="fill:none;stroke:#008000;stroke-opacity:1;stroke-width:16;stroke-linecap:butt;stroke-linejoin:miter;stroke-miterlimit:4;stroke-dasharray:none"
             id="path8969" /><path
             d="m 3512.42,3118.16 0,1244.57"
             style="fill:none;stroke:#ff0000;stroke-opacity:1;stroke-width:32;stroke-linecap:round;stroke-linejoin:miter;stroke-miterlimit:4;stroke-dasharray:none"
             id="path8971" /><path
             d="m 3512.42,3044.34 64.03,110.7 -128.01,0"
             style="fill:#ff0000;fill-opacity:1;fill-rule:evenodd;stroke:none"
             id="path8973" /><path
             d="m 3512.42,3044.34 64.03,110.7 -128.01,0 63.98,-110.7 z"
             style="fill:none;stroke:#ff0000;stroke-opacity:1;stroke-width:16;stroke-linecap:butt;stroke-linejoin:miter;stroke-miterlimit:4;stroke-dasharray:none"
             id="path8975" /><path
             d="m 10563.8,4374.65 c 0,1944.1 -1576.03,3520.12 -3520.13,3520.12 -1944.1,0 -3520.12,-1576.02 -3520.12,-3520.12 0,-1944.1 1576.02,-3520.119 3520.12,-3520.119 1944.1,0 3520.13,1576.019 3520.13,3520.119 z"
             style="fill:none;stroke:#ff0000;stroke-opacity:1;stroke-width:7;stroke-linecap:butt;stroke-linejoin:round;stroke-miterlimit:4;stroke-dasharray:7,28;stroke-dashoffset:0"
             id="path8977" /><path
             d="m 9590.59,4374.65 c 0,1406.6 -1140.32,2546.91 -2546.92,2546.91 -1406.64,0 -2546.91,-1140.31 -2546.91,-2546.91 0,-1406.64 1140.27,-2546.92 2546.91,-2546.92 1406.6,0 2546.92,1140.28 2546.92,2546.92 z"
             style="fill:none;stroke:#ff0000;stroke-opacity:1;stroke-width:7;stroke-linecap:butt;stroke-linejoin:round;stroke-miterlimit:4;stroke-dasharray:7,28;stroke-dashoffset:0"
             id="path8979" /><path
             d="m 8540.08,4374.65 c 0,826.44 -669.96,1496.4 -1496.41,1496.4 -826.44,0 -1496.4,-669.96 -1496.4,-1496.4 0,-826.45 669.96,-1496.41 1496.4,-1496.41 826.45,0 1496.41,669.96 1496.41,1496.41 z"
             style="fill:none;stroke:#ff0000;stroke-opacity:1;stroke-width:7;stroke-linecap:butt;stroke-linejoin:round;stroke-miterlimit:4;stroke-dasharray:7,28;stroke-dashoffset:0"
             id="path8981" /><path
             d="m 7043.79,4374.65 c 0,1944.1 -1576.02,3520.12 -3520.12,3520.12 C 1579.57,7894.77 3.55078,6318.75 3.55078,4374.65 3.55078,2430.55 1579.57,854.531 3523.67,854.531 c 1944.1,0 3520.12,1576.019 3520.12,3520.119 z"
             style="fill:none;stroke:#008000;stroke-opacity:1;stroke-width:7;stroke-linecap:butt;stroke-linejoin:round;stroke-miterlimit:4;stroke-dasharray:7,28;stroke-dashoffset:0"
             id="path8983" /><path
             d="m 6070.59,4374.65 c 0,1406.6 -1140.32,2546.91 -2546.92,2546.91 -1406.64,0 -2546.908,-1140.31 -2546.908,-2546.91 0,-1406.64 1140.268,-2546.92 2546.908,-2546.92 1406.6,0 2546.92,1140.28 2546.92,2546.92 z"
             style="fill:none;stroke:#008000;stroke-opacity:1;stroke-width:7;stroke-linecap:butt;stroke-linejoin:round;stroke-miterlimit:4;stroke-dasharray:7,28;stroke-dashoffset:0"
             id="path8985" /><path
             d="m 5020.08,4374.65 c 0,826.44 -669.96,1496.4 -1496.41,1496.4 -826.44,0 -1496.4,-669.96 -1496.4,-1496.4 0,-826.45 669.96,-1496.41 1496.4,-1496.41 826.45,0 1496.41,669.96 1496.41,1496.41 z"
             style="fill:none;stroke:#008000;stroke-opacity:1;stroke-width:7;stroke-linecap:butt;stroke-linejoin:round;stroke-miterlimit:4;stroke-dasharray:7,28;stroke-dashoffset:0"
             id="path8987" /><path
             d="m 3650.7,5721.41 45.24,-255.28 196.79,151.57"
             style="fill:none;stroke:#ff0000;stroke-opacity:1;stroke-width:8;stroke-linecap:butt;stroke-linejoin:miter;stroke-miterlimit:4;stroke-dasharray:8,16;stroke-dashoffset:0"
             id="path8989" /><path
             d="m 5893.95,919.301 255.27,45.187 -151.56,196.802"
             style="fill:none;stroke:#ff0000;stroke-opacity:1;stroke-width:8;stroke-linecap:butt;stroke-linejoin:miter;stroke-miterlimit:4;stroke-dasharray:8,16;stroke-dashoffset:0"
             id="path8991" /><path
             d="m 10438.6,3030.2 -45.2,255.31 -196.8,-151.6"
             style="fill:none;stroke:#ff0000;stroke-opacity:1;stroke-width:8;stroke-linecap:butt;stroke-linejoin:miter;stroke-miterlimit:4;stroke-dasharray:8,16;stroke-dashoffset:0"
             id="path8993" /><path
             d="m 8387.34,7767.73 -255.31,-45.19 151.6,-196.8"
             style="fill:none;stroke:#ff0000;stroke-opacity:1;stroke-width:8;stroke-linecap:butt;stroke-linejoin:miter;stroke-miterlimit:4;stroke-dasharray:8,16;stroke-dashoffset:0"
             id="path8995" /><path
             d="m 6962.46,5577.66 -45.19,-255.28 -196.8,151.57"
             style="fill:none;stroke:#008000;stroke-opacity:1;stroke-width:8;stroke-linecap:butt;stroke-linejoin:miter;stroke-miterlimit:4;stroke-dasharray:8,16;stroke-dashoffset:0"
             id="path8997" /><path
             d="m 2338.24,7817.77 255.31,-45.23 -151.6,-196.76"
             style="fill:none;stroke:#008000;stroke-opacity:1;stroke-width:8;stroke-linecap:butt;stroke-linejoin:miter;stroke-miterlimit:4;stroke-dasharray:8,16;stroke-dashoffset:0"
             id="path8999" /><path
             d="m 78.1992,3188.24 45.1988,255.28 196.801,-151.57"
             style="fill:none;stroke:#008000;stroke-opacity:1;stroke-width:8;stroke-linecap:butt;stroke-linejoin:miter;stroke-miterlimit:4;stroke-dasharray:8,16;stroke-dashoffset:0"
             id="path9001" /><path
             d="m 4740.16,941.84 -255.32,45.191 151.61,196.799"
             style="fill:none;stroke:#008000;stroke-opacity:1;stroke-width:8;stroke-linecap:butt;stroke-linejoin:miter;stroke-miterlimit:4;stroke-dasharray:8,16;stroke-dashoffset:0"
             id="path9003" /><path
             d="m 3288.48,4620.98 178.441,0 0,19.6094 -178.441,0 0,-19.6094 z"
             style="fill:#000000;fill-opacity:1;fill-rule:nonzero;stroke:none"
             id="path9005" /><path
             d="m 3665.98,4579.96 -0.71,-1.05 -1.75,-1.76 -0.71,-1.06 -1.05,-0.7 -0.67,-1.05 -0.7,-0.71 -0.7,-1.05 -0.71,-0.67 -3.51,-3.51 -1.06,-1.41 -1.05,-1.05 -1.06,-1.41 -1.05,-1.05 -1.05,-0.71 -1.76,-1.75 -0.67,-0.71 -1.05,-0.7 -0.7,-0.66 -0.71,-0.71 -0.7,-0.35 -0.35,-0.7 -1.41,-0.71 -0.7,0 -0.35,-0.35 -0.71,-0.35 -0.35,0 -0.7,-0.35 -1.41,0 -1.4,-0.35 c -3.13,0 -5.94,3.16 -5.94,6.99 0,4.92 10.86,47.34 22.42,85.9 9.45,31.87 16.84,59.57 34.69,129.33 l -1.72,1.72 c -18.59,-3.82 -31.21,-5.93 -53.63,-8.04 l 0,-5.94 c 19.25,-0.35 21.72,-1.41 21.72,-8.79 0,-4.53 -0.36,-6.64 -5.28,-24.53 l -15.39,-57.11 c -2.46,14.69 -8.79,20.31 -22.46,20.31 l 1.41,-8.04 c 10.5,-0.71 15.78,-7.39 15.78,-20 0,-52.93 -36.45,-112.86 -68.36,-112.86 -11.92,0 -20.31,9.46 -20.31,23.13 0,29.1 17.54,69.41 40.31,93.59 9.8,10.16 22.77,16.84 32.58,16.14 l -1.41,8.04 c -45.55,0 -101.99,-65.54 -101.99,-117.77 0,-24.88 14.02,-39.61 36.8,-39.61 23.51,0 38.9,11.21 62.77,45.94 -3.87,-17.89 -4.57,-23.17 -4.57,-31.21 0,-9.11 5.94,-15.43 14.73,-15.43 14.72,0 32.57,14.37 50.82,39.61"
             style="fill:#000000;fill-opacity:1;fill-rule:nonzero;stroke:none"
             id="path9007" /><path
             d="m 7130.74,4564.92 -1.05,-1.05 -0.71,-1.06 -1.05,-0.7 -0.7,-1.06 -0.71,-0.7 -0.7,-1.05 -1.05,-0.71 -0.71,-1.05 -1.4,-1.41 -0.71,-0.66 -0.35,-0.7 -0.7,-0.71 -0.67,-0.7 -1.05,-1.41 -1.41,-1.05 -1.05,-1.41 -3.52,-3.51 -1.05,-0.71 -2.11,-2.11 -0.7,-0.31 -0.71,-0.7 -0.7,-0.35 -0.35,-0.35 -0.67,0 -0.7,-0.36 -0.35,-0.35 -0.7,0 -0.36,-0.35 -1.75,0 -1.06,-0.35 c -3.51,0 -6.33,3.12 -6.33,6.99 0,4.92 11.25,47.35 22.82,85.9 9.45,31.87 16.79,59.57 34.33,129.3 l -1.76,1.75 c -18.55,-3.82 -30.82,-5.93 -53.28,-8.04 l 0,-5.98 c 19.3,-0.35 21.76,-1.37 21.76,-8.75 0,-4.57 -0.35,-6.64 -5.27,-24.53 l -15.43,-57.15 c -2.81,14.73 -9.1,20.35 -22.78,20.35 l 1.41,-8.08 c 10.51,-0.67 15.78,-7.35 15.78,-19.96 0,-52.93 -36.13,-112.86 -68.36,-112.86 -11.91,0 -20.35,9.46 -20.35,23.13 0,29.1 17.54,69.41 40.67,93.59 9.84,10.16 22.81,16.8 32.26,16.1 l -1.41,8.08 c -45.23,0 -101.64,-65.54 -101.64,-117.77 0,-24.88 14.03,-39.61 36.45,-39.61 23.83,0 39.26,11.21 62.73,45.94 -3.86,-17.89 -4.57,-23.17 -4.57,-31.21 0,-9.1 5.98,-15.43 14.73,-15.43 14.73,0 32.97,14.37 51.17,39.61"
             style="fill:#000000;fill-opacity:1;fill-rule:nonzero;stroke:none"
             id="path9009" /></g></g></g></g></svg>