<?xml version="1.0" encoding="UTF-8" standalone="no"?>
<!-- Created with Inkscape (http://www.inkscape.org/) -->

<svg
   xmlns:dc="http://purl.org/dc/elements/1.1/"
   xmlns:cc="http://creativecommons.org/ns#"
   xmlns:rdf="http://www.w3.org/1999/02/22-rdf-syntax-ns#"
   xmlns:svg="http://www.w3.org/2000/svg"
   xmlns="http://www.w3.org/2000/svg"
   xmlns:sodipodi="http://sodipodi.sourceforge.net/DTD/sodipodi-0.dtd"
   xmlns:inkscape="http://www.inkscape.org/namespaces/inkscape"
   sodipodi:docname="New document 1"
   inkscape:version="0.48.4 r9939"
   version="1.1"
   id="svg2"
   height="1052.3622047"
   width="744.09448819">
  <sodipodi:namedview
     id="base"
     pagecolor="#ffffff"
     bordercolor="#666666"
     borderopacity="1.0"
     inkscape:pageopacity="0.0"
     inkscape:pageshadow="2"
     inkscape:zoom="1.979899"
     inkscape:cx="360.81181"
     inkscape:cy="886.84271"
     inkscape:document-units="px"
     inkscape:current-layer="svg2"
     showgrid="false"
     inkscape:window-width="1920"
     inkscape:window-height="1018"
     inkscape:window-x="-8"
     inkscape:window-y="5"
     inkscape:window-maximized="1" />
  <defs
     id="defs4" />
  <metadata
     id="metadata7">
    <rdf:RDF>
      <cc:Work
         rdf:about="">
        <dc:format>image/svg+xml</dc:format>
        <dc:type
           rdf:resource="http://purl.org/dc/dcmitype/StillImage" />
        <dc:title></dc:title>
      </cc:Work>
    </rdf:RDF>
  </metadata>
  <path
     id="path4484"
     d="M 548.03453,106.92519 C 540.3203,93.40042 533.13254,74.406774 519.84369,71.934765 c -12.8399,0.02374 -25.3511,19.499129 -32.54962,32.125845 -8.44818,14.74924 -15.38279,34.60791 -28.91486,40.69943 -11.87899,2.35524 -19.78215,-14.34588 -26.39206,-25.83133 -9.22256,-15.72661 -16.23017,-36.993241 -30.3628,-44.717601 -12.77198,-4.503958 -21.77564,13.197776 -28.69549,25.655156 -9.19674,15.710615 -16.19882,36.911575 -30.31892,44.610275 -11.64849,3.63818 -19.93427,-12.81809 -26.39195,-24.03617 -9.50303,-16.05017 -16.52939,-37.7046 -30.82351,-46.082739 -12.61422,-5.012602 -21.88038,12.484685 -28.69547,24.859803 -9.27611,15.823886 -16.27321,36.998906 -30.34086,45.120226 -11.54049,4.16324 -19.97049,-12.14725 -26.39195,-23.251 -9.55563,-16.15942 -16.60059,-37.790906 -30.82352,-46.567726 -12.51884,-5.48741 -21.91041,11.760572 -28.69548,24.054968 -9.44303,16.012628 -16.47932,37.673948 -30.80158,45.813728 -11.283364,3.95414 -19.60325,-11.77123 -25.909291,-22.66487 -1.2974,-4.41847 -8.36625,-13.38953 -9.648672,-18.71457 l 0,149.81825 474.425173,-0.50508 z"
     style="font-size:medium;font-style:normal;font-variant:normal;font-weight:normal;font-stretch:normal;text-indent:0;text-align:start;text-decoration:none;line-height:normal;letter-spacing:normal;word-spacing:normal;text-transform:none;direction:ltr;block-progression:tb;writing-mode:lr-tb;text-anchor:start;baseline-shift:baseline;color:#000000;fill:#cccccc;stroke:none;stroke-width:1.94769251000000000;stroke-miterlimit:4;stroke-dasharray:none;marker:none;visibility:visible;display:inline;overflow:visible;enable-background:accumulate;font-family:Sans;-inkscape-font-specification:Sans"
     inkscape:connector-curvature="0"
     sodipodi:nodetypes="ccccccccccccccccccccc" />
  <g
     id="layer1"
     inkscape:groupmode="layer"
     inkscape:label="Layer 1" />
  <path
     style="font-size:medium;font-style:normal;font-variant:normal;font-weight:normal;font-stretch:normal;text-indent:0;text-align:start;text-decoration:none;line-height:normal;letter-spacing:normal;word-spacing:normal;text-transform:none;direction:ltr;block-progression:tb;writing-mode:lr-tb;text-anchor:start;baseline-shift:baseline;color:#000000;fill:none;stroke:#000000;stroke-width:1.94769251;stroke-miterlimit:4;stroke-dasharray:none;marker:none;visibility:visible;display:inline;overflow:visible;enable-background:accumulate;font-family:Sans;-inkscape-font-specification:Sans"
     d="M 548.03453,106.92519 C 540.3203,93.40042 533.13254,74.406774 519.84369,71.934765 c -12.8399,0.02374 -25.3511,19.499129 -32.54962,32.125845 -8.44818,14.74924 -15.38279,34.60791 -28.91486,40.69943 -11.87899,2.35524 -19.78215,-14.34588 -26.39206,-25.83133 -9.22256,-15.72661 -16.23017,-36.993241 -30.3628,-44.717601 -12.77198,-4.503958 -21.77564,13.197776 -28.69549,25.655156 -9.19674,15.710615 -16.19882,36.911575 -30.31892,44.610275 -11.64849,3.63818 -19.93427,-12.81809 -26.39195,-24.03617 -9.50303,-16.05017 -16.52939,-37.7046 -30.82351,-46.082739 -12.61422,-5.012602 -21.88038,12.484685 -28.69547,24.859803 -9.27611,15.823886 -16.27321,36.998906 -30.34086,45.120226 -11.54049,4.16324 -19.97049,-12.14725 -26.39195,-23.251 -9.55563,-16.15942 -16.60059,-37.790906 -30.82352,-46.567726 -12.51884,-5.48741 -21.91041,11.760572 -28.69548,24.054968 -9.44303,16.012628 -16.47932,37.673948 -30.80158,45.813728 -11.283364,3.95414 -19.60325,-11.77123 -25.909291,-22.66487 -1.2974,-4.41847 -8.36625,-13.38953 -9.648672,-18.71457"
     id="path3620" />
</svg>
