<?xml version="1.0" encoding="UTF-8" standalone="no"?>
<!-- Created with Inkscape (http://www.inkscape.org/) -->

<svg
   xmlns:dc="http://purl.org/dc/elements/1.1/"
   xmlns:cc="http://creativecommons.org/ns#"
   xmlns:rdf="http://www.w3.org/1999/02/22-rdf-syntax-ns#"
   xmlns:svg="http://www.w3.org/2000/svg"
   xmlns="http://www.w3.org/2000/svg"
   xmlns:sodipodi="http://sodipodi.sourceforge.net/DTD/sodipodi-0.dtd"
   xmlns:inkscape="http://www.inkscape.org/namespaces/inkscape"
   id="svg2"
   version="1.1"
   inkscape:version="0.48.4 r9939"
   width="612.5"
   height="351.25"
   xml:space="preserve"
   sodipodi:docname="aerofoil_streamlined.svg"><sodipodi:namedview
     pagecolor="#ffffff"
     bordercolor="#666666"
     borderopacity="1"
     objecttolerance="10"
     gridtolerance="10"
     guidetolerance="10"
     inkscape:pageopacity="0"
     inkscape:pageshadow="2"
     inkscape:window-width="1600"
     inkscape:window-height="850"
     id="namedview4"
     showgrid="false"
     inkscape:zoom="1.1297959"
     inkscape:cx="306.25"
     inkscape:cy="168.54408"
     inkscape:window-x="0"
     inkscape:window-y="180"
     inkscape:window-maximized="1"
     inkscape:current-layer="g10" /><metadata
     id="metadata8"><rdf:RDF><cc:Work
         rdf:about=""><dc:format>image/svg+xml</dc:format><dc:type
           rdf:resource="http://purl.org/dc/dcmitype/StillImage" /><dc:title /></cc:Work></rdf:RDF></metadata><defs
     id="defs6"><clipPath
       id="clipPath18"
       clipPathUnits="userSpaceOnUse"><path
         id="path20"
         d="m 0,6.25 4900,0 0,2800 -4900,0 0,-2800 z" /></clipPath></defs><g
     transform="matrix(1.25,0,0,-1.25,0,351.25)"
     inkscape:label="ink_ext_XXXXXX"
     inkscape:groupmode="layer"
     id="g10"><path
       d="M 1.46484,1.65195 C 51.082,34.7539 165.559,125.57 286.254,137.883 c 103.129,10.515 153.465,29.035 202.141,49.262"
       style="stroke-linejoin:miter;stroke-opacity:1;stroke:#0087aa;stroke-linecap:butt;stroke-miterlimit:4;stroke-dasharray:none;stroke-width:1.60000001999999997;fill:none"
       id="path22"
       inkscape:connector-curvature="0" /><path
       d="M 0.723047,31.957 C 61.1449,69.0621 166.82,149.477 260.988,160.199 c 158.762,18.078 195.918,38.488 228.45,51.063"
       style="stroke-linejoin:miter;stroke-opacity:1;stroke:#0087aa;stroke-linecap:butt;stroke-miterlimit:4;stroke-dasharray:none;stroke-width:1.60000001999999997;fill:none"
       id="path24"
       inkscape:connector-curvature="0" /><path
       d="M 0.398047,66.5699 C 51.7621,96.4691 153.969,158.32 163.609,182.422 c 12.93,32.324 63.844,18.586 63.844,18.586 0,0 91.899,-2.602 145.863,-0.403 30.786,1.254 48.848,5.817 115.493,34.606"
       style="stroke-linejoin:miter;stroke-opacity:1;stroke:#0087aa;stroke-linecap:butt;stroke-miterlimit:4;stroke-dasharray:none;stroke-width:1.60000001999999997;fill:none"
       id="path26"
       inkscape:connector-curvature="0" /><path
       d="M 1.22305,95.1719 C 42.9961,117.285 108.152,157.926 113.508,198.586 c 5.351,40.66 76.933,59.664 134.953,49.293 58.023,-10.367 83.805,-20.359 126.883,-19.813 46.254,0.586 84.359,12.817 112.867,24.551"
       style="stroke-linejoin:miter;stroke-opacity:1;stroke:#0087aa;stroke-linecap:butt;stroke-miterlimit:4;stroke-dasharray:none;stroke-width:1.60000001999999997;fill:none"
       id="path28"
       inkscape:connector-curvature="0" /><path
       d="m 379.348,200.809 c -56.227,-12.141 -243.422,-65.032 -243.504,0.261 -0.082,65.289 187.371,13.305 243.504,-0.261"
       style="fill:#d7eef4;fill-opacity:1;fill-rule:nonzero;stroke:#000000"
       id="path30"
       inkscape:connector-curvature="0" /><path
       d="m 379.348,200.809 c -56.227,-12.141 -243.422,-65.032 -243.504,0.261 -0.082,65.289 187.371,13.305 243.504,-0.261 z"
       style="fill:none;stroke:#000000;stroke-width:2.21130013;stroke-linecap:butt;stroke-linejoin:round;stroke-miterlimit:4;stroke-opacity:1;stroke-dasharray:none"
       id="path32"
       inkscape:connector-curvature="0" /><path
       d="M 1.20703,125.988 C 38.023,140.836 55.5699,172.98 74.152,201.465 c 14.5671,28.539 34.637,57.582 66.723,67.574 36.176,17.168 77.25,8.574 115.277,4.352 54.059,-6.387 108.586,-20.282 163.2,-12.266 23.742,3.891 46.527,11.715 69.492,18.723"
       style="stroke-linejoin:miter;stroke-opacity:1;stroke:#0087aa;stroke-linecap:butt;stroke-miterlimit:4;stroke-dasharray:none;stroke-width:1.60000001999999997;fill:none"
       id="path34"
       inkscape:connector-curvature="0" /><path
       d="m 26.082,109.297 5.57,3.426"
       style="fill:none;stroke:#2c89a0;stroke-width:1.12;stroke-linecap:butt;stroke-linejoin:miter;stroke-miterlimit:4;stroke-opacity:1;stroke-dasharray:none"
       id="path36"
       inkscape:connector-curvature="0" /><path
       d="m 13.2809,107.254 14.0589,2.84 -8.8707,-11.2741 c 0.3008,3.6181 -1.805,7.0161 -5.1882,8.4341"
       style="fill:#2c89a0;fill-opacity:1;fill-rule:evenodd;stroke:none"
       id="path38"
       inkscape:connector-curvature="0" /><path
       d="m 13.2816,107.254 14.0582,2.84 -8.871,-11.2733 c 0.3011,3.6173 -1.8051,7.0153 -5.1872,8.4333 z"
       style="fill:none;stroke:#2c89a0;stroke-width:0.77000099;stroke-linecap:butt;stroke-linejoin:round;stroke-miterlimit:4;stroke-opacity:1;stroke-dasharray:none"
       id="path40"
       inkscape:connector-curvature="0" /><path
       d="m 123.668,109.117 5.824,2.981"
       style="fill:none;stroke:#2c89a0;stroke-width:1.12;stroke-linecap:butt;stroke-linejoin:miter;stroke-miterlimit:4;stroke-opacity:1;stroke-dasharray:none"
       id="path42"
       inkscape:connector-curvature="0" /><path
       d="m 110.746,108.086 14.238,1.727 -9.726,-10.54 c 0.582,3.582 -1.25,7.137 -4.512,8.813"
       style="fill:#2c89a0;fill-opacity:1;fill-rule:evenodd;stroke:none"
       id="path44"
       inkscape:connector-curvature="0" /><path
       d="m 110.746,108.086 14.239,1.727 -9.727,-10.5392 c 0.582,3.5812 -1.25,7.1362 -4.512,8.8122 z"
       style="fill:none;stroke:#2c89a0;stroke-width:0.76999998;stroke-linecap:butt;stroke-linejoin:round;stroke-miterlimit:4;stroke-opacity:1;stroke-dasharray:none"
       id="path46"
       inkscape:connector-curvature="0" /><path
       d="m 472.723,246.613 -11.789,-4.101"
       style="fill:none;stroke:#2c89a0;stroke-width:1.12;stroke-linecap:butt;stroke-linejoin:miter;stroke-miterlimit:4;stroke-opacity:1;stroke-dasharray:none"
       id="path48"
       inkscape:connector-curvature="0" /><path
       d="m 459.781,247.371 14.336,-0.25 -11.086,-9.101 c 1.071,3.468 -0.254,7.242 -3.25,9.351"
       style="fill:#2c89a0;fill-opacity:1;fill-rule:evenodd;stroke:none"
       id="path50"
       inkscape:connector-curvature="0" /><path
       d="m 459.781,247.371 14.336,-0.25 -11.086,-9.102 c 1.07,3.469 -0.254,7.242 -3.25,9.352 z"
       style="fill:none;stroke:#2c89a0;stroke-width:0.76999998;stroke-linecap:butt;stroke-linejoin:round;stroke-miterlimit:4;stroke-opacity:1;stroke-dasharray:none"
       id="path52"
       inkscape:connector-curvature="0" /><path
       d="m 471.273,204 -15.96,-6.066"
       style="fill:none;stroke:#2c89a0;stroke-width:1.12;stroke-linecap:butt;stroke-linejoin:miter;stroke-miterlimit:4;stroke-opacity:1;stroke-dasharray:none"
       id="path54"
       inkscape:connector-curvature="0" /><path
       d="m 458.316,204.391 14.344,0.156 -10.828,-9.41 c 0.973,3.496 -0.457,7.23 -3.516,9.254"
       style="fill:#2c89a0;fill-opacity:1;fill-rule:evenodd;stroke:none"
       id="path56"
       inkscape:connector-curvature="0" /><path
       d="m 458.316,204.39 14.345,0.157 -10.829,-9.411 c 0.973,3.497 -0.457,7.232 -3.516,9.254 z"
       style="fill:none;stroke:#2c89a0;stroke-width:0.76999897;stroke-linecap:butt;stroke-linejoin:round;stroke-miterlimit:4;stroke-opacity:1;stroke-dasharray:none"
       id="path58"
       inkscape:connector-curvature="0" /></g></svg>