<?xml version="1.0" encoding="UTF-8" standalone="no"?>
<!-- Created with Inkscape (http://www.inkscape.org/) -->

<svg
   xmlns:dc="http://purl.org/dc/elements/1.1/"
   xmlns:cc="http://creativecommons.org/ns#"
   xmlns:rdf="http://www.w3.org/1999/02/22-rdf-syntax-ns#"
   xmlns:svg="http://www.w3.org/2000/svg"
   xmlns="http://www.w3.org/2000/svg"
   xmlns:sodipodi="http://sodipodi.sourceforge.net/DTD/sodipodi-0.dtd"
   xmlns:inkscape="http://www.inkscape.org/namespaces/inkscape"
   id="svg2985"
   version="1.1"
   inkscape:version="0.48.4 r9939"
   width="970"
   height="701.25"
   xml:space="preserve"
   sodipodi:docname="bucket_vortex_stream.eps"><metadata
     id="metadata2991"><rdf:RDF><cc:Work
         rdf:about=""><dc:format>image/svg+xml</dc:format><dc:type
           rdf:resource="http://purl.org/dc/dcmitype/StillImage" /><dc:title></dc:title></cc:Work></rdf:RDF></metadata><defs
     id="defs2989"><clipPath
       clipPathUnits="userSpaceOnUse"
       id="clipPath3001"><path
         d="m 0,2 7760,0 0,5608 L 0,5610 0,2 z"
         id="path3003" /></clipPath></defs><sodipodi:namedview
     pagecolor="#ffffff"
     bordercolor="#666666"
     borderopacity="1"
     objecttolerance="10"
     gridtolerance="10"
     guidetolerance="10"
     inkscape:pageopacity="0"
     inkscape:pageshadow="2"
     inkscape:window-width="1920"
     inkscape:window-height="1058"
     id="namedview2987"
     showgrid="false"
     inkscape:zoom="0.62103387"
     inkscape:cx="800.52018"
     inkscape:cy="224.49377"
     inkscape:window-x="1912"
     inkscape:window-y="-8"
     inkscape:window-maximized="1"
     inkscape:current-layer="g2995" /><g
     id="g2993"
     inkscape:groupmode="layer"
     inkscape:label="ink_ext_XXXXXX"
     transform="matrix(1.25,0,0,-1.25,0,701.25)"><g
       id="g2995"
       transform="scale(0.1,0.1)"><path
         sodipodi:type="arc"
         style="fill:none;stroke:#000000;stroke-width:0.82136374;stroke-linejoin:round;stroke-miterlimit:4;stroke-opacity:1;stroke-dasharray:none;stroke-dashoffset:1.10000000000000010"
         id="path7567"
         sodipodi:cx="618.72632"
         sodipodi:cy="349.01477"
         sodipodi:rx="21.33539"
         sodipodi:ry="21.33539"
         d="m 640.06171,349.01477 a 21.33539,21.33539 0 1 1 -42.67078,0 21.33539,21.33539 0 1 1 42.67078,0 z"
         transform="matrix(121.74874,0,0,-121.74874,-71726.145,45263.337)" /><path
         sodipodi:type="arc"
         style="fill:none;stroke:#0088aa;stroke-width:1.875;stroke-linejoin:round;stroke-miterlimit:4;stroke-opacity:1;stroke-dasharray:none;stroke-dashoffset:1.10000000000000010"
         id="path6739"
         sodipodi:cx="618.72632"
         sodipodi:cy="349.01477"
         sodipodi:rx="21.33539"
         sodipodi:ry="21.33539"
         d="m 640.06171,349.01477 a 21.33539,21.33539 0 1 1 -42.67078,0 21.33539,21.33539 0 1 1 42.67078,0 z"
         transform="matrix(16,0,0,-16,-4982.0149,8395.6773)" /><path
         sodipodi:type="arc"
         style="fill:none;stroke:#0088aa;stroke-width:1.2;stroke-linejoin:round;stroke-miterlimit:4;stroke-opacity:1;stroke-dasharray:none;stroke-dashoffset:1.10000000000000010"
         id="path7533"
         sodipodi:cx="618.72632"
         sodipodi:cy="349.01477"
         sodipodi:rx="21.33539"
         sodipodi:ry="21.33539"
         d="m 640.06171,349.01477 a 21.33539,21.33539 0 1 1 -42.67078,0 21.33539,21.33539 0 1 1 42.67078,0 z"
         transform="matrix(25,0,0,-25,-10595.638,11536.81)" /><path
         sodipodi:type="arc"
         style="fill:none;stroke:#0088aa;stroke-width:0.768;stroke-linejoin:round;stroke-miterlimit:4;stroke-opacity:1;stroke-dasharray:none;stroke-dashoffset:1.10000000000000010"
         id="path7537"
         sodipodi:cx="618.72632"
         sodipodi:cy="349.01477"
         sodipodi:rx="21.33539"
         sodipodi:ry="21.33539"
         d="m 640.06171,349.01477 a 21.33539,21.33539 0 1 1 -42.67078,0 21.33539,21.33539 0 1 1 42.67078,0 z"
         transform="matrix(39.0625,0,0,-39.0625,-19380.207,16425.507)" /><path
         transform="matrix(48.828125,0,0,-48.828125,-25551.274,19853.177)"
         d="m 640.06171,349.01477 a 21.33539,21.33539 0 1 1 -42.67078,0 21.33539,21.33539 0 1 1 42.67078,0 z"
         sodipodi:ry="21.33539"
         sodipodi:rx="21.33539"
         sodipodi:cy="349.01477"
         sodipodi:cx="618.72632"
         id="path7539"
         style="fill:none;stroke:#0088aa;stroke-width:0.6144;stroke-linejoin:round;stroke-miterlimit:4;stroke-opacity:1;stroke-dasharray:none;stroke-dashoffset:1.10000000000000010"
         sodipodi:type="arc" /><path
         sodipodi:type="arc"
         style="fill:none;stroke:#0088aa;stroke-width:0.49152;stroke-linejoin:round;stroke-miterlimit:4;stroke-opacity:1;stroke-dasharray:none;stroke-dashoffset:1.10000000000000010"
         id="path7541"
         sodipodi:cx="618.72632"
         sodipodi:cy="349.01477"
         sodipodi:rx="21.33539"
         sodipodi:ry="21.33539"
         d="m 640.06171,349.01477 a 21.33539,21.33539 0 1 1 -42.67078,0 21.33539,21.33539 0 1 1 42.67078,0 z"
         transform="matrix(61.035156,0,0,-61.035156,-33284.43,24087.848)" /><path
         transform="matrix(76.293945,0,0,-76.293945,-42970.197,29445.595)"
         d="m 640.06171,349.01477 a 21.33539,21.33539 0 1 1 -42.67078,0 21.33539,21.33539 0 1 1 42.67078,0 z"
         sodipodi:ry="21.33539"
         sodipodi:rx="21.33539"
         sodipodi:cy="349.01477"
         sodipodi:cx="618.72632"
         id="path7543"
         style="fill:none;stroke:#0088aa;stroke-width:0.393216;stroke-linejoin:round;stroke-miterlimit:4;stroke-opacity:1;stroke-dasharray:none;stroke-dashoffset:1.10000000000000010"
         sodipodi:type="arc" /><path
         sodipodi:type="arc"
         style="fill:none;stroke:#0088aa;stroke-width:0.32797057;stroke-linejoin:round;stroke-miterlimit:4;stroke-opacity:1;stroke-dasharray:none;stroke-dashoffset:1.10000000000000010"
         id="path7545"
         sodipodi:cx="618.72632"
         sodipodi:cy="349.01477"
         sodipodi:rx="21.33539"
         sodipodi:ry="21.33539"
         d="m 640.06171,349.01477 a 21.33539,21.33539 0 1 1 -42.67078,0 21.33539,21.33539 0 1 1 42.67078,0 z"
         transform="matrix(91.471623,0,0,-91.471623,-52605.779,34723.505)" /><path
         transform="matrix(100.61879,0,0,-100.61879,-58374.674,37906.891)"
         d="m 640.06171,349.01477 a 21.33539,21.33539 0 1 1 -42.67078,0 21.33539,21.33539 0 1 1 42.67078,0 z"
         sodipodi:ry="21.33539"
         sodipodi:rx="21.33539"
         sodipodi:cy="349.01477"
         sodipodi:cx="618.72632"
         id="path7549"
         style="fill:none;stroke:#0088aa;stroke-width:0.29815505;stroke-linejoin:round;stroke-miterlimit:4;stroke-opacity:1;stroke-dasharray:none;stroke-dashoffset:1.10000000000000010"
         sodipodi:type="arc" /><path
         sodipodi:type="arc"
         style="fill:none;stroke:#0088aa;stroke-width:0.27105004;stroke-linejoin:round;stroke-miterlimit:4;stroke-opacity:1;stroke-dasharray:none;stroke-dashoffset:1.10000000000000010"
         id="path7551"
         sodipodi:cx="618.72632"
         sodipodi:cy="349.01477"
         sodipodi:rx="21.33539"
         sodipodi:ry="21.33539"
         d="m 640.06171,349.01477 a 21.33539,21.33539 0 1 1 -42.67078,0 21.33539,21.33539 0 1 1 42.67078,0 z"
         transform="matrix(110.68067,0,0,-110.68067,-64727.746,41400.418)" /><path
         transform="matrix(121.74874,0,0,-121.74874,-71726.145,45263.337)"
         d="m 640.06171,349.01477 a 21.33539,21.33539 0 1 1 -42.67078,0 21.33539,21.33539 0 1 1 42.67078,0 z"
         sodipodi:ry="21.33539"
         sodipodi:rx="21.33539"
         sodipodi:cy="349.01477"
         sodipodi:cx="618.72632"
         id="path7553"
         style="fill:none;stroke:#0088aa;stroke-width:0.24640912;stroke-linejoin:round;stroke-miterlimit:4;stroke-opacity:1;stroke-dasharray:none;stroke-dashoffset:1.1"
         sodipodi:type="arc" /><path
         sodipodi:type="arc"
         style="fill:none;stroke:#0088aa;stroke-width:0.22400831;stroke-linejoin:round;stroke-miterlimit:4;stroke-opacity:1;stroke-dasharray:none;stroke-dashoffset:1.1"
         id="path7555"
         sodipodi:cx="618.72632"
         sodipodi:cy="349.01477"
         sodipodi:rx="21.33539"
         sodipodi:ry="21.33539"
         d="m 640.06171,349.01477 a 21.33539,21.33539 0 1 1 -42.67078,0 21.33539,21.33539 0 1 1 42.67078,0 z"
         transform="matrix(133.92361,0,0,-133.92361,-79436.681,49530.765)" /><path
         transform="matrix(147.31597,0,0,-147.31597,-87927.834,54214.006)"
         d="m 640.06171,349.01477 a 21.33539,21.33539 0 1 1 -42.67078,0 21.33539,21.33539 0 1 1 42.67078,0 z"
         sodipodi:ry="21.33539"
         sodipodi:rx="21.33539"
         sodipodi:cy="349.01477"
         sodipodi:cx="618.72632"
         id="path7557"
         style="fill:none;stroke:#0088aa;stroke-width:0.2036439;stroke-linejoin:round;stroke-miterlimit:4;stroke-opacity:1;stroke-dasharray:none;stroke-dashoffset:1.1"
         sodipodi:type="arc" /><path
         sodipodi:type="arc"
         style="fill:none;stroke:#0088aa;stroke-width:0.18513082;stroke-linejoin:round;stroke-miterlimit:4;stroke-opacity:1;stroke-dasharray:none;stroke-dashoffset:1.1"
         id="path7559"
         sodipodi:cx="618.72632"
         sodipodi:cy="349.01477"
         sodipodi:rx="21.33539"
         sodipodi:ry="21.33539"
         d="m 640.06171,349.01477 a 21.33539,21.33539 0 1 1 -42.67078,0 21.33539,21.33539 0 1 1 42.67078,0 z"
         transform="matrix(162.04757,0,0,-162.04757,-97270.38,59369.214)" /><path
         transform="matrix(178.25233,0,0,-178.25233,-107556.29,64988.479)"
         d="m 640.06171,349.01477 a 21.33539,21.33539 0 1 1 -42.67078,0 21.33539,21.33539 0 1 1 42.67078,0 z"
         sodipodi:ry="21.33539"
         sodipodi:rx="21.33539"
         sodipodi:cy="349.01477"
         sodipodi:cx="618.72632"
         id="path7561"
         style="fill:none;stroke:#0088aa;stroke-width:0.16830075;stroke-linejoin:round;stroke-miterlimit:4;stroke-opacity:1;stroke-dasharray:none;stroke-dashoffset:1.1"
         sodipodi:type="arc" /><path
         transform="matrix(196.07756,0,0,-196.07756,-118863.05,71259.847)"
         d="m 640.06171,349.01477 a 21.33539,21.33539 0 1 1 -42.67078,0 21.33539,21.33539 0 1 1 42.67078,0 z"
         sodipodi:ry="21.33539"
         sodipodi:rx="21.33539"
         sodipodi:cy="349.01477"
         sodipodi:cx="618.72632"
         id="path7565"
         style="fill:none;stroke:#0088aa;stroke-width:0.15300068;stroke-linejoin:round;stroke-miterlimit:4;stroke-opacity:1;stroke-dasharray:none;stroke-dashoffset:1.1"
         sodipodi:type="arc" /><path
         style="fill:none;stroke:#000000;stroke-width:30;stroke-linecap:butt;stroke-linejoin:miter;stroke-opacity:1;stroke-miterlimit:4;stroke-dasharray:none"
         d="m 7229.8795,2821.1022 -9390.7923,0"
         id="path7580"
         inkscape:connector-curvature="0" /><path
         inkscape:connector-curvature="0"
         id="path7595"
         d="m 3540.3786,-1874.2935 4.2095,9390.7914"
         style="fill:none;stroke:#000000;stroke-width:30;stroke-linecap:butt;stroke-linejoin:miter;stroke-miterlimit:4;stroke-opacity:1;stroke-dasharray:none" /></g></g></svg>