<?xml version="1.0" encoding="UTF-8" standalone="no"?>
<!-- Created with Inkscape (http://www.inkscape.org/) -->

<svg
   xmlns:dc="http://purl.org/dc/elements/1.1/"
   xmlns:cc="http://creativecommons.org/ns#"
   xmlns:rdf="http://www.w3.org/1999/02/22-rdf-syntax-ns#"
   xmlns:svg="http://www.w3.org/2000/svg"
   xmlns="http://www.w3.org/2000/svg"
   xmlns:sodipodi="http://sodipodi.sourceforge.net/DTD/sodipodi-0.dtd"
   xmlns:inkscape="http://www.inkscape.org/namespaces/inkscape"
   id="svg2"
   version="1.1"
   inkscape:version="0.48.4 r9939"
   width="1321.25"
   height="1040"
   xml:space="preserve"
   sodipodi:docname="ch4vortex_motion_1.svg"><metadata
     id="metadata8"><rdf:RDF><cc:Work
         rdf:about=""><dc:format>image/svg+xml</dc:format><dc:type
           rdf:resource="http://purl.org/dc/dcmitype/StillImage" /><dc:title></dc:title></cc:Work></rdf:RDF></metadata><defs
     id="defs6"><clipPath
       clipPathUnits="userSpaceOnUse"
       id="clipPath18"><path
         d="m 0,18.8789 10560,0 0,8300 -10560,0 0,-8300 z"
         id="path20" /></clipPath></defs><sodipodi:namedview
     pagecolor="#ffffff"
     bordercolor="#666666"
     borderopacity="1"
     objecttolerance="10"
     gridtolerance="10"
     guidetolerance="10"
     inkscape:pageopacity="0"
     inkscape:pageshadow="2"
     inkscape:window-width="1920"
     inkscape:window-height="1055"
     id="namedview4"
     showgrid="false"
     inkscape:zoom="0.90769231"
     inkscape:cx="412.2709"
     inkscape:cy="571.45339"
     inkscape:window-x="1920"
     inkscape:window-y="0"
     inkscape:window-maximized="1"
     inkscape:current-layer="g16" /><g
     id="g10"
     inkscape:groupmode="layer"
     inkscape:label="ink_ext_XXXXXX"
     transform="matrix(1.25,0,0,-1.25,0,1040)"><g
       id="g12"
       transform="scale(0.1,0.1)"><g
         id="g14"><g
           id="g16"
           clip-path="url(#clipPath18)"><path
             d="m 5267.5,8318.96 0,-8438.956"
             style="fill:none;stroke:#000000;stroke-opacity:1;stroke-width:35.2075;stroke-linecap:butt;stroke-linejoin:miter;stroke-miterlimit:4;stroke-dasharray:70.4149,140.83;stroke-dashoffset:0"
             id="path22" /><path
             d="m 3564.84,4383.21 c 0,27.93 -23.36,50.54 -52.14,50.54 -28.79,0 -52.11,-22.61 -52.11,-50.54 0,-27.89 23.32,-50.5 52.11,-50.5 28.78,0 52.14,22.61 52.14,50.5"
             style="fill:#008000;fill-opacity:1;fill-rule:nonzero;stroke:none"
             id="path24" /><path
             d="m 7084.84,4383.21 c 0,27.93 -23.36,50.54 -52.14,50.54 -28.79,0 -52.11,-22.61 -52.11,-50.54 0,-27.89 23.32,-50.5 52.11,-50.5 28.78,0 52.14,22.61 52.14,50.5"
             style="fill:#ff0000;fill-opacity:1;fill-rule:nonzero;stroke:none"
             id="path26" /><path
             d="M 3021.29,4879.27 C 2855.98,4701.46 2787.3,4438.45 2863.67,4183.32 m 0,0 c 32.19,-107.61 86.76,-202.21 156.8,-280"
             style="fill:none;stroke:#008000;stroke-opacity:1;stroke-width:32;stroke-linecap:butt;stroke-linejoin:miter;stroke-miterlimit:4;stroke-dasharray:none"
             id="path28" /><path
             d="m 2963.98,4703.91 86.37,206.18 L 2851.02,4809 c 56.21,-6.5 101.68,-49.07 112.96,-105.09"
             style="fill:#008000;fill-opacity:1;fill-rule:evenodd;stroke:none"
             id="path30" /><path
             d="m 2963.98,4703.91 86.37,206.18 L 2851.02,4809 c 56.17,-6.5 101.68,-49.07 112.96,-105.09 z"
             style="fill:none;stroke:#008000;stroke-opacity:1;stroke-width:12;stroke-linecap:butt;stroke-linejoin:round;stroke-miterlimit:4;stroke-dasharray:none"
             id="path32" /><path
             d="m 3987.23,3884.66 c 165.31,177.8 233.94,440.82 157.57,695.93 m 0,0 c -32.22,107.62 -86.71,202.23 -156.75,280"
             style="fill:none;stroke:#008000;stroke-opacity:1;stroke-width:32;stroke-linecap:round;stroke-linejoin:miter;stroke-miterlimit:4;stroke-dasharray:none"
             id="path34" /><path
             d="m 4044.45,4059.96 -86.32,-206.12 199.33,101.09 c -56.17,6.48 -101.68,49.07 -113.01,105.03"
             style="fill:#008000;fill-opacity:1;fill-rule:evenodd;stroke:none"
             id="path36" /><path
             d="m 4044.49,4059.96 -86.33,-206.12 199.3,101.09 c -56.17,6.48 -101.68,49.07 -112.97,105.03 z"
             style="fill:none;stroke:#008000;stroke-opacity:1;stroke-width:12;stroke-linecap:butt;stroke-linejoin:round;stroke-miterlimit:4;stroke-dasharray:none"
             id="path38" /><path
             d="m 6538.91,3903.25 c -158.56,183.91 -217.23,449.3 -131.25,701.37 m 0,0 c 36.25,106.33 94.29,198.83 167.18,273.86"
             style="fill:none;stroke:#ff0000;stroke-opacity:1;stroke-width:32;stroke-linecap:round;stroke-linejoin:miter;stroke-miterlimit:4;stroke-dasharray:none"
             id="path40" /><path
             d="m 6370.9,3979.46 195.39,-108.51 -78.52,209.26 c -12.61,-55.12 -59.96,-95.67 -116.87,-100.75"
             style="fill:#ff0000;fill-opacity:1;fill-rule:evenodd;stroke:none"
             id="path42" /><path
             d="m 6370.9,3979.46 195.39,-108.51 -78.52,209.26 c -12.61,-55.12 -59.96,-95.67 -116.87,-100.75 z"
             style="fill:none;stroke:#ff0000;stroke-opacity:1;stroke-width:12;stroke-linecap:butt;stroke-linejoin:round;stroke-miterlimit:4;stroke-dasharray:none"
             id="path44" /><path
             d="m 7541.6,4860.68 c 158.56,-183.91 217.19,-449.3 131.25,-701.38 m 0,0 c -36.25,-106.32 -94.33,-198.82 -167.22,-273.87"
             style="fill:none;stroke:#ff0000;stroke-opacity:1;stroke-width:32;stroke-linecap:round;stroke-linejoin:miter;stroke-miterlimit:4;stroke-dasharray:none"
             id="path46" /><path
             d="m 7709.57,4784.46 -195.39,108.52 78.52,-209.27 c 12.61,55.13 59.96,95.68 116.87,100.75"
             style="fill:#ff0000;fill-opacity:1;fill-rule:evenodd;stroke:none"
             id="path48" /><path
             d="m 7709.57,4784.46 -195.39,108.52 78.52,-209.27 c 12.61,55.13 59.96,95.68 116.87,100.75 z"
             style="fill:none;stroke:#ff0000;stroke-opacity:1;stroke-width:12;stroke-linecap:butt;stroke-linejoin:round;stroke-miterlimit:4;stroke-dasharray:none"
             id="path50" /><path
             d="m 7032.34,3118.29 0,1244.57"
             style="fill:none;stroke:#008000;stroke-opacity:1;stroke-width:32;stroke-linecap:round;stroke-linejoin:miter;stroke-miterlimit:4;stroke-dasharray:none"
             id="path52" /><path
             d="m 7032.34,3044.46 64.07,110.7 -128.05,0"
             style="fill:#008000;fill-opacity:1;fill-rule:evenodd;stroke:none"
             id="path54" /><path
             d="m 7032.34,3044.46 64.07,110.7 -128.05,0 63.98,-110.7 z"
             style="fill:none;stroke:#008000;stroke-opacity:1;stroke-width:16;stroke-linecap:butt;stroke-linejoin:miter;stroke-miterlimit:4;stroke-dasharray:none"
             id="path56" /><path
             d="m 3512.34,3118.29 0,1244.57"
             style="fill:none;stroke:#ff0000;stroke-opacity:1;stroke-width:32;stroke-linecap:round;stroke-linejoin:miter;stroke-miterlimit:4;stroke-dasharray:none"
             id="path58" /><path
             d="m 3512.34,3044.46 64.07,110.7 -128.05,0"
             style="fill:#ff0000;fill-opacity:1;fill-rule:evenodd;stroke:none"
             id="path60" /><path
             d="m 3512.34,3044.46 64.07,110.7 -128.05,0 63.98,-110.7 z"
             style="fill:none;stroke:#ff0000;stroke-opacity:1;stroke-width:16;stroke-linecap:butt;stroke-linejoin:miter;stroke-miterlimit:4;stroke-dasharray:none"
             id="path62" /><path
             d="m 10563.8,4374.77 c 0,1944.11 -1576.1,3520.12 -3520.21,3520.12 -1944.1,0 -3520.11,-1576.01 -3520.11,-3520.12 0,-1944.09 1576.01,-3520.114 3520.11,-3520.114 1944.11,0 3520.21,1576.024 3520.21,3520.114 z"
             style="fill:none;stroke:#ff0000;stroke-opacity:1;stroke-width:7;stroke-linecap:butt;stroke-linejoin:round;stroke-miterlimit:4;stroke-dasharray:7,28;stroke-dashoffset:0"
             id="path64" /><path
             d="m 9590.55,4374.77 c 0,1406.61 -1140.35,2546.91 -2546.96,2546.91 -1406.64,0 -2546.91,-1140.3 -2546.91,-2546.91 0,-1406.63 1140.27,-2546.91 2546.91,-2546.91 1406.61,0 2546.96,1140.28 2546.96,2546.91 z"
             style="fill:none;stroke:#ff0000;stroke-opacity:1;stroke-width:7;stroke-linecap:butt;stroke-linejoin:round;stroke-miterlimit:4;stroke-dasharray:7,28;stroke-dashoffset:0"
             id="path66" /><path
             d="m 8540,4374.77 c 0,826.44 -669.96,1496.41 -1496.41,1496.41 -826.44,0 -1496.36,-669.97 -1496.36,-1496.41 0,-826.45 669.92,-1496.41 1496.36,-1496.41 826.45,0 1496.41,669.96 1496.41,1496.41 z"
             style="fill:none;stroke:#ff0000;stroke-opacity:1;stroke-width:7;stroke-linecap:butt;stroke-linejoin:round;stroke-miterlimit:4;stroke-dasharray:7,28;stroke-dashoffset:0"
             id="path68" /><path
             d="m 7043.71,4374.77 c 0,1944.11 -1576.01,3520.12 -3520.12,3520.12 C 1579.49,7894.89 3.48047,6318.88 3.48047,4374.77 3.48047,2430.68 1579.49,854.656 3523.59,854.656 c 1944.11,0 3520.12,1576.024 3520.12,3520.114 z"
             style="fill:none;stroke:#008000;stroke-opacity:1;stroke-width:7;stroke-linecap:butt;stroke-linejoin:round;stroke-miterlimit:4;stroke-dasharray:7,28;stroke-dashoffset:0"
             id="path70" /><path
             d="m 6070.55,4374.77 c 0,1406.61 -1140.35,2546.91 -2546.96,2546.91 -1406.64,0 -2546.871,-1140.3 -2546.871,-2546.91 0,-1406.63 1140.231,-2546.91 2546.871,-2546.91 1406.61,0 2546.96,1140.28 2546.96,2546.91 z"
             style="fill:none;stroke:#008000;stroke-opacity:1;stroke-width:7;stroke-linecap:butt;stroke-linejoin:round;stroke-miterlimit:4;stroke-dasharray:7,28;stroke-dashoffset:0"
             id="path72" /><path
             d="m 5020,4374.77 c 0,826.44 -669.96,1496.41 -1496.41,1496.41 -826.44,0 -1496.36,-669.97 -1496.36,-1496.41 0,-826.45 669.92,-1496.41 1496.36,-1496.41 826.45,0 1496.41,669.96 1496.41,1496.41 z"
             style="fill:none;stroke:#008000;stroke-opacity:1;stroke-width:7;stroke-linecap:butt;stroke-linejoin:round;stroke-miterlimit:4;stroke-dasharray:7,28;stroke-dashoffset:0"
             id="path74" /><path
             d="m 3650.63,5721.54 45.23,-255.29 196.8,151.57"
             style="fill:none;stroke:#ff0000;stroke-opacity:1;stroke-width:8;stroke-linecap:butt;stroke-linejoin:miter;stroke-miterlimit:4;stroke-dasharray:8,16;stroke-dashoffset:0"
             id="path76" /><path
             d="m 5893.91,919.426 255.23,45.187 -151.56,196.797"
             style="fill:none;stroke:#ff0000;stroke-opacity:1;stroke-width:8;stroke-linecap:butt;stroke-linejoin:miter;stroke-miterlimit:4;stroke-dasharray:8,16;stroke-dashoffset:0"
             id="path78" /><path
             d="m 10438.6,3030.32 -45.3,255.32 -196.8,-151.6"
             style="fill:none;stroke:#ff0000;stroke-opacity:1;stroke-width:8;stroke-linecap:butt;stroke-linejoin:miter;stroke-miterlimit:4;stroke-dasharray:8,16;stroke-dashoffset:0"
             id="path80" /><path
             d="m 8387.27,7767.86 -255.32,-45.2 151.6,-196.79"
             style="fill:none;stroke:#ff0000;stroke-opacity:1;stroke-width:8;stroke-linecap:butt;stroke-linejoin:miter;stroke-miterlimit:4;stroke-dasharray:8,16;stroke-dashoffset:0"
             id="path82" /><path
             d="m 6962.38,5577.79 -45.15,-255.29 -196.84,151.57"
             style="fill:none;stroke:#008000;stroke-opacity:1;stroke-width:8;stroke-linecap:butt;stroke-linejoin:miter;stroke-miterlimit:4;stroke-dasharray:8,16;stroke-dashoffset:0"
             id="path84" /><path
             d="m 2338.16,7817.89 255.32,-45.23 -151.6,-196.75"
             style="fill:none;stroke:#008000;stroke-opacity:1;stroke-width:8;stroke-linecap:butt;stroke-linejoin:miter;stroke-miterlimit:4;stroke-dasharray:8,16;stroke-dashoffset:0"
             id="path86" /><path
             d="M 78.1289,3188.36 123.32,3443.64 320.121,3292.07"
             style="fill:none;stroke:#008000;stroke-opacity:1;stroke-width:8;stroke-linecap:butt;stroke-linejoin:miter;stroke-miterlimit:4;stroke-dasharray:8,16;stroke-dashoffset:0"
             id="path88" /><path
             d="m 4740.08,941.965 -255.31,45.191 151.64,196.804"
             style="fill:none;stroke:#008000;stroke-opacity:1;stroke-width:8;stroke-linecap:butt;stroke-linejoin:miter;stroke-miterlimit:4;stroke-dasharray:8,16;stroke-dashoffset:0"
             id="path90" /><text
             xml:space="preserve"
             style="font-size:40px;font-style:normal;font-weight:normal;line-height:125%;letter-spacing:0px;word-spacing:0px;fill:#000000;fill-opacity:1;stroke:none;font-family:Sans"
             x="-447.28815"
             y="423.05084"
             id="text3073"
             sodipodi:linespacing="125%"
             transform="matrix(8,0,0,-8,0,8320)"><tspan
               sodipodi:role="line"
               id="tspan3075"></tspan></text>
<text
             xml:space="preserve"
             style="font-size:320px;font-style:normal;font-weight:normal;line-height:125%;letter-spacing:0px;word-spacing:0px;fill:#000000;fill-opacity:1;stroke:none;font-family:Sans"
             x="3315.2588"
             y="-4556.4648"
             id="text3046"
             sodipodi:linespacing="125%"
             transform="scale(1,-1)"><tspan
               sodipodi:role="line"
               id="tspan3048"
               x="3315.2588"
               y="-4556.4648">$-d$</tspan></text>
<text
             transform="scale(1,-1)"
             sodipodi:linespacing="125%"
             id="text3086"
             y="-4556.4648"
             x="6888.1396"
             style="font-size:320px;font-style:normal;font-weight:normal;line-height:125%;letter-spacing:0px;word-spacing:0px;fill:#000000;fill-opacity:1;stroke:none;font-family:Sans"
             xml:space="preserve"><tspan
               y="-4556.4648"
               x="6888.1396"
               id="tspan3088"
               sodipodi:role="line">$d$</tspan></text>
</g></g></g></g></svg>