<?xml version="1.0" encoding="UTF-8" standalone="no"?>
<!-- Created with Inkscape (http://www.inkscape.org/) -->

<svg
   xmlns:dc="http://purl.org/dc/elements/1.1/"
   xmlns:cc="http://creativecommons.org/ns#"
   xmlns:rdf="http://www.w3.org/1999/02/22-rdf-syntax-ns#"
   xmlns:svg="http://www.w3.org/2000/svg"
   xmlns="http://www.w3.org/2000/svg"
   xmlns:sodipodi="http://sodipodi.sourceforge.net/DTD/sodipodi-0.dtd"
   xmlns:inkscape="http://www.inkscape.org/namespaces/inkscape"
   id="svg2"
   version="1.1"
   inkscape:version="0.48.4 r9939"
   width="675"
   height="450"
   xml:space="preserve"
   sodipodi:docname="ch5twoboundariesplot.svg"><metadata
     id="metadata8"><rdf:RDF><cc:Work
         rdf:about=""><dc:format>image/svg+xml</dc:format><dc:type
           rdf:resource="http://purl.org/dc/dcmitype/StillImage" /><dc:title></dc:title></cc:Work></rdf:RDF></metadata><defs
     id="defs6"><clipPath
       clipPathUnits="userSpaceOnUse"
       id="clipPath22"><path
         d="m 675.195,360.246 4185,0 0,2880 -4185,0 0,-2880 z"
         id="path24" /></clipPath><clipPath
       clipPathUnits="userSpaceOnUse"
       id="clipPath40"><path
         d="m 675.195,360.246 4185,0 0,2880 -4185,0 0,-2880 z"
         id="path42" /></clipPath><clipPath
       clipPathUnits="userSpaceOnUse"
       id="clipPath58"><path
         d="m 675.195,360.246 4185,0 0,2880 -4185,0 0,-2880 z"
         id="path60" /></clipPath><clipPath
       clipPathUnits="userSpaceOnUse"
       id="clipPath76"><path
         d="m 675.195,360.246 4185,0 0,2880 -4185,0 0,-2880 z"
         id="path78" /></clipPath><clipPath
       clipPathUnits="userSpaceOnUse"
       id="clipPath94"><path
         d="m 675.195,360.246 4185,0 0,2880 -4185,0 0,-2880 z"
         id="path96" /></clipPath><clipPath
       clipPathUnits="userSpaceOnUse"
       id="clipPath112"><path
         d="m 675.195,360.246 4185,0 0,2880 -4185,0 0,-2880 z"
         id="path114" /></clipPath><clipPath
       clipPathUnits="userSpaceOnUse"
       id="clipPath130"><path
         d="m 675.195,360.246 4185,0 0,2880 -4185,0 0,-2880 z"
         id="path132" /></clipPath><clipPath
       clipPathUnits="userSpaceOnUse"
       id="clipPath148"><path
         d="m 675.195,360.246 4185,0 0,2880 -4185,0 0,-2880 z"
         id="path150" /></clipPath><clipPath
       clipPathUnits="userSpaceOnUse"
       id="clipPath166"><path
         d="m 675.195,360.246 4185,0 0,2880 -4185,0 0,-2880 z"
         id="path168" /></clipPath><clipPath
       clipPathUnits="userSpaceOnUse"
       id="clipPath184"><path
         d="m 675.195,360.246 4185,0 0,2880 -4185,0 0,-2880 z"
         id="path186" /></clipPath><clipPath
       clipPathUnits="userSpaceOnUse"
       id="clipPath202"><path
         d="m 675.195,360.246 4185,0 0,2880 -4185,0 0,-2880 z"
         id="path204" /></clipPath><clipPath
       clipPathUnits="userSpaceOnUse"
       id="clipPath220"><path
         d="m 675.195,360.246 4185,0 0,2880 -4185,0 0,-2880 z"
         id="path222" /></clipPath><clipPath
       clipPathUnits="userSpaceOnUse"
       id="clipPath256"><path
         d="m 720.195,2880.24 0,0 0,0 0,0 z"
         id="path258" /></clipPath></defs><sodipodi:namedview
     pagecolor="#ffffff"
     bordercolor="#666666"
     borderopacity="1"
     objecttolerance="10"
     gridtolerance="10"
     guidetolerance="10"
     inkscape:pageopacity="0"
     inkscape:pageshadow="2"
     inkscape:window-width="1920"
     inkscape:window-height="1055"
     id="namedview4"
     showgrid="false"
     inkscape:zoom="1.3911671"
     inkscape:cx="578.0503"
     inkscape:cy="155.4951"
     inkscape:window-x="1920"
     inkscape:window-y="0"
     inkscape:window-maximized="1"
     inkscape:current-layer="g12" /><g
     id="g10"
     inkscape:groupmode="layer"
     inkscape:label="ink_ext_XXXXXX"
     transform="matrix(1.25,0,0,-1.25,0,450)"><g
       id="g12"
       transform="scale(0.1,0.1)"><path
         d="m 0.195313,0.246094 5400.009987,0 0,3600.000006 -5400.009987,0 0,-3600.000006 z"
         style="fill:#ffffff;fill-opacity:1;fill-rule:nonzero;stroke:none"
         id="path14" /><path
         d="m 675.195,360.246 4185,0 0,2880 -4185,0 0,-2880 z"
         style="fill:#e5e5e5;fill-opacity:1;fill-rule:nonzero;stroke:none"
         id="path16" /><g
         id="g18"><g
           id="g20"
           clip-path="url(#clipPath22)"><path
             d="m 696.016,360.246 0,2880.004"
             style="fill:none;stroke:#ffffff;stroke-opacity:1;stroke-width:5;stroke-linecap:square;stroke-linejoin:round;stroke-miterlimit:10;stroke-dasharray:none"
             id="path26" /></g></g><path
         d="m 696.016,360.246 0,-40"
         style="fill:#555555;fill-opacity:1;fill-rule:nonzero;stroke:none"
         id="path28" /><path
         d="m 696.016,360.246 0,-40"
         style="fill:none;stroke:#555555;stroke-opacity:1;stroke-width:5;stroke-linecap:butt;stroke-linejoin:round;stroke-miterlimit:10;stroke-dasharray:none"
         id="path30" /><path
         d="m 696.016,3240.25 0,40"
         style="fill:#555555;fill-opacity:1;fill-rule:nonzero;stroke:none"
         id="path32" /><path
         d="m 696.016,3240.25 0,40"
         style="fill:none;stroke:#555555;stroke-opacity:1;stroke-width:5;stroke-linecap:butt;stroke-linejoin:round;stroke-miterlimit:10;stroke-dasharray:none"
         id="path34" /><g
         id="g36"><g
           id="g38"
           clip-path="url(#clipPath40)"><path
             d="m 1528.86,360.246 0,2880.004"
             style="fill:none;stroke:#ffffff;stroke-opacity:1;stroke-width:5;stroke-linecap:square;stroke-linejoin:round;stroke-miterlimit:10;stroke-dasharray:none"
             id="path44" /></g></g><path
         d="m 1528.86,360.246 0,-40"
         style="fill:#555555;fill-opacity:1;fill-rule:nonzero;stroke:none"
         id="path46" /><path
         d="m 1528.86,360.246 0,-40"
         style="fill:none;stroke:#555555;stroke-opacity:1;stroke-width:5;stroke-linecap:butt;stroke-linejoin:round;stroke-miterlimit:10;stroke-dasharray:none"
         id="path48" /><path
         d="m 1528.86,3240.25 0,40"
         style="fill:#555555;fill-opacity:1;fill-rule:nonzero;stroke:none"
         id="path50" /><path
         d="m 1528.86,3240.25 0,40"
         style="fill:none;stroke:#555555;stroke-opacity:1;stroke-width:5;stroke-linecap:butt;stroke-linejoin:round;stroke-miterlimit:10;stroke-dasharray:none"
         id="path52" /><g
         id="g54"><g
           id="g56"
           clip-path="url(#clipPath58)"><path
             d="m 2361.69,360.246 0,2880.004"
             style="fill:none;stroke:#ffffff;stroke-opacity:1;stroke-width:5;stroke-linecap:square;stroke-linejoin:round;stroke-miterlimit:10;stroke-dasharray:none"
             id="path62" /></g></g><path
         d="m 2361.69,360.246 0,-40"
         style="fill:#555555;fill-opacity:1;fill-rule:nonzero;stroke:none"
         id="path64" /><path
         d="m 2361.69,360.246 0,-40"
         style="fill:none;stroke:#555555;stroke-opacity:1;stroke-width:5;stroke-linecap:butt;stroke-linejoin:round;stroke-miterlimit:10;stroke-dasharray:none"
         id="path66" /><path
         d="m 2361.69,3240.25 0,40"
         style="fill:#555555;fill-opacity:1;fill-rule:nonzero;stroke:none"
         id="path68" /><path
         d="m 2361.69,3240.25 0,40"
         style="fill:none;stroke:#555555;stroke-opacity:1;stroke-width:5;stroke-linecap:butt;stroke-linejoin:round;stroke-miterlimit:10;stroke-dasharray:none"
         id="path70" /><g
         id="g72"><g
           id="g74"
           clip-path="url(#clipPath76)"><path
             d="m 3194.52,360.246 0,2880.004"
             style="fill:none;stroke:#ffffff;stroke-opacity:1;stroke-width:5;stroke-linecap:square;stroke-linejoin:round;stroke-miterlimit:10;stroke-dasharray:none"
             id="path80" /></g></g><path
         d="m 3194.52,360.246 0,-40"
         style="fill:#555555;fill-opacity:1;fill-rule:nonzero;stroke:none"
         id="path82" /><path
         d="m 3194.52,360.246 0,-40"
         style="fill:none;stroke:#555555;stroke-opacity:1;stroke-width:5;stroke-linecap:butt;stroke-linejoin:round;stroke-miterlimit:10;stroke-dasharray:none"
         id="path84" /><path
         d="m 3194.52,3240.25 0,40"
         style="fill:#555555;fill-opacity:1;fill-rule:nonzero;stroke:none"
         id="path86" /><path
         d="m 3194.52,3240.25 0,40"
         style="fill:none;stroke:#555555;stroke-opacity:1;stroke-width:5;stroke-linecap:butt;stroke-linejoin:round;stroke-miterlimit:10;stroke-dasharray:none"
         id="path88" /><g
         id="g90"><g
           id="g92"
           clip-path="url(#clipPath94)"><path
             d="m 4027.35,360.246 0,2880.004"
             style="fill:none;stroke:#ffffff;stroke-opacity:1;stroke-width:5;stroke-linecap:square;stroke-linejoin:round;stroke-miterlimit:10;stroke-dasharray:none"
             id="path98" /></g></g><path
         d="m 4027.35,360.246 0,-40"
         style="fill:#555555;fill-opacity:1;fill-rule:nonzero;stroke:none"
         id="path100" /><path
         d="m 4027.35,360.246 0,-40"
         style="fill:none;stroke:#555555;stroke-opacity:1;stroke-width:5;stroke-linecap:butt;stroke-linejoin:round;stroke-miterlimit:10;stroke-dasharray:none"
         id="path102" /><path
         d="m 4027.35,3240.25 0,40"
         style="fill:#555555;fill-opacity:1;fill-rule:nonzero;stroke:none"
         id="path104" /><path
         d="m 4027.35,3240.25 0,40"
         style="fill:none;stroke:#555555;stroke-opacity:1;stroke-width:5;stroke-linecap:butt;stroke-linejoin:round;stroke-miterlimit:10;stroke-dasharray:none"
         id="path106" /><g
         id="g108"><g
           id="g110"
           clip-path="url(#clipPath112)"><path
             d="m 4860.2,360.246 0,2880.004"
             style="fill:none;stroke:#ffffff;stroke-opacity:1;stroke-width:5;stroke-linecap:square;stroke-linejoin:round;stroke-miterlimit:10;stroke-dasharray:none"
             id="path116" /></g></g><path
         d="m 4860.2,360.246 0,-40"
         style="fill:#555555;fill-opacity:1;fill-rule:nonzero;stroke:none"
         id="path118" /><path
         d="m 4860.2,360.246 0,-40"
         style="fill:none;stroke:#555555;stroke-opacity:1;stroke-width:5;stroke-linecap:butt;stroke-linejoin:round;stroke-miterlimit:10;stroke-dasharray:none"
         id="path120" /><path
         d="m 4860.2,3240.25 0,40"
         style="fill:#555555;fill-opacity:1;fill-rule:nonzero;stroke:none"
         id="path122" /><path
         d="m 4860.2,3240.25 0,40"
         style="fill:none;stroke:#555555;stroke-opacity:1;stroke-width:5;stroke-linecap:butt;stroke-linejoin:round;stroke-miterlimit:10;stroke-dasharray:none"
         id="path124" /><g
         id="g126"><g
           id="g128"
           clip-path="url(#clipPath130)"><path
             d="m 675.195,360.246 4185.005,0"
             style="fill:none;stroke:#ffffff;stroke-opacity:1;stroke-width:5;stroke-linecap:square;stroke-linejoin:round;stroke-miterlimit:10;stroke-dasharray:none"
             id="path134" /></g></g><path
         d="m 675.195,360.246 -39.996,0"
         style="fill:#555555;fill-opacity:1;fill-rule:nonzero;stroke:none"
         id="path136" /><path
         d="m 675.195,360.246 -39.996,0"
         style="fill:none;stroke:#555555;stroke-opacity:1;stroke-width:5;stroke-linecap:butt;stroke-linejoin:round;stroke-miterlimit:10;stroke-dasharray:none"
         id="path138" /><path
         d="m 4860.2,360.246 40,0"
         style="fill:#555555;fill-opacity:1;fill-rule:nonzero;stroke:none"
         id="path140" /><path
         d="m 4860.2,360.246 40,0"
         style="fill:none;stroke:#555555;stroke-opacity:1;stroke-width:5;stroke-linecap:butt;stroke-linejoin:round;stroke-miterlimit:10;stroke-dasharray:none"
         id="path142" /><g
         id="g144"><g
           id="g146"
           clip-path="url(#clipPath148)"><path
             d="m 675.195,1080.25 4185.005,0"
             style="fill:none;stroke:#ffffff;stroke-opacity:1;stroke-width:5;stroke-linecap:square;stroke-linejoin:round;stroke-miterlimit:10;stroke-dasharray:none"
             id="path152" /></g></g><path
         d="m 675.195,1080.25 -39.996,0"
         style="fill:#555555;fill-opacity:1;fill-rule:nonzero;stroke:none"
         id="path154" /><path
         d="m 675.195,1080.25 -39.996,0"
         style="fill:none;stroke:#555555;stroke-opacity:1;stroke-width:5;stroke-linecap:butt;stroke-linejoin:round;stroke-miterlimit:10;stroke-dasharray:none"
         id="path156" /><path
         d="m 4860.2,1080.25 40,0"
         style="fill:#555555;fill-opacity:1;fill-rule:nonzero;stroke:none"
         id="path158" /><path
         d="m 4860.2,1080.25 40,0"
         style="fill:none;stroke:#555555;stroke-opacity:1;stroke-width:5;stroke-linecap:butt;stroke-linejoin:round;stroke-miterlimit:10;stroke-dasharray:none"
         id="path160" /><g
         id="g162"><g
           id="g164"
           clip-path="url(#clipPath166)"><path
             d="m 675.195,1800.24 4185.005,0"
             style="fill:none;stroke:#ffffff;stroke-opacity:1;stroke-width:5;stroke-linecap:square;stroke-linejoin:round;stroke-miterlimit:10;stroke-dasharray:none"
             id="path170" /></g></g><path
         d="m 675.195,1800.24 -39.996,0"
         style="fill:#555555;fill-opacity:1;fill-rule:nonzero;stroke:none"
         id="path172" /><path
         d="m 675.195,1800.24 -39.996,0"
         style="fill:none;stroke:#555555;stroke-opacity:1;stroke-width:5;stroke-linecap:butt;stroke-linejoin:round;stroke-miterlimit:10;stroke-dasharray:none"
         id="path174" /><path
         d="m 4860.2,1800.24 40,0"
         style="fill:#555555;fill-opacity:1;fill-rule:nonzero;stroke:none"
         id="path176" /><path
         d="m 4860.2,1800.24 40,0"
         style="fill:none;stroke:#555555;stroke-opacity:1;stroke-width:5;stroke-linecap:butt;stroke-linejoin:round;stroke-miterlimit:10;stroke-dasharray:none"
         id="path178" /><g
         id="g180"><g
           id="g182"
           clip-path="url(#clipPath184)"><path
             d="m 675.195,2520.24 4185.005,0"
             style="fill:none;stroke:#ffffff;stroke-opacity:1;stroke-width:5;stroke-linecap:square;stroke-linejoin:round;stroke-miterlimit:10;stroke-dasharray:none"
             id="path188" /></g></g><path
         d="m 675.195,2520.24 -39.996,0"
         style="fill:#555555;fill-opacity:1;fill-rule:nonzero;stroke:none"
         id="path190" /><path
         d="m 675.195,2520.24 -39.996,0"
         style="fill:none;stroke:#555555;stroke-opacity:1;stroke-width:5;stroke-linecap:butt;stroke-linejoin:round;stroke-miterlimit:10;stroke-dasharray:none"
         id="path192" /><path
         d="m 4860.2,2520.24 40,0"
         style="fill:#555555;fill-opacity:1;fill-rule:nonzero;stroke:none"
         id="path194" /><path
         d="m 4860.2,2520.24 40,0"
         style="fill:none;stroke:#555555;stroke-opacity:1;stroke-width:5;stroke-linecap:butt;stroke-linejoin:round;stroke-miterlimit:10;stroke-dasharray:none"
         id="path196" /><g
         id="g198"><g
           id="g200"
           clip-path="url(#clipPath202)"><path
             d="m 675.195,3240.25 4185.005,0"
             style="fill:none;stroke:#ffffff;stroke-opacity:1;stroke-width:5;stroke-linecap:square;stroke-linejoin:round;stroke-miterlimit:10;stroke-dasharray:none"
             id="path206" /></g></g><path
         d="m 675.195,3240.25 -39.996,0"
         style="fill:#555555;fill-opacity:1;fill-rule:nonzero;stroke:none"
         id="path208" /><path
         d="m 675.195,3240.25 -39.996,0"
         style="fill:none;stroke:#555555;stroke-opacity:1;stroke-width:5;stroke-linecap:butt;stroke-linejoin:round;stroke-miterlimit:10;stroke-dasharray:none"
         id="path210" /><path
         d="m 4860.2,3240.25 40,0"
         style="fill:#555555;fill-opacity:1;fill-rule:nonzero;stroke:none"
         id="path212" /><path
         d="m 4860.2,3240.25 40,0"
         style="fill:none;stroke:#555555;stroke-opacity:1;stroke-width:5;stroke-linecap:butt;stroke-linejoin:round;stroke-miterlimit:10;stroke-dasharray:none"
         id="path214" /><g
         id="g216"><g
           id="g218"
           clip-path="url(#clipPath220)"><path
             d="m 4860.2,360.246 -739.33,29.09 -703.18,29.094 -636.08,29.09 -547.24,29.089 -447.8,29.09 -348.52,29.09 -257.96,29.09 -181.598,29.094 -121.597,29.09 -77.438,29.089 -46.906,29.094 -27.016,29.086 -14.805,29.094 -7.714,29.09 -3.821,29.093 -1.804,29.09 -0.805,29.09 -0.344,29.094 -0.14,29.086 -0.055,29.094 -0.02,29.089 -0.007,29.098 -0.004,29.09 0,2210.91"
             style="fill:none;stroke:#e24a33;stroke-opacity:1;stroke-width:20;stroke-linecap:square;stroke-linejoin:round;stroke-miterlimit:10;stroke-dasharray:none"
             id="path224" /><path
             d="m 4860.2,360.246 -235.56,29.09 -234.39,29.094 -232.02,29.09 -228.57,29.089 -223.99,29.09 -218.44,29.09 -211.94,29.09 -204.59,29.094 -196.52,29.09 -187.83,29.089 -178.6,29.094 -168.99,29.086 -159.07,29.094 -149.01,29.09 -138.86,29.093 -128.78,29.09 -118.81,29.09 -109.05,29.094 -99.63,29.086 -90.53,29.094 -81.86,29.089 -73.66,29.098 -65.93,29.09 -58.72,29.08 -52.05,29.1 -45.898,29.09 -40.261,29.09 -35.149,29.09 -30.523,29.09 -26.383,29.09 -22.688,29.1 -19.406,29.08 -16.523,29.09 -13.985,29.1 -11.796,29.09 -9.887,29.08 -8.25,29.09 -6.844,29.1 -5.66,29.1 -4.641,29.08 -3.801,29.1 -3.093,29.09 -2.5,29.09 -2.02,29.08 -1.613,29.09 -1.293,29.1 -1.02,29.09 -0.804,29.08 -0.629,29.09 -0.5,29.11 -0.383,29.09 -0.297,29.08 -0.23,29.09 -0.172,29.1 -0.137,29.09 -0.101,29.08 -0.079,29.09 -0.058,29.09 -0.043,29.1 -0.031,29.08 -0.024,29.1 -0.015,29.1 -0.016,29.09 -0.004,29.08 -0.012,29.09 -0.004,29.1 0,58.17 -0.007,29.1 0,58.18 -0.004,29.09 0,785.46"
             style="fill:none;stroke:#348abd;stroke-opacity:1;stroke-width:20;stroke-linecap:square;stroke-linejoin:round;stroke-miterlimit:10;stroke-dasharray:none"
             id="path226" /><path
             d="m 4860.2,360.246 -74.57,29.09 -74.5,29.094 -74.45,29.09 -74.34,29.089 -74.18,29.09 -73.98,29.09 -73.79,29.09 -73.5,29.094 -73.23,29.09 -72.89,29.089 -72.51,29.094 -72.12,29.086 -71.71,29.094 -71.22,29.09 -70.71,29.093 -70.21,29.09 -69.62,29.09 -69.04,29.094 -68.43,29.086 -67.78,29.094 -67.08,29.089 -66.39,29.098 -65.67,29.09 -64.92,29.08 -64.13,29.1 -63.33,29.09 -62.52,29.09 -61.69,29.09 -60.81,29.09 -59.95,29.09 -59.04,29.1 -58.15,29.08 -57.21,29.09 -56.3,29.1 -55.34,29.09 -54.37,29.08 -53.43,29.09 -52.43,29.1 -51.46,29.1 -50.46,29.08 -49.49,29.1 -48.47,29.09 -47.49,29.09 -46.49,29.08 -45.48,29.09 -44.48,29.1 -43.48,29.09 -42.5,29.08 -41.5,29.09 -40.54,29.11 -39.53,29.09 -38.58,29.08 -37.61,29.09 -36.65,29.1 -35.72,29.09 -34.78,29.08 -33.86,29.09 -32.95,29.09 -32.05,29.1 -31.18,29.08 -30.32,29.1 -29.45,29.1 -28.62,29.09 -27.79,29.08 -27,29.09 -26.21,29.1 -25.45,29.09 -24.7,29.08 -23.98,29.1 -23.27,29.09 -22.58,29.09 -21.91,29.09 -21.27,29.09 -20.63,29.09 -20.05,29.1 -19.45,29.08 -18.9,29.09 -18.369,29.1 -17.848,29.09 -17.363,29.08 -16.895,29.09 -16.449,29.1 -16.035,29.1 -15.633,29.08 -15.269,29.09 -14.914,29.09 -14.602,29.1 -14.293,29.08 -14.023,29.09 -13.778,29.1 -13.543,29.09 -13.351,29.08 -13.176,29.09 -13.027,29.1 -12.903,29.1 -12.793,29.08 -12.726,29.09 -12.676,29.09 -12.648,29.1"
             style="fill:none;stroke:#988ed5;stroke-opacity:1;stroke-width:20;stroke-linecap:square;stroke-linejoin:round;stroke-miterlimit:10;stroke-dasharray:none"
             id="path228" /><path
             d="m 4860.2,360.246 -42.07,29.09 -42.06,29.094 -42.07,29.09 -42.06,29.089 -42.05,29.09 -42.07,29.09 -42.06,29.09 -42.06,29.094 -42.07,29.09 -42.06,29.089 -42.07,29.094 -42.06,29.086 -42.05,29.094 -42.07,29.09 -42.07,29.093 -42.05,29.09 -42.07,29.09 -42.05,29.094 -42.08,29.086 -42.06,29.094 -42.05,29.089 -42.07,29.098 -42.06,29.09 -42.06,29.08 -42.07,29.1 -42.06,29.09 -42.07,29.09 -42.06,29.09 -42.05,29.09 -42.07,29.09 -42.05,29.1 -42.07,29.08 -42.07,29.09 -42.05,29.1 -42.06,29.09 -42.07,29.08 -42.06,29.09 -42.07,29.1 -42.05,29.1 -42.07,29.08 -42.07,29.1 -42.05,29.09 -42.06,29.09 -42.07,29.08 -42.06,29.09 -42.07,29.1 -42.05,29.09 -42.07,29.08 -42.06,29.09 -42.06,29.11 -42.06,29.09 -42.07,29.08 -42.06,29.09 -42.07,29.1 -42.06,29.09 -42.06,29.08 -42.07,29.09 -42.05,29.09 -42.06,29.1 -42.07,29.08 -42.06,29.1 -42.07,29.1 -42.05,29.09 -42.06,29.08 -42.08,29.09 -42.05,29.1 -42.06,29.09 -42.07,29.08 -42.06,29.1 -42.07,29.09 -42.05,29.09 -42.06,29.09 -42.08,29.09 -42.05,29.09 -42.06,29.1 -42.06,29.08 -42.07,29.09 -42.07,29.1 -42.05,29.09 -42.06,29.08 -42.07,29.09 -42.06,29.1 -42.06,29.1 -42.07,29.08 -42.06,29.09 -42.07,29.09 -42.05,29.1 -42.06,29.08 -42.07,29.09 -42.06,29.1 -42.06,29.09 -42.067,29.08 -42.062,29.09 -42.063,29.1 -42.062,29.1 -42.059,29.08 -42.062,29.09 -42.063,29.09 -42.066,29.1"
             style="fill:none;stroke:#777777;stroke-opacity:1;stroke-width:20;stroke-linecap:square;stroke-linejoin:round;stroke-miterlimit:10;stroke-dasharray:none"
             id="path230" /></g></g><path
         d="m 675.195,3240.25 4185.005,0"
         style="fill:none;stroke:#ffffff;stroke-opacity:1;stroke-width:9.99998;stroke-linecap:butt;stroke-linejoin:round;stroke-miterlimit:10;stroke-dasharray:none"
         id="path232" /><path
         d="m 4860.2,360.246 0,2880.004"
         style="fill:none;stroke:#ffffff;stroke-opacity:1;stroke-width:9.99998;stroke-linecap:butt;stroke-linejoin:round;stroke-miterlimit:10;stroke-dasharray:none"
         id="path234" /><path
         d="m 675.195,360.246 4185.005,0"
         style="fill:none;stroke:#ffffff;stroke-opacity:1;stroke-width:9.99998;stroke-linecap:butt;stroke-linejoin:round;stroke-miterlimit:10;stroke-dasharray:none"
         id="path236" /><path
         d="m 675.195,360.246 0,2880.004"
         style="fill:none;stroke:#ffffff;stroke-opacity:1;stroke-width:9.99998;stroke-linecap:butt;stroke-linejoin:round;stroke-miterlimit:10;stroke-dasharray:none"
         id="path238" /><path
         d="m 3580.99,2202.2 1088.56,0 0,751.301 -1088.56,0 0,-751.301 z"
         style="fill:#e5e5e5;fill-opacity:1;fill-rule:nonzero;stroke:none"
         id="path240" /><path
         d="m 3580.99,2202.2 1088.56,0 0,751.301 -1088.56,0 0,-751.301 z"
         style="fill:none;stroke:#ffffff;stroke-opacity:1;stroke-width:5;stroke-linecap:butt;stroke-linejoin:round;stroke-miterlimit:10;stroke-dasharray:none"
         id="path242" /><path
         d="m 3664.99,2851.5 168,0"
         style="fill:none;stroke:#e24a33;stroke-opacity:1;stroke-width:20;stroke-linecap:square;stroke-linejoin:round;stroke-miterlimit:10;stroke-dasharray:none"
         id="path244" /><path
         d="m 3664.99,2669.66 168,0"
         style="fill:none;stroke:#348abd;stroke-opacity:1;stroke-width:20;stroke-linecap:square;stroke-linejoin:round;stroke-miterlimit:10;stroke-dasharray:none"
         id="path246" /><path
         d="m 3664.99,2487.84 168,0"
         style="fill:none;stroke:#988ed5;stroke-opacity:1;stroke-width:20;stroke-linecap:square;stroke-linejoin:round;stroke-miterlimit:10;stroke-dasharray:none"
         id="path248" /><path
         d="m 3664.99,2318.02 168,0"
         style="fill:none;stroke:#777777;stroke-opacity:1;stroke-width:20;stroke-linecap:square;stroke-linejoin:round;stroke-miterlimit:10;stroke-dasharray:none"
         id="path250" /><g
         id="g252"><g
           id="g254"
           clip-path="url(#clipPath256)"><g
             id="g260"
             transform="matrix(822,0,0,-5.99998,-821.925,1363.32)"><rect
               x="0"
               y="0"
               width="1"
               height="1"
               transform="matrix(1,0,0,-1,0,1)"
               style="fill:#231f20;fill-opacity:1;fill-rule:nonzero"
               id="rect262" /></g></g></g><g
         id="g264"
         transform="scale(10,10)"><text
           transform="matrix(1,0,0,-1,67.1105,21.3004)"
           id="text266"><tspan
             style="fill:#555555;fill-opacity:1;fill-rule:nonzero;stroke:none;font-family:Nimbus Roman No9 L;font-variant:normal;font-size:9.96262;writing-mode:lr;-inkscape-font-specification:NimbusRomNo9L-Regu"
             x="0"
             y="0"
             id="tspan268">0</tspan></text>
<text
           transform="matrix(1,0,0,-1,482.0615,21.270712)"
           id="text270"><tspan
             style="fill:#555555;fill-opacity:1;fill-rule:nonzero;stroke:none;font-family:Nimbus Roman No9 L;font-variant:normal;font-size:9.96262;writing-mode:lr;-inkscape-font-specification:NimbusRomNo9L-ReguItal"
             x="0"
             y="0"
             id="tspan272">U</tspan></text>
<text
           transform="matrix(1,0,0,-1,231.8265,5.9805125)"
           id="text274"><tspan
             style="fill:#555555;fill-opacity:1;fill-rule:nonzero;stroke:none;font-family:Nimbus Roman No9 L;font-variant:normal;font-size:11.9552;writing-mode:lr;-inkscape-font-specification:NimbusRomNo9L-Regu"
             x="0 6.60002083 9.9601876 15.71996505 27.23991208 31.92000155 37.92001373 43.20009512 48.4801765 54.48018868"
             y="0"
             sodipodi:role="line"
             id="tspan276">Flowspeed,</tspan></text>
<text
           transform="matrix(1,0,0,-1,292.1863,5.9805125)"
           id="text278"><tspan
             style="fill:#555555;fill-opacity:1;fill-rule:nonzero;stroke:none;font-family:Nimbus Roman No9 L;font-variant:normal;font-size:11.9552;writing-mode:lr;-inkscape-font-specification:NimbusRomNo9L-ReguItal"
             x="0"
             y="0"
             id="tspan280">u</tspan></text>
<text
           transform="matrix(1,0,0,-1,298.7863,5.9805125)"
           id="text282"><tspan
             style="fill:#555555;fill-opacity:1;fill-rule:nonzero;stroke:none;font-family:Nimbus Roman No9 L;font-variant:normal;font-size:11.9552;writing-mode:lr;-inkscape-font-specification:NimbusRomNo9L-Regu"
             x="0"
             y="0"
             id="tspan284">(</tspan></text>
<text
           transform="matrix(1,0,0,-1,303.5863,5.9805125)"
           id="text286"><tspan
             style="fill:#555555;fill-opacity:1;fill-rule:nonzero;stroke:none;font-family:rntxmi;font-variant:normal;font-weight:normal;font-size:11.9552;writing-mode:lr;-inkscape-font-specification:rntxmi"
             x="0"
             y="0"
             id="tspan288">y</tspan></text>
<text
           transform="matrix(1,0,0,-1,309.34646,5.9805125)"
           id="text290"><tspan
             style="fill:#555555;fill-opacity:1;fill-rule:nonzero;stroke:none;font-family:rtxmi;font-variant:normal;font-weight:normal;font-size:11.9552;writing-mode:lr;-inkscape-font-specification:rtxmi"
             x="0"
             y="0"
             id="tspan292">,</tspan></text>
<text
           transform="matrix(1,0,0,-1,313.54646,5.9805125)"
           id="text294"><tspan
             style="fill:#555555;fill-opacity:1;fill-rule:nonzero;stroke:none;font-family:Nimbus Roman No9 L;font-variant:normal;font-size:11.9552;writing-mode:lr;-inkscape-font-specification:NimbusRomNo9L-ReguItal"
             x="0"
             y="0"
             id="tspan296">t</tspan></text>
<text
           transform="matrix(1,0,0,-1,317.86638,5.9805125)"
           id="text298"><tspan
             style="fill:#555555;fill-opacity:1;fill-rule:nonzero;stroke:none;font-family:Nimbus Roman No9 L;font-variant:normal;font-size:11.9552;writing-mode:lr;-inkscape-font-specification:NimbusRomNo9L-Regu"
             x="0"
             y="0"
             id="tspan300">)</tspan></text>
<text
           transform="matrix(1,0,0,-1,54.53838,33.738313)"
           id="text302"><tspan
             style="fill:#555555;fill-opacity:1;fill-rule:nonzero;stroke:none;font-family:Nimbus Roman No9 L;font-variant:normal;font-size:9.96262;writing-mode:lr;-inkscape-font-specification:NimbusRomNo9L-Regu"
             x="0"
             y="0"
             id="tspan304">0</tspan></text>
<text
           transform="matrix(1,0,0,-1,45.47315,177.69431)"
           id="text306"><tspan
             style="fill:#555555;fill-opacity:1;fill-rule:nonzero;stroke:none;font-family:Nimbus Roman No9 L;font-variant:normal;font-size:9.96262;writing-mode:lr;-inkscape-font-specification:NimbusRomNo9L-ReguItal"
             x="0"
             y="0"
             id="tspan308">h</tspan></text>
<text
           transform="matrix(1,0,0,-1,50.63331,177.69431)"
           id="text310"><tspan
             style="fill:#555555;fill-opacity:1;fill-rule:nonzero;stroke:none;font-family:rtxmi;font-variant:normal;font-weight:normal;font-size:9.96262;writing-mode:lr;-inkscape-font-specification:rtxmi"
             x="0"
             y="0"
             id="tspan312">/</tspan></text>
<text
           transform="matrix(1,0,0,-1,55.07354,177.69431)"
           id="text314"><tspan
             style="fill:#555555;fill-opacity:1;fill-rule:nonzero;stroke:none;font-family:Nimbus Roman No9 L;font-variant:normal;font-size:9.96262;writing-mode:lr;-inkscape-font-specification:NimbusRomNo9L-Regu"
             x="0"
             y="0"
             id="tspan316">2</tspan></text>
<text
           transform="matrix(1,0,0,-1,54.898149,321.77331)"
           id="text318"><tspan
             style="fill:#555555;fill-opacity:1;fill-rule:nonzero;stroke:none;font-family:Nimbus Roman No9 L;font-variant:normal;font-size:9.96262;writing-mode:lr;-inkscape-font-specification:NimbusRomNo9L-ReguItal"
             x="0"
             y="0"
             id="tspan320">h</tspan></text>
<text
           transform="matrix(0,1,1,0,34.8918,154.4)"
           id="text322"><tspan
             style="fill:#555555;fill-opacity:1;fill-rule:nonzero;stroke:none;font-family:rntxmi;font-variant:normal;font-weight:normal;font-size:11.9552;writing-mode:lr;-inkscape-font-specification:rntxmi"
             x="0"
             y="0"
             id="tspan324">y</tspan></text>
<text
           transform="matrix(0,1,1,0,34.8918,163.16016)"
           id="text326"><tspan
             style="fill:#555555;fill-opacity:1;fill-rule:nonzero;stroke:none;font-family:Nimbus Roman No9 L;font-variant:normal;font-size:11.9552;writing-mode:lr;-inkscape-font-specification:NimbusRomNo9L-Regu"
             x="0 6.00001217 12.00002435 16.68011382 20.04028059 23.40044736 26.76061413 32.7606263"
             y="0"
             sodipodi:role="line"
             id="tspan328">position</tspan></text>
</g><text
         xml:space="preserve"
         style="font-size:320px;font-style:normal;font-weight:normal;line-height:125%;letter-spacing:0px;word-spacing:0px;fill:#000000;fill-opacity:1;stroke:none;font-family:Sans"
         x="3878.7578"
         y="-2816.3403"
         id="text3391"
         sodipodi:linespacing="125%"
         transform="scale(1,-1)"><tspan
           sodipodi:role="line"
           x="3878.7578"
           y="-2816.3403"
           style="font-size:96px"
           id="tspan3397">$t=h^2 / 100\pi\nu$</tspan></text>
<text
         transform="scale(1,-1)"
         sodipodi:linespacing="125%"
         id="text3424"
         y="-2640.3403"
         x="3878.7578"
         style="font-size:320px;font-style:normal;font-weight:normal;line-height:125%;letter-spacing:0px;word-spacing:0px;fill:#000000;fill-opacity:1;stroke:none;font-family:Sans"
         xml:space="preserve"><tspan
           id="tspan3426"
           style="font-size:96px"
           y="-2640.3403"
           x="3878.7578"
           sodipodi:role="line">$t=h^2 / 10\pi\nu$</tspan></text>
<text
         xml:space="preserve"
         style="font-size:320px;font-style:normal;font-weight:normal;line-height:125%;letter-spacing:0px;word-spacing:0px;fill:#000000;fill-opacity:1;stroke:none;font-family:Sans"
         x="3878.7578"
         y="-2460.0271"
         id="text3428"
         sodipodi:linespacing="125%"
         transform="scale(1,-1)"><tspan
           sodipodi:role="line"
           x="3878.7578"
           y="-2460.0271"
           style="font-size:96px"
           id="tspan3430">$t=h^2 / \pi\nu$</tspan></text>
<text
         transform="scale(1,-1)"
         sodipodi:linespacing="125%"
         id="text3432"
         y="-2289.7781"
         x="3878.7578"
         style="font-size:320px;font-style:normal;font-weight:normal;line-height:125%;letter-spacing:0px;word-spacing:0px;fill:#000000;fill-opacity:1;stroke:none;font-family:Sans"
         xml:space="preserve"><tspan
           id="tspan3434"
           style="font-size:96px"
           y="-2289.7781"
           x="3878.7578"
           sodipodi:role="line">$t\to\infty$</tspan></text>
</g></g></svg>