<?xml version="1.0" encoding="UTF-8" standalone="no"?>
<!-- Created with Inkscape (http://www.inkscape.org/) -->

<svg
   xmlns:dc="http://purl.org/dc/elements/1.1/"
   xmlns:cc="http://creativecommons.org/ns#"
   xmlns:rdf="http://www.w3.org/1999/02/22-rdf-syntax-ns#"
   xmlns:svg="http://www.w3.org/2000/svg"
   xmlns="http://www.w3.org/2000/svg"
   xmlns:sodipodi="http://sodipodi.sourceforge.net/DTD/sodipodi-0.dtd"
   xmlns:inkscape="http://www.inkscape.org/namespaces/inkscape"
   width="744.09448819"
   height="1052.3622047"
   id="svg7473"
   version="1.1"
   inkscape:version="0.48.4 r9939"
   sodipodi:docname="flow_past_cylinder.svg">
  <sodipodi:namedview
     id="base"
     pagecolor="#ffffff"
     bordercolor="#666666"
     borderopacity="1.0"
     inkscape:pageopacity="0.0"
     inkscape:pageshadow="2"
     inkscape:zoom="2.8"
     inkscape:cx="249.10015"
     inkscape:cy="803.20469"
     inkscape:document-units="px"
     inkscape:current-layer="layer1"
     showgrid="false"
     inkscape:window-width="1600"
     inkscape:window-height="850"
     inkscape:window-x="0"
     inkscape:window-y="0"
     inkscape:window-maximized="1" />
  <defs
     id="defs7475">
    <marker
       style="overflow:visible;"
       id="Arrow1Lend"
       refX="0.0"
       refY="0.0"
       orient="auto"
       inkscape:stockid="Arrow1Lend">
      <path
         transform="scale(0.8) rotate(180) translate(12.5,0)"
         style="fill-rule:evenodd;stroke:#000000;stroke-width:1.0pt;"
         d="M 0.0,0.0 L 5.0,-5.0 L -12.5,0.0 L 5.0,5.0 L 0.0,0.0 z "
         id="path4053" />
    </marker>
    <marker
       style="overflow:visible"
       id="Arrow1Lstart"
       refX="0.0"
       refY="0.0"
       orient="auto"
       inkscape:stockid="Arrow1Lstart">
      <path
         transform="scale(0.8) translate(12.5,0)"
         style="fill-rule:evenodd;stroke:#000000;stroke-width:1.0pt"
         d="M 0.0,0.0 L 5.0,-5.0 L -12.5,0.0 L 5.0,5.0 L 0.0,0.0 z "
         id="path4050" />
    </marker>
    <marker
       style="overflow:visible"
       id="Arrow2Lstart"
       refX="0.0"
       refY="0.0"
       orient="auto"
       inkscape:stockid="Arrow2Lstart">
      <path
         transform="scale(1.1) translate(1,0)"
         d="M 8.7185878,4.0337352 L -2.2072895,0.016013256 L 8.7185884,-4.0017078 C 6.9730900,-1.6296469 6.9831476,1.6157441 8.7185878,4.0337352 z "
         style="fill-rule:evenodd;stroke-width:0.62500000;stroke-linejoin:round"
         id="path4068" />
    </marker>
    <marker
       inkscape:stockid="Arrow2Lend"
       orient="auto"
       refY="0"
       refX="0"
       id="Arrow2Lend"
       style="overflow:visible">
      <path
         id="path4071"
         style="fill-rule:evenodd;stroke-width:0.625;stroke-linejoin:round"
         d="M 8.7185878,4.0337352 -2.2072895,0.01601326 8.7185884,-4.0017078 c -1.7454984,2.3720609 -1.7354408,5.6174519 -6e-7,8.035443 z"
         transform="matrix(-1.1,0,0,-1.1,-1.1,0)"
         inkscape:connector-curvature="0" />
    </marker>
    <marker
       inkscape:stockid="Arrow2Lend"
       orient="auto"
       refY="0"
       refX="0"
       id="marker7428"
       style="overflow:visible">
      <path
         id="path7430"
         style="fill-rule:evenodd;stroke-width:0.625;stroke-linejoin:round"
         d="M 8.7185878,4.0337352 -2.2072895,0.01601326 8.7185884,-4.0017078 c -1.7454984,2.3720609 -1.7354408,5.6174519 -6e-7,8.035443 z"
         transform="matrix(-1.1,0,0,-1.1,-1.1,0)"
         inkscape:connector-curvature="0" />
    </marker>
    <marker
       inkscape:stockid="Arrow2Lend"
       orient="auto"
       refY="0"
       refX="0"
       id="marker7432"
       style="overflow:visible">
      <path
         id="path7434"
         style="fill-rule:evenodd;stroke-width:0.625;stroke-linejoin:round"
         d="M 8.7185878,4.0337352 -2.2072895,0.01601326 8.7185884,-4.0017078 c -1.7454984,2.3720609 -1.7354408,5.6174519 -6e-7,8.035443 z"
         transform="matrix(-1.1,0,0,-1.1,-1.1,0)"
         inkscape:connector-curvature="0" />
    </marker>
    <marker
       inkscape:stockid="Arrow2Lend"
       orient="auto"
       refY="0"
       refX="0"
       id="marker7436"
       style="overflow:visible">
      <path
         id="path7438"
         style="fill-rule:evenodd;stroke-width:0.625;stroke-linejoin:round"
         d="M 8.7185878,4.0337352 -2.2072895,0.01601326 8.7185884,-4.0017078 c -1.7454984,2.3720609 -1.7354408,5.6174519 -6e-7,8.035443 z"
         transform="matrix(-1.1,0,0,-1.1,-1.1,0)"
         inkscape:connector-curvature="0" />
    </marker>
    <marker
       inkscape:stockid="TriangleOutM"
       orient="auto"
       refY="0"
       refX="0"
       id="TriangleOutM"
       style="overflow:visible">
      <path
         id="path4195"
         d="m 5.77,0 -8.65,5 0,-10 8.65,5 z"
         style="fill-rule:evenodd;stroke:#000000;stroke-width:1pt"
         transform="scale(0.4,0.4)"
         inkscape:connector-curvature="0" />
    </marker>
    <marker
       inkscape:stockid="Arrow2Lend"
       orient="auto"
       refY="0"
       refX="0"
       id="Arrow2Lend-2"
       style="overflow:visible">
      <path
         id="path4071-2"
         style="fill-rule:evenodd;stroke-width:0.625;stroke-linejoin:round"
         d="M 8.7185878,4.0337352 -2.2072895,0.01601326 8.7185884,-4.0017078 c -1.7454984,2.3720609 -1.7354408,5.6174519 -6e-7,8.035443 z"
         transform="matrix(-1.1,0,0,-1.1,-1.1,0)"
         inkscape:connector-curvature="0" />
    </marker>
    <marker
       inkscape:stockid="Arrow2Lend"
       orient="auto"
       refY="0"
       refX="0"
       id="Arrow2Lend-6"
       style="overflow:visible">
      <path
         id="path4071-8"
         style="fill-rule:evenodd;stroke-width:0.625;stroke-linejoin:round"
         d="M 8.7185878,4.0337352 -2.2072895,0.01601326 8.7185884,-4.0017078 c -1.7454984,2.3720609 -1.7354408,5.6174519 -6e-7,8.035443 z"
         transform="matrix(-1.1,0,0,-1.1,-1.1,0)"
         inkscape:connector-curvature="0" />
    </marker>
    <marker
       inkscape:stockid="Arrow2Lend"
       orient="auto"
       refY="0"
       refX="0"
       id="Arrow2Lend-7"
       style="overflow:visible">
      <path
         id="path4071-6"
         style="fill-rule:evenodd;stroke-width:0.625;stroke-linejoin:round"
         d="M 8.7185878,4.0337352 -2.2072895,0.01601326 8.7185884,-4.0017078 c -1.7454984,2.3720609 -1.7354408,5.6174519 -6e-7,8.035443 z"
         transform="matrix(-1.1,0,0,-1.1,-1.1,0)"
         inkscape:connector-curvature="0" />
    </marker>
    <marker
       inkscape:stockid="Arrow2Lend"
       orient="auto"
       refY="0"
       refX="0"
       id="Arrow2Lend-9"
       style="overflow:visible">
      <path
         id="path4071-27"
         style="fill-rule:evenodd;stroke-width:0.625;stroke-linejoin:round"
         d="M 8.7185878,4.0337352 -2.2072895,0.01601326 8.7185884,-4.0017078 c -1.7454984,2.3720609 -1.7354408,5.6174519 -6e-7,8.035443 z"
         transform="matrix(-1.1,0,0,-1.1,-1.1,0)"
         inkscape:connector-curvature="0" />
    </marker>
    <marker
       style="overflow:visible"
       id="Arrow1Lend-4"
       refX="0"
       refY="0"
       orient="auto"
       inkscape:stockid="Arrow1Lend">
      <path
         inkscape:connector-curvature="0"
         transform="matrix(-0.8,0,0,-0.8,-10,0)"
         style="fill-rule:evenodd;stroke:#000000;stroke-width:1pt"
         d="M 0,0 5,-5 -12.5,0 5,5 0,0 z"
         id="path4053-3" />
    </marker>
    <marker
       style="overflow:visible"
       id="Arrow1Lend-2"
       refX="0"
       refY="0"
       orient="auto"
       inkscape:stockid="Arrow1Lend">
      <path
         inkscape:connector-curvature="0"
         transform="matrix(-0.8,0,0,-0.8,-10,0)"
         style="fill-rule:evenodd;stroke:#000000;stroke-width:1pt"
         d="M 0,0 5,-5 -12.5,0 5,5 0,0 z"
         id="path4053-33" />
    </marker>
    <marker
       style="overflow:visible;"
       id="Arrow1Lendm"
       refX="0.0"
       refY="0.0"
       orient="auto"
       inkscape:stockid="Arrow1Lendm">
      <path
         transform="scale(0.8) rotate(180) translate(12.5,0)"
         style="stroke:#0088aa;stroke-width:1.0pt;fill:#0088aa;fill-rule:evenodd"
         d="M 0.0,0.0 L 5.0,-5.0 L -12.5,0.0 L 5.0,5.0 L 0.0,0.0 z "
         id="path10232" />
    </marker>
    <marker
       style="overflow:visible;"
       id="Arrow1LendH"
       refX="0.0"
       refY="0.0"
       orient="auto"
       inkscape:stockid="Arrow1LendH">
      <path
         transform="scale(0.8) rotate(180) translate(12.5,0)"
         style="stroke:#0088aa;stroke-width:1.0pt;fill:#0088aa;fill-rule:evenodd"
         d="M 0.0,0.0 L 5.0,-5.0 L -12.5,0.0 L 5.0,5.0 L 0.0,0.0 z "
         id="path10347" />
    </marker>
    <marker
       inkscape:stockid="Arrow2Lend-98"
       orient="auto"
       refY="0"
       refX="0"
       id="Arrow2Lend-98"
       style="overflow:visible">
      <path
         id="path6536"
         style="stroke-linejoin:round;stroke:#0088aa;stroke-width:0.625;fill:#0088aa;fill-rule:evenodd"
         d="M 8.7185878,4.0337352 -2.2072895,0.01601326 8.7185884,-4.0017078 c -1.7454984,2.3720609 -1.7354408,5.6174519 -6e-7,8.035443 z"
         transform="matrix(-1.1,0,0,-1.1,-1.1,0)"
         inkscape:connector-curvature="0" />
    </marker>
    <marker
       inkscape:stockid="Arrow2Lend-9M"
       orient="auto"
       refY="0"
       refX="0"
       id="Arrow2Lend-9M"
       style="overflow:visible">
      <path
         id="path6539"
         style="stroke-linejoin:round;stroke:#0088aa;stroke-width:0.625;fill:#0088aa;fill-rule:evenodd"
         d="M 8.7185878,4.0337352 -2.2072895,0.01601326 8.7185884,-4.0017078 c -1.7454984,2.3720609 -1.7354408,5.6174519 -6e-7,8.035443 z"
         transform="matrix(-1.1,0,0,-1.1,-1.1,0)"
         inkscape:connector-curvature="0" />
    </marker>
  </defs>
  <metadata
     id="metadata7478">
    <rdf:RDF>
      <cc:Work
         rdf:about="">
        <dc:format>image/svg+xml</dc:format>
        <dc:type
           rdf:resource="http://purl.org/dc/dcmitype/StillImage" />
        <dc:title />
      </cc:Work>
    </rdf:RDF>
  </metadata>
  <g
     id="layer1"
     inkscape:groupmode="layer"
     inkscape:label="Layer 1">
    <path
       sodipodi:nodetypes="ccc"
       style="fill:none;stroke:#0088aa;stroke-width:1.77503943;stroke-linecap:butt;stroke-linejoin:miter;stroke-miterlimit:4;stroke-opacity:1;stroke-dasharray:none;marker-mid:url(#Arrow2Lend-98)"
       d="m 62.951037,271.026 89.533633,-16.1691 88.75566,-18.99496"
       id="path7637-1-4"
       inkscape:connector-curvature="0" />
    <path
       sodipodi:nodetypes="ccc"
       style="fill:none;stroke:#0088aa;stroke-width:1.77503943;stroke-linecap:butt;stroke-linejoin:miter;stroke-miterlimit:4;stroke-opacity:1;stroke-dasharray:none;marker-mid:url(#Arrow2Lend-9M)"
       d="m 407.65761,208.85705 94.1745,-17.8567 85.90786,-15.51431"
       id="path7637"
       inkscape:connector-curvature="0" />
    <path
       transform="matrix(0.8353127,0,0,0.8353127,55.425521,28.410126)"
       d="m 443.57143,233.25504 a 123.92857,38.035713 0 1 1 -247.85715,0 123.92857,38.035713 0 1 1 247.85715,0 z"
       sodipodi:ry="38.035713"
       sodipodi:rx="123.92857"
       sodipodi:cy="233.25504"
       sodipodi:cx="319.64285"
       id="path7570"
       style="fill:#808080;fill-opacity:1;stroke:none"
       sodipodi:type="arc" />
    <path
       inkscape:connector-curvature="0"
       id="path9029"
       d="m 321.9279,126.55671 c 0,2.10948 0,194.07245 0,194.07245"
       style="fill:none;stroke:#000000;stroke-width:1.56621134;stroke-linecap:butt;stroke-linejoin:miter;stroke-miterlimit:4;stroke-opacity:1;stroke-dasharray:none" />
    <path
       style="fill:none;stroke:#000000;stroke-width:1.56621146;stroke-linecap:butt;stroke-linejoin:miter;stroke-miterlimit:4;stroke-opacity:1;stroke-dasharray:none"
       d="m 587.72278,223.59293 c -5.70478,0 -524.839406,1e-5 -524.839406,1e-5"
       id="path9049"
       inkscape:connector-curvature="0" />
    <path
       inkscape:connector-curvature="0"
       id="path9301"
       d="m 103.90349,213.01844 c 0,0 4.47489,1.78996 4.62405,5.2207 0.14917,3.43075 -1.49163,5.36987 -1.49163,5.36987"
       style="fill:none;stroke:#000000;stroke-width:0.83531272px;stroke-linecap:butt;stroke-linejoin:miter;stroke-opacity:1" />
    <path
       sodipodi:type="arc"
       style="fill:#000000;fill-opacity:1;stroke:none"
       id="path9386"
       sodipodi:cx="228.57143"
       sodipodi:cy="218.43361"
       sodipodi:rx="2.5753937"
       sodipodi:ry="2.5753937"
       d="m 231.14682,218.43361 a 2.5753937,2.5753937 0 1 1 -5.15079,0 2.5753937,2.5753937 0 1 1 5.15079,0 z"
       transform="matrix(0.8353127,0,0,0.8353127,69.029185,40.999481)" />
    <path
       transform="matrix(0.8353127,0,0,0.8353127,195.99671,40.999481)"
       d="m 231.14682,218.43361 a 2.5753937,2.5753937 0 1 1 -5.15079,0 2.5753937,2.5753937 0 1 1 5.15079,0 z"
       sodipodi:ry="2.5753937"
       sodipodi:rx="2.5753937"
       sodipodi:cy="218.43361"
       sodipodi:cx="228.57143"
       id="path9406"
       style="fill:#000000;fill-opacity:1;stroke:none"
       sodipodi:type="arc" />
    <path
       inkscape:connector-curvature="0"
       id="path3911-7-1"
       d="M 62.656627,257.11783 C 117.4304,247.0106 170.03323,227.99495 220.55281,204.85305 c 35.53426,-16.44306 75.11258,-21.48945 113.91417,-18.64162 85.25446,3.59461 169.63761,-9.06799 253.41153,-23.29554"
       style="fill:none;stroke:#0088aa;stroke-width:1.77503943;stroke-linecap:butt;stroke-linejoin:miter;stroke-miterlimit:4;stroke-opacity:1;stroke-dasharray:none;marker-mid:none" />
    <path
       inkscape:connector-curvature="0"
       id="path3911-7-1-1"
       d="M 62.751642,242.61248 C 120.34502,230.30345 174.96491,208.0752 228.82541,184.806 c 59.86295,-24.17206 125.15876,-8.98611 187.61705,-14.97752 57.5412,-3.38393 114.39691,-13.477 171.3863,-21.59268"
       style="fill:none;stroke:#0088aa;stroke-width:1.77503943;stroke-linecap:butt;stroke-linejoin:miter;stroke-miterlimit:4;stroke-opacity:1;stroke-dasharray:none;marker-mid:none" />
    <path
       inkscape:connector-curvature="0"
       id="path7663"
       d="m 587.49272,190.01709 c -58.85119,11.85423 -115.54755,31.96847 -170.98002,54.6787 -35.4494,14.69869 -74.18645,17.3845 -112.11338,15.38082 -80.84323,-1.29452 -161.16204,9.2378 -240.777593,22.22167"
       style="fill:none;stroke:#0088aa;stroke-width:1.77503943;stroke-linecap:butt;stroke-linejoin:miter;stroke-miterlimit:4;stroke-opacity:1;stroke-dasharray:none;marker-mid:none" />
    <path
       inkscape:connector-curvature="0"
       id="path7665"
       d="m 587.11078,206.01293 c -65.27608,13.08229 -126.70652,39.43708 -189.21929,61.40778 -56.20219,14.99593 -114.76483,3.63515 -171.93127,9.64705 -54.76442,3.43305 -109.19544,10.86057 -163.317086,19.73474"
       style="fill:none;stroke:#0088aa;stroke-width:1.77503943;stroke-linecap:butt;stroke-linejoin:miter;stroke-miterlimit:4;stroke-opacity:1;stroke-dasharray:none;marker-mid:none" />
    <path
       inkscape:connector-curvature="0"
       id="path3911-7-1-1-9"
       d="m 62.798428,223.47798 c 93.426482,-17.58235 177.294512,-78.47959 275.090112,-72.83966 83.70188,5.70192 167.64249,-8.01769 249.98701,-21.53703"
       style="fill:none;stroke:#0088aa;stroke-width:1.77503943;stroke-linecap:butt;stroke-linejoin:miter;stroke-miterlimit:4;stroke-opacity:1;stroke-dasharray:none;marker-mid:none" />
    <path
       style="fill:none;stroke:#0088aa;stroke-width:1.77503943;stroke-linecap:butt;stroke-linejoin:miter;stroke-miterlimit:4;stroke-opacity:1;stroke-dasharray:none;marker-mid:none"
       d="m 588.71935,219.82602 c -88.88818,16.72205 -168.0436,72.28026 -260.34275,72.94429 -88.74483,-5.76235 -177.52175,5.96123 -264.734382,21.43241"
       id="path3911-7-1-1-9-1"
       inkscape:connector-curvature="0" />
    <text
       xml:space="preserve"
       style="font-size:12px;font-style:normal;font-variant:normal;font-weight:normal;font-stretch:normal;text-align:start;line-height:125%;letter-spacing:0px;word-spacing:0px;writing-mode:lr-tb;text-anchor:start;fill:#000000;fill-opacity:1;stroke:none;font-family:TG Pagella Math;-inkscape-font-specification:TG Pagella Math"
       x="109.64285"
       y="220.21935"
       id="text6624"
       sodipodi:linespacing="125%"><tspan
         sodipodi:role="line"
         id="tspan6626"
         x="109.64285"
         y="220.21935">$\alpha$</tspan></text>
    <text
       xml:space="preserve"
       style="font-size:12px;font-style:normal;font-variant:normal;font-weight:normal;font-stretch:normal;text-align:start;line-height:125%;letter-spacing:0px;word-spacing:0px;writing-mode:lr-tb;text-anchor:start;fill:#000000;fill-opacity:1;stroke:none;font-family:TG Pagella Math;-inkscape-font-specification:TG Pagella Math"
       x="257.85715"
       y="233.79076"
       id="text6628"
       sodipodi:linespacing="125%"><tspan
         sodipodi:role="line"
         id="tspan6630"
         x="257.85715"
         y="233.79076">$-a$</tspan></text>
    <text
       xml:space="preserve"
       style="font-size:12px;font-style:normal;font-variant:normal;font-weight:normal;font-stretch:normal;text-align:start;line-height:125%;letter-spacing:0px;word-spacing:0px;writing-mode:lr-tb;text-anchor:start;fill:#000000;fill-opacity:1;stroke:none;font-family:TG Pagella Math;-inkscape-font-specification:TG Pagella Math"
       x="384.64285"
       y="236.29077"
       id="text6632"
       sodipodi:linespacing="125%"><tspan
         sodipodi:role="line"
         id="tspan6634"
         x="384.64285"
         y="236.29077">$a$</tspan></text>
  </g>
</svg>
