<?xml version="1.0" encoding="UTF-8" standalone="no"?>
<!-- Created with Inkscape (http://www.inkscape.org/) -->

<svg
   xmlns:dc="http://purl.org/dc/elements/1.1/"
   xmlns:cc="http://creativecommons.org/ns#"
   xmlns:rdf="http://www.w3.org/1999/02/22-rdf-syntax-ns#"
   xmlns:svg="http://www.w3.org/2000/svg"
   xmlns="http://www.w3.org/2000/svg"
   xmlns:sodipodi="http://sodipodi.sourceforge.net/DTD/sodipodi-0.dtd"
   xmlns:inkscape="http://www.inkscape.org/namespaces/inkscape"
   id="svg4121"
   version="1.1"
   inkscape:version="0.48.4 r9939"
   width="1139.525"
   height="582.75"
   xml:space="preserve"
   sodipodi:docname="method_of_images_line_vortex.eps"><metadata
     id="metadata4127"><rdf:RDF><cc:Work
         rdf:about=""><dc:format>image/svg+xml</dc:format><dc:type
           rdf:resource="http://purl.org/dc/dcmitype/StillImage" /><dc:title></dc:title></cc:Work></rdf:RDF></metadata><defs
     id="defs4125" /><sodipodi:namedview
     pagecolor="#ffffff"
     bordercolor="#666666"
     borderopacity="1"
     objecttolerance="10"
     gridtolerance="10"
     guidetolerance="10"
     inkscape:pageopacity="0"
     inkscape:pageshadow="2"
     inkscape:window-width="1920"
     inkscape:window-height="1018"
     id="namedview4123"
     showgrid="false"
     inkscape:zoom="1.063601"
     inkscape:cx="508.62283"
     inkscape:cy="234.98774"
     inkscape:window-x="-8"
     inkscape:window-y="5"
     inkscape:window-maximized="1"
     inkscape:current-layer="g4129" /><g
     id="g4129"
     inkscape:groupmode="layer"
     inkscape:label="ink_ext_XXXXXX"
     transform="matrix(1.25,0,0,-1.25,0,582.75)"><path
       inkscape:connector-curvature="0"
       id="path4133"
       style="fill:none;stroke:#267c38;stroke-width:5;stroke-linecap:butt;stroke-linejoin:miter;stroke-miterlimit:4;stroke-opacity:1;stroke-dasharray:none"
       d="m 454.617,238.344 c 0,-93.701 -78.36,-169.6639 -175.019,-169.6639 -96.662,0 -175.021,75.9629 -175.021,169.6639 0,93.702 78.359,169.661 175.021,169.661 96.659,0 175.019,-75.959 175.019,-169.661 l 0,0 z" /><path
       inkscape:connector-curvature="0"
       id="path4135"
       style="fill:none;stroke:#267c38;stroke-width:5;stroke-linecap:butt;stroke-linejoin:miter;stroke-miterlimit:4;stroke-opacity:1;stroke-dasharray:none"
       d="m 410.405,238.344 c 0,-70.031 -58.565,-126.805 -130.807,-126.805 -72.245,0 -130.809,56.774 -130.809,126.805 0,70.031 58.564,126.803 130.809,126.803 72.242,0 130.807,-56.772 130.807,-126.803 l 0,0 z" /><path
       inkscape:connector-curvature="0"
       id="path4137"
       style="fill:none;stroke:#267c38;stroke-width:5;stroke-linecap:butt;stroke-linejoin:miter;stroke-miterlimit:4;stroke-opacity:1;stroke-dasharray:none"
       d="m 363.221,238.342 c 0,-45.236 -37.828,-81.906 -84.492,-81.906 -46.665,0 -84.494,36.67 -84.494,81.906 0,45.238 37.829,81.907 84.494,81.907 46.664,0 84.492,-36.669 84.492,-81.907 l 0,0 z" /><path
       inkscape:connector-curvature="0"
       id="path4139"
       style="fill:none;stroke:#ed1d24;stroke-width:5;stroke-linecap:butt;stroke-linejoin:miter;stroke-miterlimit:4;stroke-opacity:1;stroke-dasharray:none"
       d="m 805.858,238.202 c 0,-93.702 -78.359,-169.6649 -175.019,-169.6649 -96.662,0 -175.022,75.9629 -175.022,169.6649 0,93.7 78.36,169.659 175.022,169.659 96.66,0 175.019,-75.959 175.019,-169.659 l 0,0 z" /><path
       inkscape:connector-curvature="0"
       id="path4141"
       style="fill:none;stroke:#ed1d24;stroke-width:5;stroke-linecap:butt;stroke-linejoin:miter;stroke-miterlimit:4;stroke-opacity:1;stroke-dasharray:none"
       d="m 761.646,238.202 c 0,-70.034 -58.565,-126.805 -130.807,-126.805 -72.244,0 -130.809,56.771 -130.809,126.805 0,70.029 58.565,126.802 130.809,126.802 72.242,0 130.807,-56.773 130.807,-126.802 l 0,0 z" /><path
       inkscape:connector-curvature="0"
       id="path4143"
       style="fill:none;stroke:#ed1d24;stroke-width:5;stroke-linecap:butt;stroke-linejoin:miter;stroke-miterlimit:4;stroke-opacity:1;stroke-dasharray:none"
       d="m 714.462,238.2 c 0,-45.237 -37.828,-81.907 -84.492,-81.907 -46.664,0 -84.494,36.67 -84.494,81.907 0,45.236 37.83,81.906 84.494,81.906 46.664,0 84.492,-36.67 84.492,-81.906 l 0,0 z" /><path
       inkscape:connector-curvature="0"
       id="path4145"
       style="fill:none;stroke:#100f0d;stroke-width:3;stroke-linecap:butt;stroke-linejoin:miter;stroke-miterlimit:4;stroke-opacity:1;stroke-dasharray:none"
       d="m 455.2,8.61211 0,448.97889" /><path
       inkscape:connector-curvature="0"
       id="path4147"
       style="fill:#100f0d;fill-opacity:1;fill-rule:nonzero;stroke:none"
       d="M 461.184,10.3629 455.2,0 l -5.983,10.3629 11.967,0" /><path
       inkscape:connector-curvature="0"
       id="path4149"
       style="fill:#100f0d;fill-opacity:1;fill-rule:nonzero;stroke:none"
       d="m 461.184,455.84 -5.984,10.362 -5.983,-10.362 11.967,0" /><path
       inkscape:connector-curvature="0"
       id="path4151"
       style="fill:none;stroke:#100f0d;stroke-width:3;stroke-linecap:butt;stroke-linejoin:miter;stroke-miterlimit:4;stroke-opacity:1;stroke-dasharray:none"
       d="m 8.61133,237.119 894.39867,0" /><path
       inkscape:connector-curvature="0"
       id="path4153"
       style="fill:#100f0d;fill-opacity:1;fill-rule:nonzero;stroke:none"
       d="M 10.3621,231.136 0,237.119 l 10.3621,5.984 0,-11.967" /><path
       inkscape:connector-curvature="0"
       id="path4155"
       style="fill:#100f0d;fill-opacity:1;fill-rule:nonzero;stroke:none"
       d="m 901.259,231.136 10.362,5.983 -10.362,5.984 0,-11.967" /><path
       inkscape:connector-curvature="0"
       id="path4157"
       style="fill:#ed1d24;fill-opacity:1;fill-rule:nonzero;stroke:none"
       d="m 641.166,320.91 c -7.124,-2.568 -15.974,-6.98 -21.478,-11.69 l 4.411,11.849 -4.19,11.926 c 5.415,-4.811 14.182,-9.387 21.257,-12.085" /><path
       inkscape:connector-curvature="0"
       id="path4159"
       style="fill:#ed1d24;fill-opacity:1;fill-rule:nonzero;stroke:none"
       d="m 641.166,365.947 c -7.124,-2.569 -15.974,-6.981 -21.478,-11.691 l 4.411,11.849 -4.19,11.927 c 5.415,-4.812 14.182,-9.388 21.257,-12.085" /><path
       inkscape:connector-curvature="0"
       id="path4161"
       style="fill:#ed1d24;fill-opacity:1;fill-rule:nonzero;stroke:none"
       d="m 641.166,407.982 c -7.124,-2.569 -15.974,-6.981 -21.478,-11.691 l 4.411,11.849 -4.19,11.927 c 5.415,-4.812 14.182,-9.388 21.257,-12.085" /><path
       inkscape:connector-curvature="0"
       id="path4163"
       style="fill:#267c38;fill-opacity:1;fill-rule:nonzero;stroke:none"
       d="m 267.979,319.978 c 7.124,2.568 15.974,6.981 21.478,11.691 l -4.411,-11.849 4.19,-11.927 c -5.416,4.811 -14.182,9.388 -21.257,12.085" /><path
       inkscape:connector-curvature="0"
       id="path4165"
       style="fill:#267c38;fill-opacity:1;fill-rule:nonzero;stroke:none"
       d="m 267.979,365.012 c 7.124,2.568 15.974,6.981 21.478,11.691 l -4.411,-11.849 4.19,-11.927 c -5.416,4.812 -14.182,9.388 -21.257,12.085" /><path
       inkscape:connector-curvature="0"
       id="path4167"
       style="fill:#267c38;fill-opacity:1;fill-rule:nonzero;stroke:none"
       d="m 267.979,408.048 c 7.124,2.569 15.974,6.981 21.478,11.691 l -4.411,-11.849 4.19,-11.927 c -5.416,4.812 -14.182,9.388 -21.257,12.085" /><path
       inkscape:connector-curvature="0"
       id="path4169"
       style="fill:none;stroke:#100f0d;stroke-width:2;stroke-linecap:butt;stroke-linejoin:miter;stroke-miterlimit:4;stroke-opacity:1;stroke-dasharray:none"
       d="m 629.969,244.405 0,-14.333" /><g
       id="g4171"><text
         id="text4173"
         transform="matrix(1,0,0,-1,618.622,204.498)"><tspan
           id="tspan4175"
           y="0"
           x="0"
           style="font-size:31.33729935px;font-style:italic;font-variant:normal;writing-mode:lr-tb;fill:#231f20;fill-opacity:1;fill-rule:nonzero;stroke:none;font-family:Times New Roman;-inkscape-font-specification:TimesNewRomanPS-ItalicMT">d</tspan></text>
</g><path
       inkscape:connector-curvature="0"
       id="path4177"
       style="fill:none;stroke:#100f0d;stroke-width:2;stroke-linecap:butt;stroke-linejoin:miter;stroke-miterlimit:4;stroke-opacity:1;stroke-dasharray:none"
       d="m 278.728,240.405 0,-14.333" /><g
       id="g4179"><text
         id="text4181"
         transform="matrix(1,0,0,-1,267.381,202.5)"><tspan
           id="tspan4183"
           y="0"
           x="0"
           style="font-size:31.33729935px;font-style:italic;font-variant:normal;writing-mode:lr-tb;fill:#231f20;fill-opacity:1;fill-rule:nonzero;stroke:none;font-family:Times New Roman;-inkscape-font-specification:TimesNewRomanPS-ItalicMT">d</tspan></text>
</g><path
       inkscape:connector-curvature="0"
       id="path4185"
       style="fill:none;stroke:#100f0d;stroke-width:1.25;stroke-linecap:butt;stroke-linejoin:miter;stroke-miterlimit:4;stroke-opacity:1;stroke-dasharray:none"
       d="m 264.208,210.404 -11.084,0" /></g></svg>